<?xml version="1.0" encoding="UTF-8" standalone="no"?>
<!-- Created with Inkscape (http://www.inkscape.org/) -->
<svg
   xmlns:dc="http://purl.org/dc/elements/1.1/"
   xmlns:cc="http://creativecommons.org/ns#"
   xmlns:rdf="http://www.w3.org/1999/02/22-rdf-syntax-ns#"
   xmlns:svg="http://www.w3.org/2000/svg"
   xmlns="http://www.w3.org/2000/svg"
   xmlns:sodipodi="http://sodipodi.sourceforge.net/DTD/sodipodi-0.dtd"
   xmlns:inkscape="http://www.inkscape.org/namespaces/inkscape"
   id="svg2460"
   sodipodi:version="0.32"
   inkscape:version="0.46"
   width="500"
   height="700"
   version="1.0"
   sodipodi:docname="Bunny.svg"
   inkscape:output_extension="org.inkscape.output.svg.inkscape">
  <metadata
     id="metadata2465">
    <rdf:RDF>
      <cc:Work
         rdf:about="">
        <dc:format>image/svg+xml</dc:format>
        <dc:type
           rdf:resource="http://purl.org/dc/dcmitype/StillImage" />
      </cc:Work>
    </rdf:RDF>
  </metadata>
  <defs
     id="defs2463">
    <inkscape:perspective
       sodipodi:type="inkscape:persp3d"
       inkscape:vp_x="0 : 526.18109 : 1"
       inkscape:vp_y="0 : 1000 : 0"
       inkscape:vp_z="744.09448 : 526.18109 : 1"
       inkscape:persp3d-origin="372.04724 : 350.78739 : 1"
       id="perspective2467" />
  </defs>
  <sodipodi:namedview
     inkscape:window-height="968"
     inkscape:window-width="1280"
     inkscape:pageshadow="2"
     inkscape:pageopacity="0.0"
     guidetolerance="10.0"
     gridtolerance="10.0"
     objecttolerance="10.0"
     borderopacity="1.0"
     bordercolor="#666666"
     pagecolor="#ffffff"
     id="base"
     showgrid="false"
     inkscape:zoom="1.02222"
     inkscape:cx="193.16781"
     inkscape:cy="343.15607"
     inkscape:window-x="-4"
     inkscape:window-y="-4"
     inkscape:current-layer="svg2460" />
  <g
     id="g3486">
    <g
       transform="translate(-400.93043,-611.9464)"
       id="g3307">
      <path
         style="fill:#e2aa52;fill-opacity:1;fill-rule:evenodd;stroke:#000000;stroke-width:3;stroke-linecap:butt;stroke-linejoin:miter;stroke-miterlimit:4;stroke-dasharray:none;stroke-opacity:1"
         d="M 618.15625,1146.6562 C 604.95272,1147.0811 608.34721,1156.0798 597.375,1157.6562 C 597.37498,1157.6562 573.01248,1181.9752 571.90625,1195.25 C 570.80001,1208.5247 589.60633,1215.1751 594.03125,1216.2812 C 598.45619,1217.3875 611.73133,1219.5998 616.15625,1210.75 C 620.58116,1201.9001 667.06889,1177.5749 674.8125,1170.9375 C 676.7776,1169.2531 678.93622,1168.2627 681.09375,1167.75 C 672.30116,1166.07 665.15769,1164.4538 662.625,1163.1875 C 653.77519,1158.7625 638.28125,1153.2188 638.28125,1153.2188 C 638.28125,1153.2188 638.05825,1151.1221 637.90625,1149.6562 C 628.74871,1147.3315 622.53643,1146.5153 618.15625,1146.6562 z"
         id="path3260" />
      <path
         style="fill:none;fill-rule:evenodd;stroke:#000000;stroke-width:3;stroke-linecap:butt;stroke-linejoin:miter;stroke-miterlimit:4;stroke-dasharray:none;stroke-opacity:1"
         d="M 589.00188,1213.5419 C 589.00188,1213.5419 585.49069,1206.5195 592.51307,1198.6193 C 599.53545,1190.7191 605.68003,1188.9635 605.68003,1188.9635"
         id="path3280" />
      <path
         style="fill:none;fill-rule:evenodd;stroke:#000000;stroke-width:3;stroke-linecap:butt;stroke-linejoin:miter;stroke-miterlimit:4;stroke-dasharray:none;stroke-opacity:1"
         d="M 576.71272,1205.6417 C 576.71272,1205.6417 576.71272,1195.1081 583.7351,1189.8413 C 590.75748,1184.5746 596.02426,1179.3078 596.02426,1179.3078"
         id="path3278" />
    </g>
    <path
       transform="matrix(0.9779354,-0.5426415,0.5502266,0.9644541,-925.10812,-128.78194)"
       d="M 856.22191,1015.5022 A 16.040333,32.633781 0 1 1 824.14125,1015.5022 A 16.040333,32.633781 0 1 1 856.22191,1015.5022 z"
       sodipodi:ry="32.633781"
       sodipodi:rx="16.040333"
       sodipodi:cy="1015.5022"
       sodipodi:cx="840.18158"
       id="path3266"
       style="fill:#fff2b7;fill-opacity:1;fill-rule:evenodd;stroke:#000000;stroke-width:3;stroke-linecap:round;stroke-linejoin:round;stroke-miterlimit:4;stroke-dasharray:none;stroke-opacity:1"
       sodipodi:type="arc" />
    <g
       transform="translate(-400.93043,-611.9464)"
       id="g3345">
      <path
         style="fill:#e2aa52;fill-opacity:1;fill-rule:evenodd;stroke:#000000;stroke-width:3;stroke-linecap:butt;stroke-linejoin:miter;stroke-miterlimit:4;stroke-dasharray:none;stroke-opacity:1"
         d="M 712.53125,953.28125 C 708.49216,955.84043 703.99712,958.08008 699.25,960.03125 C 679.51684,976.72604 639.33252,1010.5524 632.75,1013.8438 C 623.90016,1018.2686 638.28126,1153.2188 638.28125,1153.2188 C 638.28125,1153.2188 653.77519,1158.7625 662.625,1163.1875 C 671.47484,1167.6124 735.65628,1176.4687 735.65625,1176.4688 C 760.12061,1183.0322 797.15629,1169.4181 819.71875,1162.0625 C 819.71875,1162.0625 816.40636,1204.1189 821.9375,1212.9688 C 827.46865,1221.8187 847.38147,1203.0061 860.65625,1194.1562 C 873.931,1185.3065 852.88766,1152.1123 862.84375,1142.1562 C 890.86683,1093.1159 871.24971,1037.1507 835.21875,1000.5625 C 799.46755,964.25837 747.18609,988.75161 712.53125,953.28125 z"
         id="path3255" />
      <path
         style="fill:none;fill-rule:evenodd;stroke:#000000;stroke-width:3;stroke-linecap:butt;stroke-linejoin:miter;stroke-miterlimit:4;stroke-dasharray:none;stroke-opacity:1"
         d="M 833.90729,1214.4197 C 825.61946,1205.3429 826.36418,1192.9777 831.27389,1185.4524"
         id="path3274"
         sodipodi:nodetypes="cc" />
      <path
         style="fill:none;fill-rule:evenodd;stroke:#000000;stroke-width:3;stroke-linecap:butt;stroke-linejoin:miter;stroke-miterlimit:4;stroke-dasharray:none;stroke-opacity:1"
         d="M 850.58543,1201.2527 C 846.75433,1194.9912 838.54455,1185.2041 845.31865,1178.43"
         id="path3276"
         sodipodi:nodetypes="cc" />
    </g>
    <g
       transform="translate(-400.93043,-611.9464)"
       id="g3325">
      <path
         style="fill:#e2aa52;fill-opacity:1;fill-rule:evenodd;stroke:#000000;stroke-width:3;stroke-linecap:butt;stroke-linejoin:miter;stroke-miterlimit:4;stroke-dasharray:none;stroke-opacity:1"
         d="M 493.375,690.625 C 463.75026,690.92901 440.33628,702.32327 412.6875,692.8125 C 459.1894,732.65101 495.12887,779.99097 536.59375,793.5 C 569.01532,804.06278 576.73213,820.25167 591.03125,834.125 C 600.00881,819.73976 614.4611,808.97712 633.28125,804 L 633.9375,802.34375 C 632.2143,804.75618 610.36128,736.76139 546.5625,703.875 C 526.13814,693.34684 508.89272,690.46576 493.375,690.625 z"
         id="path3262" />
      <path
         style="fill:#fff2b7;fill-opacity:1;fill-rule:evenodd;stroke:#000000;stroke-width:3;stroke-linecap:butt;stroke-linejoin:miter;stroke-miterlimit:4;stroke-dasharray:none;stroke-opacity:1"
         d="M 588.58711,829.99021 C 575.2992,778.58755 543.15847,738.70293 502.49194,721.30368 C 478.30213,711.72548 448.2593,716.0065 425.97132,700.56132 C 425.97132,700.56132 502.92722,771.26068 513.36348,775.78495 C 552.42224,792.71748 563.98746,795.94355 588.58711,829.99021 z"
         id="path3264"
         sodipodi:nodetypes="cccsc" />
    </g>
    <g
       id="g3470">
      <g
         id="g3329"
         transform="translate(-400.93043,-611.9464)">
        <path
           sodipodi:nodetypes="cccscsscscs"
           id="path2471"
           d="M 563.14383,916.27614 C 564.08397,890.49439 580.8435,879.77055 580.8435,879.77055 C 576.82502,833.61803 610.36003,797.30717 666.0232,801.22823 C 666.0232,801.22823 683.72288,712.72985 755.62782,667.37442 C 827.53276,622.019 829.74522,622.019 829.74522,622.019 C 829.74522,622.019 805.40816,693.92394 802.08947,720.47346 C 798.77078,747.02297 784.3898,784.63479 779.96488,793.48463 C 775.53996,802.33446 742.35306,825.56529 742.35306,825.56529 C 742.35306,825.56529 745.20808,903.68321 729.0783,936.18828 C 713.00442,968.58068 641.43986,974.53731 623.98647,969.37517 C 593.2384,963.95096 561.9584,948.78439 563.14383,916.27614 z"
           style="fill:#e2aa52;fill-opacity:1;fill-rule:evenodd;stroke:#000000;stroke-width:3;stroke-linecap:butt;stroke-linejoin:miter;stroke-miterlimit:4;stroke-dasharray:none;stroke-opacity:1" />
        <path
           sodipodi:nodetypes="ccccscc"
           id="path3253"
           d="M 726.86584,802.33446 C 718.10196,718.02831 761.46136,669.47353 814.258,639.71868 C 789.74998,683.68185 801.41648,784.11138 747.88421,807.86561 C 746.30613,805.99804 767.41515,781.71583 766.8345,779.32981 C 754.33272,791.03394 742.17639,806.16197 740.3023,803.14012 C 737.2808,798.26815 750.37088,767.44934 752.30913,758.08527 L 726.86584,802.33446 z"
           style="fill:#fff2b7;fill-opacity:1;fill-rule:evenodd;stroke:#000000;stroke-width:3;stroke-linecap:butt;stroke-linejoin:miter;stroke-miterlimit:4;stroke-dasharray:none;stroke-opacity:1" />
      </g>
      <g
         id="g3465">
        <path
           sodipodi:nodetypes="csss"
           id="path3247"
           d="M 178.80116,293.02856 C 178.80116,293.02856 184.33799,306.5422 193.18783,310.96712 C 202.03767,315.39204 215.93521,295.85243 215.93521,295.85243 C 216.44883,289.49848 179.66246,283.0692 178.80116,293.02856 z"
           style="fill:#ceaeae;fill-opacity:1;fill-rule:evenodd;stroke:#000000;stroke-width:3;stroke-linecap:butt;stroke-linejoin:miter;stroke-miterlimit:4;stroke-dasharray:none;stroke-opacity:1" />
        <path
           sodipodi:nodetypes="ccc"
           id="path3249"
           d="M 195.40029,310.96712 L 206.46259,340.83532 C 219.54879,350.77595 237.48847,355.69328 257.34916,336.41041"
           style="fill:none;fill-rule:evenodd;stroke:#000000;stroke-width:3;stroke-linecap:butt;stroke-linejoin:miter;stroke-miterlimit:4;stroke-dasharray:none;stroke-opacity:1" />
        <path
           sodipodi:nodetypes="cc"
           id="path3251"
           d="M 206.2199,340.83532 C 203.44654,350.03462 190.36383,341.35744 186.95023,338.13042"
           style="fill:none;fill-rule:evenodd;stroke:#000000;stroke-width:3;stroke-linecap:butt;stroke-linejoin:miter;stroke-miterlimit:4;stroke-dasharray:none;stroke-opacity:1" />
      </g>
      <g
         id="g3350"
         transform="translate(-400.93043,-611.9464)">
        <path
           sodipodi:nodetypes="cscc"
           id="path3243"
           d="M 645.00483,887.51416 C 653.17829,866.35251 684.35311,841.96333 687.04157,867.60202 C 689.34942,889.61098 682.18192,901.80315 679.29796,901.89515 C 675.19488,898.01748 672.04544,894.25902 645.00483,887.51416 z"
           style="fill:#000000;fill-opacity:1;fill-rule:evenodd;stroke:#000000;stroke-width:3;stroke-linecap:butt;stroke-linejoin:miter;stroke-miterlimit:4;stroke-dasharray:none;stroke-opacity:1" />
        <path
           transform="matrix(1.2698948,0,0,0.9725544,-182.69293,26.811806)"
           d="M 679.22511,863.94873 A 2.7655747,6.0842643 0 1 1 673.69396,863.94873 A 2.7655747,6.0842643 0 1 1 679.22511,863.94873 z"
           sodipodi:ry="6.0842643"
           sodipodi:rx="2.7655747"
           sodipodi:cy="863.94873"
           sodipodi:cx="676.45953"
           id="path3268"
           style="opacity:1;fill:#ffffff;fill-opacity:1;fill-rule:evenodd;stroke:#000000;stroke-width:3;stroke-linecap:round;stroke-linejoin:round;stroke-miterlimit:4;stroke-dasharray:none;stroke-opacity:1"
           sodipodi:type="arc" />
        <path
           transform="matrix(1.3289195,-0.157628,0.1177879,0.9930388,-326.34328,116.73884)"
           d="M 685.87265,864.13647 A 3.1055627,9.4080286 0 1 1 679.66153,864.13647 A 3.1055627,9.4080286 0 1 1 685.87265,864.13647 z"
           sodipodi:ry="9.4080286"
           sodipodi:rx="3.1055627"
           sodipodi:cy="864.13647"
           sodipodi:cx="682.76709"
           id="path3270"
           style="opacity:1;fill:#ffffff;fill-opacity:1;fill-rule:evenodd;stroke:none;stroke-width:3;stroke-linecap:round;stroke-linejoin:round;stroke-miterlimit:4;stroke-dasharray:none;stroke-opacity:1"
           sodipodi:type="arc" />
      </g>
      <g
         id="g3355"
         transform="translate(-400.93043,-611.9464)">
        <path
           id="path3245"
           d="M 596.33072,878.66432 L 583.05596,878.66432 C 583.05596,878.66432 581.94973,847.68989 587.48088,847.68989 C 593.01203,847.68989 598.54318,877.55809 596.33072,878.66432 z"
           style="fill:#000000;fill-opacity:1;fill-rule:evenodd;stroke:#000000;stroke-width:3;stroke-linecap:butt;stroke-linejoin:miter;stroke-miterlimit:4;stroke-dasharray:none;stroke-opacity:1" />
        <path
           transform="translate(4.1335802,1.033395)"
           d="M 588.00176,854.04474 A 2.5834875,4.1335802 0 1 1 582.83479,854.04474 A 2.5834875,4.1335802 0 1 1 588.00176,854.04474 z"
           sodipodi:ry="4.1335802"
           sodipodi:rx="2.5834875"
           sodipodi:cy="854.04474"
           sodipodi:cx="585.41827"
           id="path3272"
           style="opacity:1;fill:#ffffff;fill-opacity:1;fill-rule:evenodd;stroke:none;stroke-width:3;stroke-linecap:round;stroke-linejoin:round;stroke-miterlimit:4;stroke-dasharray:none;stroke-opacity:1"
           sodipodi:type="arc" />
      </g>
    </g>
    <g
       transform="translate(-400.93043,-611.9464)"
       id="g3315">
      <path
         style="fill:#e2aa52;fill-opacity:1;fill-rule:evenodd;stroke:#000000;stroke-width:3;stroke-linecap:butt;stroke-linejoin:miter;stroke-miterlimit:4;stroke-dasharray:none;stroke-opacity:1"
         d="M 711.625,953.875 C 684.18555,970.6669 637.61982,973.4033 624,969.375 C 618.26706,968.36366 612.49355,967.01919 606.9375,965.28125 C 605.79172,968.92428 581.81651,1045.2628 579.65625,1063.625 C 577.4438,1082.4309 604.01248,1167.594 602.90625,1184.1875 C 601.80003,1200.7809 579.81847,1259.4915 576.34375,1268.2812 C 572.828,1277.1749 574.79361,1291.0168 582.5,1286.9688 C 588.9017,1283.6059 593.48261,1287.236 597.71875,1287.7812 C 601.99322,1288.3315 606.02033,1283.9082 608.4375,1284.875 C 671.03264,1281.9538 634.59106,1151.3274 669.28125,1134.4375 C 683.72498,1136.1945 682.53744,1145.4947 679.21875,1198.5938 C 675.90003,1251.6928 665.9376,1271.6064 671.46875,1276.0312 C 676.99991,1280.4561 699.14387,1281.5561 705.78125,1273.8125 C 710.06309,1268.817 722.50137,1267.8453 729.6875,1262.2188 C 737.95535,1249.3253 727.41277,1218.236 736.75,1175.3438 C 736.75,1175.3437 752.23123,1114.5121 751.125,1091.2812 C 750.01877,1068.0504 750.03125,1068.0625 750.03125,1068.0625 L 751.125,1068.0625"
         id="path3257"
         sodipodi:nodetypes="cccsssssccssscsscc" />
      <path
         style="fill:none;fill-rule:evenodd;stroke:#000000;stroke-width:3;stroke-linecap:butt;stroke-linejoin:miter;stroke-miterlimit:4;stroke-dasharray:none;stroke-opacity:1"
         d="M 606.55783,1284.6434 C 606.55783,1284.6434 603.32546,1278.3378 614.57992,1271.398 C 617.06515,1264.2409 614.95637,1259.5912 619.84246,1254.1602"
         id="path3282"
         sodipodi:nodetypes="ccc" />
      <path
         style="fill:none;fill-rule:evenodd;stroke:#000000;stroke-width:3;stroke-linecap:butt;stroke-linejoin:miter;stroke-miterlimit:4;stroke-dasharray:none;stroke-opacity:1"
         d="M 588.16967,1285.4427 C 589.08605,1282.6874 585.37146,1275.9826 593.59336,1270.9952 C 596.87598,1267.7126 598.17634,1255.8765 598.17634,1255.8765"
         id="path3284"
         sodipodi:nodetypes="ccc" />
      <path
         style="fill:none;fill-rule:evenodd;stroke:#000000;stroke-width:3;stroke-linecap:butt;stroke-linejoin:miter;stroke-miterlimit:4;stroke-dasharray:none;stroke-opacity:1"
         d="M 706.13051,1274.0606 C 706.13051,1274.0606 703.92808,1266.098 707.82468,1259.3213 C 712.39957,1256.2436 712.22066,1246.8751 713.58486,1243.3961"
         id="path3286"
         sodipodi:nodetypes="ccc" />
      <path
         sodipodi:nodetypes="ccc"
         id="path3288"
         d="M 686.81696,1278.296 C 686.81696,1278.296 684.61453,1270.3334 688.51113,1263.5567 C 693.08602,1260.479 692.90711,1251.1105 694.27131,1247.6315"
         style="fill:none;fill-rule:evenodd;stroke:#000000;stroke-width:3;stroke-linecap:butt;stroke-linejoin:miter;stroke-miterlimit:4;stroke-dasharray:none;stroke-opacity:1" />
    </g>
  </g>
</svg>
