<?xml version="1.0" encoding="UTF-8" standalone="no"?>
<!-- Generator: Adobe Illustrator 18.1.1, SVG Export Plug-In . SVG Version: 6.00 Build 0)  -->

<svg
   xmlns:dc="http://purl.org/dc/elements/1.1/"
   xmlns:cc="http://creativecommons.org/ns#"
   xmlns:rdf="http://www.w3.org/1999/02/22-rdf-syntax-ns#"
   xmlns:svg="http://www.w3.org/2000/svg"
   xmlns="http://www.w3.org/2000/svg"
   xmlns:sodipodi="http://sodipodi.sourceforge.net/DTD/sodipodi-0.dtd"
   xmlns:inkscape="http://www.inkscape.org/namespaces/inkscape"
   version="1.1"
   id="Layer_1"
   x="0px"
   y="0px"
   viewBox="0 0 595.28 841.89"
   style="enable-background:new 0 0 595.28 841.89;"
   xml:space="preserve"
   inkscape:version="0.48.4 r9939"
   width="100%"
   height="100%"
   sodipodi:docname="Camera.svg"><metadata
     id="metadata111"><rdf:RDF><cc:Work
         rdf:about=""><dc:format>image/svg+xml</dc:format><dc:type
           rdf:resource="http://purl.org/dc/dcmitype/StillImage" /></cc:Work></rdf:RDF></metadata><defs
     id="defs109" /><sodipodi:namedview
     pagecolor="#ffffff"
     bordercolor="#666666"
     borderopacity="1"
     objecttolerance="10"
     gridtolerance="10"
     guidetolerance="10"
     inkscape:pageopacity="0"
     inkscape:pageshadow="2"
     inkscape:window-width="640"
     inkscape:window-height="480"
     id="namedview107"
     showgrid="false"
     inkscape:zoom="12.68591"
     inkscape:cx="236.15697"
     inkscape:cy="450.98773"
     inkscape:window-x="730"
     inkscape:window-y="370"
     inkscape:window-maximized="0"
     inkscape:current-layer="Layer_1" /><g
     id="g3"><linearGradient
       id="SVGID_1_"
       gradientUnits="userSpaceOnUse"
       x1="297.4512"
       y1="324.3956"
       x2="297.4512"
       y2="518.1626"><stop
         offset="0"
         style="stop-color:#FFFFFF;stop-opacity:0.7"
         id="stop6" /><stop
         offset="0.9987"
         style="stop-color:#D8D9D8;stop-opacity:0.7"
         id="stop8" /></linearGradient><path
       style="fill-rule:evenodd;clip-rule:evenodd;fill:url(#SVGID_1_);"
       d="M209.231,518.642c-5.031,0-9.124-4.093-9.124-9.124   v-176.44c0-5.031,4.093-9.124,9.124-9.124h176.441c5.03,0,9.123,4.093,9.123,9.124v176.44c0,5.031-4.093,9.124-9.123,9.124H209.231   z"
       id="path10" /><path
       style="fill:#D8D8D7;"
       d="M385.671,324.454c4.755,0,8.624,3.868,8.624,8.623v176.441c0,4.755-3.868,8.623-8.624,8.623H209.231   c-4.755,0-8.623-3.868-8.623-8.623V333.077c0-4.755,3.868-8.623,8.623-8.623H385.671 M385.671,323.454H209.231   c-5.315,0-9.623,4.309-9.623,9.623v176.441c0,5.315,4.309,9.623,9.623,9.623h176.441c5.315,0,9.624-4.308,9.624-9.623V333.077   C395.295,327.762,390.986,323.454,385.671,323.454L385.671,323.454z"
       id="path12" /></g><path
     style="fill-rule:evenodd;clip-rule:evenodd;fill:none;"
     d="M241.253,380.56h119.809c3.472,0,6.287,2.815,6.287,6.287v79.809  c0,3.472-2.815,6.287-6.287,6.287H241.253c-3.472,0-6.287-2.815-6.287-6.287v-79.809C234.966,383.375,237.781,380.56,241.253,380.56  z"
     id="path14" /><g
     id="g16"><g
       id="g18"><linearGradient
         id="SVGID_2_"
         gradientUnits="userSpaceOnUse"
         x1="301.3562"
         y1="382.2788"
         x2="301.3562"
         y2="473.1604"><stop
           offset="0"
           style="stop-color:#756A80"
           id="stop21" /><stop
           offset="1"
           style="stop-color:#60576B"
           id="stop23" /></linearGradient><path
         style="fill-rule:evenodd;clip-rule:evenodd;fill:url(#SVGID_2_);"
         d="M235.238,406.51v-19.725    c0-3.178,2.586-5.764,5.765-5.764H361.71c3.179,0,5.765,2.586,5.765,5.764v19.725H235.238z"
         id="path25" /><path
         style="fill:#5C5264;"
         d="M361.71,381.271c3.041,0,5.515,2.474,5.515,5.515v19.475H235.488v-19.475    c0-3.041,2.474-5.515,5.515-5.515H361.71 M361.71,380.771H241.002c-3.322,0-6.015,2.693-6.015,6.015v19.975h132.737v-19.975    C367.724,383.464,365.031,380.771,361.71,380.771L361.71,380.771z"
         id="path27" /></g><g
       id="g29"><linearGradient
         id="SVGID_3_"
         gradientUnits="userSpaceOnUse"
         x1="301.3562"
         y1="382.5041"
         x2="301.3562"
         y2="474.4735"><stop
           offset="0"
           style="stop-color:#756A80"
           id="stop32" /><stop
           offset="1"
           style="stop-color:#60576B"
           id="stop34" /></linearGradient><path
         style="fill-rule:evenodd;clip-rule:evenodd;fill:url(#SVGID_3_);"
         d="M241.002,475.249c-3.179,0-5.765-2.586-5.765-5.765    v-60.45h132.237v60.45c0,3.179-2.586,5.765-5.765,5.765H241.002z"
         id="path36" /><path
         style="fill:#5C5264;"
         d="M367.224,409.284v60.2c0,3.041-2.474,5.515-5.515,5.515H241.002c-3.041,0-5.515-2.474-5.515-5.515    v-60.2H367.224 M367.724,408.784H234.988v60.7c0,3.322,2.693,6.015,6.015,6.015H361.71c3.322,0,6.015-2.693,6.015-6.015V408.784    L367.724,408.784z"
         id="path38" /></g></g><g
     id="g40"><linearGradient
       id="SVGID_4_"
       gradientUnits="userSpaceOnUse"
       x1="300.8411"
       y1="399.0107"
       x2="300.8411"
       y2="458.1078"><stop
         offset="0"
         style="stop-color:#756A80"
         id="stop43" /><stop
         offset="1"
         style="stop-color:#60576B"
         id="stop45" /></linearGradient><path
       style="fill-rule:evenodd;clip-rule:evenodd;fill:url(#SVGID_4_);"
       d="M300.841,461.131c-17.485,0-31.71-14.226-31.71-31.711   s14.225-31.71,31.71-31.71s31.711,14.225,31.711,31.71S318.326,461.131,300.841,461.131z"
       id="path47" /><path
       style="fill:#5C5264;"
       d="M300.841,398.21c17.237,0,31.21,13.973,31.21,31.21c0,17.237-13.973,31.211-31.21,31.211   c-17.237,0-31.211-13.973-31.211-31.211C269.63,412.183,283.604,398.21,300.841,398.21 M300.841,397.21   c-17.761,0-32.211,14.45-32.211,32.21c0,17.761,14.45,32.211,32.211,32.211c17.761,0,32.21-14.45,32.21-32.211   C333.051,411.659,318.602,397.21,300.841,397.21L300.841,397.21z"
       id="path49" /></g><g
     id="g51"><linearGradient
       id="SVGID_5_"
       gradientUnits="userSpaceOnUse"
       x1="300.8411"
       y1="399.9697"
       x2="300.8411"
       y2="457.2032"><stop
         offset="0"
         style="stop-color:#E7E7E7"
         id="stop54" /><stop
         offset="1"
         style="stop-color:#E2E2E2"
         id="stop56" /></linearGradient><path
       style="fill-rule:evenodd;clip-rule:evenodd;fill:url(#SVGID_5_);"
       d="M300.841,460.131c-16.934,0-30.71-13.777-30.71-30.711   s13.777-30.71,30.71-30.71s30.711,13.777,30.711,30.71S317.774,460.131,300.841,460.131z M300.843,411.403   c-9.935,0-18.017,8.083-18.017,18.017s8.083,18.017,18.017,18.017s18.017-8.082,18.017-18.017S310.777,411.403,300.843,411.403z"
       id="path58" /><path
       style="fill:#F2F2F2;"
       d="M300.841,399.21c16.658,0,30.21,13.552,30.21,30.21c0,16.658-13.552,30.211-30.21,30.211   c-16.658,0-30.211-13.552-30.211-30.211C270.63,412.762,284.183,399.21,300.841,399.21 M300.843,447.936   c10.21,0,18.517-8.307,18.517-18.517s-8.307-18.517-18.517-18.517c-10.21,0-18.517,8.307-18.517,18.517   S290.632,447.936,300.843,447.936 M300.841,398.21c-17.237,0-31.211,13.973-31.211,31.21c0,17.237,13.973,31.211,31.211,31.211   c17.237,0,31.21-13.973,31.21-31.211C332.051,412.183,318.078,398.21,300.841,398.21L300.841,398.21z M300.843,446.936   c-9.674,0-17.517-7.842-17.517-17.517c0-9.674,7.843-17.517,17.517-17.517s17.517,7.843,17.517,17.517   C318.359,439.094,310.517,446.936,300.843,446.936L300.843,446.936z"
       id="path60" /></g><path
     style="fill:#5c5264;fill-rule:evenodd"
     d="m 361.709,380.56 -120.728,0 c -4.82917,1.06976 -6.015,3.82683 -6.015,7.746 0,-3.322 2.693,-6.015 6.015,-6.015 l 120.729,0 c 3.322,0 6.015,2.693 6.015,6.015 l 0,-1.731 c -0.001,-3.322 -2.694,-6.015 -6.016,-6.015 z"
     id="path62"
     inkscape:connector-curvature="0"
     sodipodi:nodetypes="sccssccs" /><path
     style="fill-rule:evenodd;clip-rule:evenodd;fill:#E1DFE2;"
     d="M240.981,476.766l120.729,0c3.322,0,6.015-2.693,6.015-6.015  v-1.731c0,3.322-2.693,6.015-6.015,6.015l-120.729,0c-3.322,0-6.015-2.693-6.015-6.015v1.731  C234.966,474.073,237.659,476.766,240.981,476.766z"
     id="path64" /><linearGradient
     id="SVGID_6_"
     gradientUnits="userSpaceOnUse"
     x1="300.8425"
     y1="413.8396"
     x2="300.8425"
     y2="445.6592"><stop
       offset="0"
       style="stop-color:#595A5B"
       id="stop67" /><stop
       offset="1"
       style="stop-color:#4C4C4C"
       id="stop69" /></linearGradient><path
     style="fill-rule:evenodd;clip-rule:evenodd;fill:url(#SVGID_6_);"
     d="M300.843,411.903c9.674,0,17.517,7.842,17.517,17.517  c0,9.674-7.842,17.517-17.517,17.517s-17.517-7.842-17.517-17.517C283.326,419.745,291.168,411.903,300.843,411.903z"
     id="path71" /><linearGradient
     id="SVGID_7_"
     gradientUnits="userSpaceOnUse"
     x1="300.8425"
     y1="413.8396"
     x2="300.8425"
     y2="445.6592"><stop
       offset="0"
       style="stop-color:#595A5B"
       id="stop74" /><stop
       offset="1"
       style="stop-color:#4C4C4C"
       id="stop76" /></linearGradient><path
     style="fill-rule:evenodd;clip-rule:evenodd;fill:url(#SVGID_7_);"
     d="M300.843,411.903c9.674,0,17.517,7.842,17.517,17.517  c0,9.674-7.842,17.517-17.517,17.517s-17.517-7.842-17.517-17.517C283.326,419.745,291.168,411.903,300.843,411.903z"
     id="path78" /><g
     id="g80"><g
       id="g82"><path
         style="fill-rule:evenodd;clip-rule:evenodd;fill:#5C5264;"
         d="M331.184,388.309h25.81c1.657,0,3,1.343,3,3v10.016    c0,1.657-1.343,3-3,3h-25.81c-1.657,0-3-1.343-3-3v-10.016C328.184,389.652,329.527,388.309,331.184,388.309z"
         id="path84" /></g></g><g
     id="g86"><g
       id="g88"><linearGradient
         id="SVGID_8_"
         gradientUnits="userSpaceOnUse"
         x1="344.0889"
         y1="387.9464"
         x2="344.0889"
         y2="401.4269"><stop
           offset="0"
           style="stop-color:#E7E7E7"
           id="stop91" /><stop
           offset="1"
           style="stop-color:#E2E2E2"
           id="stop93" /></linearGradient><path
         style="fill-rule:evenodd;clip-rule:evenodd;fill:url(#SVGID_8_);"
         d="M331.184,402.124c-1.379,0-2.5-1.122-2.5-2.5v-10.017    c0-1.378,1.121-2.5,2.5-2.5h25.811c1.379,0,2.5,1.122,2.5,2.5v10.017c0,1.378-1.121,2.5-2.5,2.5H331.184z"
         id="path95" /></g><g
       id="g97"><path
         style="fill:#F2F2F2;"
         d="M356.994,387.608c1.103,0,2,0.897,2,2v10.016c0,1.103-0.897,2-2,2h-25.81c-1.103,0-2-0.897-2-2    v-10.016c0-1.103,0.897-2,2-2H356.994 M356.994,386.608h-25.81c-1.657,0-3,1.343-3,3v10.016c0,1.657,1.343,3,3,3h25.81    c1.657,0,3-1.343,3-3v-10.016C359.994,387.951,358.651,386.608,356.994,386.608L356.994,386.608z"
         id="path99" /></g></g><path
     style="fill-rule:evenodd;clip-rule:evenodd;fill:#E0E1E0;"
     d="M294.144,419.163c1.819,0,3.293,1.474,3.293,3.293  c0,1.819-1.474,3.293-3.293,3.293c-1.819,0-3.293-1.475-3.293-3.293C290.85,420.637,292.325,419.163,294.144,419.163z"
     id="path101" /><g
     id="g103"><path
       style="fill-rule:evenodd;clip-rule:evenodd;fill:#353535;"
       d="M300.843,412.903c9.505,0,17.224,7.576,17.491,17.017   c0.005-0.168,0.025-0.331,0.025-0.5c0-9.674-7.842-17.517-17.517-17.517s-17.517,7.843-17.517,17.517   c0,0.169,0.021,0.332,0.025,0.5C283.618,420.479,291.337,412.903,300.843,412.903z"
       id="path105" /></g></svg>