<?xml version="1.0" encoding="UTF-8" standalone="no"?>
<!-- Created with Inkscape (http://www.inkscape.org/) -->

<svg
   xmlns:dc="http://purl.org/dc/elements/1.1/"
   xmlns:cc="http://creativecommons.org/ns#"
   xmlns:rdf="http://www.w3.org/1999/02/22-rdf-syntax-ns#"
   xmlns:svg="http://www.w3.org/2000/svg"
   xmlns="http://www.w3.org/2000/svg"
   xmlns:xlink="http://www.w3.org/1999/xlink"
   version="1.1"
   width="1262.9628"
   height="1333.1053"
   id="svg17265">
  <defs
     id="defs17267">
    <filter
       color-interpolation-filters="sRGB"
       id="filter17007">
      <feGaussianBlur
         id="feGaussianBlur17009"
         stdDeviation="23.302482" />
    </filter>
    <linearGradient
       x1="-942.85706"
       y1="-1061.9235"
       x2="-331.42859"
       y2="-239.06639"
       id="linearGradient17105"
       xlink:href="#linearGradient16993"
       gradientUnits="userSpaceOnUse"
       gradientTransform="matrix(0.9826112,0,0,1,-28.529043,0)" />
    <linearGradient
       id="linearGradient16993">
      <stop
         id="stop16995"
         style="stop-color:#ffffff;stop-opacity:1"
         offset="0" />
      <stop
         id="stop16997"
         style="stop-color:#ffffff;stop-opacity:0"
         offset="1" />
    </linearGradient>
    <linearGradient
       x1="-73.574463"
       y1="89.456764"
       x2="-197.48935"
       y2="32.662437"
       id="linearGradient17085"
       xlink:href="#linearGradient14869"
       gradientUnits="userSpaceOnUse" />
    <linearGradient
       id="linearGradient14869">
      <stop
         id="stop14871"
         style="stop-color:#800000;stop-opacity:1"
         offset="0" />
      <stop
         id="stop14873"
         style="stop-color:#800000;stop-opacity:0"
         offset="1" />
    </linearGradient>
    <linearGradient
       x1="-222.01418"
       y1="-29.295012"
       x2="-101.97163"
       y2="48.151798"
       id="linearGradient17087"
       xlink:href="#linearGradient14882"
       gradientUnits="userSpaceOnUse"
       gradientTransform="matrix(0.94571011,0,0,0.89336392,138.96286,12.13642)" />
    <linearGradient
       id="linearGradient14882">
      <stop
         id="stop14884"
         style="stop-color:#ffffff;stop-opacity:1"
         offset="0" />
      <stop
         id="stop14886"
         style="stop-color:#ffffff;stop-opacity:0"
         offset="1" />
    </linearGradient>
    <radialGradient
       cx="36.755756"
       cy="-59.709209"
       r="30.010637"
       fx="36.755756"
       fy="-59.709209"
       id="radialGradient17089"
       xlink:href="#linearGradient15115"
       gradientUnits="userSpaceOnUse"
       gradientTransform="matrix(0.73230141,0.00453123,-0.01070731,1.7304377,9.2001387,41.443026)" />
    <linearGradient
       id="linearGradient15115">
      <stop
         id="stop15117"
         style="stop-color:#ffff00;stop-opacity:1"
         offset="0" />
      <stop
         id="stop15119"
         style="stop-color:#ffff00;stop-opacity:0"
         offset="1" />
    </linearGradient>
    <radialGradient
       cx="-104.95904"
       cy="-105.1277"
       r="30.333334"
       fx="-104.95904"
       fy="-105.1277"
       id="radialGradient17091"
       xlink:href="#linearGradient15127"
       gradientUnits="userSpaceOnUse"
       gradientTransform="matrix(1.5935827,-0.05526393,0.0055248,0.26586168,62.650049,-75.481945)" />
    <linearGradient
       id="linearGradient15127">
      <stop
         id="stop15129"
         style="stop-color:#808000;stop-opacity:1"
         offset="0" />
      <stop
         id="stop15131"
         style="stop-color:#808000;stop-opacity:0"
         offset="1" />
    </linearGradient>
    <linearGradient
       x1="36.110367"
       y1="-99.146118"
       x2="39.982708"
       y2="-18.472361"
       id="linearGradient17093"
       xlink:href="#linearGradient15137"
       gradientUnits="userSpaceOnUse" />
    <linearGradient
       id="linearGradient15137">
      <stop
         id="stop15139"
         style="stop-color:#000000;stop-opacity:1"
         offset="0" />
      <stop
         id="stop15141"
         style="stop-color:#000000;stop-opacity:0"
         offset="1" />
    </linearGradient>
    <filter
       color-interpolation-filters="sRGB"
       id="filter15169">
      <feGaussianBlur
         stdDeviation="1.4328371"
         id="feGaussianBlur15171" />
    </filter>
    <clipPath
       id="clipPath15180">
      <rect
         width="288.41934"
         height="96.748253"
         x="-1013.1185"
         y="-373.02408"
         id="rect15182"
         style="fill:#b3b3b3;fill-opacity:1;stroke:none" />
    </clipPath>
    <filter
       color-interpolation-filters="sRGB"
       id="filter15206">
      <feGaussianBlur
         stdDeviation="1.4170989"
         id="feGaussianBlur15208" />
    </filter>
    <linearGradient
       x1="-942.85706"
       y1="-1061.9235"
       x2="-331.42859"
       y2="-239.06639"
       id="linearGradient17059"
       xlink:href="#linearGradient16993"
       gradientUnits="userSpaceOnUse"
       gradientTransform="matrix(0.9826112,0,0,1,-28.529043,0)" />
    <linearGradient
       x1="-942.85706"
       y1="-1061.9235"
       x2="-331.42859"
       y2="-239.06639"
       id="linearGradient17047"
       xlink:href="#linearGradient16993"
       gradientUnits="userSpaceOnUse"
       gradientTransform="matrix(0.9826112,0,0,1,-28.529043,0)" />
    <linearGradient
       x1="-942.85706"
       y1="-1061.9235"
       x2="-331.42859"
       y2="-239.06639"
       id="linearGradient17035"
       xlink:href="#linearGradient16993"
       gradientUnits="userSpaceOnUse"
       gradientTransform="matrix(0.9826112,0,0,1,-28.529043,0)" />
    <linearGradient
       x1="-942.85706"
       y1="-1061.9235"
       x2="-331.42859"
       y2="-239.06639"
       id="linearGradient17017"
       xlink:href="#linearGradient16993"
       gradientUnits="userSpaceOnUse"
       gradientTransform="matrix(0.9826112,0,0,1,-28.529043,0)" />
    <radialGradient
       cx="-152.41805"
       cy="199.24138"
       r="637.22327"
       fx="-152.41805"
       fy="199.24138"
       id="radialGradient5731"
       xlink:href="#linearGradient15286"
       gradientUnits="userSpaceOnUse"
       gradientTransform="matrix(0.52481732,0.21021977,-0.14353542,0.45335771,513.96661,193.88406)" />
    <linearGradient
       id="linearGradient15286">
      <stop
         id="stop15288"
         style="stop-color:#ffff00;stop-opacity:1"
         offset="0" />
      <stop
         id="stop15290"
         style="stop-color:#ffff00;stop-opacity:0"
         offset="1" />
    </linearGradient>
    <linearGradient
       x1="-942.85706"
       y1="-1061.9235"
       x2="-331.42859"
       y2="-239.06639"
       id="linearGradient17117"
       xlink:href="#linearGradient16993"
       gradientUnits="userSpaceOnUse"
       gradientTransform="matrix(0.9826112,0,0,1,-28.529043,0)" />
    <linearGradient
       x1="-942.85706"
       y1="-1061.9235"
       x2="-331.42859"
       y2="-239.06639"
       id="linearGradient17263"
       xlink:href="#linearGradient16993"
       gradientUnits="userSpaceOnUse"
       gradientTransform="matrix(0.9826112,0,0,1,-28.529043,0)" />
    <linearGradient
       x1="-942.85706"
       y1="-1061.9235"
       x2="-331.42859"
       y2="-239.06639"
       id="linearGradient17508"
       xlink:href="#linearGradient16993"
       gradientUnits="userSpaceOnUse"
       gradientTransform="matrix(0.9826112,0,0,1,-28.529043,0)" />
    <linearGradient
       x1="-942.85706"
       y1="-1061.9235"
       x2="-331.42859"
       y2="-239.06639"
       id="linearGradient17520"
       xlink:href="#linearGradient16993"
       gradientUnits="userSpaceOnUse"
       gradientTransform="matrix(0.9826112,0,0,1,-28.529043,0)" />
    <linearGradient
       x1="-942.85706"
       y1="-1061.9235"
       x2="-331.42859"
       y2="-239.06639"
       id="linearGradient17532"
       xlink:href="#linearGradient16993"
       gradientUnits="userSpaceOnUse"
       gradientTransform="matrix(0.9826112,0,0,1,-28.529043,0)" />
    <radialGradient
       cx="-152.41805"
       cy="199.24138"
       r="637.22327"
       fx="-152.41805"
       fy="199.24138"
       id="radialGradient17594"
       xlink:href="#linearGradient15286"
       gradientUnits="userSpaceOnUse"
       gradientTransform="matrix(0.52481732,0.21021977,-0.14353542,0.45335771,513.96661,193.88406)" />
    <linearGradient
       x1="-942.85706"
       y1="-1061.9235"
       x2="-331.42859"
       y2="-239.06639"
       id="linearGradient17596"
       xlink:href="#linearGradient16993"
       gradientUnits="userSpaceOnUse"
       gradientTransform="matrix(0.9826112,0,0,1,-28.529043,0)" />
    <linearGradient
       x1="-942.85706"
       y1="-1061.9235"
       x2="-331.42859"
       y2="-239.06639"
       id="linearGradient17598"
       xlink:href="#linearGradient16993"
       gradientUnits="userSpaceOnUse"
       gradientTransform="matrix(0.9826112,0,0,1,-28.529043,0)" />
    <linearGradient
       x1="-942.85706"
       y1="-1061.9235"
       x2="-331.42859"
       y2="-239.06639"
       id="linearGradient17600"
       xlink:href="#linearGradient16993"
       gradientUnits="userSpaceOnUse"
       gradientTransform="matrix(0.9826112,0,0,1,-28.529043,0)" />
    <linearGradient
       x1="-942.85706"
       y1="-1061.9235"
       x2="-331.42859"
       y2="-239.06639"
       id="linearGradient17602"
       xlink:href="#linearGradient16993"
       gradientUnits="userSpaceOnUse"
       gradientTransform="matrix(0.9826112,0,0,1,-28.529043,0)" />
    <linearGradient
       x1="-73.574463"
       y1="89.456764"
       x2="-197.48935"
       y2="32.662437"
       id="linearGradient17604"
       xlink:href="#linearGradient14869"
       gradientUnits="userSpaceOnUse" />
    <linearGradient
       x1="-222.01418"
       y1="-29.295012"
       x2="-101.97163"
       y2="48.151798"
       id="linearGradient17606"
       xlink:href="#linearGradient14882"
       gradientUnits="userSpaceOnUse"
       gradientTransform="matrix(0.94571011,0,0,0.89336392,138.96286,12.13642)" />
    <radialGradient
       cx="36.755756"
       cy="-59.709209"
       r="30.010637"
       fx="36.755756"
       fy="-59.709209"
       id="radialGradient17608"
       xlink:href="#linearGradient15115"
       gradientUnits="userSpaceOnUse"
       gradientTransform="matrix(0.73230141,0.00453123,-0.01070731,1.7304377,9.2001387,41.443026)" />
    <radialGradient
       cx="-104.95904"
       cy="-105.1277"
       r="30.333334"
       fx="-104.95904"
       fy="-105.1277"
       id="radialGradient17610"
       xlink:href="#linearGradient15127"
       gradientUnits="userSpaceOnUse"
       gradientTransform="matrix(1.5935827,-0.05526393,0.0055248,0.26586168,62.650049,-75.481945)" />
    <linearGradient
       x1="36.110367"
       y1="-99.146118"
       x2="39.982708"
       y2="-18.472361"
       id="linearGradient17612"
       xlink:href="#linearGradient15137"
       gradientUnits="userSpaceOnUse" />
    <linearGradient
       x1="-942.85706"
       y1="-1061.9235"
       x2="-331.42859"
       y2="-239.06639"
       id="linearGradient17614"
       xlink:href="#linearGradient16993"
       gradientUnits="userSpaceOnUse"
       gradientTransform="matrix(0.9826112,0,0,1,-28.529043,0)" />
    <linearGradient
       x1="-942.85706"
       y1="-1061.9235"
       x2="-331.42859"
       y2="-239.06639"
       id="linearGradient17616"
       xlink:href="#linearGradient16993"
       gradientUnits="userSpaceOnUse"
       gradientTransform="matrix(0.9826112,0,0,1,-28.529043,0)" />
    <linearGradient
       x1="-942.85706"
       y1="-1061.9235"
       x2="-331.42859"
       y2="-239.06639"
       id="linearGradient17618"
       xlink:href="#linearGradient16993"
       gradientUnits="userSpaceOnUse"
       gradientTransform="matrix(0.9826112,0,0,1,-28.529043,0)" />
    <linearGradient
       x1="-942.85706"
       y1="-1061.9235"
       x2="-331.42859"
       y2="-239.06639"
       id="linearGradient17620"
       xlink:href="#linearGradient16993"
       gradientUnits="userSpaceOnUse"
       gradientTransform="matrix(0.9826112,0,0,1,-28.529043,0)" />
    <linearGradient
       x1="-942.85706"
       y1="-1061.9235"
       x2="-331.42859"
       y2="-239.06639"
       id="linearGradient17622"
       xlink:href="#linearGradient16993"
       gradientUnits="userSpaceOnUse"
       gradientTransform="matrix(0.9826112,0,0,1,-28.529043,0)" />
    <radialGradient
       cx="-152.41805"
       cy="199.24138"
       r="637.22327"
       fx="-152.41805"
       fy="199.24138"
       id="radialGradient18190"
       xlink:href="#linearGradient15286"
       gradientUnits="userSpaceOnUse"
       gradientTransform="matrix(0.71556465,0.32526998,-0.19570405,0.70147375,519.76305,151.59899)" />
    <linearGradient
       x1="-942.85706"
       y1="-1061.9235"
       x2="-331.42859"
       y2="-239.06639"
       id="linearGradient18192"
       xlink:href="#linearGradient16993"
       gradientUnits="userSpaceOnUse"
       gradientTransform="matrix(0.9826112,0,0,1,-28.529043,0)" />
    <linearGradient
       x1="-942.85706"
       y1="-1061.9235"
       x2="-331.42859"
       y2="-239.06639"
       id="linearGradient18194"
       xlink:href="#linearGradient16993"
       gradientUnits="userSpaceOnUse"
       gradientTransform="matrix(0.9826112,0,0,1,-28.529043,0)" />
    <linearGradient
       x1="-942.85706"
       y1="-1061.9235"
       x2="-331.42859"
       y2="-239.06639"
       id="linearGradient18196"
       xlink:href="#linearGradient16993"
       gradientUnits="userSpaceOnUse"
       gradientTransform="matrix(0.9826112,0,0,1,-28.529043,0)" />
    <linearGradient
       x1="-942.85706"
       y1="-1061.9235"
       x2="-331.42859"
       y2="-239.06639"
       id="linearGradient18198"
       xlink:href="#linearGradient16993"
       gradientUnits="userSpaceOnUse"
       gradientTransform="matrix(0.9826112,0,0,1,-28.529043,0)" />
    <linearGradient
       x1="-942.85706"
       y1="-1061.9235"
       x2="-331.42859"
       y2="-239.06639"
       id="linearGradient18200"
       xlink:href="#linearGradient16993"
       gradientUnits="userSpaceOnUse"
       gradientTransform="matrix(0.9826112,0,0,1,-28.529043,0)" />
    <linearGradient
       x1="-942.85706"
       y1="-1061.9235"
       x2="-331.42859"
       y2="-239.06639"
       id="linearGradient18202"
       xlink:href="#linearGradient16993"
       gradientUnits="userSpaceOnUse"
       gradientTransform="matrix(0.9826112,0,0,1,-28.529043,0)" />
    <linearGradient
       x1="-942.85706"
       y1="-1061.9235"
       x2="-331.42859"
       y2="-239.06639"
       id="linearGradient18204"
       xlink:href="#linearGradient16993"
       gradientUnits="userSpaceOnUse"
       gradientTransform="matrix(0.9826112,0,0,1,-28.529043,0)" />
    <linearGradient
       x1="-942.85706"
       y1="-1061.9235"
       x2="-331.42859"
       y2="-239.06639"
       id="linearGradient18206"
       xlink:href="#linearGradient16993"
       gradientUnits="userSpaceOnUse"
       gradientTransform="matrix(0.9826112,0,0,1,-28.529043,0)" />
    <linearGradient
       x1="-942.85706"
       y1="-1061.9235"
       x2="-331.42859"
       y2="-239.06639"
       id="linearGradient18208"
       xlink:href="#linearGradient16993"
       gradientUnits="userSpaceOnUse"
       gradientTransform="matrix(0.9826112,0,0,1,-28.529043,0)" />
  </defs>
  <metadata
     id="metadata17270">
    <rdf:RDF>
      <cc:Work
         rdf:about="">
        <dc:format>image/svg+xml</dc:format>
        <dc:type
           rdf:resource="http://purl.org/dc/dcmitype/StillImage" />
        <dc:title></dc:title>
      </cc:Work>
    </rdf:RDF>
  </metadata>
  <g
     transform="translate(314.77937,492.19672)"
     id="layer1">
    <path
       d="m -314.25882,110.89662 c 70.21986,-34.13974 139.86871,-119.7974033 134.75289,-229.49619 9.20524,-88.99184 -36.80669,-187.35623 7.04734,-268.26184 53.7931,-65.60056 110.470534,39.12131 167.9889994,29.42488 58.8496636,-24.26061 104.4822606,-89.37505 165.6172806,-109.03465 89.56412,-36.94314 186.45505,-29.9355 276.96178,-5.12547 76.06595,50.7344 18.01623,180.79847 51.91239,258.73479 49.27723,72.70794 129.78738,45.9404 194.2046,48.29326 67.96155,4.99602 157.44586,-38.01932 203.00632,55.48775 50.88016,100.4763178 58.84554,228.37792 60.8217,347.15464 3.32607,148.94472 -58.24073,281.19422 -125.17231,391.57776 C 730.01625,757.8918 593.8864,798.55991 467.53899,823.24059 324.61805,847.42906 180.3491,838.74463 36.727317,840.9086 -110.89131,813.25323 -209.68427,625.74475 -247.69936,441.88157 c -23.1801,-106.5663 -43.75878,-214.61227 -67.08001,-320.83093 0.17399,-3.38472 0.34694,-6.76931 0.52055,-10.15402 z"
       id="path15677"
       style="fill:url(#radialGradient18190);fill-opacity:1;stroke:none" />
    <g
       transform="matrix(0.09326423,0.04788931,-0.04788931,0.09326423,374.48769,103.65684)"
       id="g17107">
      <path
         d="m 79.999995,-301.92349 -822.604975,-89.12145 -539.76352,627.11795 -169.4394,-809.88387 -763.2207,-319.55552 717.8857,-411.41432 68.0672,-824.6141 613.11708,555.6158 805.288558,-190.084 -338.958458,754.8038 z"
         transform="matrix(0.97625854,0,0,0.99538674,437.51279,447.06137)"
         id="path17109"
         style="opacity:0.8495575;fill:#000000;fill-opacity:1;stroke:none;filter:url(#filter17007)" />
      <path
         d="m 79.999995,-301.92349 -822.604975,-89.12145 -539.76352,627.11795 -169.4394,-809.88387 -763.2207,-319.55552 717.8857,-411.41432 68.0672,-824.6141 613.11708,555.6158 805.288558,-190.084 -338.958458,754.8038 z"
         transform="translate(434.28571,445.71429)"
         id="path17111"
         style="opacity:0.78761058;fill:#ff6600;fill-opacity:1;stroke:none" />
      <path
         d="m 79.999995,-301.92349 -822.604975,-89.12145 -539.76352,627.11795 -169.4394,-809.88387 -763.2207,-319.55552 717.8857,-411.41432 68.0672,-824.6141 613.11708,555.6158 805.288558,-190.084 -338.958458,754.8038 z"
         transform="matrix(-0.7446731,-0.52829332,0.52829332,-0.7446731,-747.4126,-1770.0372)"
         id="path17113"
         style="opacity:0.58407078;fill:#ffff00;fill-opacity:1;stroke:none" />
      <path
         d="m -1010.7718,-832.84375 c 0,8.25172 -8.739,11.06946 -14.6163,14.1875 -96.4914,56.82683 -193.5194,112.92999 -290.2171,169.47854 -108.3503,63.18423 -216.7007,126.36847 -325.051,189.55271 187.0543,79.70833 374.1087,159.41667 561.1631,239.125 184.08624,-71.85488 366.35561,-150.12487 540.20089,-245.18304 80.39465,-44.4593 159.27074,-92.25217 229.77617,-151.874 38.95037,-33.25109 71.98867,-73.0008 99.61082,-116.40786 56.45584,-87.15154 97.4236,-183.32248 134.121817,-280.4332 17.873893,-48.0348 34.225204,-96.5864 49.649474,-145.5081 -129.291421,31.0685 -258.584371,62.1306 -387.885771,93.1562 -179.12169,-165.319 -358.34675,-330.5222 -537.54974,-495.75 -19.7341,243.2188 -39.46822,486.4375 -59.20236,729.65625 z"
         id="path17115"
         style="fill:url(#linearGradient18192);fill-opacity:1;stroke:none" />
    </g>
    <g
       transform="matrix(0.05938655,-0.06980399,0.06980399,0.05938655,668.279,205.04257)"
       id="g17025">
      <path
         d="m 79.999995,-301.92349 -822.604975,-89.12145 -539.76352,627.11795 -169.4394,-809.88387 -763.2207,-319.55552 717.8857,-411.41432 68.0672,-824.6141 613.11708,555.6158 805.288558,-190.084 -338.958458,754.8038 z"
         transform="matrix(0.97625854,0,0,0.99538674,437.51279,447.06137)"
         id="path17027"
         style="opacity:0.8495575;fill:#000000;fill-opacity:1;stroke:none;filter:url(#filter17007)" />
      <path
         d="m 79.999995,-301.92349 -822.604975,-89.12145 -539.76352,627.11795 -169.4394,-809.88387 -763.2207,-319.55552 717.8857,-411.41432 68.0672,-824.6141 613.11708,555.6158 805.288558,-190.084 -338.958458,754.8038 z"
         transform="translate(434.28571,445.71429)"
         id="path17029"
         style="opacity:0.78761058;fill:#ff6600;fill-opacity:1;stroke:none" />
      <path
         d="m 79.999995,-301.92349 -822.604975,-89.12145 -539.76352,627.11795 -169.4394,-809.88387 -763.2207,-319.55552 717.8857,-411.41432 68.0672,-824.6141 613.11708,555.6158 805.288558,-190.084 -338.958458,754.8038 z"
         transform="matrix(-0.7446731,-0.52829332,0.52829332,-0.7446731,-747.4126,-1770.0372)"
         id="path17031"
         style="opacity:0.58407078;fill:#ffff00;fill-opacity:1;stroke:none" />
      <path
         d="m -1010.7718,-832.84375 c 0,8.25172 -8.739,11.06946 -14.6163,14.1875 -96.4914,56.82683 -193.5194,112.92999 -290.2171,169.47854 -108.3503,63.18423 -216.7007,126.36847 -325.051,189.55271 187.0543,79.70833 374.1087,159.41667 561.1631,239.125 184.08624,-71.85488 366.35561,-150.12487 540.20089,-245.18304 80.39465,-44.4593 159.27074,-92.25217 229.77617,-151.874 38.95037,-33.25109 71.98867,-73.0008 99.61082,-116.40786 56.45584,-87.15154 97.4236,-183.32248 134.121817,-280.4332 17.873893,-48.0348 34.225204,-96.5864 49.649474,-145.5081 -129.291421,31.0685 -258.584371,62.1306 -387.885771,93.1562 -179.12169,-165.319 -358.34675,-330.5222 -537.54974,-495.75 -19.7341,243.2188 -39.46822,486.4375 -59.20236,729.65625 z"
         id="path17033"
         style="fill:url(#linearGradient18194);fill-opacity:1;stroke:none" />
    </g>
    <g
       transform="matrix(0.03282063,-0.03857793,0.03857793,0.03282063,78.651267,-74.747567)"
       id="g17037">
      <path
         d="m 79.999995,-301.92349 -822.604975,-89.12145 -539.76352,627.11795 -169.4394,-809.88387 -763.2207,-319.55552 717.8857,-411.41432 68.0672,-824.6141 613.11708,555.6158 805.288558,-190.084 -338.958458,754.8038 z"
         transform="matrix(0.97625854,0,0,0.99538674,437.51279,447.06137)"
         id="path17039"
         style="opacity:0.8495575;fill:#000000;fill-opacity:1;stroke:none;filter:url(#filter17007)" />
      <path
         d="m 79.999995,-301.92349 -822.604975,-89.12145 -539.76352,627.11795 -169.4394,-809.88387 -763.2207,-319.55552 717.8857,-411.41432 68.0672,-824.6141 613.11708,555.6158 805.288558,-190.084 -338.958458,754.8038 z"
         transform="translate(434.28571,445.71429)"
         id="path17041"
         style="opacity:0.78761058;fill:#ff6600;fill-opacity:1;stroke:none" />
      <path
         d="m 79.999995,-301.92349 -822.604975,-89.12145 -539.76352,627.11795 -169.4394,-809.88387 -763.2207,-319.55552 717.8857,-411.41432 68.0672,-824.6141 613.11708,555.6158 805.288558,-190.084 -338.958458,754.8038 z"
         transform="matrix(-0.7446731,-0.52829332,0.52829332,-0.7446731,-747.4126,-1770.0372)"
         id="path17043"
         style="opacity:0.58407078;fill:#ffff00;fill-opacity:1;stroke:none" />
      <path
         d="m -1010.7718,-832.84375 c 0,8.25172 -8.739,11.06946 -14.6163,14.1875 -96.4914,56.82683 -193.5194,112.92999 -290.2171,169.47854 -108.3503,63.18423 -216.7007,126.36847 -325.051,189.55271 187.0543,79.70833 374.1087,159.41667 561.1631,239.125 184.08624,-71.85488 366.35561,-150.12487 540.20089,-245.18304 80.39465,-44.4593 159.27074,-92.25217 229.77617,-151.874 38.95037,-33.25109 71.98867,-73.0008 99.61082,-116.40786 56.45584,-87.15154 97.4236,-183.32248 134.121817,-280.4332 17.873893,-48.0348 34.225204,-96.5864 49.649474,-145.5081 -129.291421,31.0685 -258.584371,62.1306 -387.885771,93.1562 -179.12169,-165.319 -358.34675,-330.5222 -537.54974,-495.75 -19.7341,243.2188 -39.46822,486.4375 -59.20236,729.65625 z"
         id="path17045"
         style="fill:url(#linearGradient18196);fill-opacity:1;stroke:none" />
    </g>
    <g
       transform="matrix(-0.04375211,-0.0514985,0.0514985,-0.04375211,600.79187,-117.08715)"
       id="g17049">
      <path
         d="m 79.999995,-301.92349 -822.604975,-89.12145 -539.76352,627.11795 -169.4394,-809.88387 -763.2207,-319.55552 717.8857,-411.41432 68.0672,-824.6141 613.11708,555.6158 805.288558,-190.084 -338.958458,754.8038 z"
         transform="matrix(0.97625854,0,0,0.99538674,437.51279,447.06137)"
         id="path17051"
         style="opacity:0.8495575;fill:#000000;fill-opacity:1;stroke:none;filter:url(#filter17007)" />
      <path
         d="m 79.999995,-301.92349 -822.604975,-89.12145 -539.76352,627.11795 -169.4394,-809.88387 -763.2207,-319.55552 717.8857,-411.41432 68.0672,-824.6141 613.11708,555.6158 805.288558,-190.084 -338.958458,754.8038 z"
         transform="translate(434.28571,445.71429)"
         id="path17053"
         style="opacity:0.78761058;fill:#ff6600;fill-opacity:1;stroke:none" />
      <path
         d="m 79.999995,-301.92349 -822.604975,-89.12145 -539.76352,627.11795 -169.4394,-809.88387 -763.2207,-319.55552 717.8857,-411.41432 68.0672,-824.6141 613.11708,555.6158 805.288558,-190.084 -338.958458,754.8038 z"
         transform="matrix(-0.7446731,-0.52829332,0.52829332,-0.7446731,-747.4126,-1770.0372)"
         id="path17055"
         style="opacity:0.58407078;fill:#ffff00;fill-opacity:1;stroke:none" />
      <path
         d="m -1010.7718,-832.84375 c 0,8.25172 -8.739,11.06946 -14.6163,14.1875 -96.4914,56.82683 -193.5194,112.92999 -290.2171,169.47854 -108.3503,63.18423 -216.7007,126.36847 -325.051,189.55271 187.0543,79.70833 374.1087,159.41667 561.1631,239.125 184.08624,-71.85488 366.35561,-150.12487 540.20089,-245.18304 80.39465,-44.4593 159.27074,-92.25217 229.77617,-151.874 38.95037,-33.25109 71.98867,-73.0008 99.61082,-116.40786 56.45584,-87.15154 97.4236,-183.32248 134.121817,-280.4332 17.873893,-48.0348 34.225204,-96.5864 49.649474,-145.5081 -129.291421,31.0685 -258.584371,62.1306 -387.885771,93.1562 -179.12169,-165.319 -358.34675,-330.5222 -537.54974,-495.75 -19.7341,243.2188 -39.46822,486.4375 -59.20236,729.65625 z"
         id="path17057"
         style="fill:url(#linearGradient18198);fill-opacity:1;stroke:none" />
    </g>
    <g
       transform="matrix(0.0505833,0.02597351,-0.02597351,0.0505833,655.06203,475.41618)"
       id="g17095">
      <path
         d="m 79.999995,-301.92349 -822.604975,-89.12145 -539.76352,627.11795 -169.4394,-809.88387 -763.2207,-319.55552 717.8857,-411.41432 68.0672,-824.6141 613.11708,555.6158 805.288558,-190.084 -338.958458,754.8038 z"
         transform="matrix(0.97625854,0,0,0.99538674,437.51279,447.06137)"
         id="path17097"
         style="opacity:0.8495575;fill:#000000;fill-opacity:1;stroke:none;filter:url(#filter17007)" />
      <path
         d="m 79.999995,-301.92349 -822.604975,-89.12145 -539.76352,627.11795 -169.4394,-809.88387 -763.2207,-319.55552 717.8857,-411.41432 68.0672,-824.6141 613.11708,555.6158 805.288558,-190.084 -338.958458,754.8038 z"
         transform="translate(434.28571,445.71429)"
         id="path17099"
         style="opacity:0.78761058;fill:#ff6600;fill-opacity:1;stroke:none" />
      <path
         d="m 79.999995,-301.92349 -822.604975,-89.12145 -539.76352,627.11795 -169.4394,-809.88387 -763.2207,-319.55552 717.8857,-411.41432 68.0672,-824.6141 613.11708,555.6158 805.288558,-190.084 -338.958458,754.8038 z"
         transform="matrix(-0.7446731,-0.52829332,0.52829332,-0.7446731,-747.4126,-1770.0372)"
         id="path17101"
         style="opacity:0.58407078;fill:#ffff00;fill-opacity:1;stroke:none" />
      <path
         d="m -1010.7718,-832.84375 c 0,8.25172 -8.739,11.06946 -14.6163,14.1875 -96.4914,56.82683 -193.5194,112.92999 -290.2171,169.47854 -108.3503,63.18423 -216.7007,126.36847 -325.051,189.55271 187.0543,79.70833 374.1087,159.41667 561.1631,239.125 184.08624,-71.85488 366.35561,-150.12487 540.20089,-245.18304 80.39465,-44.4593 159.27074,-92.25217 229.77617,-151.874 38.95037,-33.25109 71.98867,-73.0008 99.61082,-116.40786 56.45584,-87.15154 97.4236,-183.32248 134.121817,-280.4332 17.873893,-48.0348 34.225204,-96.5864 49.649474,-145.5081 -129.291421,31.0685 -258.584371,62.1306 -387.885771,93.1562 -179.12169,-165.319 -358.34675,-330.5222 -537.54974,-495.75 -19.7341,243.2188 -39.46822,486.4375 -59.20236,729.65625 z"
         id="path17103"
         style="fill:url(#linearGradient18200);fill-opacity:1;stroke:none" />
    </g>
    <g
       transform="matrix(0.17008038,0,0,0.17008038,425.39428,590.05954)"
       id="g17019">
      <path
         d="m 79.999995,-301.92349 -822.604975,-89.12145 -539.76352,627.11795 -169.4394,-809.88387 -763.2207,-319.55552 717.8857,-411.41432 68.0672,-824.6141 613.11708,555.6158 805.288558,-190.084 -338.958458,754.8038 z"
         transform="matrix(0.97625854,0,0,0.99538674,437.51279,447.06137)"
         id="path17001"
         style="opacity:0.8495575;fill:#000000;fill-opacity:1;stroke:none;filter:url(#filter17007)" />
      <path
         d="m 79.999995,-301.92349 -822.604975,-89.12145 -539.76352,627.11795 -169.4394,-809.88387 -763.2207,-319.55552 717.8857,-411.41432 68.0672,-824.6141 613.11708,555.6158 805.288558,-190.084 -338.958458,754.8038 z"
         transform="translate(434.28571,445.71429)"
         id="path16976"
         style="opacity:0.78761058;fill:#ff6600;fill-opacity:1;stroke:none" />
      <path
         d="m 79.999995,-301.92349 -822.604975,-89.12145 -539.76352,627.11795 -169.4394,-809.88387 -763.2207,-319.55552 717.8857,-411.41432 68.0672,-824.6141 613.11708,555.6158 805.288558,-190.084 -338.958458,754.8038 z"
         transform="matrix(-0.7446731,-0.52829332,0.52829332,-0.7446731,-747.4126,-1770.0372)"
         id="path16978"
         style="opacity:0.58407078;fill:#ffff00;fill-opacity:1;stroke:none" />
      <path
         d="m -1010.7718,-832.84375 c 0,8.25172 -8.739,11.06946 -14.6163,14.1875 -96.4914,56.82683 -193.5194,112.92999 -290.2171,169.47854 -108.3503,63.18423 -216.7007,126.36847 -325.051,189.55271 187.0543,79.70833 374.1087,159.41667 561.1631,239.125 184.08624,-71.85488 366.35561,-150.12487 540.20089,-245.18304 80.39465,-44.4593 159.27074,-92.25217 229.77617,-151.874 38.95037,-33.25109 71.98867,-73.0008 99.61082,-116.40786 56.45584,-87.15154 97.4236,-183.32248 134.121817,-280.4332 17.873893,-48.0348 34.225204,-96.5864 49.649474,-145.5081 -129.291421,31.0685 -258.584371,62.1306 -387.885771,93.1562 -179.12169,-165.319 -358.34675,-330.5222 -537.54974,-495.75 -19.7341,243.2188 -39.46822,486.4375 -59.20236,729.65625 z"
         id="path16988"
         style="fill:url(#linearGradient18202);fill-opacity:1;stroke:none" />
    </g>
    <g
       transform="matrix(0.01480695,-0.0863179,0.0863179,0.01480695,277.57168,-234.05577)"
       id="g17498">
      <path
         d="m 79.999995,-301.92349 -822.604975,-89.12145 -539.76352,627.11795 -169.4394,-809.88387 -763.2207,-319.55552 717.8857,-411.41432 68.0672,-824.6141 613.11708,555.6158 805.288558,-190.084 -338.958458,754.8038 z"
         transform="matrix(0.97625854,0,0,0.99538674,437.51279,447.06137)"
         id="path17500"
         style="opacity:0.8495575;fill:#000000;fill-opacity:1;stroke:none;filter:url(#filter17007)" />
      <path
         d="m 79.999995,-301.92349 -822.604975,-89.12145 -539.76352,627.11795 -169.4394,-809.88387 -763.2207,-319.55552 717.8857,-411.41432 68.0672,-824.6141 613.11708,555.6158 805.288558,-190.084 -338.958458,754.8038 z"
         transform="translate(434.28571,445.71429)"
         id="path17502"
         style="opacity:0.78761058;fill:#ff6600;fill-opacity:1;stroke:none" />
      <path
         d="m 79.999995,-301.92349 -822.604975,-89.12145 -539.76352,627.11795 -169.4394,-809.88387 -763.2207,-319.55552 717.8857,-411.41432 68.0672,-824.6141 613.11708,555.6158 805.288558,-190.084 -338.958458,754.8038 z"
         transform="matrix(-0.7446731,-0.52829332,0.52829332,-0.7446731,-747.4126,-1770.0372)"
         id="path17504"
         style="opacity:0.58407078;fill:#ffff00;fill-opacity:1;stroke:none" />
      <path
         d="m -1010.7718,-832.84375 c 0,8.25172 -8.739,11.06946 -14.6163,14.1875 -96.4914,56.82683 -193.5194,112.92999 -290.2171,169.47854 -108.3503,63.18423 -216.7007,126.36847 -325.051,189.55271 187.0543,79.70833 374.1087,159.41667 561.1631,239.125 184.08624,-71.85488 366.35561,-150.12487 540.20089,-245.18304 80.39465,-44.4593 159.27074,-92.25217 229.77617,-151.874 38.95037,-33.25109 71.98867,-73.0008 99.61082,-116.40786 56.45584,-87.15154 97.4236,-183.32248 134.121817,-280.4332 17.873893,-48.0348 34.225204,-96.5864 49.649474,-145.5081 -129.291421,31.0685 -258.584371,62.1306 -387.885771,93.1562 -179.12169,-165.319 -358.34675,-330.5222 -537.54974,-495.75 -19.7341,243.2188 -39.46822,486.4375 -59.20236,729.65625 z"
         id="path17506"
         style="fill:url(#linearGradient18204);fill-opacity:1;stroke:none" />
    </g>
    <g
       transform="matrix(0.01717471,-0.02018744,0.02018744,0.01717471,-58.408387,92.245198)"
       id="g17510">
      <path
         d="m 79.999995,-301.92349 -822.604975,-89.12145 -539.76352,627.11795 -169.4394,-809.88387 -763.2207,-319.55552 717.8857,-411.41432 68.0672,-824.6141 613.11708,555.6158 805.288558,-190.084 -338.958458,754.8038 z"
         transform="matrix(0.97625854,0,0,0.99538674,437.51279,447.06137)"
         id="path17512"
         style="opacity:0.8495575;fill:#000000;fill-opacity:1;stroke:none;filter:url(#filter17007)" />
      <path
         d="m 79.999995,-301.92349 -822.604975,-89.12145 -539.76352,627.11795 -169.4394,-809.88387 -763.2207,-319.55552 717.8857,-411.41432 68.0672,-824.6141 613.11708,555.6158 805.288558,-190.084 -338.958458,754.8038 z"
         transform="translate(434.28571,445.71429)"
         id="path17514"
         style="opacity:0.78761058;fill:#ff6600;fill-opacity:1;stroke:none" />
      <path
         d="m 79.999995,-301.92349 -822.604975,-89.12145 -539.76352,627.11795 -169.4394,-809.88387 -763.2207,-319.55552 717.8857,-411.41432 68.0672,-824.6141 613.11708,555.6158 805.288558,-190.084 -338.958458,754.8038 z"
         transform="matrix(-0.7446731,-0.52829332,0.52829332,-0.7446731,-747.4126,-1770.0372)"
         id="path17516"
         style="opacity:0.58407078;fill:#ffff00;fill-opacity:1;stroke:none" />
      <path
         d="m -1010.7718,-832.84375 c 0,8.25172 -8.739,11.06946 -14.6163,14.1875 -96.4914,56.82683 -193.5194,112.92999 -290.2171,169.47854 -108.3503,63.18423 -216.7007,126.36847 -325.051,189.55271 187.0543,79.70833 374.1087,159.41667 561.1631,239.125 184.08624,-71.85488 366.35561,-150.12487 540.20089,-245.18304 80.39465,-44.4593 159.27074,-92.25217 229.77617,-151.874 38.95037,-33.25109 71.98867,-73.0008 99.61082,-116.40786 56.45584,-87.15154 97.4236,-183.32248 134.121817,-280.4332 17.873893,-48.0348 34.225204,-96.5864 49.649474,-145.5081 -129.291421,31.0685 -258.584371,62.1306 -387.885771,93.1562 -179.12169,-165.319 -358.34675,-330.5222 -537.54974,-495.75 -19.7341,243.2188 -39.46822,486.4375 -59.20236,729.65625 z"
         id="path17518"
         style="fill:url(#linearGradient18206);fill-opacity:1;stroke:none" />
    </g>
    <g
       transform="matrix(0.0255398,-0.00708676,0.00708676,0.0255398,-89.201466,-157.24383)"
       id="g17522">
      <path
         d="m 79.999995,-301.92349 -822.604975,-89.12145 -539.76352,627.11795 -169.4394,-809.88387 -763.2207,-319.55552 717.8857,-411.41432 68.0672,-824.6141 613.11708,555.6158 805.288558,-190.084 -338.958458,754.8038 z"
         transform="matrix(0.97625854,0,0,0.99538674,437.51279,447.06137)"
         id="path17524"
         style="opacity:0.8495575;fill:#000000;fill-opacity:1;stroke:none;filter:url(#filter17007)" />
      <path
         d="m 79.999995,-301.92349 -822.604975,-89.12145 -539.76352,627.11795 -169.4394,-809.88387 -763.2207,-319.55552 717.8857,-411.41432 68.0672,-824.6141 613.11708,555.6158 805.288558,-190.084 -338.958458,754.8038 z"
         transform="translate(434.28571,445.71429)"
         id="path17526"
         style="opacity:0.78761058;fill:#ff6600;fill-opacity:1;stroke:none" />
      <path
         d="m 79.999995,-301.92349 -822.604975,-89.12145 -539.76352,627.11795 -169.4394,-809.88387 -763.2207,-319.55552 717.8857,-411.41432 68.0672,-824.6141 613.11708,555.6158 805.288558,-190.084 -338.958458,754.8038 z"
         transform="matrix(-0.7446731,-0.52829332,0.52829332,-0.7446731,-747.4126,-1770.0372)"
         id="path17528"
         style="opacity:0.58407078;fill:#ffff00;fill-opacity:1;stroke:none" />
      <path
         d="m -1010.7718,-832.84375 c 0,8.25172 -8.739,11.06946 -14.6163,14.1875 -96.4914,56.82683 -193.5194,112.92999 -290.2171,169.47854 -108.3503,63.18423 -216.7007,126.36847 -325.051,189.55271 187.0543,79.70833 374.1087,159.41667 561.1631,239.125 184.08624,-71.85488 366.35561,-150.12487 540.20089,-245.18304 80.39465,-44.4593 159.27074,-92.25217 229.77617,-151.874 38.95037,-33.25109 71.98867,-73.0008 99.61082,-116.40786 56.45584,-87.15154 97.4236,-183.32248 134.121817,-280.4332 17.873893,-48.0348 34.225204,-96.5864 49.649474,-145.5081 -129.291421,31.0685 -258.584371,62.1306 -387.885771,93.1562 -179.12169,-165.319 -358.34675,-330.5222 -537.54974,-495.75 -19.7341,243.2188 -39.46822,486.4375 -59.20236,729.65625 z"
         id="path17530"
         style="fill:url(#linearGradient18208);fill-opacity:1;stroke:none" />
    </g>
  </g>
</svg>
