<?xml version="1.0" encoding="UTF-8" standalone="no"?>
<!-- Generator: Adobe Illustrator 18.1.1, SVG Export Plug-In . SVG Version: 6.00 Build 0)  -->

<svg
   xmlns:dc="http://purl.org/dc/elements/1.1/"
   xmlns:cc="http://creativecommons.org/ns#"
   xmlns:rdf="http://www.w3.org/1999/02/22-rdf-syntax-ns#"
   xmlns:svg="http://www.w3.org/2000/svg"
   xmlns="http://www.w3.org/2000/svg"
   xmlns:sodipodi="http://sodipodi.sourceforge.net/DTD/sodipodi-0.dtd"
   xmlns:inkscape="http://www.inkscape.org/namespaces/inkscape"
   version="1.1"
   id="Layer_1"
   x="0px"
   y="0px"
   viewBox="0 0 595.28 841.89"
   style="enable-background:new 0 0 595.28 841.89;"
   xml:space="preserve"
   inkscape:version="0.48.4 r9939"
   width="100%"
   height="100%"
   sodipodi:docname="Contacts.svg"><metadata
     id="metadata59"><rdf:RDF><cc:Work
         rdf:about=""><dc:format>image/svg+xml</dc:format><dc:type
           rdf:resource="http://purl.org/dc/dcmitype/StillImage" /></cc:Work></rdf:RDF></metadata><defs
     id="defs57" /><sodipodi:namedview
     pagecolor="#ffffff"
     bordercolor="#666666"
     borderopacity="1"
     objecttolerance="10"
     gridtolerance="10"
     guidetolerance="10"
     inkscape:pageopacity="0"
     inkscape:pageshadow="2"
     inkscape:window-width="1476"
     inkscape:window-height="1005"
     id="namedview55"
     showgrid="false"
     inkscape:zoom="8.970293"
     inkscape:cx="297.64"
     inkscape:cy="376.35337"
     inkscape:window-x="75"
     inkscape:window-y="34"
     inkscape:window-maximized="0"
     inkscape:current-layer="Layer_1" /><g
     id="g3"><linearGradient
       id="SVGID_1_"
       gradientUnits="userSpaceOnUse"
       x1="297.7009"
       y1="325.1676"
       x2="297.7009"
       y2="517.5647"><stop
         offset="0"
         style="stop-color:#FFFFFF;stop-opacity:0.7"
         id="stop6" /><stop
         offset="0.9987"
         style="stop-color:#D8D9D8;stop-opacity:0.7"
         id="stop8" /></linearGradient><path
       style="fill-rule:evenodd;clip-rule:evenodd;fill:url(#SVGID_1_);"
       d="M210.25,519.623c-5.608,0-10.17-4.562-10.17-10.171   V333.066c0-5.608,4.562-10.17,10.17-10.17h174.902c5.607,0,10.17,4.562,10.17,10.17v176.386c0,5.608-4.562,10.171-10.17,10.171   H210.25z"
       id="path10" /><path
       style="fill:#D8D8D7;"
       d="M385.152,323.396c5.332,0,9.67,4.338,9.67,9.67v176.387c0,5.332-4.338,9.67-9.67,9.67H210.25   c-5.332,0-9.67-4.338-9.67-9.67V333.066c0-5.332,4.338-9.67,9.67-9.67H385.152 M385.152,322.396H210.25   c-5.893,0-10.67,4.777-10.67,10.67v176.387c0,5.893,4.777,10.67,10.67,10.67h174.903c5.893,0,10.67-4.777,10.67-10.67V333.066   C395.823,327.173,391.045,322.396,385.152,322.396L385.152,322.396z"
       id="path12" /></g><g
     id="g14"><linearGradient
       id="SVGID_2_"
       gradientUnits="userSpaceOnUse"
       x1="297.2358"
       y1="364.1608"
       x2="297.2358"
       y2="475.7324"><stop
         offset="0.0049"
         style="stop-color:#F48347"
         id="stop17" /><stop
         offset="1"
         style="stop-color:#E4773B"
         id="stop19" /></linearGradient><path
       style="fill-rule:evenodd;clip-rule:evenodd;fill:url(#SVGID_2_);"
       d="M344.71,476.058c-0.364,0-0.589-0.024-0.603-0.026   l-95.657-0.003c-3.342,0-6.062-2.719-6.062-6.062V369.656c0-3.342,2.719-6.062,6.062-6.062h90.311c3.343,0,6.062,2.719,6.062,6.062   v90.311c0,3.343-2.719,6.062-6.062,6.062l-89.272,0.153l-0.402,5.875l0.537-0.002c0.718-0.002,71.989-0.204,91.555-0.204   c4.732,0,7.132-2.618,7.132-7.782c0-19.79-0.299-85.429-0.329-92.176c1.185,0.195,3.999,1.104,3.999,5.334   c0,0.901,0.076,90.378,0.104,90.752l-0.012-0.107C352.071,475.26,346.923,476.058,344.71,476.058z"
       id="path21" /><path
       style="fill:#CF6A38;"
       d="M338.761,364.095c3.067,0,5.561,2.495,5.561,5.561v90.311c0,3.067-2.495,5.561-5.563,5.561   l-88.806,0.152l-0.932,0.002l-0.064,0.93l-0.333,4.874l-0.073,1.071l1.074-0.003c0.718-0.002,71.989-0.204,91.553-0.204   c3.482,0,7.632-1.437,7.632-8.282c0-19.292-0.284-82.148-0.327-91.557c1.203,0.355,2.997,1.434,2.997,4.715   c0,0.879,0.062,85.883,0.11,90.645h-0.018c0,2.311-0.669,7.685-6.862,7.685c-0.338,0-0.544-0.022-0.544-0.022l0,0l-0.058-0.007   h-0.058h-95.6c-3.067,0-5.561-2.495-5.561-5.561V369.656c0-3.067,2.495-5.561,5.561-5.561H338.761 M338.761,363.095H248.45   c-3.624,0-6.561,2.938-6.561,6.561v100.311c0,3.624,2.938,6.561,6.561,6.561h95.6c0,0,0.248,0.029,0.66,0.029   c2.001,0,7.862-0.683,7.862-8.685c-0.002-0.008-0.092-84.82-0.092-90.645c0-5.825-5.002-5.888-5.002-5.888   s0.332,71.724,0.332,92.73c0,5.221-2.548,7.282-6.632,7.282c-19.792,0-91.556,0.204-91.556,0.204l0.333-4.874l88.806-0.152   c3.624,0,6.561-2.938,6.561-6.561v-90.311C345.322,366.033,342.385,363.095,338.761,363.095L338.761,363.095z"
       id="path23" /></g><path
     style="fill:#b27b2e;fill-rule:evenodd"
     d="m 347.478,371.339 -2.156,-1.683 c 0,-3.624 -2.938,-6.561 -6.562,-6.561 l -90.31,0 c -3.624,0 -6.561,2.938 -6.561,6.561 l 0,1.5 c 0,-3.624 2.938,-6.561 6.561,-6.561 l 90.31,0 c 3.624,0 6.562,2.938 6.562,6.561 l 2.156,1.683"
     id="path25"
     inkscape:connector-curvature="0"
     sodipodi:nodetypes="ccssscsscc" /><g
     id="g27"><path
       style="fill:#e1dfe2;fill-rule:evenodd"
       d="m 344.05,476.528 -95.6,0 c -3.624,0 -6.561,-2.938 -6.561,-6.562 l 0,1.663 c 0,3.624 2.938,6.255 6.561,6.255 l 95.6,0 c 0,0 8.521,1.299 8.521,-8.35 0.0282,-3.61847 0.67639,7.26515 -8.521,6.994 z"
       id="path29"
       inkscape:connector-curvature="0"
       sodipodi:nodetypes="cscssccc" /></g><path
     style="fill-rule:evenodd;clip-rule:evenodd;fill:#BF602E;"
     d="M326.265,452.762v-1.605c0,0-16.147-13.713-24.628-13.713  v-8.251c0,0,13.161-2.772,13.161-15.726c0-8.241,3.257-31.365-20.097-31.365c-0.624,0-0.624,0-1.247,0  c-23.354,0-20.097,23.123-20.097,31.365c0,12.675,13.161,15.726,13.161,15.726v8.251c-8.332,0-24.628,13.713-24.628,13.713v1.605  H326.265z"
     id="path31" /><g
     id="g33"><linearGradient
       id="SVGID_3_"
       gradientUnits="userSpaceOnUse"
       x1="298.7244"
       y1="371.7798"
       x2="298.7244"
       y2="472.5517"><stop
         offset="0"
         style="stop-color:#F9F3D9"
         id="stop36" /><stop
         offset="1"
         style="stop-color:#EAE3CA"
         id="stop38" /></linearGradient><path
       style="fill-rule:evenodd;clip-rule:evenodd;fill:url(#SVGID_3_);"
       d="M250.188,466.931l88.572-0.152   c3.756,0,6.812-3.056,6.812-6.812v-88.86l1.66,1.191c0.016,3.412,0.327,71.541,0.327,91.771c0,4.732-2.088,7.032-6.382,7.032   c-18.957,0-86.452,0.189-91.289,0.203L250.188,466.931z"
       id="path40" /><path
       style="fill:#FFFCF3;"
       d="M345.822,371.593l1.161,0.833c0.039,8.466,0.327,72.223,0.327,91.643   c0,4.563-2.006,6.782-6.132,6.782c-18.664,0-84.381,0.183-91.02,0.202l0.265-3.873l88.339-0.151c3.894,0,7.061-3.168,7.061-7.061   V371.593 M345.322,370.619v89.348c0,3.624-2.938,6.561-6.561,6.561l-88.806,0.152l-0.333,4.874c0,0,71.764-0.204,91.556-0.204   c4.084,0,6.632-2.061,6.632-7.282c0-19.678-0.291-83.869-0.328-91.9L345.322,370.619L345.322,370.619z"
       id="path42" /></g><g
     id="g44"><linearGradient
       id="SVGID_4_"
       gradientUnits="userSpaceOnUse"
       x1="294.0769"
       y1="380.8504"
       x2="294.0769"
       y2="450.2294"><stop
         offset="0"
         style="stop-color:#F9F3D9"
         id="stop47" /><stop
         offset="1"
         style="stop-color:#EAE3CA"
         id="stop49" /></linearGradient><path
       style="fill-rule:evenodd;clip-rule:evenodd;fill:url(#SVGID_4_);"
       d="M262.494,450.906   c2.504-2.468,15.465-14.817,24.024-14.817h0.25v-8.699l-0.193-0.045c-0.13-0.03-12.968-3.158-12.968-15.483   c0-0.8-0.031-1.741-0.064-2.787c-0.207-6.352-0.554-16.984,5.473-23.21c3.287-3.396,8.145-5.118,14.438-5.118h1.247   c6.293,0,11.152,1.722,14.439,5.118c6.026,6.226,5.68,16.858,5.473,23.21c-0.034,1.046-0.064,1.986-0.064,2.787   c0,12.606-12.833,15.455-12.963,15.481l-0.198,0.042v8.704h0.25c8.56,0,21.521,12.35,24.023,14.817H262.494z"
       id="path51" /><path
       style="fill:#FFFCF3;"
       d="M294.701,380.997c6.223,0,11.02,1.696,14.259,5.042c5.953,6.15,5.609,16.716,5.403,23.028   c-0.035,1.067-0.065,1.988-0.065,2.795c0,12.388-12.243,15.126-12.764,15.237l-0.397,0.084v0.405v8.251v0.5h0.5   c8.051,0,20.11,11.121,23.41,14.318h-61.94c3.3-3.197,15.36-14.318,23.41-14.318h0.5v-0.5v-8.251l0-0.397l-0.386-0.09   c-0.522-0.122-12.774-3.118-12.774-15.239c0-0.806-0.03-1.728-0.065-2.795c-0.206-6.313-0.55-16.878,5.403-23.029   c3.238-3.345,8.036-5.042,14.259-5.042H294.701 M294.701,380.497c-0.624,0-0.624,0-1.247,0c-23.354,0-20.097,23.123-20.097,31.365   c0,12.675,13.161,15.726,13.161,15.726v8.251c-9.677,0-24.628,15.318-24.628,15.318h64.376c0,0-14.952-15.318-24.628-15.318v-8.251   c0,0,13.161-2.772,13.161-15.726C314.798,403.62,318.055,380.497,294.701,380.497L294.701,380.497z"
       id="path53" /></g></svg>