<?xml version="1.0" encoding="utf-8"?>
<!-- Generator: Adobe Illustrator 14.0.0, SVG Export Plug-In . SVG Version: 6.00 Build 43363)  -->
<!DOCTYPE svg PUBLIC "-//W3C//DTD SVG 1.1//EN" "http://www.w3.org/Graphics/SVG/1.1/DTD/svg11.dtd">
<svg version="1.1" id="Layer_1" xmlns="http://www.w3.org/2000/svg" xmlns:xlink="http://www.w3.org/1999/xlink" x="0px" y="0px"
	 width="612px" height="792px" viewBox="0 0 612 792" enable-background="new 0 0 612 792" xml:space="preserve">
<g>
	<polygon fill-rule="evenodd" clip-rule="evenodd" fill="#FFFFFF" points="209,300 401.756,300 401.756,492.756 209,492.756 
		209,300 	"/>
	<path fill-rule="evenodd" clip-rule="evenodd" d="M264.864,341.013l-0.07,0.211l-0.14,0.07l-0.141,0.07l-0.281-0.07l-0.421-0.14
		l-3.02-1.053l-0.21-0.141l-0.14-0.14l-0.07-0.351l-0.421-2.387l-0.07-0.281l-0.14-0.351l-0.281-0.422l-0.281-0.351l-0.281-0.352
		l-0.281-0.351l-0.21-0.211l-0.21-0.141l-0.211-0.14l-0.21-0.07l-0.21-0.14l-0.211-0.07l-0.21-0.07h-0.21l-0.211-0.07l-0.21-0.07
		h-0.211h-0.21l-0.21,0.07h-0.211l-0.21,0.07h-0.21l-0.211,0.07l-0.21,0.07l-0.281,0.07l-0.141,0.14l-0.211,0.07l-0.351,0.14
		l-0.211,0.141l-0.211,0.211l-0.28,0.14l-0.141,0.21l-0.211,0.281l-0.14,0.21l-0.21,0.21l-0.141,0.211l-0.141,0.281l-0.07,0.21
		l-0.14,0.281l-0.141,0.281l-0.14,0.281l-0.07,0.211l-0.141,0.281l-0.07,0.281l-0.14,0.281l-0.141,0.21l-0.07,0.281l-0.141,0.281
		l-0.211,0.14l-0.21,0.07l-0.492,0.07l-0.421,0.07l-0.421,0.14l-0.351,0.07l-0.351,0.141l-0.281,0.14l-0.281,0.141l-0.281,0.141
		l-0.281,0.14l-0.211,0.141l-0.21,0.14l-0.21,0.211l-0.211,0.07l-0.21,0.141l-0.141,0.141l-0.14,0.14l-0.211,0.07l-0.14,0.07
		l-0.141,0.07l-0.21,0.07l-0.632,0.141l-0.632,0.211l-0.562,0.281l-0.562,0.351l-0.421,0.351l-0.421,0.351l-0.351,0.421
		l-0.281,0.422l-0.281,0.491l-0.141,0.421l-0.14,0.562l-0.07,0.492l0.07,0.491l0.07,0.562l0.141,0.492l0.21,0.491l0.351,0.491
		l0.351,0.562l0.421,0.421l0.562,0.491l0.281,0.211l0.351,0.21l0.351,0.141l0.281,0.14l0.351,0.141l0.281,0.07l0.351,0.07
		l0.281,0.07l0.281,0.07h0.281l0.351,0.07h0.211h0.281h0.281h0.211h0.21l0.21,0.07h0.211l0.21,0.07l0.141,0.07l0.702,0.281
		l0.772,0.21l0.772,0.21l0.772,0.211l0.421,0.141l0.421,0.14l0.421,0.21l0.351,0.141l0.421,0.211l0.352,0.21l0.421,0.281
		l0.352,0.211l0.421,0.281l0.351,0.281l0.351,0.281l0.281,0.351l0.351,0.281l0.281,0.351l0.281,0.281l0.351,0.351l0.281,0.351
		l0.281,0.352l0.21,0.351l0.211,0.352l0.281,0.351h0.14l0.141-0.07v-0.281v-0.281l0.07-0.14l0.211,0.07l0.281,0.211l0.21,0.141
		l0.211,0.21l0.351,0.141l0.281,0.14l0.351,0.141l0.281,0.14l0.421,0.141l0.351,0.14l0.351,0.141l0.351,0.07l0.351,0.141l0.281,0.07
		l0.351,0.141l0.281,0.07l0.211,0.07l0.21,0.07l0.14,0.141h0.211v0.07l7.303,7.232l0.14,0.21l0.14,0.281l0.141,0.21l0.07,0.351
		l0.141,0.211l0.07,0.351l0.07,0.281l0.07,0.281l0.07,0.281l0.14,0.211l0.141,0.281l0.21,0.14l0.141,0.141h0.14h0.141l0.141-0.07
		l0.14-0.14l0.141-0.211l0.14-0.21l0.07-0.211v-0.21v-0.141l0.07-0.07l0.211,0.07l0.281,0.211l0.281,0.14l0.21,0.211l0.281,0.281
		l0.28,0.351l0.352,0.351l0.351,0.421l0.352,0.422l0.351,0.421l0.352,0.492l0.351,0.492l0.422,0.491l0.421,0.491l0.351,0.422
		l0.421,0.491l0.421,0.492l0.421,0.421l0.351,0.421l0.421,0.351l0.421,0.351l0.421,0.281l0.492,0.351l0.491,0.352l0.492,0.281
		l0.562,0.281l0.562,0.211l0.421,0.07l0.492,0.07l0.562,0.14l0.492,0.07l0.492,0.141l0.281,0.141l0.632,0.421l0.562,0.421
		l0.702,0.421l0.632,0.351l0.702,0.351l0.772,0.351l0.702,0.281l0.772,0.281l0.702,0.281l0.772,0.281l0.843,0.21l0.772,0.211
		l0.772,0.21l0.772,0.141l0.772,0.21l0.772,0.07l0.772,0.14l0.702,0.141l0.772,0.07l0.702,0.07l0.281,0.07l0.14,0.21l-0.07,0.14
		l-0.21,0.421l-0.07,0.141l-0.14,0.21v0.141l-0.141,0.07v0.141l-0.07,0.14v0.14v0.07v0.141v0.07l0.07,0.07l0.07,0.07l0.141,0.07
		h0.07h0.211h0.21h0.21l0.351-0.07h0.07l-0.07,0.141l-0.21,0.351l-0.141,0.14l-0.21,0.211l-0.281,0.21l-0.281,0.211l-0.351,0.281
		l-0.281,0.21l-0.421,0.281l-0.351,0.281l-0.351,0.351l-0.421,0.281l-0.351,0.281l-0.281,0.281l-0.281,0.351l-0.281,0.281
		l-0.21,0.281l-0.141,0.351l-0.141,0.281l-0.07,0.21v0.351l0.14,0.211l0.141,0.281v0.14v0.211l-0.211,0.141l-0.21,0.28l-0.21,0.211
		l-0.281,0.141l-0.28,0.281l-0.281,0.281l-0.21,0.351l-0.351,0.281l-0.211,0.351l-0.281,0.281l-0.281,0.352l-0.211,0.42l-0.21,0.352
		l-0.21,0.352l-0.141,0.421l-0.141,0.352l-0.07,0.351v0.352v0.351l0.07,0.421l0.141,0.281l0.211,0.352l0.07,0.28v0.281l-0.07,0.351
		l-0.07,0.211h-0.351l-0.211-0.07l-0.351-0.141l-0.281-0.14l-0.281-0.141l-0.351-0.211l-0.351-0.211l-0.351-0.21l-0.351-0.281
		l-0.351-0.281l-0.351-0.28l-0.351-0.281l-0.351-0.28l-0.351-0.281l-0.351-0.281l-0.281-0.28l-0.28-0.281l-0.281-0.28l-0.21-0.211
		l-0.281-0.281l-0.141-0.211l-0.141-0.141l-0.14-0.14l-0.21-0.07h-0.141h-0.141l-0.141,0.07l-0.14,0.07l-0.141,0.21l-0.07,0.211
		l-0.07,0.562v0.563v0.28l-0.07,0.141h-0.141l-0.281-0.141l-0.351-0.21l-0.351-0.07l-0.421-0.07l-0.351-0.141l-0.351-0.07h-0.421
		h-0.421l-0.421-0.07l-0.421,0.07h-0.421h-0.421l-0.421,0.07l-0.421,0.141l-0.351,0.07l-0.421,0.07l-0.421,0.14l-0.351,0.141
		l-0.352,0.07l-0.351,0.211l-0.352,0.141l-0.281,0.21l-0.281,0.211l-0.211,0.281l-0.21,0.28l-0.14,0.281l-0.141,0.21l-0.211,0.281
		l-0.21,0.211l-0.632,0.491l-0.632,0.491l-0.632,0.492l-0.421,0.421l-0.351,0.422l-0.421,0.491l-0.351,0.421l-0.421,0.492
		l-0.351,0.421l-0.281,0.491l-0.351,0.492l-0.281,0.491l-0.351,0.491l-0.281,0.491l-0.281,0.491l-0.352,0.563l-0.21,0.491
		l-0.281,0.562l-0.281,0.491l-0.281,0.563l-0.211,0.491l-0.21,0.562l-0.281,0.562l-0.141,0.352v0.141l0.141,0.141l0.281,0.069
		l0.21,0.07l0.07,0.07l-0.07,0.281l-1.124,2.809l-0.14,0.211h-0.141l-0.281-0.141l-2.809-1.756l-0.21-0.141l-0.141-0.14
		l-0.281-0.141l-0.21-0.211l-0.281-0.211l-0.211-0.21l-0.28-0.281l-0.211-0.211l-0.211-0.28l-0.21-0.281l-0.21-0.21l-0.141-0.211
		l-0.07-0.211l-0.07-0.211l-0.07-0.14l-0.21-0.141l-0.141,0.07l-0.281,0.21l-0.21,0.281l-0.21,0.352l-0.141,0.421l-0.07,0.351
		l-0.07,0.211l-0.21,0.141H260.3h-0.632l-0.632-0.07l-0.632-0.07l-0.632-0.07h-0.562h-0.702l-0.562,0.211l-0.632,0.211l-0.562,0.28
		l-0.562,0.281l-0.421,0.141l-0.421,0.14l-0.421,0.211l-0.351,0.141l-0.351,0.211l-0.351,0.14l-0.281,0.211l-0.351,0.211
		l-0.21,0.211l-0.281,0.21l-0.281,0.281l-0.21,0.28l-0.211,0.211l-0.21,0.352l-0.21,0.351l-0.211,0.281l-0.141,0.421l-0.21,0.352
		l-0.21,0.421l-0.141,0.422l-0.07,0.14l-0.07,0.07l-0.14,0.211l-0.07,0.07l-0.141,0.141l-0.21,0.14l-0.141,0.141l-0.21,0.141
		l-0.141,0.141l-0.21,0.141l-0.141,0.21l-0.21,0.141l-0.21,0.211l-0.141,0.211l-0.211,0.21l-0.14,0.211l-0.141,0.211l-0.14,0.21
		l-0.141,0.281l-0.14,0.281l-0.07,0.28l-0.07,0.352l-0.141,0.28v0.281l-0.07,0.28v0.211v0.211v0.28v0.211l0.07,0.211v0.141
		l0.07,0.21v0.211l0.07,0.211v0.211v0.21l0.07,0.211v0.211v0.21l-0.07,0.281l-0.07,0.913v0.842v0.772l0.07,0.843l0.141,0.702
		l0.14,0.702l0.211,0.702l0.351,0.632l0.352,0.632l0.351,0.492l0.421,0.491l0.492,0.421l0.562,0.422l0.632,0.351l0.632,0.281
		l0.772,0.211l0.772,0.21l0.772,0.07l0.843,0.07h0.983h0.21l0.141,0.07l0.07,0.141v0.28v0.281v0.141l0.141,0.141l0.351,0.069
		l0.562,0.07h0.562l0.492,0.141l0.562,0.141l0.562,0.28l0.562,0.281l0.562,0.281l0.492,0.351l0.562,0.281l0.351,0.21l0.421,0.211
		l0.351,0.281l0.421,0.28l0.421,0.281l0.351,0.351l0.421,0.281l0.351,0.281l0.422,0.351l0.351,0.352l0.421,0.28l0.351,0.352
		l0.421,0.28l0.351,0.352l0.351,0.211l0.351,0.28l0.351,0.281l0.351,0.21l0.351,0.211l0.351,0.211l0.843,0.351l0.842,0.352
		l0.983,0.28l0.913,0.211l1.053,0.141l0.913,0.07h1.053h0.983l0.913-0.141l0.983-0.211l0.913-0.21l0.913-0.352l0.772-0.491
		l0.772-0.491l0.702-0.563l0.632-0.702l0.562-0.772l0.421-0.842l0.351-0.983l0.281-1.054v-0.351l0.07-0.281v-0.351v-0.352v-0.351
		v-0.351v-0.352l-0.07-0.352v-0.351l-0.07-0.351l-0.07-0.352l-0.07-0.352v-0.351l-0.07-0.351l-0.07-0.352v-0.211v-0.21v-0.07h0.141
		l0.21,0.07h0.211h0.281l0.351-0.07l0.281-0.07l0.14-0.07l0.07-0.211l0.07-0.28v-0.352l-0.141-0.28l-0.21-0.211l-0.141-0.211
		l-0.21-0.211l-0.141-0.21l-0.14-0.281l-0.07-0.351l-0.07-0.281l-0.07-0.281l-0.07-0.351l-0.07-0.211v-0.28l-0.07-0.492
		l-0.141-0.421l-0.07-0.491l-0.07-0.492l-0.07-0.421v-0.491l-0.07-0.492l-0.07-0.421l-0.07-0.562v-0.422l-0.141-0.491l-0.07-0.491
		l-0.07-0.422l-0.14-0.491l-0.07-0.421l-0.07-0.281v-0.141l0.07-0.07l0.21-0.141l0.281-0.069l0.21-0.07l0.141-0.211l0.07-0.211
		v-0.21l-0.07-0.211l-0.07-0.211l-0.141-0.351c-0.281-0.563-0.281-1.756-0.14-2.388l0.14-0.351l0.07-0.352l0.141-0.281l0.21-0.421
		l0.141-0.352l0.21-0.351l0.21-0.281l0.211-0.351l0.21-0.352l0.281-0.28l0.211-0.281l0.281-0.28l0.21-0.281l0.281-0.211l0.21-0.141
		l0.21-0.14l0.281-0.141l0.141-0.07l0.211,0.141l0.281,0.28l0.351,0.141h0.421l0.492-0.07h0.562h0.491l0.492,0.07l0.492,0.07
		l0.562,0.07l0.491,0.141l0.492,0.07l0.492,0.21l0.491,0.141l0.492,0.211l0.562,0.211l0.421,0.28l0.492,0.211l0.492,0.28
		l0.421,0.211l0.421,0.352l0.421,0.28l0.421,0.281l0.422,0.28l0.14,0.141l0.281,0.281l0.351,0.281l0.351,0.351l0.351,0.421
		c0.843,0.843,1.755,1.615,2.598,2.458l0.141,0.141l0.21,0.21l0.14,0.141l0.211,0.211l0.141,0.141l0.21,0.141l0.14,0.14l0.211,0.141
		l0.21,0.141l0.211,0.07l0.14,0.07l0.421,0.07h0.281h0.141l0.14-0.07h0.211l0.281,0.07l0.492,0.28l0.421,0.211l0.492,0.211
		l0.491,0.14l0.562,0.07l0.492,0.141l0.491,0.07l0.491,0.141l0.492,0.141l0.351,0.07l0.07,0.14v0.352l-0.07,0.351l-0.141,0.352
		l-0.21,0.351l-0.211,0.422l-0.211,0.351l-0.21,0.422l-0.281,0.351l-0.281,0.422l-0.28,0.421l-0.352,0.421l-0.28,0.352l-0.281,0.421
		l-0.281,0.352l-0.21,0.421l-0.211,0.352l-0.21,0.351l-0.141,0.352l-0.141,0.351v0.352v0.28v0.352l0.141,0.211l0.211,0.069
		l0.21,0.141l0.141,0.141l-0.07,0.281l-0.281,0.772l-0.281,0.771l-0.21,0.772l-0.07,0.352l-0.07,0.28v0.352l-0.07,0.421v0.422v0.421
		v0.491v0.492v0.491v0.421l0.07,0.492l0.07,0.491l0.07,0.421l0.07,0.422l0.14,0.421l0.141,0.352l0.141,0.351l0.21,0.281l0.211,0.28
		l0.21,0.141l0.281,0.141l0.07,0.281l0.07,0.421l0.141,0.421l0.069,0.352l0.141,0.421l0.141,0.422l0.141,0.351l0.141,0.422
		l0.14,0.351l0.141,0.352l0.211,0.421l0.141,0.421l0.141,0.352l0.14,0.351l0.141,0.422l0.141,0.421l0.141,0.491l0.07,0.492
		l0.07,0.562l0.069,0.491l0.07,0.492l0.211,0.491l0.07,0.211l0.211,0.07h0.28h0.211h0.211l0.141,0.14l0.14,0.211l0.141,0.281
		l0.141,0.421l0.211,0.491l0.21,0.422l0.211,0.421l0.211,0.422l0.28,0.351l0.281,0.421l2.106,2.528l0.141,0.281v0.21l-0.141,0.211
		l-0.211,0.211l-0.141,0.21l-0.21,0.211l-1.334,2.388l-0.211,0.351l-0.281,0.351l-0.28,0.281l-0.352,0.281l-0.421,0.21l-0.422,0.281
		l-0.421,0.211l-0.491,0.21l-0.422,0.211l-0.491,0.211l-0.491,0.28l-0.492,0.211l-0.491,0.211l-0.491,0.28l-0.492,0.281
		l-0.491,0.281l-0.421,0.351l-0.491,0.351l-0.421,0.352l-0.351,0.421l-0.14,0.211l-0.141,0.141l-0.07,0.141l-0.14,0.21l-0.141,0.211
		l-0.07,0.141l-0.141,0.211l-0.07,0.21l-0.07,0.211l-0.07,0.211l-0.07,0.21l-0.07,0.211v0.211v0.211v0.21v0.211v0.211l0.07,0.21
		l0.07,0.211l0.07,0.141l0.14,0.28v0.211l-0.14,0.352l-0.07,0.28v0.352v0.351l-0.07,0.281v0.28v0.352l0.07,0.281v0.351l0.07,0.281
		l0.07,0.28l0.07,0.281l0.141,0.281l0.141,0.28l0.14,0.281l0.211,0.28l0.14,0.281l0.211,0.211l0.21,0.28l0.281,0.211l0.281,0.141
		l0.351,0.21l0.281,0.141l0.351,0.07l0.28,0.07l0.352,0.07l0.351,0.07l0.281,0.141l0.281,0.14l0.28,0.211l0.352,0.141l0.21,0.211
		l0.281,0.14l0.211,0.141l0.21,0.211l0.211,0.07l0.211,0.141l0.211,0.14l0.21,0.07l0.211,0.141l0.211,0.07l0.21,0.07h0.281
		l0.211,0.07h0.351l0.281,0.07h0.28h0.352l0.421-0.07h0.281l0.211,0.141l0.28,0.21l0.211,0.211l0.351,0.141l0.281,0.141l0.281,0.14
		l0.28,0.141l0.281,0.141l0.28,0.07l0.352,0.141l0.281,0.07l0.28,0.07l0.352,0.069l0.28,0.07l0.352,0.07l0.28,0.07h0.352l0.281,0.07
		h0.351h0.352l0.28,0.07h1.193l1.124-0.141l1.123-0.211l1.123-0.28l0.983-0.422l1.054-0.421l0.982-0.562l0.843-0.632l0.913-0.632
		l0.842-0.702l0.843-0.772l0.772-0.843l0.702-0.913l0.702-0.913l0.702-0.912l0.562-0.983l0.563-0.913l0.562-1.053l0.491-0.983
		l0.421-0.982l0.211-0.492l0.141-0.491l0.211-0.491l0.141-0.492l0.14-0.491l0.141-0.491l0.141-0.491l0.07-0.563l0.141-0.491v-0.772
		l0.07-0.772l0.14-0.772l0.07-0.351l0.141-0.141l0.141-0.14l0.351-0.07l0.211-0.141l0.07-0.352l0.07-0.562l-0.07-0.632l-0.141-0.562
		v-0.562v-0.492v-0.562v-0.491v-0.492v-0.491l-0.07-0.491l-0.07-0.491l-0.07-0.492l-0.14-0.421l-0.141-0.491l-0.141-0.422
		l-0.141-0.491l-0.21-0.422l-0.211-0.421l-0.211-0.421l-0.28-0.422l-0.281-0.421l-0.352-0.352l-0.351-0.421l-0.352-0.352l-0.28-0.28
		l-0.281-0.211l-0.28-0.281l-0.352-0.21l-0.351-0.211l-0.352-0.141l-0.351-0.141l-0.281-0.069l-0.141-0.141l0.07-0.281v-0.351
		l-0.141-0.281l-0.141-0.351l-0.28-0.211l-0.281-0.07l-0.28-0.07l-0.281-0.07h-0.281l-0.351-0.07l-0.281,0.07h-0.351l-0.281,0.07
		l-0.28,0.07l-2.037,1.053l-0.21,0.07l-0.141,0.07h-0.141l-0.141,0.07l-0.07-0.07h-0.14l-0.141-0.07l-0.07-0.07l-0.141-0.14
		l-0.141-0.141l-0.069-0.211l-0.211-0.28l-1.404-2.106l-0.141-0.211l-0.141-0.141l-0.07-0.141l-0.07-0.141v-0.14l0.141-0.141
		l0.211-0.281l0.141-0.141v-0.14v-0.141l-0.07-0.211l-0.211-0.28l-0.211-0.281l-0.21-0.281l-0.141-0.21l-0.141-0.281l-0.14-0.211
		l-0.141-0.21l-0.141-0.211l-0.07-0.211l-0.07-0.211l-0.141-0.21l-0.07-0.211l-0.07-0.211l-0.07-0.28l-0.07-0.211l-0.069-0.211
		l-0.07-0.28l-0.07-0.281l-0.07-0.28l-0.07-0.281l-0.07-0.352l-0.07-0.28l0.07-0.141l0.141-0.07l0.28-0.141l0.211-0.21l0.141-0.211
		v-0.351v-0.352v-0.421l0.07-0.352v-0.351v-0.352v-0.28v-0.352l0.07-0.351v-0.352l0.07-0.28l0.07-0.352l0.07-0.351l0.07-0.422
		l0.14-0.351l0.07-0.281l0.141-0.141l0.211-0.07h0.28h0.352l0.141-0.07l0.07-0.14v-0.211v-0.421v-0.422l0.069-0.351l0.07-0.422
		l0.07-0.351l0.141-0.281l0.07-0.351l0.141-0.352l0.14-0.28l0.211-0.281l0.141-0.281l0.141-0.28l0.21-0.281l0.141-0.28l0.141-0.281
		l0.07-0.281l0.141-0.28l0.07-0.281l0.069-0.28l0.07-0.281l0.211-2.388l0.07-0.28l0.281-0.211l2.879-1.193l0.562-0.211l0.491-0.281
		l0.562-0.351l0.492-0.422l0.562-0.421l0.491-0.491l0.491-0.492l0.422-0.562l0.491-0.562l0.421-0.632l0.352-0.632l0.351-0.632
		l0.281-0.632l0.352-0.633l0.21-0.632l0.141-0.632l0.141-0.702l0.07-0.562l0.07-0.632l-0.07-0.632v-0.281l0.141-0.07h0.21h0.492
		l0.351-0.14l0.352-0.211l0.351-0.141l0.211-0.141l0.141-0.28v-0.211l-0.07-0.422l-0.07-0.21l-0.07-0.281l-0.07-0.28l-0.07-0.281
		v-0.352l-0.07-0.28l-0.07-0.351v-0.281l-0.07-0.352v-0.351v-0.281v-0.351v-0.352v-0.28v-0.281v-0.351l0.07-0.281v-0.28l0.07-0.352
		l0.07-0.211l0.07-0.21l0.141-0.211l0.141-0.281l0.14-0.351l0.07-0.352l0.07-0.351l0.07-0.422v-0.421v-0.491l-0.07-0.492
		l-0.07-0.491l-0.07-0.491l-0.14-0.562l-0.07-0.492l-0.141-0.491l-0.141-0.492l-0.141-0.42l-0.14-0.421l-0.141-0.421l-0.141-0.421
		l-0.141-0.351l-0.141-0.281l-0.491-0.772l-0.491-0.772l-0.492-0.842l-0.14-0.281v-0.14l0.21-0.07h0.211l0.141-0.07l0.141-0.07
		l0.07-0.07l0.069-0.211l0.07-0.141v-0.14v-0.14v-0.211v-0.141v-0.21l-0.07-0.141l-0.069-0.14l-0.07-0.141l-0.07-0.141l-0.492-0.491
		l-0.491-0.562l-0.421-0.562l-0.352-0.562l-0.211-0.351l-0.14-0.351l-0.141-0.351l-0.141-0.351l-0.211-0.421l-0.14-0.421
		l-0.141-0.421l-0.211-0.421l-0.141-0.421l-0.141-0.351l-0.21-0.421l-0.211-0.421l-0.141-0.421l-0.21-0.351l-0.211-0.352
		l-0.211-0.351l-0.28-0.352l-0.211-0.351l-0.281-0.281l-0.28-0.21l-0.141-0.21v-0.211l0.07-0.211l0.21-0.491l0.211-0.491
		l3.862-5.056l0.21-0.281v-0.21l0,0h0.141l0.422-0.14l0.28-0.07l0.211-0.141l0.211-0.211l0.21-0.28l0.211-0.281l0.141-0.281
		l0.141-0.281l0.21-0.211l0.141-0.21l0.211-0.281l0.28-0.21l0.211-0.211l0.211-0.281l0.28-0.281l0.211-0.21l0.211-0.281l0.28-0.281
		l0.211-0.281l0.211-0.21l0.141-0.281l0.21-0.281l0.211-0.281l0.141-0.281l0.211-0.28l0.14-0.352l0.141-0.21l0.141-0.14l0.211,0.07
		l0.28,0.07l0.211-0.07l0.141-0.07l0.141-0.281l0.351-0.562l0.352-0.632l0.351-0.562l0.422-0.562l0.491-0.562l0.421-0.562
		l0.422-0.632l0.491-0.562l0.421-0.562l0.422-0.562l0.421-0.562l0.422-0.632l0.421-0.562l0.351-0.632l0.352-0.632l0.28-0.632
		l0.281-0.562l0.211-0.702l0.211-0.632l0.069-0.702l0.07-0.492l0.141-0.351l0.07-0.281l0.141-0.14l0.14-0.07l0.07-0.07l0.141-0.141
		l0.07-0.141l0.141-0.21l2.668-10.041l0.07-0.772l0.07-0.842l0.211-0.351l0.28-0.281l0.983-0.562l0.982-0.491l0.983-0.632
		l0.351-0.211l0.281-0.281l0.281-0.21l0.28-0.281l0.281-0.281l0.28-0.281l0.211-0.281l0.281-0.28l0.28-0.281l0.211-0.281
		l0.211-0.351l0.28-0.281l0.281-0.351l0.211-0.281l0.21-0.351l0.281-0.281l0.211-0.281l0.21-0.281l0.281-0.351l0.211-0.21
		l0.772-0.772l0.772-0.702l0.842-0.702l0.07-0.211v-0.21l0.07-0.141l0.141-0.21l0.211-0.21l0.28-0.281l0.352-0.281l0.351-0.281
		l0.422-0.281l0.351-0.281l0.352-0.281l0.351-0.28l0.281-0.211l0.21-0.211l0.352-0.491l0.351-0.492l0.281-0.562l0.211-0.632
		l0.21-0.632l0.211-0.632l0.07-0.632l0.07-0.632v-0.702l-0.07-0.632l-0.141-0.562l-0.141-0.632l-0.28-0.492l-0.352-0.491
		l-0.351-0.421l-0.491-0.351l-0.492-0.281l-0.632-0.211l-0.702-0.07l-0.772-0.07h-0.21v-0.351v-0.281l0.069-0.352v-0.281l0.07-0.281
		v-0.281l-0.07-0.281v-0.281l-0.069-0.21v-0.281l-0.07-0.281l-0.07-0.21l-0.141-0.21l-0.07-0.281l-0.141-0.21l-0.21-0.281
		l-0.141-0.141l-0.211-0.21l-0.211-0.281l-0.21-0.211l-0.281-0.21l-0.351-0.14l-0.352-0.141l-0.351-0.07l-0.422-0.07l-0.421-0.07
		l-0.422-0.07l-0.141-0.07l-0.21-0.141l-0.141-0.07l-0.141-0.14l-0.141-0.07l-0.07-0.14l-0.14-0.07l-0.07-0.141l-0.141-0.07
		l-0.07-0.07h-0.141h-0.141h-0.21h-0.211l-0.281,0.07l-0.28,0.141l-0.352,0.141h-0.28l-0.141-0.07l-0.07-0.211l-0.07-0.351
		l-0.211-0.281l-0.21-0.281l-0.211-0.281l-0.351-0.141l-0.352-0.141l-0.351-0.07l-0.352-0.07h-0.421h-0.422l-0.421,0.07h-0.421
		l-0.422,0.14l-0.352,0.07l-0.421,0.141l-0.351,0.21l-0.281,0.21L352,309.557l-0.28,0.21l-0.141,0.211l-0.351,0.491l-0.281,0.492
		l-0.281,0.492l-0.21,0.421l-0.141,0.421l-0.211,0.492l-0.14,0.421l-0.07,0.421l-0.141,0.421l-0.141,0.421l-0.07,0.421l-0.141,0.421
		l-0.07,0.421l-0.07,0.492l-0.14,0.351l-0.141,0.492l-0.141,0.421l-0.141,0.421l-0.21,0.421l-0.211,0.491l-0.07,0.211l-0.211,0.351
		l-0.14,0.351l-0.211,0.351l-0.211,0.351l-0.141,0.351l-0.21,0.281l-0.281,0.211l-0.211,0.14l-1.334,0.492h-0.141h-0.21l-0.211-0.07
		l-0.281-0.281l-0.351-0.351l-1.264-1.124l-0.281-0.21l-0.351-0.281l-0.422-0.281l-0.351-0.21l-0.422-0.211l-0.421-0.21
		l-0.422-0.141l-0.421-0.14l-0.491-0.141l-0.422-0.07l-0.491-0.07l-0.421-0.14h-0.492h-0.421h-0.491h-0.422l-0.421,0.07l-0.422,0.14
		l-0.421,0.07l-0.421,0.141l-0.492,0.21l-0.421,0.281l-0.422,0.281l-0.351,0.281l-0.281,0.351l-0.28,0.421l-0.211,0.422
		l-0.211,0.421l-0.14,0.492l-0.07,0.421l-0.07,0.491l-0.07,0.492l0.07,0.492l0.07,0.491l0.07,0.492l0.14,0.491l0.141,0.421
		l0.211,0.421l0.28,0.421l0.281,0.421l0.211,0.211l0.21,0.211l0.211,0.14l0.211,0.21l0.211,0.141l0.28,0.211l0.211,0.14l0.28,0.14
		l0.211,0.07l0.281,0.141l0.28,0.141l0.211,0.07l0.281,0.141l0.28,0.14l0.281,0.07l0.211,0.141l0.28,0.141l0.07,0.281l0.07,0.351
		l0.211,0.281l0.21,0.281l0.281,0.281l0.281,0.281l0.21,0.281l0.281,0.352l0.211,0.281l0.14,0.351l0.211,0.351l0.141,0.421
		l0.141,0.351l0.141,0.352l0.21,0.351l0.141,0.352l0.141,0.351l0.211,0.352l0.21,0.281l0.211,0.351l0.211,0.351l0.21,0.281
		l0.281,0.351l0.211,0.21l0.14,0.211v0.281l-0.069,0.281l-0.141,0.421l-0.07,0.351l-0.141,0.421l-0.141,0.351l-0.141,0.421
		l-0.14,0.351l-0.141,0.351l-0.141,0.351l-0.141,0.351l-0.21,0.351l-0.141,0.352l-0.141,0.351l-0.211,0.352l-0.141,0.351
		l-0.21,0.352l-0.211,0.351l-0.211,0.352l-0.14,0.351l-0.211,0.352l-0.211,0.351l-0.211,0.352l-0.069,0.21l0.14,0.14l0.211,0.07
		l0.352,0.07l0.14,0.141v0.21l-0.07,0.21l-0.28,0.702l-0.352,0.632l-3.511,5.407l-0.141,0.21h-0.14l-0.07-0.14l0.141-0.211
		l0.14-0.281l0.211-0.351l0.141-0.351l0.07-0.351l0.07-0.351l0.07-0.351l0.069-0.351l0.07-0.421v-0.351v-0.421v-0.421v-0.351
		l-0.07-0.421l-0.069-0.352v-0.421l-0.07-0.352v-0.351l-0.07-0.352l-0.07-0.351l-0.07-0.352v-0.21l0.07-0.21l0.07,0.07l0.351,0.07
		l0.352,0.07l0.351,0.07l0.352-0.07l0.351-0.07l0.211-0.211l0.141-0.141v-0.14l-0.07-0.141l-0.141-0.21l-0.211-0.351l-0.21-0.281
		l-0.141-0.281l-0.211-0.351l-0.141-0.281l-0.14-0.351l-0.07-0.351l-0.141-0.351l-0.07-0.351l-0.141-0.351l-0.07-0.351l-0.141-0.351
		l-0.069-0.351l-0.141-0.281l-0.141-0.351l-0.141-0.281l-0.211-0.351l-0.14-0.281l-0.211-0.281l-0.281-0.281l-0.14-0.21
		l-0.141-0.211l-0.07-0.14l0.07-0.141l0.07-0.14l0.21-0.211l0.211-0.281l0.141-0.281l0.07-0.421l0.07-0.21v-0.281l-0.07-0.21
		l-0.07-0.14l-0.281-0.141l-0.491-0.211l-0.491-0.21l-0.422-0.21l-0.421-0.211l-0.422-0.21l-0.351-0.21l-0.352-0.211l-0.351-0.211
		l-0.421-0.21l-0.352-0.21l-0.421-0.281l-0.422-0.28l-0.491-0.211l-0.281-0.211v-0.21l0.07-0.281l0.07-0.281l0.07-0.281l-0.07-0.211
		l-0.211-0.07h-0.351l-0.422-0.07h-0.421l-0.421-0.14l-0.352-0.07l-0.351-0.14l-0.352-0.07l-0.28-0.141l-0.281-0.14l-0.351-0.141
		l-0.281-0.141l-0.281-0.14l-0.351-0.141l-0.351-0.07l-0.352-0.07l-0.422-0.07l-0.421-0.07l-0.491-0.07h-0.562l-0.562,0.07
		l-0.633,0.07h-0.28l-0.141-0.07l-0.07-0.141l-0.07-0.281l-0.07-0.421l-0.14-0.351l-0.281-0.352l-0.211-0.14l-0.351-0.07
		l-0.211,0.07l-0.352,0.21l-0.421,0.281l-0.421,0.281l-0.422,0.21l-0.421,0.211l-0.422,0.281l-0.421,0.21l-0.491,0.141l-0.422,0.21
		l-0.491,0.141l-0.421,0.14h-0.211l-0.211-0.21v-0.421l-0.141-1.123l-0.28-1.054l-0.422-0.913l-0.491-0.913l-0.632-0.843
		l-0.702-0.702l-0.843-0.562l-0.843-0.492l-0.912-0.492l-0.913-0.281l-1.053-0.21l-0.983-0.07h-0.982l-0.983,0.141l-0.983,0.28
		l-0.913,0.422l-0.913,0.491l-0.843,0.632l-0.702,0.843l-0.632,0.913l-0.281,0.421l-0.281,0.421l-0.21,0.492l-0.211,0.491
		l-0.07,0.492l-0.21,1.193l-0.07,0.281l-0.281-0.07l-2.247-0.843l-0.913-0.281l-0.842-0.141h-0.843l-0.913,0.141l-0.842,0.211
		l-0.772,0.28l-0.772,0.421l-0.772,0.562l-0.702,0.491l-0.632,0.702l-0.562,0.702l-0.492,0.772l-0.421,0.772l-0.351,0.842
		l-0.281,0.913l-0.14,0.843l-0.07,0.913l0.07,0.913l0.21,0.983l0.351,0.842l0.141,0.421l0.21,0.421l0.141,0.421l0.21,0.421
		l0.281,0.421l0.281,0.351l1.194,1.124l0.21,0.21l-0.07,0.351l-1.755,3.44l-0.211,0.352l-0.21,0.351l-0.281,0.281l-0.351,0.351
		l-0.351,0.211l-0.351,0.281l-0.351,0.281l-0.421,0.281l-0.351,0.21l-0.421,0.281l-0.351,0.281l-0.281,0.21l-0.281,0.281
		l-0.281,0.211l-0.211,0.281l-0.141,0.281l-0.07,0.281v0.281v0.281l0.21,0.281l0.141,0.351l0.07,0.21v0.141h-0.07l-0.141,0.14
		l-0.21,0.07l-0.141,0.211l-1.755,2.106l-0.211,0.281h-0.14l-0.21-0.21l-3.722-4.213l-0.07-0.281l-0.07-0.421l0.07-0.421l0.07-0.421
		l0.07-0.352v-0.491v-0.491l-0.07-0.492l-0.07-0.492l-0.14-0.491l-0.07-0.562v-0.492l0.07-0.351l0.21-0.281l0.351-0.351l0.492-0.352
		l0.351-0.421l0.421-0.421l0.281-0.421l0.07-0.211l0.141-0.281l0.141-0.281l0.141-0.21l0.14-0.281l0.14-0.281l0.141-0.281
		l0.141-0.281l0.141-0.281l0.14-0.351l0.14-0.281l0.07-0.281l0.07-0.281l0.07-0.281l0.07-0.281v-0.21v-0.281l-0.141-0.913
		l-0.141-0.772l-0.351-0.702l-0.421-0.562l-0.492-0.421l-0.632-0.351l-0.632-0.281l-0.702-0.141h-0.702h-0.772l-0.772,0.141
		l-0.772,0.21l-0.772,0.21l-0.702,0.352l-0.702,0.421l-0.702,0.421l-0.562,0.562l-0.562,0.491l-0.421,0.632l-0.421,0.632
		L264.864,341.013L264.864,341.013z"/>
	<path fill-rule="evenodd" clip-rule="evenodd" fill="#ED1C24" d="M331.989,335.396l0.281,0.07l0.28,0.07l0.281,0.141l0.141,0.21
		l-0.07,0.21l-0.352,0.421L332.2,336.8l-0.211,0.141l-0.141,0.211v0.14l0.141,0.141l0.211,0.21l0.421,0.351l0.491,0.562l0.352,0.351
		l1.334,4.283l0.141,0.492l-0.07,0.21h-0.141l-1.545-0.562l-0.351-0.07l-0.211,0.14v0.211l0.281,0.281l0.351,0.421l0.352,0.491
		l0.21,0.492l0.211,0.562l0.07,0.632l0.07,0.562v0.702v0.632l-0.141,0.702l-0.07,0.702l-0.141,0.632l-0.14,0.702l-0.211,0.702
		l-0.141,0.702l-0.141,0.632l-0.21,0.632l-0.141,0.632l-0.141,0.632l-0.141,0.491v0.562l-0.07,0.281l-0.07,0.21l-0.14,0.07
		l-0.211-0.07l-0.281-0.07l-0.491-0.211l-0.141-0.07l-0.141,0.211l-0.07,0.351l-0.069,0.632l-0.07,0.632l-0.141,0.632l-0.211,0.562
		l-0.211,0.632l-0.28,0.562l-0.281,0.632l-0.28,0.492l-0.352,0.562l-0.351,0.562l-0.352,0.562l-0.421,0.492l-0.422,0.491
		l-0.421,0.562l-0.422,0.421l-0.421,0.491l-0.421,0.492l-0.492,0.421l-0.421,0.421l-0.421,0.492l-2.528,2.387l-0.069,0.141
		l0.069,0.07l0.07,0.07h0.07l2.668-1.474l0.491-0.281l0.422-0.351l0.351-0.422l0.352-0.421l0.351-0.421l0.352-0.421l0.351-0.351
		l0.352-0.421l0.351-0.351l0.281-0.422l0.281-0.351l0.351-0.421l0.211-0.351l0.28-0.421l0.211-0.351l0.281-0.421l0.21-0.421
		l0.211-0.421l0.211-0.422l0.211-0.421l0.14-0.492l0.211-0.492l0.141-0.421l0.211-0.562l0.14-0.492l0.07-0.21l0.211-0.141h0.281
		l0.21-0.07l0.141-0.07l0.141-0.07l0.141-0.14l0.14-0.07l0.07-0.14l0.141-0.141l0.07-0.141l0.07-0.21l0.07-0.141l0.07-0.21
		l0.07-0.14l0.07-0.211l0.069-0.141l0.07-0.21l0.07-0.14l0.07-0.211l0.07-0.141l0.141-0.14l0.07-0.141l0.421-0.492l0.352-0.491
		l0.421-0.491l0.352-0.422l0.351-0.562l0.422-0.491l0.351-0.492l0.352-0.562l0.351-0.491l0.281-0.562l0.351-0.562l0.352-0.492
		l0.28-0.562l0.281-0.562l0.28-0.562l0.281-0.562l0.281-0.562l0.21-0.562l0.281-0.562l0.211-0.562l0.07-0.351v-0.141h-0.141
		l-0.422,0.07l-0.21-0.07l0.21-0.21l0.141-0.21l1.756-4.705l0.07-0.21v-0.141l0.069-0.21v-0.211l0.07-0.14v-0.141l0.141-0.07h0.141
		h0.141l0.28,0.14l0.563,0.21l0.632,0.211h0.421l0.141-0.07v-0.21l-0.281-0.211l-0.491-0.281l-0.421-0.141l-0.352-0.21l-0.281-0.281
		l-0.351-0.281l-0.421-0.421l-0.211-0.211l-0.211-0.281l-0.211-0.281l-0.21-0.351l-0.211-0.351l-0.211-0.351l-0.21-0.351
		l-0.211-0.351l-0.211-0.421l-0.141-0.351l-0.21-0.421l-0.211-0.421l-0.141-0.352l-0.21-0.351l-0.211-0.352l-0.141-0.351
		l-0.211-0.352l-0.21-0.351l-0.07-0.211v-0.14h0.07h0.21l0.352,0.07l0.141-0.07l-0.07-0.211l-0.211-0.14l-0.211-0.211l-0.28-0.14
		l-0.281-0.141l-0.351-0.141l-0.281-0.21l-0.351-0.14l-0.352-0.141l-0.351-0.211l-0.281-0.14l-0.352-0.21l-0.351-0.211l-0.352-0.141
		l-0.351-0.21l-0.281-0.21l-0.28-0.211l-0.281-0.21l-0.211-0.141l-0.21-0.21l-0.211-0.281l-0.141-0.211l-0.351-0.562l-0.281-0.632
		l-0.141-0.632l-0.141-0.491v-0.562v-0.492l0.141-0.492l0.141-0.421l0.281-0.422l0.28-0.421l0.352-0.281l0.351-0.28l0.492-0.281
		l0.421-0.21l0.562-0.141l0.562-0.14l0.563-0.07h0.562l0.702,0.07l0.632,0.07l0.281,0.07l0.28,0.07l0.352,0.14l0.21,0.07
		l0.281,0.141l0.211,0.07l0.28,0.141l0.211,0.14l0.211,0.07l0.21,0.14l0.281,0.141l0.211,0.211l0.21,0.14l0.211,0.14l0.211,0.141
		l0.28,0.141l0.211,0.141l0.211,0.21l0.28,0.14l0.211,0.211l0.211,0.07l0.141,0.14l0.21,0.141l0.141,0.21l0.141,0.141l0.211,0.21
		l0.14,0.21l0.141,0.141l0.141,0.211l0.141,0.21l0.141,0.21l0.21,0.211l0.141,0.21l0.141,0.141l0.141,0.21l0.21,0.141l0.141,0.141
		l0.211,0.14l0.211,0.141l0.21,0.14l0.422,0.211h0.21v-0.211l-0.21-0.281l-0.492-0.421l-0.491-0.491l-0.351-0.562l-0.141-0.281
		l-0.07-0.141l0.141-0.14h0.28l0.492-0.141l0.491-0.21l0.421-0.351l0.352-0.351l0.351-0.492l0.352-0.562l0.351-0.562l0.281-0.632
		l0.28-0.702l0.211-0.632l0.211-0.702l0.211-0.772l0.21-0.702l0.211-0.702l0.211-0.702l0.21-0.632l0.211-0.632l0.211-0.562
		l0.211-0.491l0.21-0.421l0.211-0.281l0.21-0.281l0.211-0.281l0.211-0.21l0.281-0.211l0.21-0.281l0.281-0.14l0.28-0.211l0.281-0.14
		l0.281-0.141l0.28-0.07l0.281-0.14h0.28h0.352h0.28l0.352,0.07l0.281,0.14l0.28,0.141l0.352,0.21l0.28,0.211l0.211,0.21l0.141,0.14
		v0.141l-0.141,0.141l-0.211,0.21l-0.28,0.351l-0.281,0.281l-0.351,0.351l-0.211,0.351l-0.211,0.351l-0.211,0.421l-0.21,0.351
		l-0.141,0.421l-0.141,0.421l-0.211,0.422l-0.069,0.351l-0.211,0.421l-0.141,0.421l-0.07,0.421L354.177,317l-0.14,0.421
		l-0.141,0.421l-0.141,0.421l-0.211,0.421l-0.141,0.351l-0.421,0.772l-0.491,0.632L352,321.143l-0.28,0.421l-0.07,0.14h0.141
		l0.421-0.14l0.492-0.281l0.421-0.352l0.351-0.421l0.352-0.492l0.351-0.492l0.281-0.562l0.281-0.632l0.21-0.632l0.281-0.632
		l0.211-0.702l0.28-0.632l0.281-0.632l0.21-0.632l0.281-0.632l0.352-0.562l0.351-0.562l0.491-0.421l0.422-0.421l0.562-0.351
		l0.562-0.281l0.352-0.07l0.14,0.07v0.211l-0.14,0.281l-0.141,0.351l-0.07,0.14h0.141h0.421l0.632-0.07l0.562,0.07l0.492,0.07
		l0.562,0.141l0.421,0.14l0.492,0.211l0.351,0.21l0.352,0.281l0.28,0.281l0.211,0.351l0.211,0.352l0.141,0.351v0.421v0.421v0.421
		l-0.141,0.492l-0.211,0.491l-0.351,0.421l-0.352,0.492l-0.421,0.491l-0.281,0.281l-0.211,0.141l-0.14-0.07l-0.141-0.21
		l-0.141-0.141l-0.141,0.07l-0.281,0.141l-0.351,0.21l-0.352,0.281l-0.28,0.281l-0.281,0.28l-0.28,0.352l-0.211,0.281l-0.281,0.351
		l-0.21,0.351l-0.211,0.351l-0.211,0.351l-0.28,0.351l-0.211,0.351l-0.211,0.351l-0.28,0.351l-0.211,0.351l-0.281,0.281l-0.28,0.281
		l-0.281,0.281l-0.351,0.281l-0.352,0.21l-0.28,0.211l-0.07,0.21h0.21l0.352-0.07l0.351-0.14l0.281-0.141l0.351-0.211l0.281-0.21
		l0.211-0.21l0.28-0.281l0.281-0.21l0.211-0.281l0.21-0.281l0.211-0.28l0.211-0.211l0.21-0.281l0.211-0.351l0.281-0.211l0.21-0.351
		l0.211-0.211l0.211-0.281l0.211-0.281l0.28-0.281l0.281-0.21l0.141-0.14h0.14l0.07,0.07v0.21l0.07,0.281l0.141,0.141h0.211
		l0.141-0.211l0.28-0.491l0.352-0.492l0.421-0.351l0.352-0.281l0.491-0.21l0.421-0.21l0.422-0.07h0.421h0.491l0.422,0.07l0.421,0.14
		l0.422,0.211l0.351,0.281l0.281,0.351l0.28,0.351l0.281,0.421l0.141,0.492l0.14,0.491l0.07,0.562v0.632l-0.07,0.562l-0.14,0.492
		l-0.141,0.491l-0.211,0.421l-0.211,0.421l-0.28,0.421l-0.281,0.351l-0.351,0.351l-0.352,0.351l-0.351,0.351l-0.352,0.281
		l-0.351,0.281l-0.422,0.281l-0.421,0.281l-0.421,0.281l-0.422,0.281l-0.421,0.281l-0.492,0.281l-0.421,0.281l-0.351,0.281
		l-0.422,0.281l-0.141,0.21l0.211,0.141h0.352h0.21l0.07,0.14l-0.07,0.141l-0.28,0.21l-0.352,0.351l-0.421,0.351l-0.352,0.421
		l-0.421,0.421l-0.352,0.491l-0.421,0.492l-0.422,0.492l-0.351,0.562l-0.491,0.492l-0.422,0.492l-0.351,0.562l-0.492,0.491
		l-0.421,0.421l-0.421,0.492l-0.422,0.421l-0.491,0.351l-0.421,0.281l-0.492,0.281l-0.421,0.211l-0.491,0.21l-1.615,0.351
		l-0.141,0.141v0.281l0.141,0.351l0.07,0.281v1.404v0.351l-0.07,0.421v0.351l-0.141,0.421l-0.07,0.421l-0.141,0.421l-0.141,0.421
		l-0.069,0.351l-0.141,0.421l-0.141,0.421l-0.141,0.352l-0.14,0.421l-0.141,0.351l-0.141,0.772l-0.211,0.842l-0.07,0.772
		l-0.07,0.843l-0.14,0.772l-0.141,0.351l-0.211,0.07l-0.21-0.07l-0.211-0.351l-0.07-0.211l-0.211-0.07l-0.211,0.14l-0.14,0.351
		l-0.07,0.351v0.281l-0.07,0.351l-0.07,0.281v0.281l-0.07,0.281v0.351l-0.07,0.281l-0.07,0.281v0.281l-0.07,0.281l-0.069,0.281
		l-0.07,0.281l-0.07,0.281l-0.07,0.351l-0.141,0.281l-0.141,0.281l-0.141,0.281l-0.14,0.351l-0.211,0.421l-0.281,0.351l-0.21,0.351
		l-0.281,0.351l-0.211,0.351l-0.28,0.351l-0.281,0.421l-0.28,0.352l-0.281,0.351l-0.281,0.352l-0.28,0.351l-0.281,0.351l-0.28,0.351
		l-0.281,0.352l-0.211,0.421l-0.211,0.352l-0.28,0.421l-0.141,0.351l-0.211,0.421l-0.14,0.421l-0.211,0.281l-0.211,0.141
		l-0.141-0.07l-0.21-0.281l-0.141-0.281l-0.211-0.07l-0.28,0.14l-0.07,0.211l-0.07,0.351l-0.141,0.491l-0.211,0.421l-0.21,0.351
		l-3.722,4.845l-0.141,0.351l-0.211,0.281h-0.14l-0.07-0.211l0.07-0.351v-0.421l-0.141-0.14h-0.281l-0.141,0.281l-0.141,0.421
		l-0.21,0.351l-0.141,0.351l-0.211,0.281l-0.21,0.351l-0.211,0.281l-0.141,0.281l-0.211,0.281l-0.28,0.211l-0.211,0.281l-0.211,0.21
		l-0.14,0.211l-0.281,0.281l-0.211,0.21l-0.141,0.211l-0.21,0.21l-0.211,0.281l-0.141,0.211l-0.141,0.21l-0.14,0.281l-1.404,2.528
		l-0.281,0.562l-0.07,0.351l-0.07,0.281l0.07,0.141l1.124,1.825l0.21,0.352l0.211,0.351l0.211,0.492l0.21,0.421l0.141,0.421
		l0.211,0.491l0.141,0.492l0.21,0.491l0.141,0.421l0.211,0.492l0.141,0.491l0.21,0.421l0.211,0.492l0.141,0.421l0.28,0.421
		l0.281,0.421l0.211,0.351l0.28,0.351l0.352,0.351l0.351,0.351l0.211,0.21l0.07,0.141l-0.07,0.141l-0.141,0.07l-0.21,0.07h-0.211
		h-0.281l-0.21-0.07l-0.492-0.07l-0.21,0.07l0.069,0.21l0.352,0.421l0.351,0.351l0.352,0.421l0.351,0.421l0.281,0.492l0.281,0.421
		l0.21,0.421l0.211,0.562l0.211,0.421l0.211,0.491l0.14,0.562l0.141,0.492l0.141,0.491l0.141,0.563l0.141,0.491l0.14,0.562
		l0.07,0.492l0.141,0.491l0.141,0.562l0.07,0.491l0.141,0.492v0.28l-0.07,0.211l-0.141-0.07l-0.281-0.211l-0.421-0.421l-0.352-0.352
		l-0.28-0.21h-0.141l-0.07,0.21l0.141,0.352l0.211,0.491l0.14,0.492l0.141,0.421l0.141,0.352l0.07,0.351l0.07,0.352v0.21l0.07,0.281
		l-0.07,0.211v0.28v0.211l-0.07,0.211v0.21v0.281v0.21l-0.07,0.352v0.281l0.07,0.351v0.352l0.07,0.421l0.351,2.316v0.352l-0.07,0.07
		h-0.21h-1.265l-0.21,0.07l-0.141,0.141l-0.07,0.351l-0.352,2.598l-0.14,0.563l-0.211,0.632l-0.281,0.562l-0.28,0.562l-0.281,0.491
		l-0.28,0.563l-0.352,0.491l-0.281,0.421l-0.351,0.492l-0.352,0.351l-0.421,0.422l-0.351,0.421l-0.422,0.352l-0.421,0.351
		l-0.422,0.352l-0.421,0.28l-0.491,0.281l-0.422,0.351l-0.491,0.211l-0.491,0.281l-0.492,0.28l-0.562,0.211l-0.491,0.28
		l-0.562,0.211l-0.211,0.141l-0.07,0.211l-0.141,0.772l-0.141,0.771l-0.14,0.702l-0.211,0.702l-0.352,0.563l-0.21,0.632
		l-0.352,0.562l-0.21,0.562l-0.281,0.562l-0.211,0.633l-0.141,0.632l-0.14,0.28l-0.07,0.141l-0.141,0.07l-0.28-0.141h-0.211h-0.141
		l-0.07,0.211l-0.141,0.351l-0.141,0.422l-0.07,0.351l-0.14,0.352l-0.07,0.351l-0.141,0.352l-0.07,0.351l-0.07,0.422l-0.07,0.351
		l-0.069,0.352l-0.07,0.351l-0.07,0.352v0.351l-0.07,0.352v0.351v0.421v0.352l0.07,0.352v0.351l0.07,0.421l0.07,0.352v0.211h-0.211
		h-0.352l-0.28-0.141l-0.352-0.141h-0.141l-0.069,0.211l0.069,0.28l0.07,0.352l0.07,0.28l0.07,0.352l0.07,0.351l0.07,0.281v0.351
		l0.141,0.352v0.351l0.14,0.281l0.07,0.351l0.07,0.352l0.07,0.281l0.141,0.351l0.141,0.281l0.141,0.28l0.14,0.352l0.141,0.211
		l0.211,0.28l0.21,0.281l0.281,0.21l0.211,0.211v0.211l-0.07,0.141l-0.281,0.14l-0.28,0.211l-0.07,0.141l0.14,0.351l0.211,0.281
		l0.141,0.352l0.211,0.351l0.211,0.421l0.21,0.281l0.211,0.352l0.28,0.351l0.211,0.352l0.281,0.351l0.28,0.352l0.281,0.28
		l0.28,0.281l0.281,0.28l0.352,0.211l0.28,0.281l0.422,0.21l0.351,0.211l0.352,0.141l0.351,0.141l0.421,0.141l0.352,0.069
		l0.211-0.069l-0.07-0.141l-0.211-0.352l-0.211-0.28l-0.07-0.281l0.07-0.141l0.211-0.141l0.211-0.21l0.28-0.141l0.281-0.211
		l0.281-0.141l0.21-0.14l0.281-0.07l0.281-0.141h0.28l0.352-0.07l0.28-0.07l0.211,0.07l0.211,0.141l-0.141,0.141l-0.352,0.491
		l-0.14,0.211l-0.07,0.21l0.07,0.07l0.14,0.07l0.352,0.07l0.351,0.141l0.422,0.141l0.421,0.21l0.352,0.281l0.351,0.211l0.422,0.351
		l0.351,0.352l0.352,0.351l0.351,0.352l0.352,0.421l0.28,0.421l0.281,0.422l0.28,0.421l0.211,0.492l0.211,0.421l0.211,0.421
		l0.14,0.422l0.141,0.491l0.07,0.352l0.07,0.421v0.421v0.492v0.421v0.491v0.422v0.491v0.422l0.141,0.421l0.07,0.421l0.07,0.281
		l-0.07,0.141l-0.141-0.07l-0.211-0.281l-0.211-0.141h-0.14l-0.141,0.07l-0.07,0.211v0.983l-0.07,0.912l-0.141,0.983l-0.141,0.913
		l-0.14,0.912l-0.141,0.913l-0.211,0.912l-0.211,0.843l-0.28,0.843l-0.281,0.843l-0.351,0.843l-0.352,0.843l-0.421,0.842
		l-0.422,0.772l-0.491,0.772l-0.562,0.772l-0.562,0.772l-0.563,0.702l-0.632,0.772l-0.702,0.702l-0.21,0.211l-0.141,0.14
		l-0.211,0.211l-0.211,0.211l-0.21,0.141l-0.141,0.21l-0.281,0.211l-0.21,0.141l-0.211,0.211l-0.141,0.14l-0.281,0.141l-0.21,0.141
		l-0.211,0.211l-0.211,0.14l-0.28,0.141l-0.211,0.141l-0.211,0.07l-0.28,0.141l-0.281,0.141l-0.211,0.069l-0.562,0.211l-0.491,0.141
		l-0.491,0.141l-0.491,0.07l-0.563,0.14h-0.491l-0.491,0.07l-0.492,0.07h-0.491l-0.491-0.07h-0.491l-0.492-0.07h-0.491l-0.491-0.14
		l-0.563-0.07l-0.491-0.07l-0.491-0.141l-0.491-0.07l-0.492-0.141l-0.562-0.14l-0.211-0.07l-0.28-0.141l-0.141-0.07l-0.281-0.211
		l-0.21-0.141l-0.211-0.14l-0.211-0.211l-0.141-0.211l-0.21-0.21l-0.141-0.281l-0.141-0.211l-0.141-0.28l-0.07-0.211l-0.14-0.281
		l-0.07-0.28v-0.281v-0.211v-0.28l0.07-0.281l0.07-0.21l1.123-2.458v-0.211l-0.141-0.141h-0.211l-0.14,0.07l-1.334,1.826l-0.07,0.21
		l-0.141,0.211l-0.07,0.141l-0.07,0.211v0.21v0.211v0.211v0.28v0.141v0.281l0.07,0.211l0.07,0.21v0.211l0.07,0.211v0.21l0.07,0.211
		l0.07,0.211v0.21v0.211v0.141l-0.141,0.07l-0.632-0.07l-0.563-0.141l-0.562-0.141l-0.491-0.28l-0.491-0.211l-0.422-0.281
		l-0.351-0.351l-0.352-0.421l-0.28-0.422l-0.211-0.421l-0.211-0.492l-0.141-0.491l-0.14-0.491l-0.07-0.492v-0.562l0.07-0.562
		l0.069-0.491l0.141-0.562l0.211-0.563l0.211-0.562l0.14-0.28l-0.069-0.141h-0.141l-0.422,0.21l-0.21,0.211l-0.141,0.211
		l-0.211,0.211l-0.141,0.21l-0.07,0.281l-0.14,0.28l-0.07,0.281l-0.07,0.211l-0.07,0.351v0.281v0.28l-0.07,0.352l0.07,0.281v0.28
		v0.281l0.07,0.28v0.281l0.07,0.281l0.07,0.28l0.07,0.211l0.069,0.421l-0.069,0.211h-0.211l-0.281-0.211l-0.281-0.14l-0.21-0.211
		l-0.21-0.211l-0.281-0.28l-0.141-0.281l-0.21-0.281l-0.14-0.28l-0.141-0.352l-0.14-0.351l-0.07-0.352l-0.07-0.28v-0.352v-0.351
		v-0.352l0.07-0.281l0.07-0.351l0.14-0.281l0.211-0.28l0.21-0.211l0.281-0.281l0.281-0.28l0.07-0.281l-0.21-0.141l-0.421,0.07
		l-0.351,0.07l-0.141-0.07v-0.21l0.141-0.352l0.281-0.491l0.351-0.491l0.281-0.422l0.421-0.421l0.351-0.352l0.421-0.351l0.422-0.281
		l0.421-0.281l0.492-0.28l0.491-0.281l0.491-0.28l0.491-0.211l0.422-0.281l0.491-0.28l0.492-0.211l0.491-0.28l0.421-0.281
		l0.492-0.351l0.421-0.281l0.421-0.352l0.211-0.21l0.141-0.211l0.141-0.211l0.14-0.28l0.141-0.211l0.141-0.211l0.141-0.28
		l0.141-0.281l0.14-0.211l0.07-0.28l0.141-0.281l0.141-0.28l0.141-0.211l0.141-0.211l0.14-0.28l0.141-0.211l0.141-0.211l0.211-0.14
		l0.21-0.141l0.281-0.141l0.211-0.141v-0.211l-0.07-0.21l-0.211-0.211l-0.211-0.07l-0.21-0.211l-0.211-0.21l-0.211-0.211
		l-0.21-0.281l-0.211-0.28l-0.281-0.352l-0.21-0.351l-0.211-0.352l-0.281-0.351l-0.141-0.352l-0.28-0.421l-0.211-0.352l-0.211-0.351
		l-0.21-0.352l-0.141-0.28l-0.211-0.352l-0.141-0.21l-0.069-0.281l-0.141-0.211l-0.211-0.421l-0.141-0.491l-0.07-0.492l-0.14-0.491
		v-0.491l-0.141-0.281l-0.141-0.141l-0.211,0.07l-0.21,0.281l-0.211,0.28l-0.141,0.141l-0.141-0.141v-0.421v-0.491l-0.07-0.492
		l-0.07-0.562l-0.14-0.491l-0.211-0.492l-0.211-0.491l-0.211-0.491l-0.21-0.491l-0.211-0.492l-0.281-0.491l-0.21-0.491l-0.211-0.492
		l-0.141-0.562l-0.21-0.491l-0.141-0.491l-0.07-0.492v-0.491v-0.491l0.07-0.563l0.141-0.491v-0.351l-0.141-0.141l-0.211,0.141
		l-0.351,0.562l-0.141,0.28l-0.07,0.211l-0.07,0.352l-0.211,0.069l-0.141-0.069l-0.069-0.141v-0.702l-0.07-0.562v-0.633v-0.491
		l-0.07-0.491v-0.491v-0.422l0.07-0.421l0.07-0.352v-0.421l0.069-0.351l0.141-0.352l0.07-0.421l0.141-0.422l0.211-0.421l0.14-0.491
		l0.281-0.422l0.211-0.562l0.351-0.562l0.281-0.632l0.211-0.352v-0.141h-0.141h-0.352l-0.491,0.07l-0.491,0.07h-0.211l-0.141-0.07
		v-0.141l0.141-0.28l0.281-0.422l0.21-0.351l0.281-0.352l0.28-0.351l0.211-0.352l0.211-0.351l0.28-0.352l0.211-0.351l0.211-0.352
		l0.211-0.351l0.21-0.421l0.211-0.352l0.141-0.351l0.21-0.422l0.141-0.421l0.141-0.352l0.141-0.421l0.141-0.422l0.141-0.421
		l0.14-0.421l0.07-0.352l-0.07-0.141l-0.14-0.07l-0.352,0.141l-0.211,0.141h-0.28h-0.352h-0.351l-0.352-0.07l-0.351-0.07
		l-0.422-0.141l-0.421-0.14l-0.422-0.141l-0.351-0.141l-0.421-0.211l-0.422-0.21l-0.421-0.211l-0.351-0.211l-0.352-0.211
		l-0.351-0.14l-0.281-0.211l-0.281-0.211l-0.21-0.141l-0.211-0.21l-0.281-0.141h-0.14v0.141l0.07,0.351l0.141,0.422l0.07,0.14
		h-0.141l-0.351-0.14l-0.351-0.352l-0.351-0.351c-0.491-0.422-0.983-0.843-1.404-1.334l-0.14-0.141l-0.141-0.141l-0.141-0.211
		l-0.14-0.141l-0.141-0.21l-0.14-0.281l-0.141-0.211l-0.211-0.28l-0.14-0.281l-0.14-0.28l-0.211-0.281l-0.141-0.352l-0.14-0.28
		l-0.141-0.281l-0.21-0.351l-0.141-0.281l-0.07-0.351l-0.14-0.281l-0.141-0.281l-0.07-0.351l-0.141-0.281l-0.07-0.28l-0.07-0.281
		l-0.07-0.211l-0.07-0.28l-0.14-0.211h-0.21l-0.421,0.141h-0.281l-0.211-0.07l-0.141-0.281l-0.28-0.632l-0.141-0.632l-0.211-0.702
		l-0.14-0.702l-0.07-0.702l-0.07-0.702v-0.702v-0.702l0.07-0.772l0.07-0.701l0.07-0.703l0.07-0.701l0.141-0.702l0.141-0.772
		l0.14-0.702l0.21-0.702l0.141-0.632l0.211-0.703l0.14-0.632l0.21-0.632l0.07-0.491l-0.14-0.211l-0.21,0.07l-0.281,0.281
		l-0.281,0.351l-0.21,0.07l-0.07-0.211l0.07-0.351l0.07-0.352l0.14-0.28l0.14-0.281l0.141-0.351l0.211-0.281l0.14-0.281l0.21-0.351
		l0.211-0.281l0.211-0.281l0.21-0.351l0.14-0.281l0.281-0.281l0.21-0.281l0.281-0.211l0.211-0.28l0.21-0.281l0.281-0.281l0.211-0.21
		l0.21-0.211l0.281-0.281l0.211-0.281v-0.141l-0.211-0.21l-0.351-0.21l-0.14-0.141l-0.07-0.141l0.07-0.141l0.21-0.21l4.634-3.511
		l0.21-0.281l0.281-0.351l0.21-0.421l0.211-0.421l0.141-0.421l0.07-0.351l0.07-0.141l-0.07-0.07h-0.07l-0.211,0.07l-0.562,0.21
		l-0.562,0.211l-0.352,0.07l-0.07-0.07v-0.141l0.21-0.351l0.141-0.21l0.14-0.211l0.141-0.21l0.141-0.21l0.14-0.211l0.141-0.21
		l0.14-0.281l0.141-0.211l0.14-0.21l0.141-0.21l0.141-0.281l0.07-0.21l0.14-0.21l0.07-0.281l0.07-0.21l0.07-0.281v-0.281v-0.21
		v-0.281v-0.281l-0.07-0.28l-0.141-0.07l-0.14,0.07l-0.211,0.28l-0.913,2.177l-0.141,0.281l-0.07,0.21l-0.14,0.141l-0.141,0.07
		l-0.141,0.07h-0.14h-0.21l-0.281-0.07l-3.51-0.562l-0.632-0.141l-0.632-0.14l-0.632-0.21l-0.702-0.141l-0.632-0.211l-0.702-0.21
		l-0.632-0.281l-0.702-0.211l-0.702-0.281l-0.632-0.281l-0.632-0.351l-0.702-0.281l-0.632-0.351l-0.632-0.281l-0.632-0.352
		l-0.562-0.351l-0.562-0.421l-0.562-0.351l-0.562-0.351l-0.492-0.421l-1.755-1.404l-0.141-0.07l-0.14,0.07l-0.07,0.141v0.14
		l0.843,1.615l0.07,0.352l0,0l-0.351-0.141l-2.106-1.264l-0.351-0.211l-0.281-0.281l-0.351-0.281l-0.351-0.351l-0.351-0.351
		l-0.351-0.421l-0.421-0.421l-0.352-0.421l-0.351-0.421l-0.422-0.491l-0.351-0.492l-0.352-0.421l-0.351-0.491l-0.352-0.421
		l-0.351-0.492l-0.352-0.421l-0.351-0.421l-0.352-0.351l-0.351-0.351l-0.281-0.281l-0.14-0.141l-0.141-0.07l-0.07-0.141
		l-0.141-0.141l-0.141-0.21l-0.21-0.141l-0.141-0.14l-0.14-0.141l-0.141-0.211l-0.14-0.14l-0.211-0.141l-0.141-0.14l-0.21-0.07
		l-0.141-0.141l-0.21-0.07H273.5l-0.21-0.07h-0.14l-0.211,0.07l-0.281,0.07l-0.14-0.07l-0.211-0.14l-0.491-0.632l-0.492-0.562
		l-4.985-5.055l-0.21-0.211l-0.07-0.21l-0.07-0.07l0.141-0.141l0.14-0.07l0.351-0.07l0.351-0.21l0.07-0.141l-0.141-0.141h-0.281
		l-0.421,0.07h-0.421l-0.491-0.07h-0.421l-0.492-0.07l-0.421-0.14l-0.492-0.141l-0.421-0.14l-0.491-0.141l-0.421-0.21l-0.421-0.211
		l-0.421-0.21l-0.421-0.211l-0.421-0.281l-0.352-0.281l-0.351-0.281l-0.352-0.281l-0.351-0.281l-0.281-0.352l-0.281-0.28
		l-0.351-0.352l-0.211-0.07h-0.21h-0.14l-0.421-0.28l-0.492-0.352l-0.562-0.421l-0.562-0.492l-0.562-0.421l-0.421-0.351l-0.352-0.21
		l-0.562-0.281l-0.843-0.28l-1.053-0.352l-0.913-0.351l-0.702-0.281l-0.281-0.141l-0.07-0.21l-0.14-0.14l-0.352-0.07h-0.562h-0.492
		h-0.562h-0.492h-0.21l-0.281-0.07l-0.211-0.07h-0.21l-0.281-0.07l-0.281-0.14l-0.211-0.07l-0.281-0.07l-0.211-0.07l-0.281-0.14
		l-0.21-0.141l-0.281-0.07l-0.211-0.14l-0.281-0.141l-0.14-0.14l-0.211-0.141l-0.21-0.141l-0.211-0.21l-0.14-0.141l-0.141-0.21
		l-0.14-0.211l-0.211-0.281l-0.07-0.21l-0.07-0.281l-0.07-0.28l-0.07-0.281v-0.281v-0.21v-0.352v-0.28l0.07-0.281l0.07-0.281v-0.281
		l0.14-0.281l0.07-0.21l0.141-0.281l0.14-0.211l0.211-0.21l0.21-0.14l0.21-0.141l0.211-0.07l0.21-0.141l0.211-0.07l0.281-0.141
		l0.281-0.07l0.21-0.07l0.281-0.07l0.281-0.07l0.281-0.07h0.281l0.281-0.07h0.281h0.281h0.281h0.21h0.281l0.21,0.07h0.21
		l2.598,0.492l0.281,0.14l0.141,0.281l1.123,3.932l0.07,0.211l0.07,0.21l0.07,0.21l0.141,0.211l0.14,0.211l0.141,0.21l0.14,0.21
		l0.141,0.211l0.141,0.14l0.21,0.211l0.14,0.14l0.211,0.211l0.211,0.14l0.14,0.141l0.21,0.14l0.211,0.141l0.141,0.141l0.21,0.14
		l0.21,0.141l0.141,0.14l0.351,0.141l0.14-0.07l0.07-0.14l-0.21-0.211l-0.492-0.491l-0.421-0.632l-0.492-0.632l-0.351-0.772
		l-0.421-0.772l-0.351-0.842l-0.281-0.913l-0.21-0.913l-0.211-0.913l-0.141-0.913l-0.07-0.913l-0.07-0.913l0.07-0.913l0.141-0.842
		l0.211-0.843l0.281-0.772l0.351-0.702l0.421-0.632l0.562-0.562l0.632-0.491l0.562-0.281l0.491-0.21h0.492h0.421l0.421,0.07
		l0.351,0.21l0.351,0.211l0.351,0.351l0.281,0.351l0.21,0.421l0.281,0.492l0.211,0.491l0.14,0.492l0.07,0.491l0.14,0.492v0.562
		l0.07,0.492l-0.07,0.491v0.492l-0.07,0.421l-0.141,0.421l0.07,0.141h0.07h0.14l0.07,0.141v0.421l-0.07,0.492v0.281l0.07,0.141
		l0.141-0.07l0.14-0.141l0.141-0.14l0.14-0.281l0.141-0.141l0.07-0.21l0.07-0.141l0.14-0.21l0.141-0.281l-0.07-0.21l-0.14-0.07
		h-0.211l-0.21,0.281l-0.141,0.141h-0.14v-0.21l0.14-0.351l0.141-0.281l0.14-0.21l0.141-0.14l0.21-0.07h0.281l3.511,1.825
		l0.211,0.141h0.141h0.21h0.14l0.07-0.141l0.141-0.21l0.07-0.21l1.334-3.089l0.141-0.351l0.21-0.351l0.21-0.281l0.211-0.351
		l0.281-0.281l0.281-0.281l0.351-0.281l0.281-0.281l0.352-0.211l0.351-0.21l0.422-0.211l0.351-0.21l0.421-0.14l0.351-0.07
		l0.421-0.141l0.351-0.07h0.421l0.421-0.07l0.351,0.07h0.421l0.211,0.07l0.21,0.07l0.281,0.07l0.211,0.07l0.21,0.07l0.281,0.07
		l0.141,0.14l0.281,0.141l0.21,0.07l0.141,0.211l0.211,0.14l0.14,0.141l0.14,0.21l0.141,0.211l0.141,0.14l0.141,0.21l0.07,0.211
		v0.281l0.07,0.21v0.281v0.281l-0.14,0.14l-0.281,0.211l-0.21,0.07l-0.07,0.14l0.07,0.351v0.281v0.351v0.281l-0.07,0.281l-0.14,0.21
		l-0.141,0.281l-0.141,0.211l-0.21,0.281l-0.141,0.21l-0.281,0.211l-0.21,0.21l-0.211,0.21l-0.21,0.281l-0.211,0.21l-0.21,0.21
		l-0.21,0.211l-0.141,0.281l-0.21,0.21l-0.07,0.211l-0.141,0.281v0.21l-0.07,0.281v0.21v0.281v0.281l0.07,0.21v0.281v0.211
		l0.07,0.281l0.07,0.281v0.281l0.07,0.21l0.07,0.281l0.07,0.21v0.281v0.211v0.281v0.21v0.211l-0.07,0.21l-0.702,2.809l-0.07,0.28
		l0.07,0.141l0.14-0.07l0.351-0.281l0.211-0.21h0.21l0.21,0.21l3.511,3.792l0.21,0.211l0.141,0.421l-0.07,0.562l-0.07,0.491
		l0.07,0.562l0.141,0.351l0.141,0.141l0.21,0.14l0.421,0.07h0.421l0.352-0.21l0.281-0.07h0.21v0.14v0.351v0.351l-0.07,0.351v0.351
		l0.07,0.351v0.351v0.351l0.07,0.351l0.07,0.351l0.07,0.351l0.14,0.351l0.07,0.351l0.141,0.351l0.14,0.351l0.141,0.351l0.141,0.281
		l0.21,0.281l0.21,0.281l0.211,0.281l0.21,0.281l0.281,0.211l0.211,0.141l0.281,0.14h0.281l0.351-0.07l0.281-0.07l0.281-0.07h0.14
		l0.141,0.21l0.14,0.421l0.211,0.491l0.21,0.492l0.351,0.492l0.351,0.491l0.421,0.492l0.421,0.491l0.491,0.421l0.492,0.421
		l0.491,0.421l0.562,0.351l0.562,0.281l0.562,0.281l0.562,0.211l0.562,0.14l0.562,0.14h0.562l0.492-0.07l0.492-0.21l0.491-0.211
		l0.281-0.141l0.141,0.07l0.351,0.141l0.632,0.491l0.702,0.352l0.632,0.351l0.702,0.352l0.702,0.351l0.702,0.352l0.772,0.28
		l0.702,0.211l0.772,0.211l0.702,0.21l0.772,0.21l0.772,0.141l0.772,0.07l0.772,0.07l0.702,0.07l0.843,0.07h0.772l0.772-0.07
		l0.772-0.07l0.772-0.07l1.686-0.211l0.069-0.07l0,0v-0.07h-0.069l-5.898-0.281l-0.351-0.07l-0.351-0.07h-0.421l-0.421-0.141
		l-0.421-0.07l-0.492-0.14l-0.492-0.141l-0.491-0.14l-0.492-0.211l-0.492-0.141l-0.491-0.21l-0.491-0.14l-0.492-0.211l-0.421-0.21
		l-0.491-0.21l-0.352-0.211l-0.421-0.141l-0.352-0.21l-0.28-0.21l-0.281-0.141l-3.511-2.738l-0.421-0.281l-0.21-0.141h-0.141v0.211
		l0.141,1.615l0.07,0.281l-0.07,0.21l-0.07,0.141h-0.141l-0.281,0.07l-0.492-0.07l-0.491-0.07l-0.491-0.07l-0.422-0.21l-0.421-0.281
		l-0.492-0.281l-0.421-0.351l-0.351-0.352l-0.421-0.421l-0.351-0.421l-0.352-0.421l-0.351-0.492l-0.281-0.421l-0.351-0.491
		l-0.281-0.492l-0.281-0.492l-0.21-0.421l-0.211-0.422l-0.21-0.421l-0.211-0.421l-0.07-0.21l-0.141-0.141l-0.14-0.07h-0.211
		l-0.141,0.07l-0.14,0.07l-0.141,0.14l-0.21,0.141l-0.351,0.21l-0.21,0.141l-0.211-0.141l-0.21-0.21l-0.07-0.351l-0.141-0.281
		l-0.14-0.281l-0.07-0.352l-0.07-0.281l-0.141-0.351l-0.07-0.351l-0.07-0.281l-0.07-0.351v-0.351l-0.07-0.281l-0.07-0.351v-0.351
		v-0.351v-0.351v-0.281v-0.351l0.07-0.351l0.07-0.351v-0.281l0.07-0.352l-0.07-0.14l-0.07,0.07l-0.421,0.21l-0.351,0.141
		l-0.352,0.07l-0.421,0.07h-0.281l-0.07-0.07v-0.281l0.07-0.21l0.07-0.211l0.141-0.21l0.141-0.281l0.14-0.211l0.14-0.28l0.141-0.281
		l0.211-0.281l0.21-0.281l0.141-0.281l0.21-0.28l0.211-0.281l0.21-0.281l0.14-0.21l0.211-0.281l0.21-0.21l0.141-0.14l0.21-0.211
		l0.141-0.07l1.475-1.193l0.351-0.281v-0.14h-0.351h-1.404l-0.421-0.07l-0.141-0.21l0.07-0.211l0.281-0.141l0.211-0.07l0.21-0.07
		l0.351-0.141l0.281-0.21l0.421-0.141l0.351-0.281l0.351-0.21l0.351-0.211l0.281-0.21l0.211-0.21l0.21-0.211l0.141-0.141
		l2.457-4.704l0.211-0.351l0.141-0.141h0.21l0.421,0.141l0.351,0.14l0.351,0.07l0.351,0.141l0.351,0.07l0.351,0.07l0.351,0.07
		l0.351,0.07h0.351h0.351h0.351h0.351h0.351l0.351-0.07l0.351-0.07l0.351-0.07l0.351-0.07l0.351-0.07l0.351-0.141l0.351-0.14
		l0.351-0.141l0.281-0.07l0.141,0.07l0.14,0.141l0.07,0.351v0.21l0.07,0.21l0.07,0.211l0.07,0.281l0.07,0.21l0.07,0.281l0.141,0.21
		l0.07,0.281l0.141,0.211l0.141,0.21l0.07,0.281l0.14,0.211l0.141,0.21l0.14,0.21l0.141,0.281l0.141,0.21l0.14,0.141l0.141,0.21
		l0.21,0.211l0.141,0.14l0.351,0.351l0.351,0.351l0.421,0.351l0.422,0.281l0.421,0.281l0.421,0.351l0.421,0.21l0.491,0.281
		l0.421,0.211l0.562,0.21l0.421,0.141l0.492,0.07l0.492,0.141h0.491l0.562,0.07l0.491-0.07h0.492l0.491-0.141l0.562-0.14l0.492-0.21
		l0.632-0.281l0.562-0.351l0.562-0.421l0.491-0.421l0.352-0.562l0.421-0.492l0.281-0.562l0.352-0.562l0.21-0.632l0.141-0.632
		l0.141-0.632l0.07-0.702v-0.702v-0.632v-0.632l-0.141-0.702l-0.211-0.632l-0.21-0.632l-0.211-0.632l-0.352-0.562l-0.21-0.421
		l-0.211-0.421l-0.211-0.421l-0.28-0.421l-0.281-0.351l-0.352-0.281l-0.21-0.211l-0.07-0.141v-0.14l0.141-0.21l0.28-0.281
		l0.281-0.21l0.28-0.281l0.211-0.281l0.281-0.21l0.211-0.281l0.28-0.281l0.281-0.21l0.141-0.281l0.28-0.351l0.141-0.281l0.211-0.281
		l0.21-0.351l0.211-0.632l0.211-0.632l0.21-0.632l0.141-0.141l0.211-0.14l0.491-0.281l0.562-0.21l0.702-0.07l0.492-0.21l0.843-0.351
		l0.771-0.351l0.772-0.492l0.211-0.07l0.07-0.07l0.07,0.07v0.21l-0.07,0.492l-0.07,0.491l-0.07,0.211l0.07,0.14l0.211,0.07
		l0.28-0.07l0.352-0.07l0.351-0.07l0.352-0.07l0.28-0.07l0.352-0.07l0.352-0.07l0.28-0.07h0.351h0.352h0.352l0.351,0.14l0.491,0.141
		l0.563,0.21l0.491,0.21l0.491,0.141l0.491,0.211l0.492,0.14l0.491,0.141l0.281,0.07l0.069,0.141v0.141l-0.21,0.21l-0.211,0.351
		l-0.07,0.141l0.141,0.07h0.491l0.491,0.07l0.492,0.14L331.989,335.396L331.989,335.396z"/>
	<polygon fill-rule="evenodd" clip-rule="evenodd" points="312.259,475.615 312.329,475.404 312.54,475.054 312.82,474.702 
		313.102,474.352 313.452,474.07 313.804,473.79 314.154,473.438 314.295,473.229 314.225,473.018 313.944,472.947 313.522,473.158 
		313.383,473.298 313.172,473.438 312.961,473.509 312.75,473.649 312.54,473.79 312.329,474 312.188,474.141 311.979,474.352 
		311.838,474.492 311.768,474.702 311.697,474.913 311.627,475.194 311.697,475.545 311.838,475.615 312.118,475.615 
		312.259,475.615 	"/>
	<path fill-rule="evenodd" clip-rule="evenodd" fill="#ED1C24" d="M269.849,417.337l-0.21-0.211v-0.351l0.351-2.317l0.141-0.491
		l0.141-0.491l0.21-0.492l0.21-0.491l0.281-0.421l0.281-0.492l0.21-0.421l0.07-0.281l-0.21-0.141l-0.21-0.069l-0.07-0.141
		l0.14-0.281l0.141-0.562l0.281-0.491l0.211-0.562l0.28-0.563l0.352-0.632l0.351-0.562l0.352-0.632l0.421-0.562l0.421-0.562
		l0.421-0.563l0.492-0.562l0.491-0.491l0.491-0.421l0.562-0.492l0.492-0.421l0.562-0.352l0.562-0.28l0.562-0.211l0.562-0.211
		l0.562-0.07l0.281-0.069l0.14-0.141l0.07-0.141l-0.07-0.141l-0.14-0.141l-0.281-0.07l-0.281-0.07l-0.07-0.21l0.141-0.211
		l0.421-0.281l0.351-0.069l0.351-0.141l0.351-0.141l0.351-0.07l0.351-0.141h0.421l0.421-0.141l0.421-0.069h0.421h0.421l0.351-0.07
		h0.421l0.421,0.07h0.421l0.351,0.069l0.351,0.141l0.351,0.07l0.351,0.141l0.351,0.141l0.351,0.21l0.211,0.141l0.21,0.141
		l0.141-0.07l0.07-0.07l0.07-0.141v-0.14v-0.211v-0.211v-0.351l-0.14-0.352l0.07-0.07l0.281,0.211l0.281,0.211l0.351,0.28
		l0.281,0.281l0.281,0.211l0.352,0.28l0.28,0.211l0.281,0.211l0.351,0.28l0.281,0.211l0.351,0.211l0.281,0.21l0.351,0.211
		l0.351,0.211l0.281,0.211l0.351,0.14l0.352,0.211l0.351,0.211l0.211,0.21l0.141,0.281l0.07,0.421v0.492l-0.07,0.491l-0.141,0.491
		l-0.07,0.492l-0.07,0.421l-0.07,0.352v0.421l-0.07,0.491v0.492v0.561v0.563v0.491l0.07,0.632l0.07,0.562v0.563l0.141,0.562
		l0.141,0.562l0.14,0.491l0.21,0.492l0.211,0.491l0.211,0.421l0.28,0.352l0.352,0.28l0.351,0.211l0.422,0.141l0.28,0.211
		l0.141,0.351l0.07,0.352l0.07,0.421v0.211h-0.211l-0.351-0.281l-0.422-0.281l-0.421-0.21l-0.351-0.211l-0.351-0.281l-0.421-0.14
		l-0.421-0.211l-0.421-0.211l-0.351-0.141l-0.421-0.21l-0.421-0.141l-0.421-0.141l-0.421-0.07l-0.421-0.141h-0.421l-0.492-0.069
		l-0.421-0.07h-0.491h-0.422l-0.421,0.07l-0.492,0.069h-0.281h-0.141v-0.14l0.141-0.352l0.141-0.491l0.281-0.491l0.14-0.352v-0.141
		l-0.14-0.07l-0.351,0.211l-0.351,0.211l-0.421,0.141l-0.351,0.14l-0.421,0.141l-0.421,0.141l-0.351,0.141l-0.421,0.21l-0.351,0.281
		l-0.211,0.141l-0.21,0.211l-0.211,0.21l-0.21,0.281l-0.21,0.351l-0.211,0.281l-0.281,0.351l-0.21,0.352l-0.211,0.421l-0.21,0.352
		l-0.211,0.421l-0.21,0.422l-0.14,0.351l-0.141,0.422l-0.141,0.351l-0.07,0.352l-0.07,0.351c-0.141,0.702-0.141,1.475,0.21,2.247
		v0.281l-0.21,0.069l-0.351-0.069l-0.281-0.07h-0.14l-0.141,0.07v0.14l-0.07,0.281l0.07,0.491l0.07,0.492l0.07,0.421l0.14,0.491
		l0.141,0.492l0.141,0.421l0.07,0.491l0.07,0.492l0.07,0.351v0.422l0.07,0.351v0.421l0.07,0.352v0.421v0.352l0.07,0.421v0.352
		l0.07,0.421l0.07,0.352v0.351l0.141,0.422l0.07,0.351l0.07,0.421l0.07,0.352l0.141,0.351l0.21,0.352l0.141,0.351l0.14,0.352
		l0.211,0.351v0.211h-0.211l-0.351-0.28l-0.14-0.07l-0.211,0.07l-0.14,0.14l-0.07,0.281v0.352v0.351v0.351v0.352v0.351l0.07,0.352
		v0.351v0.352v0.351v0.352l0.07,0.351v0.352v0.351v0.352l-0.07,0.351v0.352v0.351l-0.07,0.352l-0.07,0.351l-0.07,0.352l-0.281,0.843
		l-0.351,0.702l-0.351,0.632l-0.562,0.632l-0.562,0.491l-0.562,0.422l-0.632,0.351l-0.702,0.281l-0.702,0.28l-0.772,0.141
		l-0.772,0.141h-0.842h-0.772h-0.772l-0.843-0.141l-0.772-0.141l-0.772-0.21l-0.772-0.211l-0.702-0.281l-0.702-0.351l-0.351-0.211
		l-0.421-0.211l-0.351-0.21l-0.351-0.211l-0.351-0.281l-0.351-0.21l-0.421-0.281l-0.351-0.281l-0.351-0.21l-0.351-0.281
		l-0.351-0.281l-0.351-0.28l-0.351-0.281l-0.351-0.21l-0.351-0.281l-0.351-0.281l-0.351-0.21l-0.351-0.281l-0.421-0.211l-0.351-0.21
		l-0.421-0.281l-0.351-0.211l-0.421-0.14l-0.421-0.211l-0.421-0.141l-0.351-0.141l-0.421-0.14l-0.421-0.141l-0.421-0.141
		l-0.421-0.07l-0.421-0.141l-0.421-0.141l-0.421-0.21l-0.211-0.141l0.07-0.351l0.281-0.352l0.141-0.211l-0.07-0.21l-0.141-0.07
		h-0.351l-0.562,0.07l-0.491,0.069h-0.562h-0.492h-0.421h-0.421l-0.492-0.069l-0.421-0.07l-0.352-0.07l-0.351-0.141l-0.422-0.141
		l-0.351-0.141l-0.352-0.21l-0.351-0.281l-0.281-0.28l-0.351-0.281l-0.352-0.351l-0.351-0.422l-0.351-0.421l-0.351-0.492l-0.14-0.21
		l-0.141-0.211l-0.141-0.211l-0.07-0.21l-0.07-0.211l-0.141-0.211l-0.07-0.211l-0.07-0.21l-0.07-0.211l-0.07-0.211l-0.07-0.21
		l-0.07-0.211v-0.211v-0.28l-0.07-0.211v-0.211v-0.28v-0.211v-0.281l0.07-0.21l0.07-0.422l0.07-0.141h0.211l0.14,0.07v0.281
		l0.07,0.211v0.21l0.14,0.211v0.141l0.141,0.211l0.07,0.21l0.141,0.211l0.14,0.211l0.07,0.14l0.21,0.211l0.141,0.211l0.141,0.141
		l0.14,0.21l0.141,0.141l0.14,0.141l0.211,0.211l0.141,0.07l0.21,0.14l0.21,0.141l0.211,0.07l0.14,0.07l1.545,0.562h0.14l0.07-0.07
		l0.07-0.07l-0.141-0.14l-2.247-1.756l-0.141-0.141l-0.14-0.141l-0.141-0.21l-0.141-0.141l-0.14-0.211l-0.141-0.21l-0.07-0.211
		l-0.14-0.211l-0.07-0.211l-0.141-0.28l-0.07-0.211l-0.07-0.211l-0.07-0.21l-0.07-0.281l-0.07-0.211l-0.07-0.21v-0.211l-0.07-0.211
		l-0.07-0.21l-0.141-0.281l-0.21-0.07l-0.141,0.141l-0.07,0.141l-0.07,0.21l-0.211,0.07l-0.14-0.07l-0.07-0.351v-0.281v-0.28v-0.281
		v-0.211l0.07-0.28l0.07-0.281v-0.211l0.07-0.21l0.141-0.211l0.07-0.281l0.07-0.21l0.14-0.211l0.07-0.211l0.14-0.21l0.211-0.211
		l0.141-0.211l0.14-0.21l0.141-0.211l0.21-0.211l0.211-0.211l0.281-0.28l0.14-0.07v0.141v0.351l0.07,0.352v0.351l0.07,0.352
		l0.07,0.351l0.141,0.281l0.07,0.351l0.141,0.352l0.14,0.28l0.211,0.352l0.21,0.281l0.21,0.28l0.211,0.211l0.281,0.28l0.281,0.211
		l0.211,0.141l0.351,0.211l0.281,0.141l0.351,0.069l0.351,0.07l0.351,0.07h0.21l0.141-0.141l-0.07-0.21l-0.141-0.211l-0.21-0.211
		l-0.14-0.141l-0.492-0.28l-0.492-0.352l-0.421-0.351l-0.352-0.422l-0.28-0.351l-0.281-0.421l-0.21-0.492l-0.21-0.491l-0.141-0.421
		l-0.07-0.492v-0.491v-0.562l0.07-0.492l0.141-0.491l0.14-0.421l0.21-0.492l0.281-0.491l0.281-0.421l0.351-0.492l0.421-0.421
		l0.422-0.352l0.421-0.28l0.492-0.281l0.421-0.28l0.491-0.281l0.492-0.211l0.562-0.21l0.492-0.141l0.562-0.141l0.562-0.141
		l0.562-0.141l0.562-0.069h0.562l0.562-0.07h0.562h0.491l0.562,0.07l0.562,0.069l0.492,0.07l0.562,0.141h0.281l0.07-0.07v-0.421
		v-0.281l0.14-0.141l0.141,0.07l0.351,0.281l0.421,0.421l0.491,0.492l0.562,0.351l0.492,0.352l0.562,0.351l0.562,0.422l0.632,0.28
		l0.562,0.352l0.562,0.351l0.562,0.352l0.562,0.351l0.562,0.352l0.562,0.351l0.562,0.352l0.491,0.351l0.562,0.422l0.492,0.491
		l0.421,0.421l0.491,0.492l0.421,0.491l1.404,1.755l0.141,0.141l0.21-0.141l0.21-0.14l-0.07-0.211
		C273.43,420.356,272.307,419.514,269.849,417.337L269.849,417.337z"/>
	<polygon fill-rule="evenodd" clip-rule="evenodd" points="275.747,434.118 275.607,433.838 275.537,433.627 275.466,433.346 
		275.466,432.995 275.466,432.784 275.466,432.644 275.466,432.434 275.396,432.223 275.326,432.012 275.255,431.802 
		275.115,431.591 274.975,431.38 274.905,431.17 274.764,431.029 274.624,430.818 274.483,430.678 274.343,430.537 274.202,430.397 
		274.062,430.257 273.921,430.187 271.604,428.782 271.394,428.712 271.253,428.853 271.253,429.063 271.324,429.203 
		273.641,430.889 273.921,431.17 274.202,431.521 274.413,431.941 274.624,432.293 274.694,432.574 274.694,432.714 
		274.483,432.854 274.272,433.136 274.272,433.346 274.413,433.557 276.589,436.787 276.73,436.927 276.941,436.856 
		277.081,436.717 277.081,436.506 275.958,434.399 275.747,434.118 	"/>
	<polygon fill-rule="evenodd" clip-rule="evenodd" points="266.058,424.64 265.917,424.64 265.776,424.71 265.776,424.92 
		265.917,425.061 269.919,427.237 270.271,427.519 270.551,427.869 270.832,428.01 271.043,428.08 271.253,428.01 271.253,427.799 
		271.113,427.589 270.902,427.308 270.341,426.887 269.849,426.465 269.287,425.974 268.726,425.692 266.058,424.64 	"/>
	<polygon fill-rule="evenodd" clip-rule="evenodd" points="308.187,352.81 307.905,353.09 307.555,353.301 307.344,353.582 
		307.063,353.863 306.782,354.144 306.501,354.425 306.221,354.705 305.869,354.916 305.588,355.127 305.308,355.197 
		305.097,355.267 304.816,355.337 304.605,355.337 304.325,355.337 304.114,355.267 303.833,355.267 303.623,355.337 
		303.341,355.337 303.131,355.407 302.92,355.548 302.569,355.899 302.218,356.25 301.938,356.601 301.586,356.952 301.095,357.163 
		300.814,357.303 300.604,357.374 300.322,357.514 300.112,357.514 299.831,357.584 299.62,357.654 299.41,357.654 299.129,357.654 
		298.918,357.654 298.637,357.654 298.356,357.654 298.146,357.654 297.865,357.654 297.654,357.584 297.373,357.584 
		297.093,357.584 296.882,357.584 296.671,357.584 296.531,357.654 296.32,357.725 296.109,357.795 295.899,357.865 
		295.758,357.935 295.548,358.076 295.337,358.146 295.197,358.286 294.986,358.427 294.775,358.497 294.564,358.567 
		294.354,358.638 294.144,358.708 293.933,358.778 293.722,358.778 293.582,358.778 293.371,358.778 293.09,358.708 
		292.879,358.567 292.739,358.427 292.669,358.216 292.669,357.865 292.599,357.725 292.458,357.725 292.177,357.795 
		291.967,357.865 291.756,357.865 291.545,357.935 291.335,358.005 291.124,358.076 290.914,358.076 290.773,358.146 
		290.563,358.146 290.352,358.216 290.141,358.216 289.931,358.216 289.72,358.216 289.509,358.216 289.369,358.146 
		289.158,358.146 288.947,358.076 288.737,358.005 288.526,357.935 288.386,357.865 288.175,357.725 287.754,357.514 
		287.543,357.233 287.543,356.952 287.754,356.531 287.964,356.109 288.035,355.899 287.824,355.899 287.473,355.969 
		287.192,356.109 286.981,356.18 286.841,356.391 286.771,356.601 286.63,356.812 286.63,357.022 286.56,357.233 286.49,357.514 
		286.49,357.725 286.42,357.935 286.49,358.076 286.56,358.076 286.771,358.076 287.052,358.076 287.403,358.216 287.754,358.427 
		288.105,358.708 288.456,358.848 288.807,358.918 289.158,358.918 289.509,358.988 289.86,358.918 290.211,358.918 
		290.563,358.848 290.914,358.778 291.265,358.708 291.475,358.638 291.756,358.708 291.967,358.848 292.318,359.129 
		292.599,359.269 292.879,359.269 293.09,359.339 293.371,359.339 293.652,359.339 293.933,359.339 294.284,359.48 294.564,359.621 
		294.775,359.831 295.126,360.182 295.478,360.533 295.899,360.884 296.25,361.235 296.601,361.586 297.022,361.938 
		297.373,362.218 297.795,362.499 298.216,362.85 298.637,363.061 299.059,363.342 299.479,363.623 299.971,363.903 
		300.393,364.114 300.814,364.325 301.306,364.605 301.797,364.816 302.289,364.957 302.709,365.167 303.201,365.378 
		303.974,365.659 304.746,365.94 305.518,366.221 306.291,366.431 306.993,366.572 307.695,366.782 308.397,366.923 
		309.029,366.993 309.731,367.063 310.363,367.063 311.065,367.063 311.697,366.993 312.399,366.853 313.031,366.712 
		313.733,366.431 314.365,366.221 315.067,365.87 315.77,365.448 316.542,364.957 317.244,364.465 317.455,364.254 317.665,364.114 
		317.876,363.903 318.157,363.693 318.368,363.552 318.578,363.342 318.719,363.131 318.93,362.92 319.14,362.71 319.351,362.499 
		319.491,362.218 319.702,362.007 319.842,361.797 319.982,361.516 320.123,361.235 320.264,361.025 320.614,360.182 
		320.966,359.269 321.246,358.356 321.457,357.444 321.668,356.601 321.879,355.688 321.948,354.775 322.089,353.863 
		322.159,352.95 322.229,352.037 322.3,351.125 322.3,350.142 322.3,349.229 322.3,348.315 322.3,347.403 322.3,346.49 
		322.3,345.507 322.3,344.594 322.3,343.682 322.37,342.698 322.439,342.348 322.51,342.066 322.791,341.926 323.143,341.856 
		323.353,341.715 323.493,341.575 323.353,341.435 323.143,341.294 322.861,341.224 322.58,341.224 322.3,341.224 322.019,341.224 
		321.738,341.294 321.457,341.435 321.246,341.575 320.966,341.926 320.896,342.066 321.036,342.277 321.246,342.417 
		321.387,342.488 321.457,342.628 321.316,342.979 321.176,343.26 320.966,343.541 320.825,343.822 320.614,344.033 
		320.334,344.243 320.123,344.524 319.912,344.735 319.632,344.945 319.351,345.086 319.07,345.296 318.859,345.507 
		318.578,345.718 318.368,345.929 318.157,346.139 318.017,346.279 318.087,346.49 318.228,346.701 318.368,346.911 
		318.368,347.052 318.157,347.333 317.946,347.543 317.665,347.754 317.455,347.965 317.174,348.105 316.963,348.315 
		316.683,348.456 316.401,348.667 316.121,348.807 315.77,348.948 315.489,349.018 315.208,349.158 314.927,349.229 
		314.646,349.369 314.576,349.509 314.646,349.79 314.787,350.071 314.787,350.211 314.646,350.422 314.295,350.703 
		314.015,350.984 313.663,351.194 313.383,351.405 313.031,351.546 312.75,351.686 312.399,351.756 312.118,351.827 
		311.838,351.896 311.486,351.896 311.206,351.967 310.925,352.037 310.574,352.037 310.293,352.037 310.012,352.107 
		309.731,352.178 309.38,352.248 309.1,352.388 308.818,352.458 308.467,352.599 308.187,352.81 	"/>
	<polygon fill-rule="evenodd" clip-rule="evenodd" fill="#F49129" points="300.814,335.186 302.008,334.905 303.201,334.834 
		304.325,335.045 305.448,335.396 306.431,335.888 307.414,336.59 308.257,337.433 309.1,338.345 309.731,339.398 310.293,340.452 
		310.714,341.575 310.995,342.769 311.136,343.962 311.065,345.086 310.854,346.209 310.434,347.263 309.802,348.246 
		308.959,349.158 307.905,349.931 306.923,350.352 305.939,350.633 304.957,350.703 303.974,350.633 302.991,350.422 
		302.078,350.071 301.165,349.58 300.393,349.018 299.62,348.315 298.918,347.473 298.286,346.631 297.795,345.647 297.303,344.735 
		297.022,343.682 296.741,342.628 296.671,341.646 296.741,340.592 296.952,339.539 297.303,338.556 297.865,337.643 
		298.075,337.292 298.356,336.941 298.637,336.59 298.918,336.239 299.269,335.958 299.62,335.748 300.814,335.186 	"/>
	<polygon fill-rule="evenodd" clip-rule="evenodd" points="262.266,346.49 262.125,346.209 261.985,345.929 261.845,345.647 
		261.704,345.296 261.563,344.945 261.493,344.665 261.353,344.313 261.283,343.962 261.212,343.682 261.212,343.331 
		261.143,342.979 261.072,342.558 260.932,342.417 260.721,342.417 260.721,342.698 260.791,342.979 260.791,343.19 
		260.791,343.331 260.791,343.541 260.791,343.752 260.791,343.962 260.791,344.103 260.791,344.313 260.791,344.454 
		260.791,344.594 260.861,344.805 260.861,344.945 260.932,345.086 260.932,345.296 261.002,345.437 261.143,345.647 
		261.212,345.858 261.353,345.999 261.493,346.209 261.704,346.42 262.055,346.701 262.336,346.701 262.266,346.49 	"/>
	<polygon fill-rule="evenodd" clip-rule="evenodd" fill="#FFFFFF" points="290.843,328.375 291.405,328.305 291.967,328.375 
		292.599,328.445 293.16,328.515 293.792,328.726 294.354,328.937 294.986,329.147 295.548,329.498 296.039,329.849 296.601,330.2 
		297.093,330.551 297.514,331.043 297.935,331.464 298.286,332.026 298.567,332.517 298.777,333.079 298.988,333.571 
		299.059,334.132 299.059,334.764 298.988,335.115 298.708,335.396 298.356,335.748 298.075,336.098 297.795,336.379 
		297.514,336.66 297.303,336.941 297.093,337.222 296.952,337.502 296.812,337.784 296.671,338.064 296.601,338.345 296.46,338.626 
		296.391,338.907 296.32,339.258 296.25,339.539 296.18,339.82 296.109,340.171 296.039,340.592 295.969,340.943 295.899,341.364 
		295.829,341.786 295.688,342.066 295.407,342.277 294.284,342.839 293.16,343.19 292.037,343.331 290.983,343.331 289.931,343.12 
		288.947,342.698 288.105,342.207 287.262,341.575 286.49,340.873 285.858,340.101 285.296,339.188 284.875,338.205 
		284.594,337.222 284.454,336.168 284.454,335.115 284.594,334.062 284.945,333.009 285.437,332.026 286.139,331.043 
		287.052,330.06 287.333,329.849 287.543,329.709 287.824,329.498 288.105,329.358 288.456,329.147 288.737,329.007 
		289.018,328.866 289.299,328.796 289.649,328.656 290.001,328.585 290.281,328.445 290.843,328.375 	"/>
	<polygon fill-rule="evenodd" clip-rule="evenodd" fill="#ED1C24" points="247.591,341.715 247.31,341.786 247.24,341.786 
		247.661,341.364 247.872,341.224 248.083,341.013 248.363,340.943 248.574,340.873 248.855,340.803 249.136,340.732 
		249.417,340.662 249.697,340.662 249.978,340.662 250.189,340.662 250.54,340.732 250.75,340.873 250.75,341.013 250.68,341.575 
		250.68,341.856 250.54,342.066 250.47,342.066 250.189,342.066 247.591,341.715 	"/>
	<polygon fill-rule="evenodd" clip-rule="evenodd" points="293.02,332.798 292.528,332.869 292.037,333.079 291.686,333.29 
		291.335,333.641 291.054,333.992 290.843,334.413 290.703,334.834 290.633,335.256 290.633,335.748 290.633,336.239 
		290.773,336.66 290.914,337.152 291.124,337.502 291.405,337.924 291.756,338.205 292.177,338.486 292.669,338.696 293.16,338.767 
		293.792,338.837 294.284,338.767 294.775,338.626 295.197,338.416 295.548,338.205 295.829,337.854 296.039,337.502 
		296.25,337.152 296.32,336.73 296.46,336.309 296.46,335.888 296.391,335.466 296.32,334.975 296.18,334.624 295.969,334.203 
		295.688,333.852 295.407,333.571 295.056,333.219 294.564,333.079 294.073,332.869 293.582,332.798 293.02,332.798 	"/>
	<polygon fill-rule="evenodd" clip-rule="evenodd" fill="#FFFFFF" points="298.848,324.724 298.988,324.513 299.199,324.302 
		299.339,324.092 299.55,323.951 299.761,323.74 299.971,323.6 300.182,323.39 300.393,323.249 300.604,323.108 300.814,322.968 
		301.095,322.828 301.306,322.758 301.586,322.617 301.797,322.547 302.358,322.336 302.991,322.196 303.482,322.056 
		304.114,322.056 304.675,322.056 305.237,322.056 305.799,322.125 306.36,322.266 306.853,322.406 307.414,322.617 
		307.905,322.828 308.397,323.108 308.889,323.39 309.38,323.74 309.731,324.162 310.152,324.583 310.504,325.004 310.854,325.496 
		311.206,325.987 311.486,326.549 311.627,326.971 311.768,327.462 311.908,327.954 311.979,328.515 311.979,329.077 
		311.979,329.639 311.979,330.2 311.908,330.762 311.768,331.324 311.627,331.815 311.486,332.377 311.276,332.869 310.995,333.43 
		310.714,333.852 310.434,334.273 310.082,334.694 309.731,335.045 309.31,335.396 308.818,335.607 308.327,335.817 
		307.976,335.888 307.695,335.817 307.414,335.607 307.063,335.396 306.712,335.186 306.36,335.045 306.01,334.834 305.659,334.694 
		305.308,334.554 304.957,334.483 304.605,334.413 304.254,334.343 303.833,334.273 303.482,334.273 303.131,334.273 
		302.78,334.273 302.429,334.273 302.078,334.273 301.656,334.343 301.306,334.413 300.884,334.483 300.533,334.554 
		300.112,334.624 299.971,334.624 299.901,334.483 299.831,334.132 299.761,333.852 299.69,333.571 299.62,333.29 299.479,333.079 
		299.339,332.798 299.269,332.517 299.129,332.307 298.988,332.096 298.848,331.885 298.708,331.675 298.567,331.464 
		298.356,331.183 298.216,330.973 298.075,330.762 297.865,330.551 297.725,330.271 297.584,330.06 297.443,329.779 
		297.303,329.568 297.233,329.358 297.233,329.147 297.163,328.866 297.163,328.656 297.233,328.375 297.233,328.094 
		297.303,327.813 297.373,327.532 297.443,327.251 297.584,326.971 297.654,326.689 297.795,326.409 297.935,326.198 
		298.005,325.917 298.216,325.707 298.286,325.496 298.427,325.285 298.567,325.075 298.708,324.934 298.848,324.724 	"/>
	<polygon fill-rule="evenodd" clip-rule="evenodd" points="303.693,327.462 303.131,327.462 302.709,327.603 302.289,327.813 
		301.938,328.094 301.656,328.445 301.375,328.866 301.165,329.288 301.095,329.709 300.954,330.13 300.954,330.622 
		301.024,331.113 301.095,331.535 301.306,331.956 301.516,332.377 301.867,332.728 302.218,333.009 302.709,333.219 
		303.201,333.43 303.763,333.5 304.254,333.5 304.746,333.36 305.167,333.219 305.588,333.009 305.869,332.728 306.221,332.377 
		306.431,332.026 306.571,331.675 306.782,331.253 306.782,330.832 306.853,330.341 306.782,329.919 306.712,329.498 
		306.571,329.077 306.291,328.726 306.01,328.375 305.659,328.094 305.237,327.813 304.816,327.603 304.254,327.462 
		303.693,327.462 	"/>
</g>
</svg>
