<?xml version="1.0" encoding="iso-8859-1"?>
<!-- Generator: Adobe Illustrator 18.1.1, SVG Export Plug-In . SVG Version: 6.00 Build 0)  -->
<svg version="1.1" id="Layer_1" xmlns="http://www.w3.org/2000/svg" xmlns:xlink="http://www.w3.org/1999/xlink" x="0px" y="0px"
	 viewBox="0 0 595.28 841.89" style="enable-background:new 0 0 595.28 841.89;" xml:space="preserve">
<g>
	<linearGradient id="SVGID_1_" gradientUnits="userSpaceOnUse" x1="298.1172" y1="324.4347" x2="298.1172" y2="518.2017">
		<stop  offset="0" style="stop-color:#FFFFFF;stop-opacity:0.7"/>
		<stop  offset="0.9987" style="stop-color:#D8D9D8;stop-opacity:0.7"/>
	</linearGradient>
	<path style="fill-rule:evenodd;clip-rule:evenodd;fill:url(#SVGID_1_);" d="M209.897,518.681c-5.031,0-9.124-4.093-9.124-9.124
		v-176.44c0-5.031,4.093-9.124,9.124-9.124h176.441c5.03,0,9.123,4.093,9.123,9.124v176.44c0,5.031-4.093,9.124-9.123,9.124H209.897
		z"/>
	<path style="fill:#D8D8D7;" d="M386.338,324.493c4.755,0,8.624,3.868,8.624,8.624v176.441c0,4.755-3.868,8.623-8.624,8.623H209.897
		c-4.755,0-8.623-3.868-8.623-8.623V333.116c0-4.755,3.868-8.624,8.623-8.624H386.338 M386.338,323.493H209.897
		c-5.315,0-9.623,4.309-9.623,9.624v176.441c0,5.315,4.309,9.623,9.623,9.623h176.441c5.315,0,9.624-4.309,9.624-9.623V333.116
		C395.961,327.801,391.653,323.493,386.338,323.493L386.338,323.493z"/>
</g>
<g>
	<linearGradient id="SVGID_2_" gradientUnits="userSpaceOnUse" x1="297.9338" y1="370.222" x2="297.9338" y2="472.7375">
		<stop  offset="0" style="stop-color:#5E77AB"/>
		<stop  offset="1" style="stop-color:#4D6497"/>
	</linearGradient>
	<path style="fill-rule:evenodd;clip-rule:evenodd;fill:url(#SVGID_2_);" d="M252.543,473.071c-3.361,0-6.096-2.734-6.096-6.096
		v-90.781c0-3.361,2.734-6.096,6.096-6.096h90.781c3.361,0,6.096,2.734,6.096,6.096v90.781c0,3.361-2.734,6.096-6.096,6.096H252.543
		z"/>
	<path style="fill:#4D6497;" d="M343.324,370.599c3.085,0,5.596,2.51,5.596,5.596v90.781c0,3.086-2.51,5.596-5.596,5.596h-90.781
		c-3.085,0-5.596-2.51-5.596-5.596v-90.781c0-3.086,2.51-5.596,5.596-5.596H343.324 M343.324,369.599h-90.781
		c-3.643,0-6.596,2.953-6.596,6.596v90.781c0,3.643,2.953,6.596,6.596,6.596h90.781c3.643,0,6.596-2.953,6.596-6.596v-90.781
		C349.92,372.552,346.967,369.599,343.324,369.599L343.324,369.599z"/>
</g>
<path style="fill-rule:evenodd;clip-rule:evenodd;fill:#E1DFE2;" d="M343.324,473.571h-90.781c-3.643,0-6.596-2.953-6.596-6.596
	v1.529c0,3.643,2.953,6.221,6.596,6.221h90.781c3.643,0,6.596-2.578,6.596-6.221v-1.529
	C349.92,470.618,346.967,473.571,343.324,473.571z"/>
<path style="fill-rule:evenodd;clip-rule:evenodd;fill:#394E77;" d="M252.543,370.753l90.781,0c3.643,0,6.596,2.953,6.596,6.596
	v-1.529c0-3.643-2.953-6.221-6.596-6.221l-90.781,0c-3.643,0-6.596,2.578-6.596,6.221v1.529
	C245.948,373.706,248.901,370.753,252.543,370.753z"/>
<g>
	<path style="fill-rule:evenodd;clip-rule:evenodd;fill:#394E77;" d="M323.649,398.794c0,0,0.178-2.328,1.115-3.627
		c0.937-1.3,2.722-1.558,2.722-1.558l9.286,0.899l1.815-12.654c0,0-6.476-0.939-10.657-1.397c-4.181-0.458-10.58,0.164-15.78,4.041
		c-5.201,3.877-4.922,9.663-4.922,9.663v13.388h-8.107l-0.16,12.729h8.266v42.785h16.421v-42.785h12.056l1.305-12.729h-13.361
		V398.794z"/>
</g>
<g>
	<linearGradient id="SVGID_3_" gradientUnits="userSpaceOnUse" x1="299.2148" y1="420.7427" x2="338.3037" y2="420.7427">
		<stop  offset="0" style="stop-color:#E2EEF4"/>
		<stop  offset="1" style="stop-color:#CDE5F3"/>
	</linearGradient>
	<path style="fill-rule:evenodd;clip-rule:evenodd;fill:url(#SVGID_3_);" d="M307.478,461.86v-42.785h-8.263l0.153-12.229h8.109
		v-13.637c-0.003-0.068-0.205-5.714,4.822-9.462c4.811-3.586,10.325-4.122,13.184-4.122c0.829,0,1.644,0.043,2.42,0.128
		c3.669,0.402,9.175,1.185,10.4,1.361l-1.745,12.17l-9.048-0.876c-0.138,0.013-1.962,0.291-2.95,1.661
		c-0.966,1.341-1.154,3.656-1.161,3.754l-0.001,9.023h13.334l-1.253,12.229h-12.081v42.785H307.478z"/>
	<path style="fill:#F5FBFD;" d="M325.483,379.875c0.821,0,1.626,0.043,2.393,0.127c3.458,0.379,8.552,1.097,10.145,1.324
		l-1.676,11.686l-8.811-0.853l-0.06-0.006l-0.06,0.009c-0.081,0.012-2.007,0.306-3.056,1.76c-1.008,1.398-1.2,3.781-1.209,3.919
		v8.755v0.5h0.5h12.807l-1.202,11.729h-11.605h-0.5v0.5v42.285h-15.421v-42.285v-0.5h-0.5h-7.76l0.147-11.729h7.613h0.5v-0.5
		l-0.001-13.411c-0.002-0.055-0.192-5.575,4.722-9.238C317.202,380.404,322.655,379.875,325.483,379.875 M325.483,379.375
		c-3.993,0-9.066,0.99-13.333,4.171c-5.201,3.877-4.922,9.663-4.922,9.663v13.388h-8.107l-0.16,12.729h8.266v42.785h16.421v-42.785
		h12.056l1.305-12.729h-13.361v-8.755c0,0,0.178-2.328,1.115-3.627c0.937-1.3,2.722-1.558,2.722-1.558l9.286,0.899l1.815-12.654
		c0,0-6.476-0.939-10.657-1.397C327.18,379.423,326.357,379.375,325.483,379.375L325.483,379.375z"/>
</g>
</svg>
