<?xml version="1.0" encoding="UTF-8" standalone="no"?>
<!-- Generator: Adobe Illustrator 18.1.1, SVG Export Plug-In . SVG Version: 6.00 Build 0)  -->

<svg
   xmlns:dc="http://purl.org/dc/elements/1.1/"
   xmlns:cc="http://creativecommons.org/ns#"
   xmlns:rdf="http://www.w3.org/1999/02/22-rdf-syntax-ns#"
   xmlns:svg="http://www.w3.org/2000/svg"
   xmlns="http://www.w3.org/2000/svg"
   xmlns:sodipodi="http://sodipodi.sourceforge.net/DTD/sodipodi-0.dtd"
   xmlns:inkscape="http://www.inkscape.org/namespaces/inkscape"
   version="1.1"
   id="Layer_1"
   x="0px"
   y="0px"
   viewBox="0 0 195.688 195.688"
   xml:space="preserve"
   inkscape:version="0.48.4 r9939"
   width="100%"
   height="100%"
   sodipodi:docname="FaceBook.svg"><metadata
     id="metadata48"><rdf:RDF><cc:Work
         rdf:about=""><dc:format>image/svg+xml</dc:format><dc:type
           rdf:resource="http://purl.org/dc/dcmitype/StillImage" /></cc:Work></rdf:RDF></metadata><defs
     id="defs46" /><sodipodi:namedview
     pagecolor="#ffffff"
     bordercolor="#666666"
     borderopacity="1"
     objecttolerance="10"
     gridtolerance="10"
     guidetolerance="10"
     inkscape:pageopacity="0"
     inkscape:pageshadow="2"
     inkscape:window-width="640"
     inkscape:window-height="480"
     id="namedview44"
     showgrid="false"
     fit-margin-top="0"
     fit-margin-left="0"
     fit-margin-right="0"
     fit-margin-bottom="0"
     inkscape:zoom="0.28032166"
     inkscape:cx="97.365987"
     inkscape:cy="98.236009"
     inkscape:window-x="75"
     inkscape:window-y="34"
     inkscape:window-maximized="0"
     inkscape:current-layer="Layer_1" /><g
     id="g3"
     transform="translate(-200.27401,-323.493)"><linearGradient
       id="SVGID_1_"
       gradientUnits="userSpaceOnUse"
       x1="298.11719"
       y1="324.43469"
       x2="298.11719"
       y2="518.20172"><stop
         offset="0"
         style="stop-color:#FFFFFF;stop-opacity:0.7"
         id="stop6" /><stop
         offset="0.9987"
         style="stop-color:#D8D9D8;stop-opacity:0.7"
         id="stop8" /></linearGradient><path
       style="fill:url(#SVGID_1_);fill-rule:evenodd"
       d="m 209.897,518.681 c -5.031,0 -9.124,-4.093 -9.124,-9.124 v -176.44 c 0,-5.031 4.093,-9.124 9.124,-9.124 h 176.441 c 5.03,0 9.123,4.093 9.123,9.124 v 176.44 c 0,5.031 -4.093,9.124 -9.123,9.124 H 209.897 z"
       id="path10"
       inkscape:connector-curvature="0" /><path
       style="fill:#d8d8d7"
       d="m 386.338,324.493 c 4.755,0 8.624,3.868 8.624,8.624 v 176.441 c 0,4.755 -3.868,8.623 -8.624,8.623 H 209.897 c -4.755,0 -8.623,-3.868 -8.623,-8.623 V 333.116 c 0,-4.755 3.868,-8.624 8.623,-8.624 h 176.441 m 0,-0.999 H 209.897 c -5.315,0 -9.623,4.309 -9.623,9.624 v 176.441 c 0,5.315 4.309,9.623 9.623,9.623 h 176.441 c 5.315,0 9.624,-4.309 9.624,-9.623 V 333.116 c -10e-4,-5.315 -4.309,-9.623 -9.624,-9.623 l 0,0 z"
       id="path12"
       inkscape:connector-curvature="0" /></g><g
     id="g14"
     transform="translate(-200.27401,-323.493)"><linearGradient
       id="SVGID_2_"
       gradientUnits="userSpaceOnUse"
       x1="297.93381"
       y1="370.22198"
       x2="297.93381"
       y2="472.73749"><stop
         offset="0"
         style="stop-color:#5E77AB"
         id="stop17" /><stop
         offset="1"
         style="stop-color:#4D6497"
         id="stop19" /></linearGradient><path
       style="fill:url(#SVGID_2_);fill-rule:evenodd"
       d="m 252.543,473.071 c -3.361,0 -6.096,-2.734 -6.096,-6.096 v -90.781 c 0,-3.361 2.734,-6.096 6.096,-6.096 h 90.781 c 3.361,0 6.096,2.734 6.096,6.096 v 90.781 c 0,3.361 -2.734,6.096 -6.096,6.096 h -90.781 z"
       id="path21"
       inkscape:connector-curvature="0" /><path
       style="fill:#4d6497"
       d="m 343.324,370.599 c 3.085,0 5.596,2.51 5.596,5.596 v 90.781 c 0,3.086 -2.51,5.596 -5.596,5.596 h -90.781 c -3.085,0 -5.596,-2.51 -5.596,-5.596 v -90.781 c 0,-3.086 2.51,-5.596 5.596,-5.596 h 90.781 m 0,-1 h -90.781 c -3.643,0 -6.596,2.953 -6.596,6.596 v 90.781 c 0,3.643 2.953,6.596 6.596,6.596 h 90.781 c 3.643,0 6.596,-2.953 6.596,-6.596 v -90.781 c 0,-3.643 -2.953,-6.596 -6.596,-6.596 l 0,0 z"
       id="path23"
       inkscape:connector-curvature="0" /></g><path
     style="fill:#e1dfe2;fill-rule:evenodd"
     d="M 143.04999,150.078 H 52.268991 c -3.643,0 -6.596,-2.953 -6.596,-6.596 v 1.529 c 0,3.643 2.953,6.221 6.596,6.221 h 90.780999 c 3.643,0 6.596,-2.578 6.596,-6.221 v -1.529 c 0,3.643 -2.953,6.596 -6.596,6.596 z"
     id="path25"
     inkscape:connector-curvature="0" /><path
     style="fill:#394e77;fill-rule:evenodd"
     d="m 52.268991,47.26 90.780999,0 c 3.643,0 6.596,2.953 6.596,6.596 v -1.529 c 0,-3.643 -2.953,-6.221 -6.596,-6.221 l -90.780999,0 c -3.643,0 -6.596,2.578 -6.596,6.221 v 1.529 c 10e-4,-3.643 2.954,-6.596 6.596,-6.596 z"
     id="path27"
     inkscape:connector-curvature="0" /><g
     id="g29"
     transform="translate(-200.27401,-323.493)"><path
       style="fill:#394e77;fill-rule:evenodd"
       d="m 323.649,398.794 c 0,0 0.178,-2.328 1.115,-3.627 0.937,-1.3 2.722,-1.558 2.722,-1.558 l 9.286,0.899 1.815,-12.654 c 0,0 -6.476,-0.939 -10.657,-1.397 -4.181,-0.458 -10.58,0.164 -15.78,4.041 -5.201,3.877 -4.922,9.663 -4.922,9.663 v 13.388 h -8.107 l -0.16,12.729 h 8.266 v 42.785 h 16.421 v -42.785 h 12.056 l 1.305,-12.729 h -13.361 v -8.755 z"
       id="path31"
       inkscape:connector-curvature="0" /></g><g
     id="g33"
     transform="translate(-200.27401,-323.493)"><linearGradient
       id="SVGID_3_"
       gradientUnits="userSpaceOnUse"
       x1="299.21481"
       y1="420.74271"
       x2="338.30371"
       y2="420.74271"><stop
         offset="0"
         style="stop-color:#E2EEF4"
         id="stop36" /><stop
         offset="1"
         style="stop-color:#CDE5F3"
         id="stop38" /></linearGradient><path
       style="fill:url(#SVGID_3_);fill-rule:evenodd"
       d="m 307.478,461.86 v -42.785 h -8.263 l 0.153,-12.229 h 8.109 v -13.637 c -0.003,-0.068 -0.205,-5.714 4.822,-9.462 4.811,-3.586 10.325,-4.122 13.184,-4.122 0.829,0 1.644,0.043 2.42,0.128 3.669,0.402 9.175,1.185 10.4,1.361 l -1.745,12.17 -9.048,-0.876 c -0.138,0.013 -1.962,0.291 -2.95,1.661 -0.966,1.341 -1.154,3.656 -1.161,3.754 l -10e-4,9.023 h 13.334 l -1.253,12.229 h -12.081 v 42.785 h -15.92 z"
       id="path40"
       inkscape:connector-curvature="0" /><path
       style="fill:#f5fbfd"
       d="m 325.483,379.875 c 0.821,0 1.626,0.043 2.393,0.127 3.458,0.379 8.552,1.097 10.145,1.324 l -1.676,11.686 -8.811,-0.853 -0.06,-0.006 -0.06,0.009 c -0.081,0.012 -2.007,0.306 -3.056,1.76 -1.008,1.398 -1.2,3.781 -1.209,3.919 v 8.755 0.5 h 0.5 12.807 l -1.202,11.729 h -11.605 -0.5 v 0.5 42.285 h -15.421 v -42.285 -0.5 h -0.5 -7.76 l 0.147,-11.729 h 7.613 0.5 v -0.5 l -0.001,-13.411 c -0.002,-0.055 -0.192,-5.575 4.722,-9.238 4.753,-3.543 10.206,-4.072 13.034,-4.072 m 0,-0.5 c -3.993,0 -9.066,0.99 -13.333,4.171 -5.201,3.877 -4.922,9.663 -4.922,9.663 v 13.388 h -8.107 l -0.16,12.729 h 8.266 v 42.785 h 16.421 v -42.785 h 12.056 l 1.305,-12.729 h -13.361 v -8.755 c 0,0 0.178,-2.328 1.115,-3.627 0.937,-1.3 2.722,-1.558 2.722,-1.558 l 9.286,0.899 1.815,-12.654 c 0,0 -6.476,-0.939 -10.657,-1.397 -0.749,-0.082 -1.572,-0.13 -2.446,-0.13 l 0,0 z"
       id="path42"
       inkscape:connector-curvature="0" /></g></svg>