<?xml version="1.0" encoding="UTF-8" standalone="no"?>
<!-- Generator: Adobe Illustrator 12.0.1, SVG Export Plug-In . SVG Version: 6.00 Build 51448)  -->

<svg
   xmlns:dc="http://purl.org/dc/elements/1.1/"
   xmlns:cc="http://creativecommons.org/ns#"
   xmlns:rdf="http://www.w3.org/1999/02/22-rdf-syntax-ns#"
   xmlns:svg="http://www.w3.org/2000/svg"
   xmlns="http://www.w3.org/2000/svg"
   xmlns:sodipodi="http://sodipodi.sourceforge.net/DTD/sodipodi-0.dtd"
   xmlns:inkscape="http://www.inkscape.org/namespaces/inkscape"
   version="1.1"
   id="Layer_1"
   width="42"
   height="42"
   viewBox="0 0 42 42"
   xml:space="preserve"
   inkscape:version="0.47 r22583"
   sodipodi:docname="42x42_green.svg"><metadata
   id="metadata29"><rdf:RDF><cc:Work
       rdf:about=""><dc:format>image/svg+xml</dc:format><dc:type
         rdf:resource="http://purl.org/dc/dcmitype/StillImage" /><dc:title></dc:title></cc:Work></rdf:RDF></metadata><defs
   id="defs27"><inkscape:perspective
     sodipodi:type="inkscape:persp3d"
     inkscape:vp_x="0 : 21 : 1"
     inkscape:vp_y="0 : 1000 : 0"
     inkscape:vp_z="42 : 21 : 1"
     inkscape:persp3d-origin="21 : 14 : 1"
     id="perspective31" /></defs><sodipodi:namedview
   pagecolor="#ffffff"
   bordercolor="#666666"
   borderopacity="1"
   objecttolerance="10"
   gridtolerance="10"
   guidetolerance="10"
   inkscape:pageopacity="0"
   inkscape:pageshadow="2"
   inkscape:window-width="640"
   inkscape:window-height="484"
   id="namedview25"
   showgrid="false"
   inkscape:zoom="5.6190476"
   inkscape:cx="21"
   inkscape:cy="21"
   inkscape:window-x="516"
   inkscape:window-y="352"
   inkscape:window-maximized="0"
   inkscape:current-layer="Layer_1" />
<g
   id="g3">
	<path
   fill="#BF0000"
   d="M42,34.363C42,38.581,38.581,42,34.363,42H7.636C3.419,42,0,38.581,0,34.363V7.636C0,3.418,3.419,0,7.636,0   h26.727C38.581,0,42,3.418,42,7.636V34.363z"
   id="path5" />
	<path
   fill="#00A33D"
   d="M42,34.363C42,38.581,38.581,42,34.363,42H7.636C3.419,42,0,38.581,0,34.363V7.636C0,3.418,3.419,0,7.636,0   h26.727C38.581,0,42,3.418,42,7.636V34.363z"
   id="path7" />
	<linearGradient
   id="XMLID_3_"
   gradientUnits="userSpaceOnUse"
   x1="0.7959"
   y1="20.9995"
   x2="41.2051"
   y2="20.9995">
		<stop
   offset="0"
   style="stop-color:#7DFF00"
   id="stop10" />
		<stop
   offset="1"
   style="stop-color:#00A33D"
   id="stop12" />
	</linearGradient>
	<path
   fill="url(#XMLID_3_)"
   d="M41.205,33.857c0,4.057-3.291,7.347-7.348,7.347H8.143c-4.057,0-7.347-3.29-7.347-7.347V8.143   c0-4.058,3.29-7.348,7.347-7.348h25.715c4.057,0,7.348,3.29,7.348,7.348V33.857z"
   id="path14" />
	<linearGradient
   id="XMLID_4_"
   gradientUnits="userSpaceOnUse"
   x1="0"
   y1="9.6494"
   x2="42"
   y2="9.6494">
		<stop
   offset="0"
   style="stop-color:#9DFE41"
   id="stop17" />
		<stop
   offset="1"
   style="stop-color:#40BA6E"
   id="stop19" />
	</linearGradient>
	<path
   fill="url(#XMLID_4_)"
   d="M42,13.643V7.636C42,3.418,38.581,0,34.363,0H7.636C3.419,0,0,3.418,0,7.636v5.957   C10.423,19.345,25.102,22.836,42,13.643z"
   id="path21" />
	
</g>
</svg>