<?xml version="1.0" encoding="iso-8859-1"?>
<!-- Generator: Adobe Illustrator 18.1.1, SVG Export Plug-In . SVG Version: 6.00 Build 0)  -->
<svg version="1.1" id="Layer_1" xmlns="http://www.w3.org/2000/svg" xmlns:xlink="http://www.w3.org/1999/xlink" x="0px" y="0px"
	 viewBox="0 0 595.28 841.89" style="enable-background:new 0 0 595.28 841.89;" xml:space="preserve">
<path style="fill:#FFFFFF;stroke:#000000;stroke-miterlimit:10;" d="M337.716,532.167c0,0-4.5,75.5,37.5,71s11.5-75.5,11.5-75.5
	L337.716,532.167z"/>
<path style="fill:#666666;stroke:#000000;stroke-miterlimit:10;" d="M375.216,603.167c24.024-2.574,24.325-26.903,20.184-47.259
	l-56.117,5.805C342.455,582.327,351.286,605.731,375.216,603.167z"/>
<path style="fill:#FFFFFF;stroke:#000000;stroke-miterlimit:10;" d="M259.043,532.167c0,0-23.088,69,14,73s48-73,48-73H259.043z"/>
<path style="fill:#666666;stroke:#000000;stroke-miterlimit:10;" d="M314.59,559.782l-60.625-7.118
	c-3.745,20.685-4.689,49.94,19.078,52.503C295.036,607.539,307.823,581.429,314.59,559.782z"/>
<path style="fill:#FFFFFF;stroke:#000000;stroke-miterlimit:10;" d="M262.541,560.754l39.895,2.68c0,0-7.065,27.803-23.798,24.788
	S262.541,560.754,262.541,560.754z"/>
<path style="fill:#FFFFFF;stroke:#000000;stroke-miterlimit:10;" d="M351.714,570.677l35.399-5.164c0,0,2.531,26.234-10.49,26.241
	C358.08,591.765,351.714,570.677,351.714,570.677z"/>
<path style="fill:#FFFFFF;stroke:#000000;stroke-miterlimit:10;" d="M266.927,399.947c-24.561,5.263-52.632,5.263-52.632,5.263
	l5.354,60.772l25.86-5.032c0,0,64.328-18.197,62.574-34.16C305.979,407.652,291.488,394.684,266.927,399.947z"/>
<path style="fill:#C1272D;stroke:#000000;stroke-miterlimit:10;" d="M376.576,417.667c-10.143-34.251-65.789-51.053-65.789-51.053
	s-19.298,28.07-43.86,33.333c-1.209,0.259-2.428,0.502-3.65,0.736l-20.036,60.709l2.268-0.441l-16.301,80.54l184.715-4.731
	C413.923,536.761,388.357,457.447,376.576,417.667z"/>
<line style="fill:#666666;stroke:#000000;stroke-miterlimit:10;" x1="256.16" y1="500.315" x2="249.836" y2="541.329"/>
<polygon style="fill:#666666;stroke:#000000;stroke-miterlimit:10;" points="392.798,470.374 237.225,476.667 237.225,468.729 
	390.823,464.081 "/>
<linearGradient id="SVGID_1_" gradientUnits="userSpaceOnUse" x1="317.3565" y1="383.6667" x2="317.3565" y2="199.5519">
	<stop  offset="0" style="stop-color:#402A04"/>
	<stop  offset="1" style="stop-color:#7F5100"/>
</linearGradient>
<path style="fill:url(#SVGID_1_);stroke:#000000;stroke-miterlimit:10;" d="M318.407,385.035H208.703
	c0,0-54.604-192.105,109.705-188.596s106.414,188.596,106.414,188.596H318.407z"/>
<linearGradient id="SVGID_2_" gradientUnits="userSpaceOnUse" x1="317.6879" y1="298.1667" x2="317.6879" y2="399.6679">
	<stop  offset="0.0019" style="stop-color:#FFCA94"/>
	<stop  offset="1" style="stop-color:#E2A380"/>
</linearGradient>
<path style="fill:url(#SVGID_2_);stroke:#000000;stroke-miterlimit:10;" d="M239.234,254.667c0,0-48.605,145.281,77.693,145.281
	s80.202-145.281,80.202-145.281H239.234z"/>
<linearGradient id="SVGID_3_" gradientUnits="userSpaceOnUse" x1="316.338" y1="383.6667" x2="316.338" y2="199.5519">
	<stop  offset="0" style="stop-color:#402A04"/>
	<stop  offset="1" style="stop-color:#7F5100"/>
</linearGradient>
<path style="fill:url(#SVGID_3_);stroke:#000000;stroke-miterlimit:10;" d="M254.262,218.593c0,0-37.536,22.859-34.317,82.359
	h62.921c0,0,7.255-35.965,7.255-31.786c0,4.179,3.509,31.786,3.509,31.786h48.246v-24.099l8.772,24.099h62.281
	c0,0,0-53.553-28.63-82.359C356.227,219.47,254.262,218.593,254.262,218.593z"/>
<linearGradient id="SVGID_4_" gradientUnits="userSpaceOnUse" x1="195.0862" y1="372.3811" x2="217.894" y2="516.9921">
	<stop  offset="0" style="stop-color:#006178"/>
	<stop  offset="1" style="stop-color:#00495C"/>
</linearGradient>
<path style="fill:url(#SVGID_4_);stroke:#000000;stroke-miterlimit:10;" d="M257.083,520.719l-70.388,13.196
	c-6.487,1.216-12.79-3.096-14.006-9.583l-25.4-135.482c-1.216-6.487,3.096-12.79,9.583-14.006l70.388-13.196
	c6.487-1.216,12.79,3.096,14.006,9.583l25.4,135.482C267.883,513.2,263.57,519.503,257.083,520.719z"/>
<linearGradient id="SVGID_5_" gradientUnits="userSpaceOnUse" x1="197.1793" y1="393.6586" x2="218.5313" y2="505.7564">
	<stop  offset="0" style="stop-color:#6BBBD0"/>
	<stop  offset="1" style="stop-color:#ACCCD4"/>
</linearGradient>
<polygon style="fill:url(#SVGID_5_);stroke:#000000;stroke-miterlimit:10;" points="159.336,399.948 236.336,387.667 
	254.336,498.167 179.836,514.167 "/>
<linearGradient id="SVGID_6_" gradientUnits="userSpaceOnUse" x1="207.9456" y1="466.41" x2="201.4173" y2="399.4946">
	<stop  offset="0" style="stop-color:#FBCA51"/>
	<stop  offset="1" style="stop-color:#FFECBF"/>
</linearGradient>
<ellipse style="fill:url(#SVGID_6_);stroke:#000000;stroke-miterlimit:10;" cx="205.432" cy="440.648" rx="28.959" ry="28.081"/>
<linearGradient id="SVGID_7_" gradientUnits="userSpaceOnUse" x1="190.9269" y1="427.9665" x2="192.5214" y2="436.3375">
	<stop  offset="0" style="stop-color:#6BBBD0"/>
	<stop  offset="1" style="stop-color:#ACCCD4"/>
</linearGradient>
<line style="fill:url(#SVGID_7_);stroke:#000000;stroke-miterlimit:10;" x1="190.419" y1="427.995" x2="193.031" y2="436.318"/>
<linearGradient id="SVGID_8_" gradientUnits="userSpaceOnUse" x1="211.398" y1="423.5397" x2="213.0156" y2="432.0325">
	<stop  offset="0" style="stop-color:#6BBBD0"/>
	<stop  offset="1" style="stop-color:#ACCCD4"/>
</linearGradient>
<line style="fill:url(#SVGID_8_);stroke:#000000;stroke-miterlimit:10;" x1="211.636" y1="423.425" x2="212.779" y2="432.156"/>
<path style="fill:none;stroke:#000000;stroke-miterlimit:10;" d="M193.031,449.538c0,0,0.653,13.22,15.831,9.14
	c15.178-4.08,11.229-15.994,11.229-15.994"/>
<linearGradient id="SVGID_9_" gradientUnits="userSpaceOnUse" x1="247.2587" y1="416.1667" x2="247.2587" y2="464.1901">
	<stop  offset="0.0019" style="stop-color:#FFCA94"/>
	<stop  offset="1" style="stop-color:#E2A380"/>
</linearGradient>
<path style="fill:url(#SVGID_9_);stroke:#000000;stroke-miterlimit:10;" d="M270.471,414.838c0,0-54.845-4.046-54.59,5.391
	c0.255,9.437,21.359,3.668,20.849,8.259c-0.51,4.591-10.173,3.424-8.763,9.166c1.335,5.436,9.891,0.337,10.485,4.399
	c0.594,4.062-7.944,4.738-7.2,9.587s9.437,1.275,9.947,4.081c0.51,2.806-5.959,4.099-3.664,7.415
	c2.296,3.316,25.482,4.532,36.821-0.784C285.887,456.946,270.471,414.838,270.471,414.838z"/>
<path style="fill:none;stroke:#000000;stroke-miterlimit:10;" d="M254.262,336.772c0,0,0.464-21.64,21.464-21.14s22,21.14,22,21.14"
	/>
<path style="fill:none;stroke:#000000;stroke-miterlimit:10;" d="M340.225,336.772c0,0,5.5-23.64,25-23.64s21.571,21,21.571,21"/>
<path style="fill:#FFFFFF;stroke:#000000;stroke-miterlimit:10;" d="M299.725,366.614"/>
<path style="fill:none;stroke:#000000;stroke-miterlimit:10;" d="M299.725,366.614c0,0,0.715,18.789,16.607,18.421
	c15.893-0.368,12.893-18.421,12.893-18.421"/>
<path style="fill:#FFFFFF;stroke:#000000;stroke-miterlimit:10;" d="M374.383,443.153c-2.38,6.629-9.604,20.319-44.933,26.513
	c-37.922,6.649-56.122-3.11-56.122-3.11l-10.787-59.329c0,0,37.312,5.696,53.792,4.439c16.48-1.257,33.346-5.764,33.346-5.764
	s18.324-4.366,23.904,8.074C379.162,426.415,377.121,435.528,374.383,443.153z"/>
<linearGradient id="SVGID_10_" gradientUnits="userSpaceOnUse" x1="316.3257" y1="383.6667" x2="316.3257" y2="199.5519">
	<stop  offset="0" style="stop-color:#402A04"/>
	<stop  offset="1" style="stop-color:#7F5100"/>
</linearGradient>
<polygon style="fill:url(#SVGID_10_);" points="262.541,210.167 237.725,225.136 224.225,247.667 408.426,250.667 394.198,218.593 
	358.725,207.167 "/>
<polygon style="fill:#C1272D;stroke:#000000;stroke-miterlimit:10;" points="365.225,225.136 354.191,247.667 404.225,254.667 
	399.167,290.713 428.616,269.855 394.694,225.136 "/>
<path style="fill:#C1272D;stroke:#000000;stroke-miterlimit:10;" d="M391.404,189.667c-6.811-2.502-41.178,27.5-36.678,36.5
	s39,21.5,39,21.5l13.209-17.558C406.934,230.109,402.904,193.891,391.404,189.667z"/>
<path style="fill:#C1272D;stroke:#000000;stroke-miterlimit:10;" d="M417.633,244.522l-13.408,15.144c0,0,9,36.5,17.5,35.5
	s32-21.72,30-31.408C449.725,254.07,417.633,244.522,417.633,244.522z"/>
<path style="fill:#C1272D;stroke:#000000;stroke-miterlimit:10;" d="M389.225,247.667c0,0,13.418-23.5,17.709-22.5
	s15.093,16.043,15.791,19.356s-13,20.644-18.5,19.144S391.725,253.667,389.225,247.667z"/>
<line style="fill:#FFFFFF;stroke:#000000;stroke-miterlimit:10;" x1="361.225" y1="225.136" x2="391.404" y2="243.987"/>
<line style="fill:#FFFFFF;stroke:#000000;stroke-miterlimit:10;" x1="408.426" y1="262.503" x2="422.751" y2="285.667"/>
<circle style="opacity:0.2;fill:#D86D44;" cx="262.541" cy="357.167" r="19.249"/>
<circle style="opacity:0.2;fill:#D86D44;" cx="372.725" cy="357.167" r="19.249"/>
<path style="fill:#C1272D;stroke:#000000;stroke-miterlimit:10;" d="M376.576,417.667"/>
<linearGradient id="SVGID_11_" gradientUnits="userSpaceOnUse" x1="218.8582" y1="511.4505" x2="220.6065" y2="520.6293">
	<stop  offset="0" style="stop-color:#006178"/>
	<stop  offset="1" style="stop-color:#00495C"/>
</linearGradient>
<path style="fill:url(#SVGID_11_);stroke:#000000;stroke-miterlimit:10;" d="M206.685,519.272c0.7,3.23,4.623,2.704,4.623,2.704
	s14.196-2.268,16.856-2.704c2.66-0.436,5.413-2.183,4.802-5.501s-2.578-4.334-4.977-4.104c-2.143,0.206-17.811,4.016-17.811,4.016
	S205.55,514.033,206.685,519.272z"/>
<linearGradient id="SVGID_12_" gradientUnits="userSpaceOnUse" x1="196.3435" y1="377.0275" x2="197.1753" y2="381.3944">
	<stop  offset="0" style="stop-color:#006178"/>
	<stop  offset="1" style="stop-color:#00495C"/>
</linearGradient>
<polygon style="fill:url(#SVGID_12_);stroke:#000000;stroke-miterlimit:10;" points="186.437,379.506 206.978,374.966 
	207.302,379.506 186.437,382.911 "/>
<linearGradient id="SVGID_13_" gradientUnits="userSpaceOnUse" x1="152.8581" y1="432.1676" x2="155.3072" y2="445.0254">
	<stop  offset="0.0019" style="stop-color:#FFCA94"/>
	<stop  offset="1" style="stop-color:#E2A380"/>
</linearGradient>
<path style="fill:url(#SVGID_13_);stroke:#000000;stroke-miterlimit:10;" d="M147.998,440.542c0.949,7.344,13.977,5.843,12.44-2.53
	S146.584,429.608,147.998,440.542z"/>
<linearGradient id="SVGID_14_" gradientUnits="userSpaceOnUse" x1="150.9085" y1="418.1373" x2="153.3576" y2="430.9951">
	<stop  offset="0.0019" style="stop-color:#FFCA94"/>
	<stop  offset="1" style="stop-color:#E2A380"/>
</linearGradient>
<path style="fill:url(#SVGID_14_);stroke:#000000;stroke-miterlimit:10;" d="M146.048,426.512c0.949,7.344,13.977,5.843,12.44-2.53
	C156.951,415.609,144.635,415.578,146.048,426.512z"/>
<linearGradient id="SVGID_15_" gradientUnits="userSpaceOnUse" x1="155.5252" y1="446.1968" x2="157.7338" y2="457.7922">
	<stop  offset="0.0019" style="stop-color:#FFCA94"/>
	<stop  offset="1" style="stop-color:#E2A380"/>
</linearGradient>
<path style="fill:url(#SVGID_15_);stroke:#000000;stroke-miterlimit:10;" d="M151.142,453.749
	c0.856,6.623,12.605,5.269,11.218-2.281S149.868,443.888,151.142,453.749z"/>
<linearGradient id="SVGID_16_" gradientUnits="userSpaceOnUse" x1="153.2876" y1="459.8923" x2="155.1558" y2="469.7006">
	<stop  offset="0.0019" style="stop-color:#FFCA94"/>
	<stop  offset="1" style="stop-color:#E2A380"/>
</linearGradient>
<path style="fill:url(#SVGID_16_);stroke:#000000;stroke-miterlimit:10;" d="M160.174,458.833c0,0-14.452,0.644-13.09,6.785
	c1.362,6.141,15.124,2.806,15.124,2.806L160.174,458.833z"/>
<line style="fill:#FFFFFF;stroke:#000000;stroke-miterlimit:10;" x1="248.632" y1="323.549" x2="256.507" y2="327.307"/>
<line style="fill:#FFFFFF;stroke:#000000;stroke-miterlimit:10;" x1="261.876" y1="310.936" x2="265.389" y2="317.658"/>
<line style="fill:#FFFFFF;stroke:#000000;stroke-miterlimit:10;" x1="376.97" y1="306.416" x2="373.396" y2="314.297"/>
<line style="fill:#FFFFFF;stroke:#000000;stroke-miterlimit:10;" x1="395.048" y1="316.402" x2="383.276" y2="323.549"/>
<line style="fill:#666666;stroke:#000000;stroke-miterlimit:10;" x1="389.162" y1="500.667" x2="397.411" y2="537.183"/>
<line style="fill:#666666;stroke:#000000;stroke-miterlimit:10;" x1="329.451" y1="499.333" x2="329.451" y2="538.924"/>
<line style="fill:#666666;stroke:#000000;stroke-miterlimit:10;" x1="291.892" y1="500.667" x2="288.558" y2="539.971"/>
<line style="fill:#666666;stroke:#000000;stroke-miterlimit:10;" x1="363.511" y1="500.315" x2="367.494" y2="537.95"/>
</svg>
