<?xml version="1.0" encoding="UTF-8" standalone="no"?>
<!-- Created with Inkscape (http://www.inkscape.org/) -->
<svg
   xmlns:dc="http://purl.org/dc/elements/1.1/"
   xmlns:cc="http://web.resource.org/cc/"
   xmlns:rdf="http://www.w3.org/1999/02/22-rdf-syntax-ns#"
   xmlns:svg="http://www.w3.org/2000/svg"
   xmlns="http://www.w3.org/2000/svg"
   xmlns:sodipodi="http://sodipodi.sourceforge.net/DTD/sodipodi-0.dtd"
   xmlns:inkscape="http://www.inkscape.org/namespaces/inkscape"
   id="svg2"
   sodipodi:version="0.32"
   inkscape:version="0.45"
   width="270"
   height="270"
   version="1.0"
   sodipodi:docbase="/home/bull/Desktop"
   sodipodi:docname="cannabis.svg"
   inkscape:output_extension="org.inkscape.output.svg.inkscape"
   sodipodi:modified="true">
  <metadata
     id="metadata7">
    <rdf:RDF>
      <cc:Work
         rdf:about="">
        <dc:format>image/svg+xml</dc:format>
        <dc:type
           rdf:resource="http://purl.org/dc/dcmitype/StillImage" />
      </cc:Work>
    </rdf:RDF>
  </metadata>
  <defs
     id="defs5" />
  <sodipodi:namedview
     inkscape:window-height="940"
     inkscape:window-width="1280"
     inkscape:pageshadow="2"
     inkscape:pageopacity="0.0"
     guidetolerance="10.0"
     gridtolerance="10.0"
     objecttolerance="10.0"
     borderopacity="1.0"
     bordercolor="#666666"
     pagecolor="#ffffff"
     id="base"
     inkscape:document-units="mm"
     inkscape:zoom="3.210101"
     inkscape:cx="67.571663"
     inkscape:cy="117.17816"
     inkscape:window-x="0"
     inkscape:window-y="30"
     inkscape:current-layer="svg2" />
  <path
     style="fill:#005000;fill-opacity:1;stroke:none"
     d="M 138.9918,261.75 C 138.94977,255.34785 136.23542,237.585 133.42101,225.29448 C 132.63945,221.88145 131.99311,217.60645 131.98469,215.79448 C 131.96218,210.95286 130.61693,209.35056 129.19488,212.47162 C 128.56128,213.86223 127.45824,215 126.74368,215 C 125.34927,215 123.55652,216.86237 120.72695,221.2504 C 119.75177,222.76268 118.28927,224 117.47695,224 C 116.66463,224 116,224.45 116,225 C 116,225.55 115.12656,226 114.05902,226 C 112.99148,226 111.82096,226.48068 111.45787,227.06817 C 111.09477,227.65567 110.18263,227.90032 109.43087,227.61185 C 108.67912,227.32337 107.80564,227.50547 107.4898,228.0165 C 107.17397,228.52753 105.02206,229.45091 102.70778,230.06844 C 99.856009,230.8294 97.126058,232.65999 94.236578,235.74886 C 91.891698,238.25556 89.681438,240.01477 89.324878,239.65821 C 87.645518,237.97885 94.994498,221.60849 98.197228,219.89445 C 99.188749,219.3638 100,218.30079 100,217.5322 C 100,216.76362 100.9,215.84913 102,215.5 C 103.1,215.15087 104,214.29178 104,213.5909 C 104,212.89002 105.7799,211.7833 107.95533,211.13153 C 110.13076,210.47975 112.67979,209.17103 113.61984,208.22324 C 114.5599,207.27546 116.7175,205.42722 118.41452,204.11605 C 120.23787,202.70727 120.68189,202.04108 119.5,202.48746 C 118.4,202.90291 115.3274,204.06222 112.672,205.0637 C 110.01659,206.06519 107.23748,207.38795 106.49618,208.00317 C 105.75489,208.61839 104.55249,208.99994 103.82419,208.85107 C 103.09588,208.7022 101.49204,209.2102 100.19456,209.85505 C 96.590194,211.64642 95.253967,208.91241 91.398774,211.32044 C 86.466925,214.40098 87.525442,210.67758 81.006606,213.37983 C 70.749078,217.63187 76.631155,213.41674 68.843684,216.64254 C 59.057303,220.69636 65.838614,214.2585 55.499998,219.00364 C 51.288395,220.93665 40.071228,221.59544 38.352008,223.31466 C 37.172328,224.49434 35.838638,224.06317 36.176678,222.6114 C 36.515398,221.15669 48.508841,211.22431 50.113171,210.49213 C 51.819648,209.71334 50.430096,208.08075 55.006328,206.75 C 57.714291,205.96253 56.441447,201.99112 63.203508,200.51287 C 69.497328,199.13698 65.317266,196.50893 72.943673,195.38882 C 77.022978,194.78968 77.948463,191.79701 84.499998,191.72534 C 89.616383,191.66937 93.711968,190.46687 93.971038,190.26262 C 95.118178,189.35822 91.125178,188.02928 87.218618,188.01531 C 84.346128,188.00504 82.747818,187.50639 82.361628,186.5 C 81.961288,185.45672 80.333468,185 77.015458,185 C 73.994908,185 71.788218,184.44975 70.999998,183.5 C 70.315308,182.675 68.896088,182 67.846168,182 C 66.796258,182 65.686558,181.34677 65.380188,180.54837 C 65.073818,179.74997 63.287938,178.59007 61.411568,177.97082 C 59.102988,177.20891 57.999998,176.22335 57.999998,174.92245 C 57.999998,173.55358 57.300678,173 55.571428,173 C 52.894238,173 49.654788,170.36758 50.549828,168.91938 C 50.862338,168.41372 49.699348,168 47.965398,168 C 45.684148,168 44.672268,167.46274 44.304448,166.05619 C 44.024868,164.9871 42.829498,163.9746 41.648068,163.80619 C 40.466628,163.63779 39.089808,162.5665 38.588468,161.42557 C 38.087128,160.28463 36.370468,158.60133 34.773688,157.6849 C 33.176898,156.76847 32.110478,155.63026 32.403858,155.15556 C 32.697248,154.68085 31.801018,153.77474 30.412258,153.14197 C 29.023488,152.50921 28.137068,151.58724 28.442428,151.09316 C 28.747788,150.59907 27.648158,149.7244 25.998818,149.14943 C 24.349468,148.57447 22.999999,147.4432 22.999999,146.63551 C 22.999999,145.82782 19.624999,142.05712 15.499999,138.25619 C 11.374999,134.45526 7.9999983,131.08116 7.9999983,130.7582 C 7.9999983,130.43524 11.712499,131.49905 16.249999,133.12222 C 20.787499,134.7454 26.974998,136.29332 29.999998,136.56205 C 39.225598,137.38162 39.808658,137.47461 40.583688,138.25 C 40.995988,138.6625 42.356778,139 43.607648,139 C 44.858528,139 46.160078,139.45 46.499998,140 C 46.839918,140.55 48.356628,141 49.870458,141 C 51.384288,141 53.557728,141.87095 54.700328,142.93544 C 55.896458,144.0498 57.596948,144.65665 58.708748,144.36591 C 59.783278,144.08492 61.217448,144.55708 61.942298,145.43048 C 62.658728,146.29371 64.024078,147 64.976418,147 C 65.928768,147 67.921848,148.125 69.405498,149.5 C 70.889148,150.875 72.802398,152 73.657168,152 C 74.511938,152 76.548278,153.125 78.182368,154.5 C 79.816468,155.875 82.174178,157 83.421738,157 C 84.669298,157 86.504518,157.9 87.499998,159 C 88.495488,160.1 90.113678,161 91.095968,161 C 92.078268,161 93.160078,161.45 93.499998,162 C 93.839918,162.55 94.878978,162.98011 95.809018,162.9558 C 96.780858,162.9304 95.981208,162.10868 93.928708,161.0236 C 90.059728,158.97821 87.373678,156.29299 88.285018,155.38165 C 88.598538,155.06813 87.312658,153.45739 85.427518,151.80222 C 83.542388,150.14705 81.999998,148.19705 81.999998,147.46889 C 81.999998,146.74072 80.621778,145.06633 78.937278,143.74802 C 77.252788,142.4297 75.767218,140.6197 75.636018,139.72579 C 75.504818,138.83188 74.183048,137.14522 72.698738,135.97767 C 71.214428,134.81011 69.999998,133.08452 69.999998,132.14303 C 69.999998,131.20153 68.649998,129.63375 66.999998,128.65907 C 64.097228,126.94436 62.881788,124 65.076728,124 C 65.668928,124 64.734478,122.80602 63.000188,121.3467 C 60.788678,119.48584 60.002838,118.09716 60.368978,116.69702 C 60.726588,115.32955 59.926858,113.79996 57.830368,111.84154 C 55.268808,109.44868 54.976398,108.73336 56.037298,107.45506 C 57.094308,106.18144 56.834818,105.43702 54.475358,102.97427 C 52.919098,101.3499 51.937948,99.728717 52.295018,99.371648 C 52.652088,99.014581 51.831778,97.400361 50.472118,95.784492 C 47.602418,92.374048 47.399038,91.167842 49.554248,90.34081 C 50.906428,89.821929 50.857998,89.468486 49.181748,87.622195 C 47.306538,85.556755 46.312768,82.641671 45.390138,76.5 C 44.555468,70.943842 44.056428,67.518374 43.569078,64 C 42.305838,54.880093 41.768988,52.161631 40.362688,47.763421 C 37.634128,39.229906 39.265378,39.009071 43.818428,47.295589 C 46.174258,51.583163 50.328858,57.550427 53.050878,60.556175 C 55.772898,63.561924 57.999998,66.486136 57.999998,67.054424 C 57.999998,67.622711 58.695178,67.955447 59.544838,67.793837 C 60.410158,67.629247 61.839708,68.819585 62.794838,70.5 C 63.732678,72.15 64.636968,73.711968 64.804378,73.97104 C 64.971778,74.230111 65.513308,73.787477 66.007778,72.987408 C 66.702248,71.863733 67.258728,72.374979 68.453408,75.23425 C 69.304038,77.270082 69.999998,79.400216 69.999998,79.967881 C 69.999998,80.535547 70.449998,81 70.999998,81 C 71.549998,81 71.999998,80.471559 71.999998,79.825686 C 71.999998,79.179813 73.124998,79.708255 74.499998,81 C 76.070238,82.475161 76.999998,84.445053 76.999998,86.296759 C 76.999998,88.770953 77.235218,89.049677 78.463168,88.030568 C 79.681548,87.019406 80.223948,87.503193 81.705188,90.922241 C 82.760378,93.35787 83.993388,94.83278 84.736098,94.547776 C 85.541398,94.238752 86.396908,95.690625 87.133708,98.61674 C 87.832618,101.39235 88.572818,102.6912 89.032148,101.94798 C 89.955948,100.45326 91.433518,102.96402 92.469798,107.78942 C 93.020648,110.35442 93.569978,110.95387 94.964148,110.51138 C 96.842258,109.91529 97.958858,112.22026 97.986348,116.75 C 97.995648,118.28337 98.600849,119 99.886462,119 C 101.34807,119 101.92089,119.98678 102.42998,123.38164 C 102.91073,126.58749 103.52564,127.72795 104.72151,127.63164 C 105.83106,127.54227 106.70026,128.79412 107.42799,131.5296 C 108.23225,134.55276 108.93708,135.47105 110.25,135.20627 C 111.91282,134.87093 112.51963,137.45665 112.26299,143.78392 C 112.23141,144.56255 112.90422,144.84779 113.97256,144.50871 C 115.43572,144.04432 115.82141,144.72321 116.24884,148.51537 C 116.53189,151.02655 117.56294,153.96456 118.54007,155.04427 C 119.71926,156.34727 120.29373,158.52371 120.24849,161.51676 C 120.19619,164.97617 120.625,166.26412 122.09016,167.04825 C 123.60837,167.86077 124,169.17889 124,173.47617 C 124,176.44936 124.49031,179.185 125.08958,179.55537 C 125.68886,179.92574 127.00707,182.08979 128.01895,184.36438 C 131.94552,193.19088 128.51712,177.01158 124.38521,167.21607 C 122.75112,163.34212 122.61228,161.64234 124,162.5 C 125.62752,163.50586 125.19089,162.07324 121.5,154.29738 C 119.575,150.24185 118,146.71586 118,146.46184 C 118,146.20783 118.85677,146 119.90393,146 C 121.75851,146 121.76171,145.87691 120.02729,141.25 C 116.6585,132.26309 116.63177,132 119.0876,132 C 121.08674,132 121.16515,131.82421 119.86818,130.25 C 118.94333,129.12745 114.4117,121.20929 117.92963,121.49586 C 119.17241,121.5971 118.30569,116.94638 117.7656,116.26299 C 114.28673,111.46683 119.20449,111.85704 116.50407,107.36587 C 114.85293,104.84592 115.32377,102.46403 117.23904,103.64773 C 117.93758,104.07945 118.11648,103.74592 117.72857,102.73506 C 117.39236,101.85889 116.8158,99.535071 116.44734,97.571014 C 115.85103,94.392384 116.00941,94 117.88871,94 C 120.35015,94 120.44222,93.397559 118.5,90 C 116.5385,86.568708 116.59376,83 118.60841,83 C 120.19527,83 120.13416,81.119156 118.40051,76.60133 C 118.04227,75.667758 118.41412,74.778316 119.30572,74.436179 C 120.49847,73.978478 120.62633,73.1839 119.90947,70.684351 C 118.6869,66.421488 118.74555,66 120.56127,66 C 121.8481,66 122.0023,65.198149 121.4385,61.438485 C 120.83728,57.429263 120.99282,56.814639 122.7231,56.362159 C 124.43211,55.915245 124.62935,55.19797 124.21864,50.923674 C 123.85177,47.105495 124.06581,46 125.17197,46 C 126.21334,46 126.4881,45.055182 126.18979,42.5 C 125.87231,39.780553 126.14011,39 127.39059,39 C 128.55883,39 129,38.05421 129,35.54969 C 129,33.65202 129.6248,31.73952 130.38843,31.29969 C 131.15207,30.859861 132.51401,27.575 133.41496,24 C 135.45441,15.907367 139.06225,7 140.30065,7 C 140.81358,7 140.9476,8.0125 140.59846,9.25 C 139.05735,14.712279 138.81018,23.694181 140.02395,30.126914 C 140.73722,33.907111 141.66624,37 142.08845,37 C 142.51065,37 143.16606,39.480947 143.54492,42.513215 C 143.92378,45.545484 144.64496,48.280575 145.14756,48.591196 C 145.65015,48.901817 145.78427,50.633031 145.44559,52.438338 C 144.9696,54.975578 145.21446,55.868319 146.52422,56.370919 C 147.85078,56.879969 148.07968,57.761721 147.57863,60.432581 C 147.20693,62.413888 147.37225,64.112032 147.97299,64.483305 C 149.09963,65.179607 148.32639,69.735481 146.73967,71.75 C 146.01769,72.666624 146.32117,73 147.87756,73 C 150.04884,73 150.81212,75.380048 149,76.5 C 147.64043,77.340261 147.72744,81 149.10699,81 C 149.71583,81 149.93891,81.716805 149.60272,82.592901 C 147.82261,87.231809 147.79505,89 149.50288,89 C 150.94801,89 151.11069,89.598743 150.5218,92.75 C 150.13638,94.8125 149.33729,97.085277 148.74606,97.800615 C 147.93157,98.78608 148.48057,98.648657 149.83555,99.667246 C 150.48738,100.15725 150.79763,101.84707 150.25,102.89483 C 149.44875,104.42784 148.68326,104.18816 149.80367,106.01689 C 150.82269,107.68014 150.85756,108.90158 149.96334,111.61107 C 149.20074,113.92179 147.92217,115.84599 149.26731,117.14537 C 151.77132,119.56422 150.68031,121.74279 148.73742,124.43007 C 147.6599,125.92042 147.89055,127.6106 148.84501,128 C 151.09965,128.91984 151.70412,130.17074 149.60878,131.90972 C 147.86061,133.36057 146.98874,138.82606 148.42678,139.31929 C 149.18,139.57764 149.15319,140.62851 148.33686,142.8437 C 147.69714,144.57966 147.57607,146 148.06781,146 C 148.55956,146 149.23305,144.7625 149.56447,143.25 C 150.6111,138.47343 150.89554,138 152.71862,138.0001 C 154.18329,138.00019 154.46749,137.22324 154.31713,133.63003 C 154.16064,129.89021 154.48244,129.10122 156.54815,128.16002 C 158.60438,127.22313 158.15028,126.63617 158.32451,123.87253 C 158.48817,121.27656 158.791,120.73597 159.84349,121.24882 C 161.5814,122.09565 161.49727,121.34449 162.01531,118.65638 C 162.69759,115.11604 163.94949,113.31906 164.95158,114.44166 C 166.87235,116.59341 166.90559,115.34635 168.55577,110.47669 C 169.70155,107.0955 170.73725,105.69919 171.51053,107.75 C 172.01663,109.09222 172.63543,108.28678 173.88512,104.5 C 175.22819,100.43025 175.93035,99.540743 177.65912,99.718987 C 179.17884,99.875687 180.13481,99.088759 181.01955,96.952799 C 182.01188,94.557108 182.53175,94.196427 183.65219,95.126309 C 185.27814,96.475722 185.26009,96.491463 186.94873,92.25 C 187.66038,90.4625 188.78396,89 189.44557,89 C 190.10717,89 192.39027,87.247771 194.5191,85.106158 C 196.64794,82.964546 198.89292,81.405416 199.50795,81.641426 C 200.12298,81.877435 201.44544,81.165276 202.44674,80.058848 C 203.44805,78.952421 204.65715,78.288109 205.13365,78.582598 C 205.61014,78.877088 206,78.641476 206,78.059017 C 206,77.476558 206.4046,77 206.89912,77 C 207.82134,77 215.2583,72.023098 222.96279,66.25 C 230.36564,60.702924 231.16808,62.198687 224.54275,69.195084 C 219.55224,74.465103 215.47354,81.579762 215.87788,84.309626 C 216.0253,85.30492 215.62435,86.747708 214.98687,87.515821 C 214.34939,88.283934 214.07769,89.316691 214.38309,89.810835 C 214.68849,90.30498 213.82241,91.757658 212.45848,93.039009 C 210.67291,94.71646 210.32078,95.580221 211.20079,96.124092 C 212.06553,96.658532 211.64327,97.492767 209.75699,98.976512 C 208.28762,100.13232 207.3284,101.69221 207.6199,102.45185 C 207.92344,103.24288 206.83797,104.79925 205.07224,106.10471 C 202.839,107.75582 202.33892,108.6079 203.24785,109.21329 C 204.16364,109.82324 203.69412,110.71093 201.5,112.51781 C 199.79304,113.9235 198.62015,115.76611 198.77875,116.79284 C 198.93206,117.78532 197.95207,119.63585 196.60099,120.90513 C 195.2499,122.17441 194.37225,123.8065 194.65066,124.53201 C 194.92906,125.25752 193.98505,126.61891 192.55286,127.55732 C 190.80516,128.70246 190.1331,129.84401 190.50913,131.02876 C 190.9111,132.29526 190.04571,133.42667 187.44617,135.03327 C 184.89063,136.61268 184.19844,137.50461 185.09717,138.06006 C 186.72736,139.06757 184.65509,141.80044 181.2911,143.07942 C 179.98297,143.57677 179,144.78796 179,145.90245 C 179,146.97602 177.32247,149.23715 175.27216,150.9272 C 173.22184,152.61724 172.09684,154 172.77216,154 C 175.05339,154 173.9765,155.48626 169.53559,158.4669 C 166.24596,160.67483 165.38041,161.75344 166.15211,162.68328 C 167.84196,164.71943 166.6819,166.16518 161.95814,167.91013 C 158.89685,169.04095 157.50389,170.13091 157.5023,171.39669 C 157.50085,172.55687 155.93797,174.02649 153.27784,175.36906 C 150.90341,176.56745 149.04349,178.22694 149.02784,179.16111 C 149.01253,180.07471 147.5375,182.05098 145.75,183.55281 C 143.9625,185.05464 141.88783,187.15413 141.13962,188.21834 C 138.60586,191.82222 147.8825,186.30809 155.16489,179.88158 C 158.83058,176.64671 162.24834,174 162.7599,174 C 163.27147,174 165.04966,173.45046 165.5,172 C 165.9399,170.58314 167.97462,170 168.78695,170 C 169.59929,170 172.51119,169.76928 173.61373,167.92971 C 174.72716,166.07196 177.42094,166.14212 177.98001,166.48764 C 178.53907,166.83317 180.50362,166.92101 181.22075,165.55793 C 181.91616,164.23612 184.41478,164 185.60006,164 C 186.78534,164 188.54895,163.63652 189,162.5 C 189.39548,161.5035 191.28823,161 192.56343,161 C 193.83862,161 195.1302,160.51343 195.51623,159.97374 C 196.44916,158.66945 197.57913,159.04003 199.32525,159.15315 C 201.07136,159.26627 203.49705,158.8605 204.67756,158.18299 C 207.43279,156.60174 207.60813,157.29613 208.52848,157.6493 C 209.44883,158.00248 210.53286,157.75585 210.93743,157.10124 C 212.21059,155.04123 224.78976,154.69042 236.12834,156.39871 C 241.97392,157.27942 250.18642,158 254.37834,158 C 258.79278,158 262,158.4208 262,159 C 262,159.55 261.15211,160 260.1158,160 C 259.07948,160 254.6353,161.8 250.23984,164 C 245.84437,166.2 241.79736,168 241.24648,168 C 240.69561,168 239.68469,168.675 239,169.5 C 238.31531,170.325 237.07232,171 236.2378,171 C 235.40328,171 234.17125,171.75112 233.49997,172.66915 C 232.77432,173.66153 230.80987,174.37108 228.65491,174.41915 C 225.67699,174.48558 225.12887,174.81221 225.58256,176.25 C 226.04479,177.71483 225.49008,178 222.1785,178 C 219.02437,178 218.25038,178.35482 218.36111,179.75 C 218.47413,181.174 217.82005,181.44099 214.84998,181.1832 C 211.83126,180.9212 211.2259,181.18064 211.34998,182.6832 C 211.47747,184.22717 210.80813,184.46574 206.89285,184.27187 C 202.48366,184.05353 203.07666,184.12819 202.75943,186.52187 C 202.47511,188.66728 201.37608,188.05715 198.23964,187.76969 C 195.07998,187.48262 194.71673,186.75479 193.85785,188.28953 C 193.06489,189.70646 192.0332,189.92505 188.43904,189.43762 C 184.6589,188.92497 184.08983,189.07052 184.60682,190.41778 C 185.10639,191.71964 184.39764,192 180.60699,192 C 177.99616,192 176,192.46447 176,193.07196 C 176,193.78793 174.1735,193.91571 170.5,193.45673 C 166.47212,192.95348 165,193.095 165,193.98547 C 165,194.80907 163.57886,195.08823 160.59545,194.85069 C 158.17295,194.65781 156.3995,194.8375 156.65447,195.25 C 156.90943,195.6625 159.90398,195.99943 163.30902,195.99872 C 171.16288,195.9971 186.24296,198.06945 186,199.12586 C 185.45485,201.49623 191.54784,203 194.04396,203 C 195.30574,203 196.9965,203.7847 196.6822,204.89272 C 196.03698,207.16733 198.3724,207.17125 200.10823,207.37165 C 206.37159,208.09474 206.27346,209.83806 207.99598,212.17431 C 208.90051,213.40112 210.31539,214.42639 211.92431,214.95949 C 213.15344,215.36675 214,216.53982 214,217.11358 C 214,218.15459 218.7013,222.82998 225.43994,228.49047 C 229.22649,231.67118 230.14922,233.70104 227.25,232.47229 C 221.71082,230.12468 217.54252,229.00685 212.50237,228.51738 C 209.38657,228.21479 205.59083,227.32265 204.0674,226.53485 C 202.24718,225.59358 200.95948,225.44052 200.3116,226.0884 C 199.66371,226.73629 198.371,226.71135 196.5412,226.01567 C 194.52898,225.25062 193.37584,225.27312 192.38337,226.09679 C 191.33239,226.96903 190.3633,226.80522 188.25501,225.39898 C 186.73975,224.3883 184.94259,223.67862 184.26131,223.82193 C 183.58004,223.96523 182.00504,223.5035 180.76131,222.79587 C 179.51759,222.08824 178.05,221.47033 177.5,221.42275 C 175.79028,221.27484 170.59642,218.69835 168.5,216.95817 C 166.00925,214.89067 163,213.77792 163,214.9244 C 163,215.39829 163.68175,216.04764 164.51501,216.36739 C 165.34826,216.68714 166.46212,218.08528 166.99026,219.47437 C 167.51839,220.86347 168.43136,222 169.01909,222 C 169.60681,222 169.99697,222.5625 169.88612,223.25 C 169.77526,223.9375 169.92914,225.175 170.22807,226 C 172.76087,232.99006 173.86297,242 172.18521,242 C 171.73708,242 170.64761,240.48424 169.76417,238.63165 C 168.19653,235.34428 160.27853,228 158.302,228 C 157.75638,228 156.49549,227.1 155.5,226 C 154.50451,224.9 153.2116,224 152.62685,224 C 152.0421,224 150.64935,222.93593 149.53184,221.6354 C 148.41433,220.33488 147.11445,219.32238 146.64323,219.3854 C 146.172,219.44843 145.047,218.11155 144.14323,216.41456 C 143.23945,214.71756 141.39783,211.23006 140.05073,208.66456 C 137.19275,203.22161 135.7069,202.64658 136.39559,207.25 C 136.66301,209.0375 137.35327,214.55 137.92951,219.5 C 139.89984,236.42557 141.01555,244.50277 142.48785,252.5 C 144.41496,262.96774 144.41193,263 141.5,263 C 140.125,263 138.99631,262.4375 138.9918,261.75 z M 103.4485,192.08333 C 103.76103,191.57764 101.91608,191.16667 99.333329,191.16667 C 96.167088,191.16667 95.112638,191.45843 96.075818,192.06802 C 97.936198,193.24544 102.72413,193.25539 103.4485,192.08333 z M 119.70398,183.59657 C 113.09605,176.82401 111.10919,175.467 113.01499,179.02801 C 113.61194,180.14341 114.5086,180.8037 115.00759,180.49531 C 115.50657,180.18692 116.59283,181.24572 117.42149,182.84819 C 118.25016,184.45066 120.35083,186.95886 122.08965,188.42198 C 127.68672,193.13161 126.33025,190.38792 119.70398,183.59657 z M 141.17043,174.5 C 141.74415,171.75 142.61551,169.0725 143.10678,168.55 C 143.59805,168.0275 144,165.76513 144,163.52251 C 144,161.27988 144.70052,158.44488 145.5567,157.22251 C 146.41289,156.00013 146.75039,155.00557 146.3067,155.01238 C 145.86302,155.01919 144.52064,156.53732 143.32364,158.38602 C 141.77672,160.77514 141.45699,162.05699 142.21814,162.81814 C 142.97929,163.57929 142.55711,165.42344 140.75839,169.1945 C 139.36656,172.11253 137.93002,176.525 137.56608,179 C 137.20214,181.475 136.67025,184.625 136.38411,186 C 136.09796,187.375 136.82312,186.475 137.99556,184 C 139.16801,181.525 140.5967,177.25 141.17043,174.5 z "
     id="path2161"
     sodipodi:nodetypes="cssssssssssssssssssssssssssssssssssssssssssssssssssssssssssssssssssssssssssssssssssssssssssssssssssssssssssssssssssssssssssssssssssssssssssssssssccssssssssssssssssssssssssssssssssssssssssssssssssssssssssssssssssssssssssssssssssssssssssssssssssssssssssssssssssssssssssssssssssssssssssssssssssssssssssssssssssssssssssssssssssssssssccssccssssccssssssssssc" />
</svg>
