<?xml version="1.0" encoding="UTF-8" standalone="no"?>
<!-- Generator: Adobe Illustrator 18.1.1, SVG Export Plug-In . SVG Version: 6.00 Build 0)  -->

<svg
   xmlns:dc="http://purl.org/dc/elements/1.1/"
   xmlns:cc="http://creativecommons.org/ns#"
   xmlns:rdf="http://www.w3.org/1999/02/22-rdf-syntax-ns#"
   xmlns:svg="http://www.w3.org/2000/svg"
   xmlns="http://www.w3.org/2000/svg"
   xmlns:sodipodi="http://sodipodi.sourceforge.net/DTD/sodipodi-0.dtd"
   xmlns:inkscape="http://www.inkscape.org/namespaces/inkscape"
   version="1.1"
   id="Layer_1"
   x="0px"
   y="0px"
   viewBox="0 0 595.28 841.89"
   style="enable-background:new 0 0 595.28 841.89;"
   xml:space="preserve"
   inkscape:version="0.48.4 r9939"
   width="100%"
   height="100%"
   sodipodi:docname="Mail.svg"><metadata
     id="metadata68"><rdf:RDF><cc:Work
         rdf:about=""><dc:format>image/svg+xml</dc:format><dc:type
           rdf:resource="http://purl.org/dc/dcmitype/StillImage" /></cc:Work></rdf:RDF></metadata><defs
     id="defs66" /><sodipodi:namedview
     pagecolor="#ffffff"
     bordercolor="#666666"
     borderopacity="1"
     objecttolerance="10"
     gridtolerance="10"
     guidetolerance="10"
     inkscape:pageopacity="0"
     inkscape:pageshadow="2"
     inkscape:window-width="1508"
     inkscape:window-height="982"
     id="namedview64"
     showgrid="false"
     inkscape:zoom="8.970293"
     inkscape:cx="297.64"
     inkscape:cy="420.945"
     inkscape:window-x="75"
     inkscape:window-y="34"
     inkscape:window-maximized="0"
     inkscape:current-layer="Layer_1" /><g
     id="g3"><linearGradient
       id="SVGID_1_"
       gradientUnits="userSpaceOnUse"
       x1="298.2256"
       y1="324.4347"
       x2="298.2256"
       y2="518.2007"><stop
         offset="0"
         style="stop-color:#FFFFFF;stop-opacity:0.7"
         id="stop6" /><stop
         offset="0.9987"
         style="stop-color:#D8D9D8;stop-opacity:0.7"
         id="stop8" /></linearGradient><path
       style="fill-rule:evenodd;clip-rule:evenodd;fill:url(#SVGID_1_);"
       d="M210.005,518.68c-5.031,0-9.124-4.093-9.124-9.123   v-176.44c0-5.031,4.093-9.124,9.124-9.124h176.441c5.03,0,9.123,4.093,9.123,9.124v176.44c0,5.03-4.093,9.123-9.123,9.123H210.005z   "
       id="path10" /><path
       style="fill:#D8D8D7;"
       d="M386.446,324.492c4.755,0,8.624,3.868,8.624,8.624v176.441c0,4.755-3.868,8.623-8.624,8.623H210.006   c-4.755,0-8.624-3.868-8.624-8.623V333.116c0-4.755,3.868-8.624,8.624-8.624H386.446 M386.446,323.492H210.006   c-5.315,0-9.624,4.309-9.624,9.624v176.441c0,5.315,4.309,9.623,9.624,9.623h176.441c5.315,0,9.624-4.308,9.624-9.623V333.116   C396.07,327.801,391.761,323.492,386.446,323.492L386.446,323.492z"
       id="path12" /></g><path
     style="fill-rule:evenodd;clip-rule:evenodd;fill:#E1DFE2;"
     d="M244.158,382.342h104.707c3.322,0,6.015,2.693,6.015,6.015  v81.128c0,3.322-2.693,6.015-6.015,6.015H244.158c-3.322,0-6.015-2.693-6.015-6.015v-81.128  C238.143,385.034,240.836,382.342,244.158,382.342z"
     id="path14" /><g
     id="g16"><linearGradient
       id="SVGID_2_"
       gradientUnits="userSpaceOnUse"
       x1="296.5117"
       y1="381.5156"
       x2="296.5117"
       y2="474.0015"><stop
         offset="0.0032"
         style="stop-color:#E6C71E"
         id="stop19" /><stop
         offset="1"
         style="stop-color:#E1BB23"
         id="stop21" /></linearGradient><path
       style="fill-rule:evenodd;clip-rule:evenodd;fill:url(#SVGID_2_);"
       d="M244.158,474.999c-3.041,0-5.515-2.474-5.515-5.515   v-82.699c0-3.041,2.474-5.515,5.515-5.515h104.707c3.041,0,5.515,2.474,5.515,5.515v82.699c0,3.041-2.474,5.515-5.515,5.515   H244.158z"
       id="path23" /><path
       style="fill:#D6B429;"
       d="M348.865,381.771c2.765,0,5.015,2.25,5.015,5.015v82.699c0,2.765-2.25,5.015-5.015,5.015H244.158   c-2.765,0-5.015-2.25-5.015-5.015v-82.699c0-2.765,2.25-5.015,5.015-5.015H348.865 M348.865,380.771H244.158   c-3.322,0-6.015,2.693-6.015,6.015v82.699c0,3.322,2.693,6.015,6.015,6.015h104.707c3.322,0,6.015-2.693,6.015-6.015v-82.699   C354.88,383.464,352.187,380.771,348.865,380.771L348.865,380.771z"
       id="path25" /></g><path
     style="fill-rule:evenodd;clip-rule:evenodd;fill:#C9AF2D;"
     d="M240.127,383.604l-1.026,1.112l58.106,56.862v-2.652  L240.127,383.604z"
     id="path27" /><path
     style="fill-rule:evenodd;clip-rule:evenodd;fill:#9E8831;"
     d="M240.25,383.786l0.589-0.666l56.368,55.16v0.646L240.25,383.786  z"
     id="path29" /><polygon
     style="fill-rule:evenodd;clip-rule:evenodd;fill:#EECF32;"
     points="240.152,471.976 296.94,421.926 296.94,420.907   239.625,471.413 "
     id="polygon31" /><path
     style="fill:#c9af2d;fill-rule:evenodd"
     d="m 297.54144,442.1354 56.404,-56.915 -1.09844,-1.5594 -55.639,55.265 0,2.652 z"
     id="path33"
     inkscape:connector-curvature="0"
     sodipodi:nodetypes="cccccc" /><path
     style="fill-rule:evenodd;clip-rule:evenodd;fill:#968330;"
     d="M297.207,438.28l55.098-55.103l0.542,0.485l-55.639,55.265  V438.28z"
     id="path35" /><path
     style="fill:#9e8831;fill-rule:evenodd"
     d="m 348.865,380.611 -104.707,0 c -4.82917,1.06976 -6.015,3.82683 -6.015,7.746 0,-3.322 2.693,-6.015 6.015,-6.015 l 104.707,0 c 3.322,0 6.015,2.693 6.015,6.015 l 0,-1.731 c 0,-3.322 -2.693,-6.015 -6.015,-6.015 z"
     id="path37"
     inkscape:connector-curvature="0"
     sodipodi:nodetypes="sccsscss" /><path
     style="fill-rule:evenodd;clip-rule:evenodd;fill:#BBA330;"
     d="M238.853,470.453c0,0,0.246,0.5,0.772,0.959l57.316-50.505  l0.02-1.375L238.853,470.453z"
     id="path39" /><path
     style="fill-rule:evenodd;clip-rule:evenodd;fill:#BBA330;"
     d="M296.94,419.383v1.524l55.751,51.174  c0.466-0.33,0.768-0.716,0.768-0.716L296.94,419.383z"
     id="path41" /><path
     style="fill-rule:evenodd;clip-rule:evenodd;fill:#EECF32;"
     d="M352.692,472.081l-55.751-51.174v0.761l55.115,50.925  C352.376,472.442,352.269,472.381,352.692,472.081z"
     id="path43" /><path
     style="fill-rule:evenodd;clip-rule:evenodd;fill:#AC9431;"
     d="M289.012,412.491c-3.192,1.17-4.69,6.312-6.235,7.829  c-1.544,1.517-4.703,1.544-6.273,5.029c-1.57,3.485,1.75,4.183,1.675,7.319c-0.076,3.136-2.91,3.923-2.368,7.185  c0.541,3.262,3.454,2.5,4.846,4.564c1.391,2.064-0.81,5.496,2.281,6.831c3.091,1.335,5.185-0.25,8.327,0.084  c3.142,0.334,2.986,4.66,7.796,4.18c5.497-0.548,4.267-4.183,7.268-5.811c3.001-1.628,6.925,1.166,8.397-2.402  c1.472-3.568-0.258-5.944,0.469-9.521c0.727-3.577,4.949-4.005,4.769-7.767c-0.18-3.762-4.779-6.555-7.659-7.681  c-1.814-0.709-0.625-7.017-4.299-8.084c-3.673-1.067-5.597,0.229-10.024,0.635C293.554,415.288,294.735,410.393,289.012,412.491z"
     id="path45" /><g
     id="g47"><linearGradient
       id="SVGID_3_"
       gradientUnits="userSpaceOnUse"
       x1="297.8546"
       y1="413.6799"
       x2="297.8546"
       y2="452.9095"><stop
         offset="0"
         style="stop-color:#F9F3D9"
         id="stop50" /><stop
         offset="1"
         style="stop-color:#EAE3CA"
         id="stop52" /></linearGradient><path
       style="fill-rule:evenodd;clip-rule:evenodd;fill:url(#SVGID_3_);"
       d="M298.342,453.3c-2.136,0-3.101-1.126-4.034-2.215   c-0.778-0.908-1.583-1.848-3.018-2.001c-0.322-0.034-0.633-0.049-0.936-0.049c-0.919,0-1.754,0.136-2.561,0.267   c-0.764,0.124-1.484,0.241-2.238,0.241c-0.892,0-1.693-0.166-2.52-0.523c-1.686-0.729-1.654-2.082-1.617-3.649   c0.025-1.077,0.051-2.191-0.556-3.092c-0.607-0.901-1.469-1.292-2.303-1.669c-1.183-0.535-2.205-0.997-2.503-2.797   c-0.275-1.657,0.375-2.643,1.063-3.687c0.625-0.949,1.272-1.931,1.309-3.452c0.034-1.415-0.597-2.379-1.154-3.229   c-0.744-1.137-1.387-2.118-0.542-3.992c0.985-2.186,2.632-2.966,4.084-3.653c0.806-0.382,1.567-0.742,2.136-1.301   c0.559-0.549,1.086-1.504,1.698-2.61c1.089-1.973,2.445-4.427,4.448-5.162c0.936-0.343,1.715-0.51,2.382-0.51   c1.299,0,1.967,0.656,2.675,1.35c0.759,0.745,1.619,1.589,3.318,1.589c0.167,0,0.344-0.008,0.53-0.025   c1.51-0.139,2.74-0.381,3.824-0.596c1.225-0.242,2.282-0.451,3.415-0.451c0.894,0,1.749,0.127,2.693,0.402   c2.02,0.587,2.468,2.9,2.862,4.941c0.291,1.5,0.542,2.794,1.414,3.136c2.703,1.057,7.325,3.818,7.5,7.46   c0.092,1.901-1.027,2.912-2.212,3.982c-1.081,0.977-2.199,1.986-2.552,3.724c-0.326,1.603-0.171,2.965-0.021,4.281   c0.189,1.669,0.369,3.246-0.435,5.193c-0.609,1.478-1.646,1.78-3.018,1.78c-0.382,0-0.779-0.023-1.184-0.047   c-0.431-0.024-0.869-0.05-1.309-0.05c-1.16,0-2.017,0.184-2.774,0.595c-1.227,0.665-1.782,1.648-2.319,2.599   c-0.832,1.471-1.617,2.86-4.854,3.183C298.791,453.288,298.561,453.3,298.342,453.3z"
       id="path54" /><path
       style="fill:#FFFCF3;"
       d="M291.481,410.466c1.197,0,1.8,0.593,2.499,1.279c0.793,0.778,1.692,1.661,3.493,1.661   c0.175,0,0.359-0.008,0.553-0.026c1.523-0.14,2.759-0.384,3.849-0.599c1.212-0.239,2.258-0.446,3.366-0.446   c0.869,0,1.703,0.125,2.623,0.392c1.873,0.544,2.306,2.778,2.688,4.749c0.305,1.572,0.568,2.93,1.568,3.321   c2.647,1.035,7.173,3.725,7.341,7.24c0.085,1.784-0.941,2.711-2.13,3.785c-1.059,0.957-2.26,2.041-2.629,3.859   c-0.334,1.642-0.176,3.023-0.024,4.36c0.186,1.636,0.362,3.181-0.417,5.07c-0.558,1.354-1.48,1.626-2.787,1.626   c-0.373,0-0.76-0.022-1.17-0.046c-0.43-0.025-0.874-0.051-1.323-0.051c-1.204,0-2.096,0.193-2.893,0.625   c-1.29,0.7-1.863,1.714-2.418,2.695c-0.833,1.474-1.553,2.748-4.661,3.058c-0.23,0.023-0.455,0.035-0.667,0.035   c-2.022,0-2.907-1.033-3.845-2.128c-0.81-0.946-1.648-1.923-3.181-2.087c-0.318-0.034-0.633-0.05-0.962-0.05   c-0.94,0-1.784,0.137-2.601,0.27c-0.753,0.122-1.464,0.238-2.198,0.238c-0.857,0-1.626-0.16-2.421-0.503   c-1.457-0.629-1.507-1.707-1.466-3.414c0.026-1.116,0.053-2.271-0.598-3.238c-0.647-0.96-1.582-1.383-2.408-1.757   c-1.164-0.527-2.083-0.943-2.359-2.61c-0.259-1.561,0.336-2.463,1.025-3.508c0.615-0.933,1.312-1.99,1.35-3.584   c0.036-1.493-0.618-2.491-1.195-3.373c-0.733-1.12-1.312-2.004-0.524-3.753c0.947-2.102,2.48-2.828,3.963-3.53   c0.826-0.391,1.606-0.76,2.205-1.348c0.585-0.575,1.121-1.545,1.741-2.668c1.069-1.936,2.4-4.346,4.315-5.048   C290.092,410.628,290.843,410.466,291.481,410.466 M291.481,409.966c-0.651,0-1.451,0.152-2.468,0.525   c-3.192,1.17-4.69,6.312-6.235,7.829c-1.544,1.517-4.703,1.544-6.273,5.029c-1.57,3.485,1.75,4.183,1.675,7.319   c-0.076,3.136-2.91,3.923-2.368,7.185c0.541,3.262,3.454,2.5,4.846,4.564c1.391,2.064-0.81,5.496,2.281,6.831   c0.947,0.409,1.801,0.544,2.619,0.544c1.587,0,3.044-0.507,4.799-0.507c0.294,0,0.597,0.014,0.91,0.048   c2.977,0.317,2.994,4.217,7.079,4.217c0.226,0,0.465-0.012,0.717-0.037c5.497-0.548,4.267-4.183,7.268-5.811   c0.837-0.454,1.747-0.564,2.655-0.564c0.853,0,1.704,0.097,2.493,0.097c1.382,0,2.574-0.298,3.249-1.935   c1.472-3.568-0.258-5.944,0.469-9.521c0.727-3.577,4.949-4.005,4.769-7.767c-0.18-3.762-4.779-6.555-7.659-7.681   c-1.814-0.709-0.625-7.017-4.299-8.084c-1.027-0.298-1.917-0.412-2.763-0.412c-2.181,0-4.071,0.755-7.261,1.047   c-0.178,0.016-0.347,0.024-0.507,0.024C294.349,412.906,294.345,409.967,291.481,409.966L291.481,409.966z"
       id="path56" /></g><g
     id="g58"><path
       style="fill:#2C2C2C;"
       d="M295.754,427.07c-0.707,0.492-1.312,1.11-1.816,1.854c-0.506,0.744-0.9,1.554-1.189,2.43   c-0.287,0.876-0.432,1.71-0.432,2.502c0,1.008,0.289,1.842,0.863,2.502c0.576,0.66,1.32,0.99,2.232,0.99   c0.793,0,1.523-0.258,2.197-0.774c0.67-0.516,1.26-1.163,1.764-1.943s0.9-1.614,1.188-2.502s0.432-1.704,0.432-2.448   c0-0.433-0.078-0.852-0.234-1.26s-0.371-0.762-0.646-1.062c-0.277-0.3-0.59-0.546-0.938-0.738   c-0.348-0.191-0.713-0.288-1.098-0.288C297.237,426.332,296.463,426.579,295.754,427.07z M301.911,435.746   c-0.084,0.324-0.125,0.618-0.125,0.883c0,0.744,0.287,1.115,0.863,1.115c0.553,0,1.121-0.252,1.711-0.756   c0.588-0.504,1.121-1.151,1.602-1.943c0.479-0.792,0.875-1.68,1.188-2.664s0.469-1.956,0.469-2.916c0-1.416-0.271-2.7-0.811-3.853   c-0.541-1.151-1.266-2.13-2.178-2.934s-1.951-1.422-3.115-1.854c-1.164-0.432-2.381-0.647-3.652-0.647   c-1.537,0-2.971,0.306-4.303,0.918c-1.332,0.611-2.49,1.446-3.475,2.502c-0.984,1.057-1.758,2.28-2.322,3.672   c-0.562,1.393-0.846,2.88-0.846,4.464c0,1.608,0.295,3.108,0.883,4.5c0.588,1.393,1.391,2.599,2.412,3.618   c1.02,1.021,2.201,1.824,3.545,2.412s2.773,0.882,4.285,0.882c1.727,0,3.389-0.396,4.986-1.188   c1.596-0.792,2.908-1.848,3.941-3.168h2.268c-0.576,1.009-1.271,1.902-2.088,2.683s-1.709,1.439-2.682,1.98   c-0.973,0.54-2.01,0.948-3.115,1.225c-1.104,0.275-2.23,0.414-3.383,0.414c-1.896,0-3.666-0.349-5.311-1.044   c-1.645-0.696-3.072-1.65-4.283-2.862c-1.213-1.212-2.166-2.64-2.863-4.284c-0.695-1.644-1.043-3.426-1.043-5.346   c0-1.848,0.354-3.582,1.062-5.202c0.707-1.62,1.668-3.036,2.879-4.248c1.213-1.212,2.629-2.166,4.248-2.862   c1.621-0.695,3.342-1.044,5.166-1.044c1.656,0,3.229,0.276,4.717,0.828c1.488,0.553,2.789,1.314,3.906,2.286   c1.115,0.972,1.998,2.137,2.645,3.492c0.648,1.355,0.973,2.85,0.973,4.481c0,1.561-0.283,2.982-0.846,4.267   c-0.564,1.284-1.266,2.382-2.105,3.294c-0.842,0.912-1.754,1.62-2.736,2.124c-0.984,0.504-1.896,0.756-2.736,0.756   c-0.625,0-1.152-0.192-1.584-0.576s-0.672-0.972-0.721-1.764h-0.107c-0.553,0.624-1.213,1.182-1.98,1.674s-1.596,0.738-2.484,0.738   c-0.768,0-1.469-0.15-2.105-0.45s-1.176-0.702-1.619-1.206c-0.445-0.504-0.793-1.104-1.045-1.8s-0.377-1.44-0.377-2.232   c0-1.248,0.203-2.484,0.611-3.708s0.979-2.315,1.711-3.276c0.73-0.959,1.619-1.739,2.662-2.34c1.045-0.6,2.203-0.899,3.475-0.899   c0.84,0,1.621,0.222,2.34,0.666c0.721,0.444,1.283,1.206,1.693,2.286l0.826-2.269h2.27l-3.025,10.224   C302.084,435.104,301.995,435.423,301.911,435.746z"
       id="path60" /></g><path
     style="fill-rule:evenodd;clip-rule:evenodd;fill:#E1DFE2;"
     d="M348.865,473.247H244.158c-3.322,0-6.015-2.693-6.015-6.015  v2.253c0,3.322,2.693,6.015,6.015,6.015h104.707c3.322,0,6.015-2.693,6.015-6.015v-2.253  C354.88,470.554,352.187,473.247,348.865,473.247z"
     id="path62" /></svg>