<?xml version="1.0" encoding="UTF-8" standalone="no"?>
<!-- Generator: Adobe Illustrator 18.1.1, SVG Export Plug-In . SVG Version: 6.00 Build 0)  -->

<svg
   xmlns:dc="http://purl.org/dc/elements/1.1/"
   xmlns:cc="http://creativecommons.org/ns#"
   xmlns:rdf="http://www.w3.org/1999/02/22-rdf-syntax-ns#"
   xmlns:svg="http://www.w3.org/2000/svg"
   xmlns="http://www.w3.org/2000/svg"
   xmlns:sodipodi="http://sodipodi.sourceforge.net/DTD/sodipodi-0.dtd"
   xmlns:inkscape="http://www.inkscape.org/namespaces/inkscape"
   version="1.1"
   id="Layer_1"
   x="0px"
   y="0px"
   viewBox="0 0 595.28 841.89"
   style="enable-background:new 0 0 595.28 841.89;"
   xml:space="preserve"
   inkscape:version="0.48.4 r9939"
   width="100%"
   height="100%"
   sodipodi:docname="Message.svg"><metadata
     id="metadata113"><rdf:RDF><cc:Work
         rdf:about=""><dc:format>image/svg+xml</dc:format><dc:type
           rdf:resource="http://purl.org/dc/dcmitype/StillImage" /></cc:Work></rdf:RDF></metadata><defs
     id="defs111" /><sodipodi:namedview
     pagecolor="#ffffff"
     bordercolor="#666666"
     borderopacity="1"
     objecttolerance="10"
     gridtolerance="10"
     guidetolerance="10"
     inkscape:pageopacity="0"
     inkscape:pageshadow="2"
     inkscape:window-width="1365"
     inkscape:window-height="1008"
     id="namedview109"
     showgrid="false"
     inkscape:zoom="6.342955"
     inkscape:cx="293.26955"
     inkscape:cy="471.39467"
     inkscape:window-x="325"
     inkscape:window-y="74"
     inkscape:window-maximized="0"
     inkscape:current-layer="Layer_1" /><g
     id="g3"><linearGradient
       id="SVGID_1_"
       gradientUnits="userSpaceOnUse"
       x1="297.405"
       y1="323.753"
       x2="297.405"
       y2="517.519"><stop
         offset="0"
         style="stop-color:#FFFFFF;stop-opacity:0.7"
         id="stop6" /><stop
         offset="0.9987"
         style="stop-color:#D8D9D8;stop-opacity:0.7"
         id="stop8" /></linearGradient><path
       style="fill-rule:evenodd;clip-rule:evenodd;fill:url(#SVGID_1_);"
       d="M209.185,517.998c-5.031,0-9.124-4.093-9.124-9.123   v-176.44c0-5.031,4.093-9.124,9.124-9.124h176.44c5.031,0,9.124,4.093,9.124,9.124v176.44c0,5.03-4.093,9.123-9.124,9.123H209.185z   "
       id="path10" /><path
       style="fill:#D8D8D7;"
       d="M385.625,323.811c4.755,0,8.624,3.868,8.624,8.624v176.441c0,4.755-3.868,8.623-8.624,8.623H209.185   c-4.755,0-8.624-3.868-8.624-8.623V332.434c0-4.755,3.868-8.624,8.624-8.624H385.625 M385.625,322.811H209.185   c-5.315,0-9.624,4.309-9.624,9.624v176.441c0,5.315,4.309,9.623,9.624,9.623h176.441c5.315,0,9.624-4.309,9.624-9.623V332.434   C395.249,327.12,390.94,322.811,385.625,322.811L385.625,322.811z"
       id="path12" /></g><g
     id="g14"><linearGradient
       id="SVGID_2_"
       gradientUnits="userSpaceOnUse"
       x1="296.1909"
       y1="369.7329"
       x2="296.1909"
       y2="474.2137"><stop
         offset="0"
         style="stop-color:#329AC8"
         id="stop17" /><stop
         offset="1"
         style="stop-color:#2884BC"
         id="stop19" /></linearGradient><path
       style="fill-rule:evenodd;clip-rule:evenodd;fill:url(#SVGID_2_);"
       d="M307.517,451.043l-0.539-0.029h-62.729   c-5.151,0-9.342-4.19-9.342-9.342v-62.597c0-5.151,4.191-9.342,9.342-9.342h103.884c5.151,0,9.342,4.191,9.342,9.342v62.597   c0,5.151-4.19,9.342-9.342,9.342h-13.09l-0.145,0.091l-27.908,25.471L307.517,451.043z"
       id="path21" /><path
       style="fill:#327EAB;"
       d="M348.133,370.233c4.876,0,8.842,3.967,8.842,8.842v62.597c0,4.875-3.966,8.842-8.842,8.842h-12.938   l-0.407,0.007l-0.286,0.261l-26.987,24.637l0.491-23.859l-0.001-0.44l-0.294-0.299l-0.314-0.308h-0.42h-62.728   c-4.875,0-8.842-3.966-8.842-8.842v-62.597c0-4.875,3.966-8.842,8.842-8.842H348.133 M348.133,369.233H244.249   c-5.436,0-9.842,4.406-9.842,9.842v62.597c0,5.436,4.406,9.842,9.842,9.842h62.728c0.016,0,0.029,0.013,0.028,0.029l-0.538,26.121   c0,0.017,0.014,0.029,0.029,0.029c0.007,0,0.013-0.002,0.019-0.008l28.66-26.165c0.005-0.005,0.012-0.007,0.019-0.007h12.938   c5.436,0,9.842-4.406,9.842-9.842v-62.597C357.975,373.639,353.568,369.233,348.133,369.233L348.133,369.233z"
       id="path23" /></g><g
     id="g25"><g
       id="g27"><polygon
         style="fill-rule:evenodd;clip-rule:evenodd;fill:#266583;"
         points="306.984,452.599 306.466,477.73 306.479,477.719     306.996,452.599   "
         id="polygon29" /></g><g
       id="g31"><path
         style="fill:#266583;fill-rule:evenodd"
         d="m 348.133,369.233 -103.884,0 c -5.436,0 -9.842,4.406 -9.842,9.842 l 0,0 c 0,0.035 0.051,0.038 0.054,0.003 0.527,-4.888 4.687,-8.404 9.749,-8.404 l 103.912,0 c 8.6778,-0.3713 9.36903,6.45678 9.842,11.47667 0.36195,-7.49834 0.68242,-13.28604 -9.831,-12.91767 z"
         id="path33"
         inkscape:connector-curvature="0"
         sodipodi:nodetypes="cscccsccc" /></g></g><g
     id="g35"><g
       id="g37"><path
         style="fill-rule:evenodd;clip-rule:evenodd;fill:#E1DFE2;"
         d="M348.161,451.514h-12.967c-0.007,0-0.014,0.003-0.019,0.007    l-28.687,26.19l-0.021,1.024l28.709-26.209c0.005-0.005,0.012-0.007,0.019-0.007h12.938c5.436,0,9.842-4.406,9.842-9.842V441.7    C357.975,447.12,353.581,451.514,348.161,451.514z"
         id="path39" /></g><g
       id="g41"><path
         style="fill-rule:evenodd;clip-rule:evenodd;fill:#E1DFE2;"
         d="M307.006,451.514H244.22c-5.42,0-9.813-4.394-9.813-9.813    v0.977c0,5.436,4.406,9.842,9.842,9.842h62.737L307.006,451.514z"
         id="path43" /></g></g><g
     id="g45"><g
       id="g47"><path
         style="fill:#2F7496;"
         d="M263.841,407.883c0.411-1.172,1.001-2.194,1.771-3.066c0.77-0.873,1.715-1.558,2.836-2.054    c1.121-0.496,2.383-0.744,3.786-0.744c1.42,0,2.686,0.248,3.799,0.744c1.112,0.496,2.053,1.181,2.823,2.054    c0.77,0.872,1.36,1.895,1.771,3.066c0.411,1.173,0.616,2.443,0.616,3.812c0,1.334-0.206,2.579-0.616,3.734    s-1.001,2.16-1.771,3.016c-0.77,0.856-1.711,1.527-2.823,2.015c-1.113,0.488-2.379,0.732-3.799,0.732    c-1.403,0-2.666-0.244-3.786-0.732c-1.121-0.487-2.066-1.158-2.836-2.015c-0.77-0.855-1.36-1.86-1.771-3.016    s-0.616-2.4-0.616-3.734C263.225,410.326,263.431,409.056,263.841,407.883z M267.525,413.94c0.18,0.728,0.466,1.383,0.86,1.964    c0.393,0.582,0.907,1.049,1.54,1.399c0.633,0.351,1.403,0.525,2.31,0.525c0.907,0,1.677-0.175,2.31-0.525    c0.633-0.351,1.146-0.817,1.54-1.399c0.393-0.581,0.68-1.236,0.86-1.964c0.18-0.727,0.27-1.476,0.27-2.245    c0-0.805-0.09-1.583-0.27-2.336s-0.467-1.425-0.86-2.015c-0.394-0.591-0.907-1.062-1.54-1.412    c-0.633-0.351-1.403-0.526-2.31-0.526c-0.907,0-1.677,0.176-2.31,0.526c-0.633,0.351-1.147,0.821-1.54,1.412    c-0.394,0.59-0.68,1.262-0.86,2.015s-0.27,1.531-0.27,2.336C267.255,412.465,267.345,413.214,267.525,413.94z"
         id="path49" /></g><g
       id="g51"><path
         style="fill:#2F7496;"
         d="M289.642,402.455c0.012,0,0.023,0.008,0.027,0.019l4.28,12.583H294l4.049-12.583    c0.004-0.012,0.015-0.02,0.027-0.02h5.623c0.016,0,0.028,0.013,0.028,0.028v18.269c0,0.016-0.013,0.028-0.028,0.028h-3.716    c-0.016,0-0.028-0.013-0.028-0.028v-12.96h-0.051l-4.485,12.969c-0.004,0.011-0.015,0.019-0.027,0.019h-3.065    c-0.012,0-0.023-0.008-0.027-0.019l-4.485-12.84h-0.051v12.831c0,0.016-0.013,0.028-0.028,0.028h-3.717    c-0.016,0-0.028-0.013-0.028-0.028v-18.269c0-0.016,0.013-0.028,0.028-0.028H289.642z"
         id="path53" /></g><g
       id="g55"><path
         style="fill:#2F7496;"
         d="M318.128,420.64c-0.873,0.368-1.754,0.553-2.644,0.553c-1.403,0-2.666-0.244-3.786-0.732    c-1.121-0.487-2.066-1.158-2.836-2.015c-0.77-0.855-1.36-1.86-1.771-3.016s-0.616-2.4-0.616-3.734c0-1.369,0.205-2.64,0.616-3.812    c0.411-1.172,1.001-2.194,1.771-3.066c0.77-0.873,1.715-1.558,2.836-2.054c1.121-0.496,2.383-0.744,3.786-0.744    c0.941,0,1.852,0.141,2.733,0.423s1.677,0.698,2.387,1.245c0.71,0.548,1.296,1.224,1.758,2.028    c0.457,0.795,0.738,1.709,0.843,2.738c0.002,0.017-0.012,0.033-0.029,0.033h-3.796c-0.013,0-0.024-0.009-0.027-0.022    c-0.241-1.016-0.701-1.779-1.381-2.288c-0.685-0.514-1.515-0.771-2.49-0.771c-0.907,0-1.677,0.176-2.31,0.526    c-0.633,0.351-1.147,0.821-1.54,1.412c-0.394,0.59-0.68,1.262-0.86,2.015s-0.27,1.531-0.27,2.336c0,0.77,0.09,1.519,0.27,2.245    c0.18,0.728,0.466,1.383,0.86,1.964c0.393,0.582,0.907,1.049,1.54,1.399c0.633,0.351,1.403,0.525,2.31,0.525    c1.334,0,2.365-0.337,3.093-1.014c0.721-0.67,1.143-1.638,1.267-2.905c0.002-0.017-0.012-0.034-0.029-0.034h-3.995    c-0.016,0-0.028-0.013-0.028-0.028v-2.946c0-0.016,0.013-0.028,0.028-0.028h7.644c0.016,0,0.028,0.013,0.028,0.028v9.85    c0,0.016-0.013,0.028-0.028,0.028h-2.515c-0.014,0-0.025-0.01-0.028-0.023l-0.406-2.056    C319.797,419.626,319.001,420.272,318.128,420.64z"
         id="path57" /></g><g
       id="g59"><path
         style="fill:#2F7496;"
         d="M330.577,416.857v3.896c0,0.016-0.013,0.028-0.028,0.028h-3.973c-0.016,0-0.028-0.013-0.028-0.028    v-3.896c0-0.016,0.013-0.028,0.028-0.028h3.973C330.564,416.828,330.577,416.841,330.577,416.857z M329.422,415.288h-1.773    c-0.014,0-0.026-0.011-0.028-0.025l-0.972-7.879c0-0.001,0-0.002,0-0.004v-4.898c0-0.016,0.013-0.028,0.028-0.028h3.742    c0.016,0,0.028,0.013,0.028,0.028v4.897c0,0.001,0,0.002,0,0.004l-0.998,7.879C329.449,415.277,329.436,415.288,329.422,415.288z"
         id="path61" /></g></g><g
     id="g63"><g
       id="g65"><linearGradient
         id="SVGID_3_"
         gradientUnits="userSpaceOnUse"
         x1="272.2349"
         y1="401.8507"
         x2="272.2349"
         y2="419.3413"><stop
           offset="0"
           style="stop-color:#E2EEF4"
           id="stop68" /><stop
           offset="1"
           style="stop-color:#CDE5F3"
           id="stop70" /></linearGradient><path
         style="fill:url(#SVGID_3_);"
         d="M272.235,419.826c-1.362,0-2.603-0.239-3.686-0.711c-1.084-0.471-2.009-1.128-2.75-1.953    c-0.745-0.828-1.324-1.814-1.722-2.932c-0.399-1.123-0.601-2.351-0.601-3.651c0-1.334,0.203-2.589,0.602-3.73    c0.398-1.136,0.978-2.14,1.723-2.983c0.743-0.842,1.668-1.512,2.75-1.991c1.083-0.479,2.323-0.723,3.685-0.723    c1.378,0,2.622,0.243,3.697,0.723c1.074,0.479,1.995,1.149,2.737,1.991c0.745,0.843,1.324,1.847,1.723,2.983    c0.399,1.141,0.602,2.396,0.602,3.73c0,1.299-0.203,2.527-0.602,3.651c-0.398,1.118-0.977,2.104-1.722,2.932    c-0.741,0.825-1.662,1.482-2.738,1.953C274.857,419.586,273.613,419.826,272.235,419.826z M272.235,404.04    c-0.945,0-1.763,0.188-2.431,0.558c-0.666,0.369-1.214,0.871-1.627,1.492c-0.408,0.61-0.709,1.315-0.895,2.095    c-0.184,0.769-0.276,1.574-0.276,2.394c0,0.787,0.093,1.562,0.277,2.305c0.187,0.755,0.488,1.443,0.896,2.044    c0.414,0.612,0.96,1.11,1.626,1.478c0.667,0.369,1.485,0.557,2.431,0.557c0.946,0,1.764-0.188,2.431-0.557    c0.664-0.368,1.211-0.865,1.626-1.478c0.408-0.604,0.709-1.292,0.896-2.044c0.184-0.743,0.277-1.519,0.277-2.305    c0-0.82-0.093-1.625-0.276-2.394c-0.186-0.777-0.487-1.482-0.895-2.095c-0.415-0.622-0.962-1.124-1.627-1.492    C273.998,404.227,273.18,404.04,272.235,404.04z"
         id="path72" /><path
         style="fill:#F5FBFD;"
         d="M272.235,401.402c1.343,0,2.552,0.236,3.595,0.701c1.041,0.465,1.934,1.113,2.652,1.928    c0.723,0.819,1.286,1.795,1.674,2.901c0.39,1.115,0.588,2.342,0.588,3.647c0,1.27-0.198,2.47-0.587,3.567    c-0.387,1.087-0.949,2.046-1.672,2.849c-0.717,0.798-1.61,1.434-2.652,1.891c-1.044,0.458-2.254,0.69-3.598,0.69    c-1.328,0-2.534-0.232-3.587-0.691c-1.05-0.457-1.947-1.093-2.664-1.891c-0.723-0.803-1.285-1.761-1.672-2.849    c-0.389-1.096-0.587-2.296-0.587-3.567c0-1.306,0.198-2.534,0.588-3.647c0.387-1.106,0.951-2.082,1.674-2.901    c0.718-0.815,1.615-1.463,2.664-1.927C269.702,401.638,270.908,401.402,272.235,401.402 M272.235,417.213    c0.989,0,1.848-0.198,2.552-0.588c0.699-0.387,1.275-0.911,1.712-1.557c0.425-0.628,0.738-1.343,0.931-2.124    c0.189-0.762,0.284-1.558,0.284-2.365c0-0.84-0.095-1.665-0.283-2.452c-0.192-0.806-0.505-1.538-0.93-2.176    c-0.437-0.655-1.014-1.184-1.714-1.572c-0.706-0.391-1.565-0.589-2.552-0.589c-0.988,0-1.847,0.198-2.552,0.589    c-0.702,0.388-1.278,0.917-1.714,1.572c-0.424,0.635-0.737,1.367-0.93,2.176c-0.188,0.787-0.283,1.612-0.283,2.452    c0,0.807,0.096,1.603,0.284,2.365c0.194,0.784,0.507,1.499,0.931,2.124c0.436,0.646,1.012,1.169,1.712,1.557    C270.387,417.015,271.245,417.213,272.235,417.213 M272.235,400.902c-1.403,0-2.666,0.248-3.786,0.744    c-1.121,0.496-2.066,1.181-2.836,2.054c-0.77,0.872-1.36,1.895-1.771,3.066c-0.411,1.173-0.616,2.443-0.616,3.812    c0,1.334,0.205,2.579,0.616,3.734s1.001,2.16,1.771,3.016c0.77,0.856,1.715,1.527,2.836,2.015    c1.121,0.488,2.383,0.732,3.786,0.732c1.42,0,2.686-0.244,3.799-0.732c1.112-0.487,2.053-1.158,2.823-2.015    c0.77-0.855,1.36-1.86,1.771-3.016s0.616-2.4,0.616-3.734c0-1.369-0.206-2.64-0.616-3.812c-0.411-1.172-1.001-2.194-1.771-3.066    c-0.77-0.873-1.711-1.558-2.823-2.054C274.921,401.15,273.655,400.902,272.235,400.902L272.235,400.902z M272.235,416.713    c-0.907,0-1.677-0.175-2.31-0.525c-0.633-0.351-1.147-0.817-1.54-1.399c-0.394-0.581-0.68-1.236-0.86-1.964    c-0.18-0.727-0.27-1.476-0.27-2.245c0-0.805,0.09-1.583,0.27-2.336s0.466-1.425,0.86-2.015c0.393-0.591,0.907-1.062,1.54-1.412    c0.633-0.351,1.403-0.526,2.31-0.526c0.907,0,1.677,0.176,2.31,0.526c0.633,0.351,1.146,0.821,1.54,1.412    c0.393,0.59,0.68,1.262,0.86,2.015s0.27,1.531,0.27,2.336c0,0.77-0.09,1.519-0.27,2.245c-0.18,0.728-0.467,1.383-0.86,1.964    c-0.394,0.582-0.907,1.049-1.54,1.399C273.912,416.538,273.142,416.713,272.235,416.713L272.235,416.713z"
         id="path74" /></g><g
       id="g76"><linearGradient
         id="SVGID_4_"
         gradientUnits="userSpaceOnUse"
         x1="293.8594"
         y1="401.8617"
         x2="293.8594"
         y2="419.3307"><stop
           offset="0"
           style="stop-color:#E2EEF4"
           id="stop79" /><stop
           offset="1"
           style="stop-color:#CDE5F3"
           id="stop81" /></linearGradient><polygon
         style="fill:url(#SVGID_4_);"
         points="300.205,419.415 300.205,406.426 299.777,406.426 299.668,406.595 295.234,419.415     292.484,419.415 287.993,406.555 287.565,406.555 287.514,406.805 287.514,419.415 284.24,419.415 284.24,401.588     289.483,401.588 293.77,414.191 294.131,414.191 294.238,414.018 298.238,401.588 303.479,401.588 303.479,419.415   "
         id="polygon83" /><path
         style="fill:#F5FBFD;"
         d="M303.228,401.839v17.326h-2.773v-12.488v-0.5h-0.5h-0.051h-0.356l-0.116,0.337l-4.375,12.652    h-2.395l-4.375-12.524l-0.117-0.335h-0.355h-0.051h-0.5v0.5v12.359h-2.773v-17.326h4.814l4.171,12.264l0.115,0.339h0.358H294    h0.364l0.112-0.347l3.944-12.256H303.228 M303.7,401.339h-5.623c-0.012,0-0.023,0.008-0.027,0.02L294,413.941h-0.051l-4.28-12.583    c-0.004-0.012-0.015-0.019-0.027-0.019h-5.624c-0.016,0-0.028,0.013-0.028,0.028v18.269c0,0.016,0.013,0.028,0.028,0.028h3.717    c0.016,0,0.028-0.013,0.028-0.028v-12.831h0.051l4.485,12.84c0.004,0.011,0.015,0.019,0.027,0.019h3.065    c0.012,0,0.023-0.008,0.027-0.019l4.485-12.969h0.051v12.96c0,0.016,0.013,0.028,0.028,0.028h3.716    c0.016,0,0.028-0.013,0.028-0.028v-18.269C303.728,401.351,303.716,401.339,303.7,401.339L303.7,401.339z"
         id="path85" /></g><g
       id="g87"><linearGradient
         id="SVGID_5_"
         gradientUnits="userSpaceOnUse"
         x1="314.9844"
         y1="401.8507"
         x2="314.9844"
         y2="419.3413"><stop
           offset="0"
           style="stop-color:#E2EEF4"
           id="stop90" /><stop
           offset="1"
           style="stop-color:#CDE5F3"
           id="stop92" /></linearGradient><path
         style="fill:url(#SVGID_5_);"
         d="M315.484,419.826c-1.362,0-2.603-0.239-3.687-0.711c-1.084-0.471-2.009-1.128-2.75-1.953    c-0.744-0.826-1.323-1.813-1.722-2.933c-0.398-1.123-0.601-2.351-0.601-3.65c0-1.334,0.202-2.589,0.602-3.73    c0.398-1.137,0.979-2.141,1.723-2.983c0.742-0.842,1.667-1.512,2.75-1.991c1.083-0.479,2.323-0.723,3.685-0.723    c0.912,0,1.806,0.138,2.657,0.411c0.847,0.271,1.624,0.676,2.312,1.205c0.681,0.525,1.25,1.183,1.693,1.955    c0.401,0.698,0.664,1.503,0.783,2.397h-3.374c-0.265-0.985-0.746-1.746-1.431-2.26c-0.726-0.544-1.614-0.82-2.641-0.82    c-0.945,0-1.763,0.188-2.431,0.558c-0.667,0.369-1.214,0.871-1.627,1.493c-0.408,0.609-0.709,1.314-0.896,2.095    c-0.184,0.769-0.276,1.574-0.276,2.394c0,0.787,0.093,1.562,0.276,2.305c0.188,0.755,0.488,1.443,0.896,2.044    c0.413,0.612,0.96,1.109,1.626,1.478c0.667,0.369,1.484,0.557,2.431,0.557c1.395,0,2.492-0.364,3.263-1.081    c0.764-0.71,1.217-1.741,1.347-3.063l0.011-0.109l-0.081-0.106l-0.074-0.083l-0.134-0.01h-3.773v-2.503h7.201v9.407h-2.111    L320.654,417l-0.336,0.433c-0.689,0.886-1.459,1.512-2.287,1.86C317.192,419.646,316.336,419.826,315.484,419.826z"
         id="path94" /><path
         style="fill:#F5FBFD;"
         d="M315.485,401.402c0.886,0,1.754,0.134,2.581,0.399c0.819,0.262,1.571,0.654,2.234,1.165    c0.655,0.505,1.203,1.138,1.63,1.882c0.342,0.596,0.58,1.274,0.709,2.022h-2.895c-0.289-0.953-0.782-1.695-1.469-2.21    c-0.77-0.578-1.708-0.871-2.79-0.871c-0.988,0-1.847,0.198-2.552,0.589c-0.702,0.388-1.278,0.917-1.714,1.572    c-0.424,0.635-0.737,1.367-0.93,2.176c-0.188,0.787-0.283,1.612-0.283,2.452c0,0.807,0.096,1.603,0.284,2.365    c0.194,0.784,0.507,1.499,0.931,2.124c0.436,0.646,1.012,1.169,1.712,1.557c0.704,0.39,1.563,0.588,2.552,0.588    c1.46,0,2.615-0.386,3.433-1.147c0.809-0.752,1.288-1.836,1.425-3.223l0.013-0.244l-0.149-0.164l-0.17-0.174h-0.221h-3.523v-2.003    h6.701v8.907h-1.656l-0.331-1.676l-0.212-1.075l-0.673,0.865c-0.663,0.852-1.398,1.452-2.187,1.784    c-0.807,0.341-1.631,0.513-2.449,0.513c-1.328,0-2.534-0.232-3.587-0.691c-1.05-0.457-1.947-1.093-2.664-1.891    c-0.723-0.803-1.285-1.761-1.672-2.849c-0.389-1.096-0.587-2.296-0.587-3.567c0-1.306,0.198-2.534,0.588-3.647    c0.387-1.106,0.951-2.082,1.674-2.901c0.718-0.815,1.615-1.463,2.664-1.927C312.952,401.638,314.158,401.402,315.485,401.402     M315.485,400.902c-1.403,0-2.666,0.248-3.786,0.744c-1.121,0.496-2.066,1.181-2.836,2.054c-0.77,0.872-1.36,1.895-1.771,3.066    c-0.411,1.173-0.616,2.443-0.616,3.812c0,1.334,0.205,2.579,0.616,3.734s1.001,2.16,1.771,3.016    c0.77,0.856,1.715,1.527,2.836,2.015c1.121,0.488,2.383,0.732,3.786,0.732c0.889,0,1.771-0.185,2.644-0.553    c0.873-0.367,1.668-1.014,2.387-1.938l0.406,2.056c0.003,0.013,0.014,0.023,0.028,0.023h2.515c0.016,0,0.028-0.013,0.028-0.028    v-9.85c0-0.016-0.013-0.028-0.028-0.028h-7.644c-0.016,0-0.028,0.013-0.028,0.028v2.946c0,0.016,0.013,0.028,0.028,0.028h3.995    c0.017,0,0.031,0.016,0.029,0.034c-0.124,1.267-0.547,2.235-1.267,2.905c-0.728,0.677-1.758,1.014-3.093,1.014    c-0.907,0-1.677-0.175-2.31-0.525c-0.633-0.351-1.147-0.817-1.54-1.399c-0.394-0.581-0.68-1.236-0.86-1.964    c-0.18-0.727-0.27-1.476-0.27-2.245c0-0.805,0.09-1.583,0.27-2.336s0.466-1.425,0.86-2.015c0.393-0.591,0.907-1.062,1.54-1.412    c0.633-0.351,1.403-0.526,2.31-0.526c0.975,0,1.805,0.257,2.49,0.771c0.679,0.509,1.139,1.272,1.381,2.288    c0.003,0.012,0.014,0.022,0.027,0.022h3.796c0.017,0,0.031-0.016,0.029-0.033c-0.105-1.029-0.386-1.943-0.843-2.738    c-0.462-0.805-1.048-1.48-1.758-2.028c-0.71-0.547-1.506-0.963-2.387-1.245S316.426,400.902,315.485,400.902L315.485,400.902z"
         id="path96" /></g><g
       id="g98"><linearGradient
         id="SVGID_6_"
         gradientUnits="userSpaceOnUse"
         x1="328.5615"
         y1="401.8617"
         x2="328.5615"
         y2="419.3307"><stop
           offset="0"
           style="stop-color:#E2EEF4"
           id="stop101" /><stop
           offset="1"
           style="stop-color:#CDE5F3"
           id="stop103" /></linearGradient><path
         style="fill:url(#SVGID_6_);"
         d="M326.797,419.415v-3.453h3.529v3.453H326.797z M327.845,413.921l-0.947-7.684l0.002-4.649    h3.299v4.676l-0.972,7.657H327.845z"
         id="path105" /><path
         style="fill:#F5FBFD;"
         d="M329.948,401.839v4.396l-0.942,7.437h-0.94l-0.917-7.436v-4.397H329.948 M330.077,416.212v2.953    h-3.03v-2.953H330.077 M330.42,401.339h-3.742c-0.016,0-0.028,0.013-0.028,0.028v4.898c0,0.001,0,0.002,0,0.003l0.972,7.879    c0.002,0.014,0.014,0.025,0.028,0.025h1.773c0.014,0,0.026-0.011,0.028-0.025l0.998-7.879c0-0.001,0-0.002,0-0.004v-4.897    C330.448,401.351,330.435,401.339,330.42,401.339L330.42,401.339z M330.548,415.712h-3.973c-0.016,0-0.028,0.013-0.028,0.028    v3.896c0,0.016,0.013,0.028,0.028,0.028h3.973c0.016,0,0.028-0.013,0.028-0.028v-3.896    C330.577,415.724,330.564,415.712,330.548,415.712L330.548,415.712z"
         id="path107" /></g></g></svg>