<?xml version="1.0" encoding="utf-8"?>
<!-- Generator: Adobe Illustrator 14.0.0, SVG Export Plug-In . SVG Version: 6.00 Build 43363)  -->
<!DOCTYPE svg PUBLIC "-//W3C//DTD SVG 1.1//EN" "http://www.w3.org/Graphics/SVG/1.1/DTD/svg11.dtd">
<svg version="1.1" id="Layer_1" xmlns="http://www.w3.org/2000/svg" xmlns:xlink="http://www.w3.org/1999/xlink" x="0px" y="0px"
	 width="612px" height="792px" viewBox="0 0 612 792" enable-background="new 0 0 612 792" xml:space="preserve">
<g>
	<polygon fill-rule="evenodd" clip-rule="evenodd" fill="#FFFFFF" points="209,300 401.756,300 401.756,492.756 209,492.756 
		209,300 	"/>
	<path fill-rule="evenodd" clip-rule="evenodd" fill="#FFFFFF" d="M265.821,346.36c-0.006,0.245,0.171,1.587,0.461,2.037
		c0,0-0.105-1.817,0.106-2.351L265.821,346.36L265.821,346.36z"/>
	<path fill-rule="evenodd" clip-rule="evenodd" fill="#FFFFFF" d="M296,337.043c0.167,0.506,0.944,3.417,1.352,6.434
		c0,0,0.52-2.663-0.9-6.624L296,337.043L296,337.043z"/>
	<path fill-rule="evenodd" clip-rule="evenodd" d="M274.852,383.653c-0.332-0.369-1.167-1.719-1.585-2.622
		c-1.329-0.532-3.022-1.507-3.704-2.242c0.935,0.519,2.276,1.296,3.471,1.694c-0.121-0.121-0.479-1.291-0.548-1.512
		c-1.217-0.938-2.333-1.976-2.99-3.088c0.781,0.663,1.959,1.84,2.832,2.445c-0.252-0.984-0.458-2.656-0.557-3.658
		c-4.187,0.668-6.113-3.389-7.009-8.47c-10.185-2.7-18.468-5.066-19.786-12.65c-0.739-4.252,4.849-11.122,20.5-10.004
		c0.133-2.425,0.465-4.916,2.026-6.81c-1.86-2.204-4.291-5.691-2.741-8.736c2.46-4.832,8.407-5.725,13.769-5.78
		c5.37-0.055,14.848,1.871,18.867,8.57c3.721,2.292,6.211,5.913,8.869,9.301c0.1-0.399,1.098-3.391,1.694-4.352
		c-1.604-6.848-8.071-17.842-5.614-20.295c-1.068-1.832-1.678-5.353,0.864-6.533c2.509-1.165,4.91,0.398,6.312,1.783
		c10.404,1.564,16.674,13.511,22.022,18.103c8.856-7.338,17.867,3.946,14.084,8.537c-1.395,1.495-3.985,1.911-7.706,0.266
		c-2.259,0.432-4.152,2.259-5.447,4.119c1.5,8.187-2.884,14.274-6.677,16.692c-1.063,6.377-2.774,12.489-5.1,18.335
		c3.338,8.49,0.084,13.223-2.286,14.178c0.176,0.362,0.704,1.76,0.875,2.414c1.186-0.271,2.724-0.715,3.753-1.229
		c0.466-1.461,1.296-3.056,2.79-3.72c0.433-4.7,2.326-10.432,3.355-14.499c1.49-5.882,2.029-14.507,4.352-14.898
		c0.199-3.089-0.332-7.241,2.657-8.487c2.824-1.177,5.54,0.274,7.142,3.405c11.825,4.585,8.729,22.925,9.633,30.061
		c6.167-4.677,15.665,3.421,12.092,7.325c-2.777,3.033-5.604-0.692-16.709,2.475c-3.022,2.17-6.643,3.82-10.496,4.518
		c-2.624,2.026-5.88,3.388-9.4,2.558c-1.849,0.736-5.265,1.423-7.839,1.827c-0.133,3.587-0.864,6.81-1.927,9.998
		c4.22-0.955,8.059,2.483,9.6,4.85c5.254-1.102,18.737-9.251,26.969-5.271c5.435,2.628,6.066,7.361,5.8,8.394
		c-0.14-1.038-0.993-5.758-6.023-7.8c-8.557-3.476-23.069,5.231-26.114,5.624c0.347,0.979,1.402,3.763,0.532,4.684
		c-0.354,0.375-1.139,0.81-1.661,1.014c13.986,13.108,8.708,30.316,1.461,32.636c-4.55,1.456-8.255-1.96-13.585-6.627
		c0.099,1.562-0.033,3.222-0.964,4.418c3.963,13.845-1.53,23.613-10.015,27.296c-8.483,3.683-18.8,3.315-19.167-2.843
		c-0.325-5.429,3.922-6.515,2.575-11.659c-2.795-4.625-6.94-18.645-0.116-27.077c-0.1-0.598-0.382-1.761-0.548-2.159
		c-1.329-1.029-2.026-2.591-1.694-4.219c-0.662-1.766-1.336-3.248-2.159-4.85c-5.15-0.471-9.531-1.938-11.493-4.235
		c-2.369-2.774-0.631-5.963-0.049-8.869c0.558-2.791-5.592-4.44-3.372-8.951c4.669-6.343,17.918-6.358,27.105-2.524
		c0.166-0.033,0.432-0.089,0.598-0.134c-1.602-2.209-1.716-6.021,0.963-8.337c-0.187-0.353-1.53,0.792-3.521,0.764
		c-5.088,2.788-15.96,3.813-21.358-3.687c-8.302-0.621-11.003-8.595-7.142-11.958c2.583-2.25,6.601,0.068,9.313,2.767
		L274.852,383.653L274.852,383.653z"/>
	<path fill-rule="evenodd" clip-rule="evenodd" fill="#FEE4CD" d="M275.104,384.376c1.291,1.403,2.21,2.86,2.414,3.846
		c0.574,2.775-1.634,4.902-4.102,4.949c4.009,5.272,13.437,5.804,19.142,2.993c6.629-3.267,11.787-10.438,9.557-19.435
		c-1.107,0.664-1.594,1.616-2.325,2.059c1.092-3.738,6.938-5.792,9.234-4.052c-1.151,0.199-2.83-0.167-4.667,0.863
		c2.202,6.101,8.821,8.087,7.657,13.486c0.481-0.017,1.296,0.005,1.894,0.149c0.896-2.414-0.365-4.966,0-7.624
		c0.465,1.129,0.531,2.491,0.797,3.72c6.455-9.09-0.199-18.967-6.345-19.963c-8.649-1.402-11.991,7.142-12.589,8.604
		c-2.093-6.411-0.598-14.184-4.816-19.731c-2.374-0.305-4.565-0.685-6.843-1.129c-2.491,0.908-4.567,4.196-5.065,5.082
		c-0.506,0.9-1.79,4.668-2.276,6.909c-0.624-0.705-0.997-1.959-1.802-2.419c-2.228,4.484-3.201,11.002-1.769,16.22
		c0.262,0.316,1.661,1.022,1.84,1.113c-0.167-0.417-0.51-1.256-0.612-1.669c-0.425-0.51-1.431-1.818-1.577-2.516
		c0.393,0.482,1.085,1.395,1.412,1.661c-0.17-0.498-0.223-3.246,1.034-3.164c0.948,0.062,1.181,0.906,3.698,6.495
		c0.096,0.096,0.459,0.439,0.267,0.373c-1.585-0.428-2.685-0.651-2.973,0.847c-0.042,0.22-0.339,0.111-0.287-0.153
		c-0.062-0.121-0.141-0.228-0.203-0.32c-0.44-0.054-1.371-0.191-1.769-0.328c0.174,0.49,0.818,1.661,1.146,2.063
		c2.146-2.192,6.531-2.446,8.487-0.86C282.587,382.113,277.785,381.218,275.104,384.376L275.104,384.376z"/>
	<path fill-rule="evenodd" clip-rule="evenodd" fill="#FFFFFF" d="M308.286,310.762c-0.762,0.166-1.521,0.549-1.853,1.46
		c-1.134,3.128,5.38,8.808,7.506,12.523c0.184-3.144-8.934-10.533-6.351-12.576c2.836-2.243,9.339,2.396,12.958,5.848
		c3.599,3.433,8.912,10.505,10.718,11.575c9.584-7.257,16.666,4.202,13.687,7.333c-2.675,2.811-6.568-1.153-9.95,0.003
		c0.419,0.054,1.328,0.139,1.927,0.405c-1.612,0.487-3.551,1.806-4.585,3.421c-3.207-11.159-18.245-14.217-23.916-5.879
		c-1.079-5.753-7.141-16.696-5.68-18.535c1.959,3.289,3.499,6.821,5.148,10.264c0.372-1.824-3.477-9.063-4.468-10.908
		C299.268,307.956,306.914,308.75,308.286,310.762L308.286,310.762z"/>
	<path fill-rule="evenodd" clip-rule="evenodd" fill="#F16DA0" d="M295.755,329.926c-0.521-0.133-1.728-0.509-2.226-0.499
		c4.664,1.208,15.354,12.645,13.774,17.71c-3.061,9.815-20.224,5.951-23.756,5.138c-2.597-0.598,0.499-10.787,3.854-14.211
		c-1.816,0.587-4.263,5.104-5.215,8.437c-5.99-3.698-18.812-11.456-16.907-17.538C267.6,321.547,288.462,321.114,295.755,329.926
		L295.755,329.926z"/>
	<path fill-rule="evenodd" clip-rule="evenodd" fill="#F16DA0" d="M276.063,346.579c-0.227,0.36-0.762,1.465-0.903,2.082
		c-9.771-2.054-25.801,6.914-28.035,1.926C247.76,345.509,261.572,341.728,276.063,346.579L276.063,346.579z"/>
	<path fill-rule="evenodd" clip-rule="evenodd" fill="#F16DA0" d="M282.02,347.266c-0.365,1.727-0.697,4.019,0.398,5.481
		c-1.661,1.295-3.322,2.724-4.75,4.351c-2.57-3.299-3.296-9.997,1.395-11.56C280.016,346.07,281.244,346.823,282.02,347.266
		L282.02,347.266z"/>
	<path fill-rule="evenodd" clip-rule="evenodd" fill="#F16DA0" d="M274.978,349.325c-0.382,1.754-0.261,3.637,0.315,5.082
		c-2.591,0.066-5.273,1.063-6.527,3.421c1.993-1.462,4.235-2.956,6.826-2.624c0.333,0.681,0.72,1.434,1.728,2.292
		c-3.854,4.717-5.73,10.331-5.63,16.509c-5.867,1.399-6.226-9.941-7.142-11.427c-0.108,0.637-0.072,1.932,0.067,2.774
		c-2.67-1.028-11.498-3.444-14.316-5.595c-2.938-2.002-5.64-6.001-3.838-9.271C248.124,356.984,265.887,347.63,274.978,349.325
		L274.978,349.325z"/>
	<path fill-rule="evenodd" clip-rule="evenodd" fill="#FFFFFF" d="M343.637,374.071c1.871-1.611,3.337-12.431,0.167-19.199
		c10.874,6.146,6.718,23.212,8.818,31.556c0.222-0.388,0.354-1.274,0.349-1.661c5.55-4.31,14.56,2.746,11.427,6.145
		c-2.013,2.185-5.134-0.73-14.682,1.76c0.521-0.409,1.195-1.195,1.361-1.843c-3.239,2.393-9.429,7.137-16.126,6.842
		c3.178-0.784,8.614-4.878,7.756-8.985c-0.924,6.839-10.262,10.184-13.818,7.358c-3.914-3.11-1.771-11.279-0.465-15.38
		c4.072-12.787,3.009-20.068,5.68-20.976c3.105-1.056,6.971,4.123,4.053,14.516c2.976-3.513,2.743-15.492-3.587-15.479
		c-0.056-3.598,0.316-7.227,2.407-7.806C343.019,349.249,346.517,361.711,343.637,374.071L343.637,374.071z"/>
	<path fill-rule="evenodd" clip-rule="evenodd" fill="#FFFFFF" d="M324.62,359.174c-2.387,1.906-5.159,2.604-8.137,1.874
		c0.923,1.225,2.896,5.716,2.507,8.208c-0.554-3.123-1.528-6.046-3.089-8.67C318.791,361.748,322.221,360.582,324.62,359.174
		L324.62,359.174z"/>
	<path fill-rule="evenodd" clip-rule="evenodd" d="M283.431,368.979c0.053-0.462,0.065-1.64,0.017-2.381
		c0.244,0.57,0.443,2.585,0.454,3.565c0.299,0.598,0.626,1.517,0.892,2.115c1.112-2.624,1.489-6.377,1.578-7.175
		c0.448,1.644-0.523,6.222-1.295,7.905c0.095,0.233,0.224,0.59,0.328,0.802c1.127-1.213,2.056-3.327,2.595-4.954
		c-0.041,1.823-1.415,4.425-2.353,5.526c0.003,0.007,0.074,0.102,0.065,0.171c-1.59-0.224-3.252-0.213-3.754,4.771
		c-0.037,0.411-0.453,0.083-0.502-0.237c-2.462-2.112-4.662-13.112-1.146-14.217C281.534,364.486,282.649,367.218,283.431,368.979
		L283.431,368.979z"/>
	<path fill-rule="evenodd" clip-rule="evenodd" fill="#FED5AA" d="M280.381,365.347c0.86-0.109,2.19,2.887,2.901,4.972
		c0.038,0.798-0.539,4.16-0.909,4.816c-0.521,0.492-1.083,2.234-1.018,3.056C278.242,373.267,278.687,365.562,280.381,365.347
		L280.381,365.347z"/>
	<path fill-rule="evenodd" clip-rule="evenodd" fill="#00BBE6" d="M321.697,371.481c-0.288,1.45-0.893,3.218-1.346,4.384
		c-0.365-0.664-0.747-1.395-1.179-2.059c0.021-1.333,0.008-3.019-0.116-4.152C320.181,369.073,321.426,370.833,321.697,371.481
		L321.697,371.481z"/>
	<path fill-rule="evenodd" clip-rule="evenodd" fill="#FED5AA" d="M284.461,372.92c-0.055,0.227-0.332,0.729-0.412,0.917
		c-0.201,0.049-0.584,0.232-0.702,0.351c0.122-0.758,0.365-1.893,0.432-2.857C284.167,372.222,284.336,372.515,284.461,372.92
		L284.461,372.92z"/>
	<path fill-rule="evenodd" clip-rule="evenodd" fill="#FED5AA" d="M278.386,380.491c-0.138-0.083-0.407-0.176-0.607-0.202
		c-0.902-0.408-2.529-1.725-3.018-2.347c-0.23-0.855-0.331-3.065,0.469-3.255C276.032,374.496,277.237,377.988,278.386,380.491
		L278.386,380.491z"/>
	<path fill-rule="evenodd" clip-rule="evenodd" fill="#00BBE6" d="M318.144,390.331c-0.726-1.201-2.265-3.465-3.14-4.368
		c2.226-3.289,3.472-7.009,3.937-11.028C321.888,379.703,322.787,387.71,318.144,390.331L318.144,390.331z"/>
	<path fill-rule="evenodd" clip-rule="evenodd" fill="#FED5AA" d="M276.821,380.449c-0.004,0.004-0.103,0.085-0.144,0.081
		c-0.42-0.07-0.906-0.226-1.152-0.347c-0.174-0.344-0.328-0.839-0.499-1.279C275.372,379.359,276.423,380.19,276.821,380.449
		L276.821,380.449z"/>
	<path fill-rule="evenodd" clip-rule="evenodd" d="M282.235,379.868c1.013,0.107,2.113-0.232,2.973-0.914
		C285.067,379.761,282.737,380.441,282.235,379.868L282.235,379.868z"/>
	<path fill-rule="evenodd" clip-rule="evenodd" fill="#F79C85" d="M311.283,389.185c-2.225,0.565-4.251,1.861-5.846,3.555
		c-0.897,0.1-1.76,0.299-2.658,0.432c-0.74-2.432,1.696-4.562,3.289-5.414c0,0.387,0.277,1.539,0.864,1.793
		c-0.651-2.823-0.116-5.093,1.295-6.976C310.021,384.336,311.981,386.528,311.283,389.185L311.283,389.185z"/>
	<path fill-rule="evenodd" clip-rule="evenodd" fill="#00BBE6" d="M318.525,393.521c-0.149,0.055-0.443,0.132-0.676,0.177
		c-0.404-1.943-1.871-3.753-3.244-4.279c0.199-0.731,0.332-1.628,0.232-2.425C316.399,388.953,317.86,391.162,318.525,393.521
		L318.525,393.521z"/>
	<path fill-rule="evenodd" clip-rule="evenodd" fill="#FFFFFF" d="M334.27,397.855c0.364,0.354,1.708,0.502,2.524,0.498
		c-10.685,6.189-16.354-4.493-11.094-9.068C325.552,396.335,329.584,398.228,334.27,397.855L334.27,397.855z"/>
	<path fill-rule="evenodd" clip-rule="evenodd" fill="#00BBE6" d="M317.097,393.786c-1.19,0.271-3.188,0.509-4.933,0.581
		c0.282-0.304,0.963-0.675,1.346-0.764c-1.705-1.351-7.31,5.833-4.418,9.766c2.111,0.18,4.728,0.033,6.377-0.1
		c-3.925,5.881-13.699,6.493-18.435,0.398c-1.626-2.092-2.063-8.208,7.839-10.064c-0.299,0.465-0.682,0.896-0.714,1.361
		C313.401,385.392,317.13,392.656,317.097,393.786L317.097,393.786z"/>
	<path fill-rule="evenodd" clip-rule="evenodd" fill="#FEE4CD" d="M298.047,395.331c-0.239-0.007-0.59-0.044-0.754-0.108
		c-0.375,0.218-1.244,0.484-1.737,0.557c0.769-0.354,1.788-1.213,2.353-1.755c0.578,0.009,1.583,0.061,2.247,0.094
		C299.524,394.55,298.645,394.799,298.047,395.331L298.047,395.331z"/>
	<path fill-rule="evenodd" clip-rule="evenodd" fill="#00BBE6" d="M314.406,394.866c-3.114,3.114-2.399,6.432-0.798,7.889
		c-1.395,0.166-2.923,0.149-4.351,0.149c-1.076-3.193,1.098-6.446,2.408-7.972C312.596,394.965,313.365,394.954,314.406,394.866
		L314.406,394.866z"/>
	<path fill-rule="evenodd" clip-rule="evenodd" fill="#00BBE6" d="M319.82,402.771c-0.199,2.856-0.664,5.613-1.527,8.171
		c-9.982,6.787-20.232,3.052-18.834-3.902c5.714,3.335,13.972,2.226,17.035-3.864C317.307,403.098,318.995,402.909,319.82,402.771
		L319.82,402.771z"/>
	<path fill-rule="evenodd" clip-rule="evenodd" fill="#00BBE6" d="M294.708,404.897c-2.793,0.744-7.766,4.299-9.218,6.909
		c4.075-3.781,7.919-5.412,11.643-6.644c0.432,0.332,0.78,0.764,1.212,1.063c-4.054,7.162,5.211,16.456,18.95,7.457
		c-0.979,2.63-3.122,6.272-5.447,8.222c1.894-0.089,4.285-3.809,5.63-6.283c7.717,6.215-4.277,14.269-11.383,13.908
		c-3.918-0.198-5.653-1.634-11.631-1.618c-3.17,0.008-19.981,2.017-22.228-4.812c-0.901-2.741,2.025-6.439-0.033-9.217
		c-2.017-2.724-4.098-4.079-3.039-6.013C270.929,404.649,282.188,400.592,294.708,404.897L294.708,404.897z"/>
	<path fill-rule="evenodd" clip-rule="evenodd" fill="#00BBE6" d="M318.026,411.757c-8.3,5.825-20.911,3.92-19.066-5.066
		c-0.045-0.041-0.153-0.099-0.232-0.149c-3.423,6.486,4.825,15.452,18.813,6.423C317.54,412.964,317.89,412.112,318.026,411.757
		L318.026,411.757z"/>
	<path fill-rule="evenodd" clip-rule="evenodd" fill="#F16DA0" d="M329.154,422.436c-0.336,0.452-1.43,1.087-1.794,1.229
		c-0.822-0.922-3.835-2.87-4.933-3.104c17.051,12.705,15.077,30.092,7.208,35.011c-3.471,2.17-8.409-1.499-13.701-6.461
		c2.226,0.697,4.848,0.965,6.743-0.964c3.168-3.225,0.456-12.771-7.259-20.245c7.18-4.919,6.337-9.836,2.358-13
		c0.171-0.477,0.471-0.945,0.65-1.374C324.166,411.839,329.238,419.25,329.154,422.436L329.154,422.436z"/>
	<path fill-rule="evenodd" clip-rule="evenodd" d="M300.488,419.978c-5.933,1.578-14.824,1.226-19.089-3.321
		C286.946,420.554,294.21,420.432,300.488,419.978L300.488,419.978z"/>
	<path fill-rule="evenodd" clip-rule="evenodd" fill="#FFFFFF" d="M285.906,433.431c-0.132-2.016,2.796-4.535,4.435-4.772
		C288.615,429.362,286.215,431.826,285.906,433.431L285.906,433.431z"/>
	<path fill-rule="evenodd" clip-rule="evenodd" fill="#FFFFFF" d="M303.445,429.81c-1.667,0.88-5.215,3.042-6.71,4.02
		C298.703,431.596,302.963,429.736,303.445,429.81L303.445,429.81z"/>
	<path fill-rule="evenodd" clip-rule="evenodd" fill="#FFFFFF" d="M303.146,435.955c1.594-0.863,3.355-1.694,4.982-2.624
		C308.006,433.618,304.618,435.999,303.146,435.955L303.146,435.955z"/>
	<path fill-rule="evenodd" clip-rule="evenodd" fill="#D90861" d="M322.844,447.017c-2.865,5.239-17.863-3.009-22.289-9.8
		c0.697-0.299,1.451-0.675,2.126-1.063C309.341,443.475,318.686,449.012,322.844,447.017L322.844,447.017z"/>
	<path fill-rule="evenodd" clip-rule="evenodd" fill="#F16DA0" d="M314.439,449.075c0.432,1.229,0.531,3.057-0.1,4.285
		c-0.481-2.023-1.935-4.766-3.488-5.846c3.374,6.188,10.022,25.041-6.145,33.316c-4.924,2.521-18.284,4.991-18.418-2.143
		c-0.079-4.17,3.541-6.474,2.475-10.347c1.596,2.225,4.327,5.962,8.437,5.032c13.407-3.033,10.287-26.536,0.199-34.961
		c0.609-0.149,1.534-0.501,2.259-0.83C305.947,445.515,311.835,446.568,314.439,449.075L314.439,449.075z"/>
	<path fill-rule="evenodd" clip-rule="evenodd" fill="#FFFFFF" d="M296.625,438.658c0.293,0.196,0.913,0.637,1.24,0.918
		c-0.299,0.1-0.698,0.1-1.063,0.166c-0.094-0.366-0.221-0.692-0.298-1.047C296.561,438.706,296.631,438.646,296.625,438.658
		L296.625,438.658z"/>
	<path fill-rule="evenodd" clip-rule="evenodd" fill="#FFFFFF" d="M288.502,438.789c1.829,0.89,4.169,1.059,7.601-0.011
		C294.299,440.13,290.556,440.395,288.502,438.789L288.502,438.789z"/>
	<path fill-rule="evenodd" clip-rule="evenodd" fill="#FFFFFF" d="M297.975,442.941c-0.343-0.974-0.726-1.904-1.058-2.801
		C297.244,439.72,297.941,441.968,297.975,442.941L297.975,442.941z"/>
	<path fill-rule="evenodd" clip-rule="evenodd" fill="#D90861" d="M288.962,444.891c-3.435,9.638,0.461,24.077,5.812,27.936
		c-8.464-3.39-12.705-22.595-6.626-31.689C288.447,442.366,288.796,443.595,288.962,444.891L288.962,444.891z"/>
	<path fill-rule="evenodd" clip-rule="evenodd" fill="#FFFFFF" d="M289.535,448.32c-0.266-0.864-0.739-1.869-0.44-2.799
		C289.319,446.46,289.436,447.249,289.535,448.32L289.535,448.32z"/>
	<path fill-rule="evenodd" clip-rule="evenodd" d="M302.315,474.421c-0.033,0.066,0.066,0.066,0.033,0.099
		c-3.647-0.626-9.679,0.097-12.39,0.267C292.926,473.667,299.647,473.291,302.315,474.421L302.315,474.421z"/>
	<path fill-rule="evenodd" clip-rule="evenodd" d="M307.032,352.286c-0.198-0.199-1.218-0.734-1.44-0.791
		c0.146-0.104,0.547-0.539,0.631-0.725C306.223,350.77,306.805,352.058,307.032,352.286L307.032,352.286z"/>
	<path fill-rule="evenodd" clip-rule="evenodd" fill="#FEE4CD" d="M273.794,380.669c0.457,0.166,1.503,0.37,1.732,0.328
		c0,0-0.112-0.187-0.195-0.353c-0.374-0.125-1.445-0.652-1.902-0.984C273.429,379.661,273.69,380.379,273.794,380.669
		L273.794,380.669z"/>
	<path fill-rule="evenodd" clip-rule="evenodd" fill="#FED5AA" d="M276.256,380.979l-0.494-0.21l0.116,0.262
		C276.044,381.052,276.256,380.979,276.256,380.979L276.256,380.979z"/>
	<path fill-rule="evenodd" clip-rule="evenodd" fill="#FED5AA" d="M284.668,373.877c0,0,0.159,0.038,0.36,0.156l-0.235-0.439
		L284.668,373.877L284.668,373.877z"/>
</g>
</svg>
