<?xml version="1.0" encoding="UTF-8" standalone="no"?>
<!-- Created with Inkscape (http://www.inkscape.org/) -->
<svg
   xmlns:dc="http://purl.org/dc/elements/1.1/"
   xmlns:cc="http://web.resource.org/cc/"
   xmlns:rdf="http://www.w3.org/1999/02/22-rdf-syntax-ns#"
   xmlns:svg="http://www.w3.org/2000/svg"
   xmlns="http://www.w3.org/2000/svg"
   xmlns:sodipodi="http://sodipodi.sourceforge.net/DTD/sodipodi-0.dtd"
   xmlns:inkscape="http://www.inkscape.org/namespaces/inkscape"
   width="744.09448819"
   height="1052.3622047"
   id="svg17715"
   sodipodi:version="0.32"
   inkscape:version="0.44.1"
   sodipodi:docbase="C:\Documents and Settings\gregg\My Documents\My Pictures\heraldry"
   sodipodi:docname="laurel wreath.svg">
  <defs
     id="defs17717" />
  <sodipodi:namedview
     id="base"
     pagecolor="#ffffff"
     bordercolor="#666666"
     borderopacity="1.0"
     gridtolerance="10000"
     guidetolerance="10"
     objecttolerance="10"
     inkscape:pageopacity="0.0"
     inkscape:pageshadow="2"
     inkscape:zoom="0.35"
     inkscape:cx="375"
     inkscape:cy="520"
     inkscape:document-units="px"
     inkscape:current-layer="layer1" />
  <metadata
     id="metadata17720">
    <rdf:RDF>
      <cc:Work
         rdf:about="">
        <dc:format>image/svg+xml</dc:format>
        <dc:type
           rdf:resource="http://purl.org/dc/dcmitype/StillImage" />
      </cc:Work>
    </rdf:RDF>
  </metadata>
  <g
     inkscape:groupmode="layer"
     id="layer3"
     inkscape:label="wood"
     style="display:inline" />
  <g
     inkscape:label="Layer 1"
     inkscape:groupmode="layer"
     id="layer1"
     style="opacity:1;display:inline">
    <g
       id="g22249">
      <path
         sodipodi:nodetypes="cssscccccccccc"
         id="path18706"
         d="M 209.27003,228.48717 C 126.4415,284.23868 71.502116,381.43789 71.502117,492.04375 C 71.502117,664.96351 205.66786,805.28857 370.99759,805.28859 C 536.32732,805.28859 670.52475,664.96349 670.52476,492.04375 C 670.52476,377.89651 612.01456,277.97871 524.7069,223.21669 C 504.73458,213.59124 414.91228,158.46809 524.7069,233.16097 C 552.57828,251.26378 577.62209,274.09732 598.07537,300.81523 C 648.79892,365.55404 671.12258,453.06768 659.5591,535.89803 C 648.34743,621.55608 599.50015,700.15575 530.60174,747.21399 C 462.88783,794.50618 375.73023,808.66726 297.09035,787.02427 C 213.16785,764.93327 141.19046,700.41727 105.47663,618.10408 C 67.174701,532.07657 71.757771,426.94897 115.87182,344.30489 C 138.03004,301.66211 170.68757,265.5391 209.27003,238.66348 C 318.31762,157.02801 237.23583,209.44063 209.27003,228.48717 z "
         style="opacity:1;fill:#00c800;fill-opacity:1;stroke:black;stroke-width:2.74799991;stroke-linecap:round;stroke-linejoin:round;stroke-miterlimit:4;stroke-dasharray:none;stroke-dashoffset:0;stroke-opacity:1;display:inline" />
      <path
         id="path17799"
         d="M 242.66654,842.78293 C 242.66923,841.62935 300.81322,812.62865 311.22742,808.58654 C 325.60019,803.008 349.29063,798.99403 357.68765,800.71462 L 363.79067,801.96516 L 356.97515,810.1228 C 353.22664,814.6095 346.99857,820.48113 343.135,823.17086 C 333.81212,829.66128 311.00186,837.42291 293.53992,840.04657 C 281.23882,841.89483 242.66377,843.96966 242.66654,842.78293 z M 474.18128,842.14653 C 448.07344,840.56988 446.0868,840.20585 421.7476,832.5389 C 407.18598,827.9519 403.4618,825.7349 392.22057,814.96144 L 379.3569,802.63299 L 385.03699,801.04215 C 399.65016,796.94937 446.54637,810.44986 467.0851,824.6622 C 470.98801,827.36292 476.41695,830.24102 479.1494,831.05796 C 485.37726,832.91994 502.99631,841.92649 502.99631,843.24809 C 502.99631,843.78911 501.87848,844.08662 500.51226,843.90921 C 499.14603,843.73177 487.2971,842.93857 474.18128,842.14653 z M 190.00561,807.2158 C 179.07578,803.81876 166.2444,799.92632 161.49143,798.56589 L 152.84968,796.09236 L 167.45315,793.56433 C 175.48506,792.1739 190.72406,789.26247 201.3176,787.09446 C 230.85816,781.04887 260.44706,782.80497 279.58748,791.73978 L 284.70437,794.12836 L 278.3151,799.84361 C 261.57914,814.81402 224.43081,817.91521 190.00561,807.2158 z M 485.24948,809.56921 C 471.03426,804.33164 458.04861,795.21662 461.76586,793.08537 C 469.53223,788.63249 495.44525,783.15263 508.73548,783.15263 C 520.98852,783.15263 553.26034,788.2104 584.04757,794.95581 C 589.85138,796.22742 587.40011,797.34833 561.99653,805.03933 C 537.06678,812.58686 531.02861,813.68283 514.72837,813.61876 C 501.34735,813.56616 492.97667,812.41628 485.24948,809.56921 z M 320.87997,793.14726 C 308.3347,789.42312 282.2316,759.152 277.47304,742.80931 L 276.10049,738.09549 L 284.68325,742.58144 C 289.40377,745.04871 299.44831,749.2217 307.00446,751.85475 C 332.13516,760.61185 343.69301,770.07963 350.93744,787.84317 L 354.00647,795.36846 L 340.5659,795.18483 C 333.1736,795.08385 324.31492,794.16693 320.87997,793.14726 z M 391.71074,791.74093 C 391.71074,786.19183 405.87903,768.09533 415.13903,761.8171 C 419.22554,759.04645 428.29802,754.85272 435.30014,752.49769 C 442.30224,750.14266 452.43729,746.03815 457.82244,743.37653 L 467.61369,738.53725 L 466.34798,743.70393 C 463.28974,756.18773 443.91545,781.46576 431.856,788.70638 C 424.93079,792.86431 419.53742,794.24129 407.34397,794.96445 C 392.64071,795.83648 391.71074,795.64474 391.71074,791.74093 z M 266.51445,781.74189 C 245.03711,773.89356 229.84034,756.12407 221.72392,729.36866 C 218.97814,720.3173 216.17806,708.95991 215.50153,704.13003 L 214.27148,695.34848 L 241.03623,722.45378 C 268.65532,750.42433 274.28768,758.79371 276.00659,774.41799 C 277.006,783.50212 275.1822,784.90931 266.51445,781.74189 z M 467.76426,775.04336 C 470.11292,757.10351 480.30563,743.3607 518.10426,707.17018 L 530.23137,695.55902 L 528.61779,706.01671 C 523.44765,739.52476 506.37073,768.70512 486.3389,778.26116 C 480.7452,780.92959 474.0387,783.1218 471.43558,783.13273 C 467.06213,783.15113 466.78327,782.53669 467.76426,775.04336 z M 156.22248,763.03563 C 133.34635,755.76286 127.42234,752.74815 105.52105,737.2337 C 93.394596,728.64358 83.744947,721.41543 84.07735,721.17117 C 87.079917,718.96485 158.73915,726.96646 165.01646,730.20899 C 166.73766,731.09807 173.95862,734.7263 181.06301,738.2717 C 188.16741,741.81708 197.46959,747.85709 201.73452,751.6939 L 209.48899,758.66996 L 202.35613,761.72333 C 190.50185,766.79782 169.89965,767.38389 156.22248,763.03563 z M 550.97503,764.67493 C 546.2133,763.71582 541.04873,761.85249 539.49823,760.53414 C 535.84014,757.42374 539.31777,753.30106 554.0515,743.28159 C 570.35402,732.19525 588.76067,726.48993 615.66709,724.18324 C 650.30887,721.21338 659.72336,720.87594 658.65452,722.64242 C 656.373,726.41319 615.44477,753.0115 605.89194,756.93163 C 583.61324,766.07396 568.50055,768.20484 550.97503,764.67493 z M 193.5076,737.74585 C 181.02718,728.09745 169.8064,711.6627 167.15935,699.15441 C 165.89396,693.17492 165.17712,676.83871 165.52957,662.01235 L 166.15869,635.5447 L 173.42088,649.79651 C 177.41506,657.63501 183.02418,667.55487 185.88553,671.84064 C 199.78376,692.65754 207.53808,720.86931 203.72806,736.7554 L 201.92906,744.25636 L 193.5076,737.74585 z M 541.22401,723.82015 C 542.27572,701.86302 545.65831,691.02659 556.17611,675.91956 C 558.64692,672.37067 564.59299,661.94192 569.38963,652.74456 L 578.11078,636.02209 L 579.50238,653.13746 C 581.17579,673.71916 578.3779,700.12147 573.3652,711.05077 C 569.44998,719.58723 552.57675,738.12992 544.88762,742.3459 L 540.21386,744.90856 L 541.22401,723.82015 z M 118.20367,698.72113 C 111.50211,697.20255 103.01276,694.36737 99.33844,692.42071 C 87.347299,686.0678 66.90867,667.93562 57.928456,655.68372 C 53.09284,649.08641 46.451159,640.711 43.169145,637.0717 C 36.437936,629.60767 36.834719,629.26037 47.38073,633.38534 C 51.501541,634.99715 59.898596,637.32778 66.040841,638.56455 C 78.870021,641.14773 101.09073,651.55305 113.59349,660.83207 C 123.0951,667.88377 137.88761,684.80471 142.44623,693.83625 C 145.15751,699.20783 145.11081,699.68005 141.86599,699.70559 C 139.92523,699.72089 136.54879,700.12687 134.36282,700.60779 C 132.17686,701.08869 124.90524,700.2397 118.20367,698.72113 z M 605.83611,700.27282 C 602.83041,699.79678 600.37121,698.94421 600.37121,698.37814 C 600.37121,694.33295 612.52503,677.66097 621.99398,668.7171 C 635.06841,656.36774 661.89401,641.87597 677.97149,638.4769 C 683.92909,637.21736 692.72328,634.8665 697.51413,633.25281 C 707.8364,629.77602 710.06798,630.79539 702.80614,635.67021 C 699.93457,637.59786 694.50749,643.85533 690.74593,649.57571 C 679.12138,667.25371 672.77136,673.31602 648.35451,690.0465 C 639.1507,696.35295 616.09679,701.89774 605.83611,700.27282 z M 134.8364,673.22518 C 129.68348,667.05756 127.21877,661.32801 124.73327,649.73919 C 122.92512,641.30868 121.44573,630.87314 121.44573,626.5491 C 121.44573,615.22727 128.70004,580.75364 133.18371,570.76835 C 136.95691,562.36524 137.01117,562.33256 137.18468,568.35767 C 137.28143,571.71702 140.47516,587.29218 144.28184,602.96916 C 148.61799,620.82648 151.21268,636.46779 151.22873,644.84605 C 151.25409,658.07606 146.84005,678.09798 143.42072,680.26307 C 142.44793,680.87905 138.585,677.71197 134.8364,673.22518 z M 598.65115,675.662 C 590.60245,654.82681 590.90929,641.2057 600.2888,602.96916 C 603.585,589.53176 606.29337,576.07209 606.3074,573.05876 C 606.39031,555.25707 615.11003,575.3677 620.27557,605.27402 C 625.24057,634.01937 618.80592,667.51241 606.53226,676.80918 L 600.77806,681.16777 L 598.65115,675.662 z M 81.978312,618.13777 C 67.731905,612.95459 53.464301,601.47266 44.955778,588.34367 C 41.117941,582.42173 32.647672,566.55154 26.132955,553.0766 L 14.288018,528.57666 L 23.650732,534.09178 C 28.80023,537.12512 38.240212,543.32729 44.628497,547.87438 C 51.016765,552.4215 59.379806,558.09224 63.212999,560.47611 C 77.601208,569.4241 93.924038,595.51189 96.845343,614.22873 C 98.320803,623.68196 97.680057,623.85043 81.978312,618.13777 z M 646.07777,619.19126 C 646.07777,617.47546 648.88555,608.61228 652.31727,599.49529 C 659.34072,580.83627 668.63547,569.08158 685.58958,557.41703 C 701.09084,546.75207 726.37208,530.70618 727.68598,530.69865 C 729.78325,530.68661 703.73996,582.54927 696.84665,592.11214 C 688.78018,603.30253 675.44468,613.19516 661.27171,618.50258 C 648.9269,623.1254 646.07777,623.25456 646.07777,619.19126 z M 95.80435,592.84978 C 90.456301,578.20538 90.390921,559.68638 95.625918,542.3218 C 99.883237,528.20029 125.39827,485.81844 125.30292,493.02671 C 124.9895,516.72401 121.01847,564.24225 118.73229,571.65292 C 114.83135,584.29773 108.82255,596.06018 103.96476,600.56104 C 100.03472,604.2023 99.90568,604.0804 95.80435,592.84978 z M 639.58738,600.4242 C 634.78854,594.96487 626.99388,577.62561 624.40962,566.66115 C 622.37881,558.04481 617.82161,491.89722 619.15836,490.43938 C 620.64527,488.81777 644.60421,529.44515 648.30154,539.85771 C 654.42318,557.09762 654.36398,581.03985 648.16692,594.31628 C 645.68418,599.63527 643.4428,603.98716 643.18606,603.98716 C 642.92932,603.98716 641.30992,602.38383 639.58738,600.4242 z M 59.452888,527.42458 C 41.281644,515.16446 31.02183,494.44716 25.175507,458.20955 C 23.531341,448.01838 21.545227,437.94034 20.76191,435.81388 C 19.669228,432.84746 21.006641,433.36918 26.508087,438.05549 C 30.451765,441.41484 35.864164,445.71378 38.535612,447.6087 C 46.899223,453.54117 68.214266,486.04485 72.110123,498.80702 C 76.513588,513.23218 77.067517,534.76412 73.035141,534.76412 C 71.547931,534.76412 65.435901,531.46134 59.452888,527.42458 z M 668.60454,519.61031 C 670.07661,501.76879 674.66608,488.35064 684.01124,474.56582 C 691.00133,464.25496 720.96283,432.96556 723.84605,432.96556 C 724.73874,432.96556 724.58717,435.34211 723.50925,438.24678 C 722.4313,441.15148 720.29337,451.45857 718.75828,461.15147 C 713.36132,495.22839 701.99557,517.08321 683.92329,528.13434 C 667.82868,537.97612 667.12167,537.58273 668.60454,519.61031 z M 80.658679,509.62113 C 79.756051,502.21963 80.363297,494.55448 82.55381,485.69845 C 88.04283,463.50714 94.132478,453.41297 113.46924,434.45324 C 123.32124,424.79336 131.38195,417.35708 131.38195,417.92822 C 131.38195,418.49937 129.95202,423.71974 128.20429,429.52904 C 118.53033,461.68504 112.48201,479.31768 108.90987,485.77812 C 103.42222,495.70293 85.231103,520.51234 83.441534,520.51234 C 82.641472,520.51234 81.389185,515.61129 80.658679,509.62113 z M 652.51419,510.67498 C 636.39509,491.08995 627.72187,471.16826 613.36378,420.74973 L 611.91429,415.6598 L 616.84652,420.74973 C 619.55926,423.5492 628.50549,432.54186 636.72701,440.73342 C 649.46354,453.42356 652.47073,457.79144 657.05183,470.25501 C 662.7685,485.80809 665.47228,508.26974 662.56445,516.05122 C 660.86574,520.59705 660.53455,520.41986 652.51419,510.67498 z M 66.6203,443.36745 C 50.759,433.45816 44.424794,411.50355 46.921305,375.0902 C 47.771465,362.69019 48.489097,349.63973 48.516062,346.08922 C 48.563694,339.81343 48.753783,339.95509 55.345565,351.17914 C 59.074839,357.52912 63.364259,364.12995 64.87763,365.84769 C 68.964568,370.48654 76.810321,389.71543 79.674314,402.11243 C 82.191473,413.00822 81.569015,424.45315 77.647828,439.37244 C 75.278197,448.38837 74.885006,448.53079 66.6203,443.36745 z M 667.52507,442.63642 C 665.91215,439.72693 664.98031,430.25548 664.9711,416.6778 C 664.95749,396.64953 665.36237,394.46473 671.3851,382.06627 C 674.92082,374.78769 681.72004,362.65846 686.49448,355.11246 L 695.17533,341.39243 L 696.87913,361.22038 C 699.87486,396.08237 697.73427,415.51251 689.13227,431.53919 C 685.60548,438.11005 675.21812,447.21735 671.25047,447.21735 C 670.5982,447.21735 668.92177,445.15593 667.52507,442.63642 z M 85.675376,429.79518 C 85.675376,412.58104 95.546084,393.71186 112.59299,378.33867 C 119.77024,371.86606 154.61215,351.52671 158.52262,351.52671 C 159.10903,351.52671 156.76897,354.96241 153.32243,359.16161 C 149.87587,363.36079 141.68025,375.04217 135.10996,385.12022 C 121.95025,405.3056 108.95536,420.00233 96.247162,429.07256 C 86.124925,436.2971 85.675376,436.32782 85.675376,429.79518 z M 649.02312,429.64373 C 637.24238,421.66766 620.44028,404.45723 616.15418,395.97606 C 610.294,384.38008 600.26171,369.53561 593.03405,361.76594 C 589.41859,357.87933 586.46049,353.92541 586.46049,352.97941 C 586.46049,352.03341 595.46219,356.08231 606.46424,361.97697 C 622.14737,370.37961 629.21561,375.67854 639.18915,386.51028 C 651.86791,400.28 654.70973,406.28209 659.0153,428.38462 C 660.57602,436.39661 659.24489,436.56435 649.02312,429.64373 z M 88.28758,361.31658 C 75.419021,338.97116 75.917003,324.44887 91.130851,278.40272 L 96.792242,261.26794 L 103.51025,282.14736 C 108.80373,298.59937 110.22332,306.3341 110.2049,318.62386 C 110.17927,335.73746 104.80299,353.56075 96.786178,363.10938 L 92.35769,368.38407 L 88.28758,361.31658 z M 648.71333,365.47855 C 647.52296,363.96383 643.9838,357.68552 640.84848,351.52671 C 635.5471,341.11294 635.15686,338.76069 635.27525,317.93317 C 635.38887,297.9456 636.06337,293.78616 641.54811,279.24973 C 645.26067,269.41028 648.15233,264.17101 648.85219,266.01591 C 657.55845,288.9671 665.87272,319.93027 665.91614,329.56364 C 665.9549,338.16633 659.47059,357.36045 654.3271,363.86809 C 651.50354,367.44055 650.48483,367.7328 648.71333,365.47855 z M 108.68505,353.05368 C 115.52907,330.94152 143.81017,309.80906 177.4231,301.69065 C 197.18042,296.91874 198.57202,297.65846 186.83504,306.69371 C 181.0463,311.14994 173.13175,317.84257 169.24713,321.56627 C 152.61033,337.51383 120.14637,357.56369 110.8788,357.61472 C 108.03579,357.63039 107.56894,356.6598 108.68505,353.05368 z M 627.39302,356.17142 C 620.31957,354.31754 599.41179,341.47851 588.44773,332.25603 C 582.43632,327.19947 571.08457,317.81048 563.22162,311.39161 C 555.35865,304.97271 549.22952,299.40922 549.60135,299.02824 C 551.47678,297.10683 576.53615,303.69115 591.06841,309.92364 C 609.70294,317.91549 624.98169,330.98891 631.88193,344.84614 C 638.18568,357.50549 637.64902,358.85948 627.39302,356.17142 z M 125.80865,289.93858 C 122.80181,275.74222 124.56635,258.66127 130.24575,246.98699 C 133.05325,241.21602 141.09008,229.36422 148.10538,220.64963 L 160.86047,204.80489 L 162.24949,218.09347 C 165.29618,247.24057 158.32082,271.47861 142.15947,287.90261 C 136.3746,293.78148 130.7415,298.59144 129.64145,298.59144 C 128.54141,298.59144 126.81663,294.69764 125.80865,289.93858 z M 603.82938,289.61029 C 598.25416,284.34224 592.14771,275.78282 588.95675,268.76329 C 584.11274,258.10726 583.46867,254.06882 582.83632,230.38641 L 582.1296,203.91878 L 589.75997,212.89528 C 611.87898,238.91646 617.89391,250.14728 619.54639,268.51124 C 620.64602,280.73127 617.76357,298.61676 614.70211,298.56974 C 613.92452,298.55781 609.03179,294.52605 603.82938,289.61029 z M 155.51546,282.166 C 172.49449,265.70659 189.49574,259.88345 220.40886,259.93917 C 242.25913,259.97856 246.13614,262.09588 233.33769,266.99984 C 228.08578,269.01223 216.63466,274.28503 207.8908,278.71723 C 190.47084,287.54725 171.98536,292.39349 155.51546,292.4482 L 144.87218,292.48354 L 155.51546,282.166 z M 565.59446,289.59 C 559.03653,288.21795 545.17554,282.94241 534.7922,277.86653 C 524.40885,272.79066 512.56895,267.40898 508.48131,265.90724 C 497.77429,261.97365 502.79129,259.97601 523.47005,259.93917 C 555.24005,259.88256 575.38341,267.28109 592.31525,285.22559 L 599.16361,292.48354 L 588.34077,292.28408 C 582.3882,292.17438 572.15235,290.96204 565.59446,289.59 z M 210.3529,247.77487 C 206.24213,246.95814 202.31411,245.71134 201.62394,245.00426 C 199.37006,242.69514 204.83461,238.04892 215.40553,233.28645 C 231.27681,226.13603 255.97266,226.58423 278.9347,234.43944 C 288.49831,237.7111 296.32308,241.11517 296.32308,242.00407 C 296.32308,242.89295 292.96961,243.62783 288.87094,243.63714 C 284.77224,243.64643 271.5819,245.00283 259.55909,246.65133 C 236.22984,249.85015 222.38858,250.16617 210.3529,247.77487 z M 492.06648,247.73344 C 485.50857,246.81975 472.72179,245.38192 463.65143,244.53823 C 454.58105,243.69453 447.87412,242.28827 448.7471,241.41318 C 452.10324,238.04907 480.83788,229.51318 493.16086,228.21969 C 508.07705,226.65401 527.68769,230.87968 536.98606,237.66305 C 543.60996,242.49534 544.16247,244.66097 539.26349,246.58971 C 533.58244,248.82632 504.89947,249.5214 492.06648,247.73344 z M 182.18169,240.35188 C 177.83083,222.59155 190.86041,200.56631 216.02516,183.14286 C 222.48111,178.67296 229.6813,173.9797 232.02557,172.71343 L 236.28794,170.41111 L 232.74423,184.52567 C 227.75782,204.38642 222.15585,215.19688 210.63862,227.18412 C 202.48451,235.67099 188.26778,245.6562 184.3385,245.6562 C 183.86693,245.6562 182.89639,243.26923 182.18169,240.35188 z M 550.48708,241.59471 C 541.14781,236.54455 523.20417,216.36177 518.60239,205.73124 C 514.80073,196.94899 508.16985,172.46646 509.29582,171.36939 C 509.65653,171.01798 516.43525,175.03106 524.35964,180.2874 C 540.39257,190.92221 557.6719,210.30363 560.85073,221.2177 C 563.26866,229.51934 562.52041,244.0647 559.63272,244.89451 C 558.53974,245.2086 554.4242,243.72369 550.48708,241.59471 z M 245.72983,204.42778 C 249.87452,184.70974 260.13279,176.59801 291.35498,168.34976 C 299.00586,166.32854 306.92101,163.98023 308.9442,163.13131 C 315.92152,160.2036 306.87304,173.96543 291.39261,189.82546 C 276.52156,205.06117 264.87704,211.04468 250.09791,211.04468 C 244.64021,211.04468 244.41172,210.69862 245.72983,204.42778 z M 477.29747,207.69184 C 472.45349,205.95471 464.95457,201.64656 460.63322,198.11817 C 453.26247,192.09996 430.93636,164.07064 432.35543,162.61676 C 432.71244,162.25102 437.35086,163.33107 442.66307,165.01685 C 447.97526,166.70264 458.00859,169.7319 464.95934,171.74855 C 484.31331,177.36383 499.02183,192.5457 499.02183,206.90735 C 499.02183,210.23772 497.76216,211.02573 492.56328,210.94749 C 489.01108,210.89403 482.14149,209.429 477.29747,207.69184 z "
         style="fill:#00c800;fill-opacity:1;stroke:black;stroke-width:1.0150044;stroke-opacity:1" />
    </g>
  </g>
</svg>
