<?xml version="1.0" encoding="UTF-8" standalone="no"?>
<!-- Generator: Adobe Illustrator 18.1.1, SVG Export Plug-In . SVG Version: 6.00 Build 0)  -->

<svg
   xmlns:dc="http://purl.org/dc/elements/1.1/"
   xmlns:cc="http://creativecommons.org/ns#"
   xmlns:rdf="http://www.w3.org/1999/02/22-rdf-syntax-ns#"
   xmlns:svg="http://www.w3.org/2000/svg"
   xmlns="http://www.w3.org/2000/svg"
   xmlns:sodipodi="http://sodipodi.sourceforge.net/DTD/sodipodi-0.dtd"
   xmlns:inkscape="http://www.inkscape.org/namespaces/inkscape"
   version="1.1"
   id="Layer_1"
   x="0px"
   y="0px"
   viewBox="0 0 595.28 841.89"
   style="enable-background:new 0 0 595.28 841.89;"
   xml:space="preserve"
   inkscape:version="0.48.4 r9939"
   width="100%"
   height="100%"
   sodipodi:docname="Phone.svg"><metadata
     id="metadata203"><rdf:RDF><cc:Work
         rdf:about=""><dc:format>image/svg+xml</dc:format><dc:type
           rdf:resource="http://purl.org/dc/dcmitype/StillImage" /></cc:Work></rdf:RDF></metadata><defs
     id="defs201" /><sodipodi:namedview
     pagecolor="#ffffff"
     bordercolor="#666666"
     borderopacity="1"
     objecttolerance="10"
     gridtolerance="10"
     guidetolerance="10"
     inkscape:pageopacity="0"
     inkscape:pageshadow="2"
     inkscape:window-width="919"
     inkscape:window-height="776"
     id="namedview199"
     showgrid="false"
     inkscape:zoom="25.37182"
     inkscape:cx="242.09878"
     inkscape:cy="455.62915"
     inkscape:window-x="237"
     inkscape:window-y="230"
     inkscape:window-maximized="0"
     inkscape:current-layer="Layer_1" /><g
     id="g3"><linearGradient
       id="SVGID_1_"
       gradientUnits="userSpaceOnUse"
       x1="297.405"
       y1="324.4347"
       x2="297.405"
       y2="518.2007"><stop
         offset="0"
         style="stop-color:#FFFFFF;stop-opacity:0.7"
         id="stop6" /><stop
         offset="0.9987"
         style="stop-color:#D8D9D8;stop-opacity:0.7"
         id="stop8" /></linearGradient><path
       style="fill-rule:evenodd;clip-rule:evenodd;fill:url(#SVGID_1_);"
       d="M209.185,518.68c-5.031,0-9.124-4.093-9.124-9.123   v-176.44c0-5.031,4.093-9.124,9.124-9.124h176.44c5.031,0,9.124,4.093,9.124,9.124v176.44c0,5.03-4.093,9.123-9.124,9.123H209.185z   "
       id="path10" /><path
       style="fill:#D8D8D7;"
       d="M385.625,324.492c4.755,0,8.624,3.868,8.624,8.624v176.441c0,4.755-3.868,8.623-8.624,8.623H209.185   c-4.755,0-8.624-3.868-8.624-8.623V333.116c0-4.755,3.868-8.624,8.624-8.624H385.625 M385.625,323.492H209.185   c-5.315,0-9.624,4.309-9.624,9.624v176.441c0,5.315,4.309,9.623,9.624,9.623h176.441c5.315,0,9.624-4.308,9.624-9.623V333.116   C395.249,327.801,390.94,323.492,385.625,323.492L385.625,323.492z"
       id="path12" /></g><g
     id="g14"><linearGradient
       id="SVGID_2_"
       gradientUnits="userSpaceOnUse"
       x1="297.5188"
       y1="379.469"
       x2="297.5188"
       y2="476.5372"><stop
         offset="0"
         style="stop-color:#2D8F57"
         id="stop17" /><stop
         offset="1"
         style="stop-color:#247746"
         id="stop19" /></linearGradient><path
       style="fill-rule:evenodd;clip-rule:evenodd;fill:url(#SVGID_2_);"
       d="M323.719,412.993v-18.74h-52.319v18.74h-30.538V392.51   l0.011-0.25v-1.15c0-7.968,4.717-11.841,14.421-11.841h84.879c9.554,0,14.003,4.035,14.003,12.698v2.287h-0.103v18.74H323.719z"
       id="path21" /><path
       style="fill:#247746;"
       d="M340.172,379.518c9.383,0,13.753,3.956,13.753,12.448v2.037h-0.102v0.5v18.24h-29.855v-18.24v-0.5   h-0.5h-51.82h-0.5v0.5v18.24h-30.038V392.76h0.012v-0.5v-1.15c0-7.799,4.635-11.591,14.171-11.591H340.172 M340.172,379.018   c-21.886,0-63.476,0-84.878,0c-10.194,0-14.671,4.359-14.671,12.091c0,0.439,0,0.816,0,1.15h-0.012v20.984h31.038v-18.74h51.82   v18.74h30.855v-18.74h0.102c0,0,0-1.02,0-2.537C354.426,384.395,351.11,379.018,340.172,379.018L340.172,379.018z"
       id="path23" /></g><g
     id="g25"><g
       id="g27"><path
         style="fill-rule:evenodd;clip-rule:evenodd;fill:#96BAA4;"
         d="M240.623,392.26h-0.012v1h0.012    C240.623,392.966,240.623,392.632,240.623,392.26z"
         id="path29" /></g><g
       id="g31"><path
         style="fill:#1e6035;fill-rule:evenodd"
         d="m 340.172,379.018 c -21.886,0 -63.476,0 -84.878,0 -10.56705,0.0408 -15.02572,4.86892 -14.671,13.091 0,-7.732 4.477,-11.901 14.671,-11.901 21.403,0 62.993,-2.1e-4 84.878,0 9.26381,0.32125 14.05593,7.72823 14.253,11.759 10e-4,-7.572 -3.315,-12.949 -14.253,-12.949 z"
         id="path33"
         inkscape:connector-curvature="0"
         sodipodi:nodetypes="sccsccs" /></g></g><g
     id="g35"><linearGradient
       id="SVGID_3_"
       gradientUnits="userSpaceOnUse"
       x1="297.4675"
       y1="379.5919"
       x2="297.4675"
       y2="477.477"><stop
         offset="0"
         style="stop-color:#2D8F57"
         id="stop38" /><stop
         offset="1"
         style="stop-color:#247746"
         id="stop40" /></linearGradient><path
       style="fill-rule:evenodd;clip-rule:evenodd;fill:url(#SVGID_3_);"
       d="M240.862,477.046   c0.036-21.582,4.705-41.18,13.878-58.254h21.99v-20.309h11.143v10.237h19.348v-10.237h11.473v20.309h21.113   c6.505,12.096,14.218,31.972,14.267,58.254H240.862z"
       id="path42" /><path
       style="fill:#247746;"
       d="M318.443,398.734v19.808v0.5h0.5h20.714c6.456,12.045,14.069,31.742,14.165,57.754h-112.71   c0.071-21.386,4.706-40.813,13.777-57.754h21.59h0.5v-0.5v-19.808h10.643v9.737v0.5h0.5h18.848h0.5v-0.5v-9.737H318.443    M318.943,398.234h-11.972v10.237h-18.848v-10.237H276.48v20.308c0,0-11.825,0-21.889,0c-7.057,13.092-13.979,32.586-13.979,58.754   c43.235,0,77.889,0,113.712,0c0-25.693-7.176-45.427-14.367-58.754c-9.858,0-21.013,0-21.013,0V398.234L318.943,398.234z"
       id="path44" /></g><g
     id="g46"><path
       style="fill-rule:evenodd;clip-rule:evenodd;fill:#1E6035;"
       d="M272.181,429.65h13.338v7.738h-13.338V429.65z"
       id="path48" /></g><g
     id="g50"><path
       style="fill-rule:evenodd;clip-rule:evenodd;fill:#1E6035;"
       d="M290.07,429.65h13.338v7.738H290.07V429.65z"
       id="path52" /></g><g
     id="g54"><path
       style="fill-rule:evenodd;clip-rule:evenodd;fill:#1E6035;"
       d="M307.959,429.65h13.338v7.738h-13.338V429.65z"
       id="path56" /></g><g
     id="g58"><path
       style="fill-rule:evenodd;clip-rule:evenodd;fill:#1E6035;"
       d="M272.181,441.099h13.338v7.738h-13.338V441.099z"
       id="path60" /></g><g
     id="g62"><path
       style="fill-rule:evenodd;clip-rule:evenodd;fill:#1E6035;"
       d="M290.07,441.099h13.338v7.738H290.07V441.099z"
       id="path64" /></g><g
     id="g66"><path
       style="fill-rule:evenodd;clip-rule:evenodd;fill:#1E6035;"
       d="M307.959,441.099h13.338v7.738h-13.338V441.099z"
       id="path68" /></g><g
     id="g70"><path
       style="fill-rule:evenodd;clip-rule:evenodd;fill:#1E6035;"
       d="M272.181,452.548h13.338v7.738h-13.338V452.548z"
       id="path72" /></g><g
     id="g74"><path
       style="fill-rule:evenodd;clip-rule:evenodd;fill:#1E6035;"
       d="M290.07,452.548h13.338v7.738H290.07V452.548z"
       id="path76" /></g><g
     id="g78"><path
       style="fill-rule:evenodd;clip-rule:evenodd;fill:#1E6035;"
       d="M307.959,452.548h13.338v7.738h-13.338V452.548z"
       id="path80" /></g><g
     id="g82"><linearGradient
       id="SVGID_4_"
       gradientUnits="userSpaceOnUse"
       x1="278.8501"
       y1="429.478"
       x2="278.8501"
       y2="455.6327"><stop
         offset="0"
         style="stop-color:#ADCBB8"
         id="stop85" /><stop
         offset="1"
         style="stop-color:#96BAA4"
         id="stop87" /></linearGradient><rect
       x="272.681"
       y="429.15"
       style="fill-rule:evenodd;clip-rule:evenodd;fill:url(#SVGID_4_);"
       width="12.338"
       height="6.738"
       id="rect89" /><path
       style="fill:#C3DCCB;"
       d="M284.519,429.65v5.738h-11.338v-5.738H284.519 M285.519,428.65h-13.338v7.738h13.338V428.65   L285.519,428.65z"
       id="path91" /></g><g
     id="g93"><linearGradient
       id="SVGID_5_"
       gradientUnits="userSpaceOnUse"
       x1="296.7393"
       y1="429.478"
       x2="296.7393"
       y2="455.6327"><stop
         offset="0"
         style="stop-color:#ADCBB8"
         id="stop96" /><stop
         offset="1"
         style="stop-color:#96BAA4"
         id="stop98" /></linearGradient><rect
       x="290.57"
       y="429.15"
       style="fill-rule:evenodd;clip-rule:evenodd;fill:url(#SVGID_5_);"
       width="12.338"
       height="6.738"
       id="rect100" /><path
       style="fill:#C3DCCB;"
       d="M302.408,429.65v5.738H291.07v-5.738H302.408 M303.408,428.65H290.07v7.738h13.338V428.65   L303.408,428.65z"
       id="path102" /></g><g
     id="g104"><linearGradient
       id="SVGID_6_"
       gradientUnits="userSpaceOnUse"
       x1="314.6279"
       y1="429.478"
       x2="314.6279"
       y2="455.6327"><stop
         offset="0"
         style="stop-color:#ADCBB8"
         id="stop107" /><stop
         offset="1"
         style="stop-color:#96BAA4"
         id="stop109" /></linearGradient><rect
       x="308.459"
       y="429.15"
       style="fill-rule:evenodd;clip-rule:evenodd;fill:url(#SVGID_6_);"
       width="12.338"
       height="6.738"
       id="rect111" /><path
       style="fill:#C3DCCB;"
       d="M320.297,429.65v5.738h-11.338v-5.738H320.297 M321.297,428.65h-13.338v7.738h13.338V428.65   L321.297,428.65z"
       id="path113" /></g><g
     id="g115"><linearGradient
       id="SVGID_7_"
       gradientUnits="userSpaceOnUse"
       x1="278.8501"
       y1="430.9579"
       x2="278.8501"
       y2="457.1122"><stop
         offset="0"
         style="stop-color:#ADCBB8"
         id="stop118" /><stop
         offset="1"
         style="stop-color:#96BAA4"
         id="stop120" /></linearGradient><rect
       x="272.681"
       y="440.6"
       style="fill-rule:evenodd;clip-rule:evenodd;fill:url(#SVGID_7_);"
       width="12.338"
       height="6.738"
       id="rect122" /><path
       style="fill:#C3DCCB;"
       d="M284.519,441.099v5.738h-11.338v-5.738H284.519 M285.519,440.099h-13.338v7.738h13.338V440.099   L285.519,440.099z"
       id="path124" /></g><g
     id="g126"><linearGradient
       id="SVGID_8_"
       gradientUnits="userSpaceOnUse"
       x1="296.7393"
       y1="430.9579"
       x2="296.7393"
       y2="457.1122"><stop
         offset="0"
         style="stop-color:#ADCBB8"
         id="stop129" /><stop
         offset="1"
         style="stop-color:#96BAA4"
         id="stop131" /></linearGradient><rect
       x="290.57"
       y="440.6"
       style="fill-rule:evenodd;clip-rule:evenodd;fill:url(#SVGID_8_);"
       width="12.338"
       height="6.738"
       id="rect133" /><path
       style="fill:#C3DCCB;"
       d="M302.408,441.099v5.738H291.07v-5.738H302.408 M303.408,440.099H290.07v7.738h13.338V440.099   L303.408,440.099z"
       id="path135" /></g><g
     id="g137"><linearGradient
       id="SVGID_9_"
       gradientUnits="userSpaceOnUse"
       x1="314.6279"
       y1="430.9579"
       x2="314.6279"
       y2="457.1122"><stop
         offset="0"
         style="stop-color:#ADCBB8"
         id="stop140" /><stop
         offset="1"
         style="stop-color:#96BAA4"
         id="stop142" /></linearGradient><rect
       x="308.459"
       y="440.6"
       style="fill-rule:evenodd;clip-rule:evenodd;fill:url(#SVGID_9_);"
       width="12.338"
       height="6.738"
       id="rect144" /><path
       style="fill:#C3DCCB;"
       d="M320.297,441.099v5.738h-11.338v-5.738H320.297 M321.297,440.099h-13.338v7.738h13.338V440.099   L321.297,440.099z"
       id="path146" /></g><g
     id="g148"><linearGradient
       id="SVGID_10_"
       gradientUnits="userSpaceOnUse"
       x1="278.8501"
       y1="432.4336"
       x2="278.8501"
       y2="458.5921"><stop
         offset="0"
         style="stop-color:#ADCBB8"
         id="stop151" /><stop
         offset="1"
         style="stop-color:#96BAA4"
         id="stop153" /></linearGradient><rect
       x="272.681"
       y="452.048"
       style="fill-rule:evenodd;clip-rule:evenodd;fill:url(#SVGID_10_);"
       width="12.338"
       height="6.739"
       id="rect155" /><path
       style="fill:#C3DCCB;"
       d="M284.519,452.548v5.738h-11.338v-5.738H284.519 M285.519,451.548h-13.338v7.738h13.338V451.548   L285.519,451.548z"
       id="path157" /></g><g
     id="g159"><linearGradient
       id="SVGID_11_"
       gradientUnits="userSpaceOnUse"
       x1="296.7393"
       y1="432.4336"
       x2="296.7393"
       y2="458.5921"><stop
         offset="0"
         style="stop-color:#ADCBB8"
         id="stop162" /><stop
         offset="1"
         style="stop-color:#96BAA4"
         id="stop164" /></linearGradient><rect
       x="290.57"
       y="452.048"
       style="fill-rule:evenodd;clip-rule:evenodd;fill:url(#SVGID_11_);"
       width="12.338"
       height="6.739"
       id="rect166" /><path
       style="fill:#C3DCCB;"
       d="M302.408,452.548v5.738H291.07v-5.738H302.408 M303.408,451.548H290.07v7.738h13.338V451.548   L303.408,451.548z"
       id="path168" /></g><g
     id="g170"><linearGradient
       id="SVGID_12_"
       gradientUnits="userSpaceOnUse"
       x1="314.6279"
       y1="432.4336"
       x2="314.6279"
       y2="458.5921"><stop
         offset="0"
         style="stop-color:#ADCBB8"
         id="stop173" /><stop
         offset="1"
         style="stop-color:#96BAA4"
         id="stop175" /></linearGradient><rect
       x="308.459"
       y="452.048"
       style="fill-rule:evenodd;clip-rule:evenodd;fill:url(#SVGID_12_);"
       width="12.338"
       height="6.739"
       id="rect177" /><path
       style="fill:#C3DCCB;"
       d="M320.297,452.548v5.738h-11.338v-5.738H320.297 M321.297,451.548h-13.338v7.738h13.338V451.548   L321.297,451.548z"
       id="path179" /></g><rect
     x="240.612"
     y="477.296"
     style="fill-rule:evenodd;clip-rule:evenodd;fill:#E1DFE2;"
     width="113.712"
     height="1.527"
     id="rect181" /><rect
     x="240.612"
     y="412.728"
     style="fill-rule:evenodd;clip-rule:evenodd;fill:#E1DFE2;"
     width="31.038"
     height="1.166"
     id="rect183" /><rect
     x="271.129"
     y="394.01"
     style="fill-rule:evenodd;clip-rule:evenodd;fill:#E1DFE2;"
     width="52.828"
     height="1.166"
     id="rect185" /><rect
     x="276.48"
     y="398.234"
     style="fill-rule:evenodd;clip-rule:evenodd;fill:#1E6035;"
     width="11.643"
     height="1.166"
     id="rect187" /><polygon
     style="fill-rule:evenodd;clip-rule:evenodd;fill:#1E6035;"
     points="277.05,419.708 254.005,419.708 254.591,418.542   277.05,418.542 "
     id="polygon189" /><rect
     x="306.971"
     y="398.234"
     style="fill-rule:evenodd;clip-rule:evenodd;fill:#1E6035;"
     width="11.972"
     height="1.166"
     id="rect191" /><polygon
     style="fill-rule:evenodd;clip-rule:evenodd;fill:#1E6035;"
     points="340.577,419.708 318.43,419.708 318.43,418.542   339.956,418.542 "
     id="polygon193" /><rect
     x="287.614"
     y="408.47"
     style="fill-rule:evenodd;clip-rule:evenodd;fill:#1E6035;"
     width="19.859"
     height="1.166"
     id="rect195" /><rect
     x="323.469"
     y="412.626"
     style="fill-rule:evenodd;clip-rule:evenodd;fill:#E1DFE2;"
     width="30.855"
     height="1.166"
     id="rect197" /></svg>