<?xml version="1.0" encoding="UTF-8" standalone="no"?>
<!-- Generator: Adobe Illustrator 13.0.2, SVG Export Plug-In . SVG Version: 6.00 Build 14948)  -->

<svg
   xmlns:dc="http://purl.org/dc/elements/1.1/"
   xmlns:cc="http://creativecommons.org/ns#"
   xmlns:rdf="http://www.w3.org/1999/02/22-rdf-syntax-ns#"
   xmlns:svg="http://www.w3.org/2000/svg"
   xmlns="http://www.w3.org/2000/svg"
   xmlns:xlink="http://www.w3.org/1999/xlink"
   xmlns:sodipodi="http://sodipodi.sourceforge.net/DTD/sodipodi-0.dtd"
   xmlns:inkscape="http://www.inkscape.org/namespaces/inkscape"
   version="1.1"
   id="Layer_1"
   x="0px"
   y="0px"
   width="333.33px"
   height="287.889px"
   viewBox="0 0 333.33 287.889"
   style="enable-background:new 0 0 333.33 287.889;"
   xml:space="preserve"
   inkscape:version="0.47pre4 r22446"
   sodipodi:docname="scales_of_justice.svg"><title
   id="title6008">Scales of Justice (glossy)</title><metadata
   id="metadata3438"><rdf:RDF><cc:Work
       rdf:about=""><dc:format>image/svg+xml</dc:format><dc:type
         rdf:resource="http://purl.org/dc/dcmitype/StillImage" /><dc:title>Scales of Justice (glossy)</dc:title></cc:Work></rdf:RDF></metadata><defs
   id="defs3436"><linearGradient
     id="linearGradient6224"><stop
       style="stop-color:#000000;stop-opacity:0.50196081;"
       offset="0"
       id="stop6226" /><stop
       style="stop-color:#000000;stop-opacity:0;"
       offset="1"
       id="stop6228" /></linearGradient><linearGradient
     id="linearGradient6153"><stop
       style="stop-color:#ffffff;stop-opacity:1;"
       offset="0"
       id="stop6155" /><stop
       style="stop-color:#ffffff;stop-opacity:0;"
       offset="1"
       id="stop6157" /></linearGradient><linearGradient
     id="linearGradient6125"><stop
       style="stop-color:#ffffff;stop-opacity:0.65098041;"
       offset="0"
       id="stop6127" /><stop
       style="stop-color:#ffffff;stop-opacity:0;"
       offset="1"
       id="stop6129" /></linearGradient><linearGradient
     id="linearGradient6094"><stop
       style="stop-color:#ffffff;stop-opacity:0.65098041;"
       offset="0"
       id="stop6096" /><stop
       style="stop-color:#ffffff;stop-opacity:0;"
       offset="1"
       id="stop6098" /></linearGradient><linearGradient
     id="linearGradient6052"><stop
       style="stop-color:#000000;stop-opacity:0.1254902;"
       offset="0"
       id="stop6054" /><stop
       style="stop-color:#000000;stop-opacity:0;"
       offset="1"
       id="stop6056" /></linearGradient><linearGradient
     id="linearGradient5872"><stop
       style="stop-color:#ffffff;stop-opacity:0.65098041;"
       offset="0"
       id="stop5874" /><stop
       style="stop-color:#ffffff;stop-opacity:0;"
       offset="1"
       id="stop5876" /></linearGradient><linearGradient
     id="linearGradient5027"><stop
       style="stop-color:#0080ff;stop-opacity:1;"
       offset="0"
       id="stop5029" /><stop
       style="stop-color:#ff80ff;stop-opacity:1;"
       offset="1"
       id="stop5031" /></linearGradient><inkscape:perspective
     sodipodi:type="inkscape:persp3d"
     inkscape:vp_x="0 : 143.9445 : 1"
     inkscape:vp_y="0 : 1000 : 0"
     inkscape:vp_z="333.32999 : 143.9445 : 1"
     inkscape:persp3d-origin="166.66499 : 95.963003 : 1"
     id="perspective3440" /><linearGradient
     inkscape:collect="always"
     xlink:href="#linearGradient5027"
     id="linearGradient5033"
     x1="0"
     y1="143.9445"
     x2="333.33"
     y2="143.9445"
     gradientUnits="userSpaceOnUse" /><linearGradient
     inkscape:collect="always"
     xlink:href="#linearGradient5872"
     id="linearGradient5878"
     x1="276.89951"
     y1="211.65855"
     x2="276.89951"
     y2="191.34605"
     gradientUnits="userSpaceOnUse"
     gradientTransform="matrix(0.567,0,0,0.567,120.06374,89.725373)" /><linearGradient
     inkscape:collect="always"
     xlink:href="#linearGradient5872"
     id="linearGradient5898"
     x1="-316.05975"
     y1="-13.579942"
     x2="-310.06732"
     y2="-8.9411602"
     gradientUnits="userSpaceOnUse" /><linearGradient
     inkscape:collect="always"
     xlink:href="#linearGradient5872"
     id="linearGradient5910"
     x1="-304.56076"
     y1="-4.9814372"
     x2="-308.88406"
     y2="-8.2401791"
     gradientUnits="userSpaceOnUse" /><linearGradient
     inkscape:collect="always"
     xlink:href="#linearGradient5872"
     id="linearGradient5932"
     gradientUnits="userSpaceOnUse"
     gradientTransform="matrix(0.567,0,0,0.567,-101.9678,34.924596)"
     x1="276.89951"
     y1="211.65855"
     x2="276.89951"
     y2="191.34605" />><linearGradient
     inkscape:collect="always"
     xlink:href="#linearGradient5872-4"
     id="linearGradient5910-9"
     x1="-304.56076"
     y1="-4.9814372"
     x2="-308.88406"
     y2="-8.2401791"
     gradientUnits="userSpaceOnUse" /><linearGradient
     id="linearGradient5872-4"><stop
       style="stop-color:#ffffff;stop-opacity:0.65098041;"
       offset="0"
       id="stop5874-9" /><stop
       style="stop-color:#ffffff;stop-opacity:0;"
       offset="1"
       id="stop5876-8" /></linearGradient><linearGradient
     id="linearGradient5951"><stop
       style="stop-color:#ffffff;stop-opacity:0.65098041;"
       offset="0"
       id="stop5953" /><stop
       style="stop-color:#ffffff;stop-opacity:0;"
       offset="1"
       id="stop5955" /></linearGradient><linearGradient
     inkscape:collect="always"
     xlink:href="#linearGradient5872-4"
     id="linearGradient5994"
     gradientUnits="userSpaceOnUse"
     x1="-304.56076"
     y1="-4.9814372"
     x2="-308.88406"
     y2="-8.2401791" /><linearGradient
     inkscape:collect="always"
     xlink:href="#linearGradient5872-4"
     id="linearGradient5996"
     gradientUnits="userSpaceOnUse"
     x1="-316.05975"
     y1="-13.579942"
     x2="-310.06732"
     y2="-8.9411602" /><linearGradient
     inkscape:collect="always"
     xlink:href="#linearGradient5872-4"
     id="linearGradient6004"
     gradientUnits="userSpaceOnUse"
     x1="-304.56076"
     y1="-4.9814372"
     x2="-308.88406"
     y2="-8.2401791" /><linearGradient
     inkscape:collect="always"
     xlink:href="#linearGradient5872-4"
     id="linearGradient6006"
     gradientUnits="userSpaceOnUse"
     x1="-316.05975"
     y1="-13.579942"
     x2="-310.06732"
     y2="-8.9411602" /><linearGradient
     inkscape:collect="always"
     xlink:href="#linearGradient6094"
     id="linearGradient6100"
     x1="170.07797"
     y1="288.32227"
     x2="85.445312"
     y2="287.89062"
     gradientUnits="userSpaceOnUse"
     gradientTransform="matrix(0.54209947,0,0,0.6327275,46.903628,105.73509)" /><linearGradient
     inkscape:collect="always"
     xlink:href="#linearGradient6125"
     id="linearGradient6131"
     x1="120.77446"
     y1="265.39737"
     x2="124.80976"
     y2="274.58978"
     gradientUnits="userSpaceOnUse" /><linearGradient
     inkscape:collect="always"
     xlink:href="#linearGradient6125"
     id="linearGradient6163"
     gradientUnits="userSpaceOnUse"
     x1="1.0606594"
     y1="243.51805"
     x2="47.72971"
     y2="243.51805" /><linearGradient
     inkscape:collect="always"
     xlink:href="#linearGradient6125"
     id="linearGradient6166"
     gradientUnits="userSpaceOnUse"
     x1="-14.205617"
     y1="243.46382"
     x2="47.72971"
     y2="243.51805" /><linearGradient
     inkscape:collect="always"
     xlink:href="#linearGradient6224"
     id="linearGradient6230"
     x1="275.28125"
     y1="127.48043"
     x2="318.625"
     y2="127.48043"
     gradientUnits="userSpaceOnUse" /><linearGradient
     inkscape:collect="always"
     xlink:href="#linearGradient6224"
     id="linearGradient6238"
     x1="274.58597"
     y1="62.433605"
     x2="274.80472"
     y2="190.43361"
     gradientUnits="userSpaceOnUse" /><linearGradient
     inkscape:collect="always"
     xlink:href="#linearGradient6224"
     id="linearGradient6246"
     x1="59.086765"
     y1="73.508347"
     x2="102.43054"
     y2="73.508347"
     gradientUnits="userSpaceOnUse" /><linearGradient
     inkscape:collect="always"
     xlink:href="#linearGradient6224"
     id="linearGradient6254"
     x1="15.868017"
     y1="9.7691469"
     x2="15.95325"
     y2="137.40193"
     gradientUnits="userSpaceOnUse"
     spreadMethod="pad" /></defs><sodipodi:namedview
   pagecolor="#ffffff"
   bordercolor="#666666"
   borderopacity="1"
   objecttolerance="10"
   gridtolerance="10"
   guidetolerance="10"
   inkscape:pageopacity="0"
   inkscape:pageshadow="2"
   inkscape:window-width="1856"
   inkscape:window-height="1224"
   id="namedview3434"
   showgrid="false"
   inkscape:zoom="0.5"
   inkscape:cx="-350.41668"
   inkscape:cy="545.03442"
   inkscape:window-x="0"
   inkscape:window-y="62"
   inkscape:window-maximized="0"
   inkscape:current-layer="g3426"
   inkscape:snap-global="false" />
<g
   id="g3426">
	<path
   d="M318.627,191.345l-42.85-127.627l6.892,1.386c-0.563,2.401,0.902,4.816,3.304,5.41c2.419,0.599,4.869-0.877,5.47-3.298   c0.602-2.42-0.878-4.868-3.301-5.469c-2.095-0.518-4.205,0.523-5.125,2.384L224.86,46.983l-54.361-16.029l-0.509-9.298   c5.801-0.21,10.444-4.966,10.444-10.818C180.435,4.853,175.579,0,169.594,0c-5.985,0-10.837,4.853-10.837,10.838   c0,5.288,3.79,9.686,8.8,10.64l-0.477,8.708L113.2,19.348L52.658,7.169c0.08-2.094-1.315-4.028-3.429-4.552   c-2.419-0.599-4.867,0.879-5.466,3.299c-0.599,2.421,0.877,4.869,3.297,5.468c2.418,0.598,4.865-0.876,5.468-3.292l5.889,1.736   L15.88,136.983H0c0,0,9.255,20.324,58.069,20.324s54.804-20.324,54.804-20.324h-10.446L59.885,10.262l51.784,15.269l54.78,16.151   L154.691,256.5c0,0,0.461,9.693-14.772,12.002c-15.234,2.308-34.621,3.229-43.853,8.309c-9.233,5.078-10.617,11.078-10.617,11.078   h80.318h6.001h80.319c0,0-1.386-6-10.615-11.078c-9.234-5.079-28.621-6.001-43.854-8.309   c-15.233-2.309-14.772-12.002-14.772-12.002L171.142,42.667l52.188,10.499l51.506,10.362l-42.755,127.817h-11.623   c0,0,9.255,20.324,58.068,20.324s54.804-20.324,54.804-20.324H318.627z M98.932,136.983H19.374l39.709-118.71L98.932,136.983z    M235.574,191.345l39.708-118.709l39.85,118.709H235.574z"
   id="path3432"
   style="stroke:none;stroke-opacity:1;fill:url(#linearGradient5033);fill-opacity:1" />
<path
   style="fill:url(#linearGradient5878);fill-opacity:1;stroke:none"
   d="m 239.08959,198.21858 c 0,0 11.23829,11.51719 38.91526,11.51719 27.677,0 39.79299,-11.51719 39.79299,-11.51719 l -17.05983,0 -1.9845,0 -45.11193,0 -1.9845,0 -12.56749,0 z"
   id="path5790"
   sodipodi:nodetypes="cscccccc" /><path
   style="fill:url(#linearGradient6131);fill-opacity:1;stroke:none"
   d="m 97.074723,287.88879 c 0.72253,-0.60654 1.22942,-1.11704 2.15625,-1.78125 1.868237,-1.33887 4.123827,-2.73463 6.718747,-3.875 1.29745,-0.57019 2.67182,-1.08793 4.125,-1.5 1.45318,-0.41207 3.00213,-0.72463 4.59375,-0.90625 5.41421,-1.0272 13.33953,-2.05905 20.53125,-3.59375 3.59586,-0.76735 6.99576,-1.65263 9.8125,-2.71875 1.40837,-0.53306 2.6581,-1.12076 3.71875,-1.75 1.06065,-0.62924 1.95153,-1.32275 2.5625,-2.0625 0.82116,-1.34743 1.46685,-2.63245 2,-3.90625 0.53315,-1.2738 0.94693,-2.5325 1.25,-3.75 0.60613,-2.435 0.81037,-4.77995 0.84375,-7.09375 0.0334,-2.3138 -0.11158,-4.57498 -0.1875,-6.90625 -0.0131,-0.40367 0.0395,-0.84336 0.0312,-1.25 l -0.53125,9.71875 c 0,0 0.0754,3.35907 -2.90625,6.59375 -2.08176,2.25844 -5.6121,4.45693 -11.875,5.40625 -0.30507,0.0462 -0.66047,0.0798 -0.96875,0.125 -15.08595,2.20966 -33.82789,3.20923 -42.874997,8.1875 -9.232998,5.078 -10.624998,11.0625 -10.624998,11.0625 l 11.624998,0 z"
   id="path6123" /><path
   transform="matrix(1.5787782,0,0,1.5787782,660.11162,24.930033)"
   d="m -303.83496,-8.9411602 a 6.8721938,6.8721938 0 1 1 -13.74439,0 6.8721938,6.8721938 0 1 1 13.74439,0 z"
   sodipodi:ry="6.8721938"
   sodipodi:rx="6.8721938"
   sodipodi:cy="-8.9411602"
   sodipodi:cx="-310.70715"
   id="path5890"
   style="fill:url(#linearGradient5910);fill-opacity:1;stroke:none"
   sodipodi:type="arc" /><path
   sodipodi:type="arc"
   style="fill:url(#linearGradient5898);fill-opacity:1;stroke:none"
   id="path5888"
   sodipodi:cx="-310.70715"
   sodipodi:cy="-8.9411602"
   sodipodi:rx="6.8721938"
   sodipodi:ry="6.8721938"
   d="m -303.83496,-8.9411602 a 6.8721938,6.8721938 0 1 1 -13.74439,0 6.8721938,6.8721938 0 1 1 13.74439,0 z"
   transform="matrix(1.1051447,0,0,1.1051447,511.46428,18.837408)" /><path
   sodipodi:nodetypes="cscccccc"
   id="path5930"
   d="m 17.058053,143.41781 c 0,0 11.23829,11.51719 38.91526,11.51719 27.677,0 39.79299,-11.51719 39.79299,-11.51719 l -17.05983,0 -1.9845,0 -45.11193,0 -1.9845,0 -12.56749,0 z"
   style="fill:url(#linearGradient5932);fill-opacity:1;stroke:none" /><g
   id="g5990"
   transform="matrix(0.41895,0,0,0.41895,-14.1572,-7.9624555)"><path
     sodipodi:type="arc"
     style="fill:url(#linearGradient5994);fill-opacity:1;stroke:none"
     id="path5890-6"
     sodipodi:cx="-310.70715"
     sodipodi:cy="-8.9411602"
     sodipodi:rx="6.8721938"
     sodipodi:ry="6.8721938"
     d="m -303.83496,-8.9411602 c 0,3.7954078 -3.07679,6.8721938 -6.87219,6.8721938 -3.79541,0 -6.8722,-3.076786 -6.8722,-6.8721938 0,-3.7954078 3.07679,-6.8721938 6.8722,-6.8721938 3.7954,0 6.87219,3.076786 6.87219,6.8721938 z"
     transform="matrix(1.5787782,0,0,1.5787782,639.28769,49.755109)" /><path
     transform="matrix(1.1051447,0,0,1.1051447,490.64035,43.662484)"
     d="m -303.83496,-8.9411602 c 0,3.7954078 -3.07679,6.8721938 -6.87219,6.8721938 -3.79541,0 -6.8722,-3.076786 -6.8722,-6.8721938 0,-3.7954078 3.07679,-6.8721938 6.8722,-6.8721938 3.7954,0 6.87219,3.076786 6.87219,6.8721938 z"
     sodipodi:ry="6.8721938"
     sodipodi:rx="6.8721938"
     sodipodi:cy="-8.9411602"
     sodipodi:cx="-310.70715"
     id="path5888-3"
     style="fill:url(#linearGradient5996);fill-opacity:1;stroke:none"
     sodipodi:type="arc" /></g><g
   transform="matrix(0.41895,0,0,0.41895,224.75299,51.155106)"
   id="g5998"><path
     transform="matrix(1.5787782,0,0,1.5787782,639.28769,49.755109)"
     d="m -303.83496,-8.9411602 c 0,3.7954078 -3.07679,6.8721938 -6.87219,6.8721938 -3.79541,0 -6.8722,-3.076786 -6.8722,-6.8721938 0,-3.7954078 3.07679,-6.8721938 6.8722,-6.8721938 3.7954,0 6.87219,3.076786 6.87219,6.8721938 z"
     sodipodi:ry="6.8721938"
     sodipodi:rx="6.8721938"
     sodipodi:cy="-8.9411602"
     sodipodi:cx="-310.70715"
     id="path6000"
     style="fill:url(#linearGradient6004);fill-opacity:1;stroke:none"
     sodipodi:type="arc" /><path
     sodipodi:type="arc"
     style="fill:url(#linearGradient6006);fill-opacity:1;stroke:none"
     id="path6002"
     sodipodi:cx="-310.70715"
     sodipodi:cy="-8.9411602"
     sodipodi:rx="6.8721938"
     sodipodi:ry="6.8721938"
     d="m -303.83496,-8.9411602 c 0,3.7954078 -3.07679,6.8721938 -6.87219,6.8721938 -3.79541,0 -6.8722,-3.076786 -6.8722,-6.8721938 0,-3.7954078 3.07679,-6.8721938 6.8722,-6.8721938 3.7954,0 6.87219,3.076786 6.87219,6.8721938 z"
     transform="matrix(1.1051447,0,0,1.1051447,490.64035,43.662484)" /></g><path
   transform="matrix(-0.10595257,0.00482478,-0.13827251,-3.0868399,209.37644,901.76352)"
   style="fill:url(#linearGradient6166);fill-opacity:1;stroke:none"
   d="m 47.729708,243.51805 c 0,19.30685 -36.907477,34.79692 -49.7947784,34.79692 -12.8873016,0 -12.4480746,-15.53466 -12.4480746,-34.84151 0,-19.30685 -19.01004,-34.92667 -6.122738,-34.92667 12.8873007,0 68.365591,15.66441 68.365591,34.97126 z"
   id="path6140"
   sodipodi:nodetypes="csssc" /><path
   transform="matrix(0.02554372,-0.10293865,2.9744668,0.73809952,-556.43585,-137.65613)"
   d="m 47.729708,243.51805 a 23.334524,34.958145 0 1 1 -46.6690486,0 23.334524,34.958145 0 1 1 46.6690486,0 z"
   sodipodi:ry="34.958145"
   sodipodi:rx="23.334524"
   sodipodi:cy="243.51805"
   sodipodi:cx="24.395184"
   id="path6161"
   style="fill:url(#linearGradient6163);fill-opacity:1;stroke:none"
   sodipodi:type="arc" /><path
   style="fill:url(#linearGradient6238);fill-opacity:1;stroke:none"
   d="m 275.30471,63.62107 -0.46875,-0.0937 -42.75,127.81248 3.5,0 39.71875,-118.71873 0,-9 z"
   id="path6202" /><path
   style="fill:url(#linearGradient6230);fill-opacity:1;stroke:none"
   d="m 275.28125,63.62107 0,9 39.84375,118.71873 3.5,0 -42.84375,-127.62498 -0.5,-0.937 z"
   id="path6192" /><path
   id="path6204"
   d="M 58.418798,9.8267009 15.868017,136.99082 l 3.5,0 39.71875,-118.718804 0,-8.246096 -0.667969,-0.1992191 z"
   style="fill:url(#linearGradient6254);fill-opacity:1;stroke:none"
   sodipodi:nodetypes="cccccc" /><path
   id="path6206"
   d="m 59.086767,18.271966 39.843757,118.718804 3.500016,0 -42.546898,-126.734432 -0.796875,-0.230418 0,8.246046 z"
   style="fill:url(#linearGradient6246);fill-opacity:1.0;stroke:none"
   sodipodi:nodetypes="cccccc" /></g>
</svg>
