<?xml version="1.0" encoding="UTF-8" standalone="no"?>
<!-- Generator: Adobe Illustrator 18.1.1, SVG Export Plug-In . SVG Version: 6.00 Build 0)  -->

<svg
   xmlns:dc="http://purl.org/dc/elements/1.1/"
   xmlns:cc="http://creativecommons.org/ns#"
   xmlns:rdf="http://www.w3.org/1999/02/22-rdf-syntax-ns#"
   xmlns:svg="http://www.w3.org/2000/svg"
   xmlns="http://www.w3.org/2000/svg"
   xmlns:sodipodi="http://sodipodi.sourceforge.net/DTD/sodipodi-0.dtd"
   xmlns:inkscape="http://www.inkscape.org/namespaces/inkscape"
   version="1.1"
   id="Layer_1"
   x="0px"
   y="0px"
   viewBox="0 0 595.28 841.89"
   style="enable-background:new 0 0 595.28 841.89;"
   xml:space="preserve"
   inkscape:version="0.48.4 r9939"
   width="100%"
   height="100%"
   sodipodi:docname="Settings.svg"><metadata
     id="metadata198"><rdf:RDF><cc:Work
         rdf:about=""><dc:format>image/svg+xml</dc:format><dc:type
           rdf:resource="http://purl.org/dc/dcmitype/StillImage" /></cc:Work></rdf:RDF></metadata><defs
     id="defs196" /><sodipodi:namedview
     pagecolor="#ffffff"
     bordercolor="#666666"
     borderopacity="1"
     objecttolerance="10"
     gridtolerance="10"
     guidetolerance="10"
     inkscape:pageopacity="0"
     inkscape:pageshadow="2"
     inkscape:window-width="1254"
     inkscape:window-height="1028"
     id="namedview194"
     showgrid="false"
     inkscape:zoom="8.970293"
     inkscape:cx="258.02123"
     inkscape:cy="438.78165"
     inkscape:window-x="65"
     inkscape:window-y="24"
     inkscape:window-maximized="0"
     inkscape:current-layer="Layer_1" /><g
     id="g3"><linearGradient
       id="SVGID_1_"
       gradientUnits="userSpaceOnUse"
       x1="297.9707"
       y1="323.8415"
       x2="297.9707"
       y2="518.8784"><stop
         offset="0"
         style="stop-color:#FFFFFF;stop-opacity:0.7"
         id="stop6" /><stop
         offset="0.9987"
         style="stop-color:#D8D9D8;stop-opacity:0.7"
         id="stop8" /></linearGradient><path
       style="fill-rule:evenodd;clip-rule:evenodd;fill:url(#SVGID_1_);"
       d="M209.538,519.703c-5.608,0-10.17-4.562-10.17-10.17   V333.146c0-5.608,4.562-10.17,10.17-10.17h176.865c5.607,0,10.17,4.562,10.17,10.17v176.387c0,5.607-4.562,10.17-10.17,10.17   H209.538z"
       id="path10" /><path
       style="fill:#D8D8D7;"
       d="M386.404,323.477c5.332,0,9.67,4.338,9.67,9.67v176.387c0,5.332-4.338,9.67-9.67,9.67H209.538   c-5.332,0-9.67-4.338-9.67-9.67V333.147c0-5.332,4.338-9.67,9.67-9.67H386.404 M386.404,322.477H209.538   c-5.893,0-10.67,4.777-10.67,10.67v176.387c0,5.893,4.777,10.67,10.67,10.67h176.865c5.893,0,10.67-4.777,10.67-10.67V333.147   C397.074,327.254,392.296,322.477,386.404,322.477L386.404,322.477z"
       id="path12" /></g><g
     id="g14"><linearGradient
       id="SVGID_2_"
       gradientUnits="userSpaceOnUse"
       x1="245.7205"
       y1="365.7155"
       x2="245.7205"
       y2="468.4608"><stop
         offset="0.0061"
         style="stop-color:#EE4748"
         id="stop17" /><stop
         offset="1"
         style="stop-color:#E33C3B"
         id="stop19" /></linearGradient><path
       style="fill-rule:evenodd;clip-rule:evenodd;fill:url(#SVGID_2_);"
       d="M235.816,397.952c-3.191,0-5.788-2.596-5.788-5.787   v-19.809c0-3.191,2.596-5.788,5.788-5.788h19.809c3.191,0,5.787,2.596,5.787,5.788v19.809c0,3.191-2.596,5.787-5.787,5.787H235.816   z"
       id="path21" /><path
       style="fill:#ce3737"
       d="m 255.625,367.069 c 2.915,0 5.287,2.372 5.287,5.287 l 0,19.809 c 0,2.915 -2.372,5.287 -5.287,5.287 l -19.809,0 c -2.915,0 -5.287,-2.372 -5.287,-5.287 l 0,-19.809 c 0,-2.915 2.372,-5.287 5.287,-5.287 l 19.809,0 m 0,-1 -19.809,0 c -3.472,0 -6.287,2.815 -6.287,6.287 l 0,19.809 c 0,3.472 2.815,6.287 6.287,6.287 l 19.809,0 c 3.472,0 6.287,-2.92648 6.287,-6.287 l 0,-19.809 c 0,-3.472 -2.815,-6.287 -6.287,-6.287 z"
       id="path23"
       inkscape:connector-curvature="0"
       sodipodi:nodetypes="csssssssccssssssscc" /></g><g
     id="g25"><linearGradient
       id="SVGID_3_"
       gradientUnits="userSpaceOnUse"
       x1="281.9429"
       y1="365.7155"
       x2="281.9429"
       y2="468.4608"><stop
         offset="0.0061"
         style="stop-color:#EE4748"
         id="stop28" /><stop
         offset="1"
         style="stop-color:#E33C3B"
         id="stop30" /></linearGradient><path
       style="fill-rule:evenodd;clip-rule:evenodd;fill:url(#SVGID_3_);"
       d="M272.039,397.952c-3.191,0-5.787-2.596-5.787-5.787   v-19.809c0-3.191,2.596-5.788,5.787-5.788h19.809c3.191,0,5.787,2.596,5.787,5.788v19.809c0,3.191-2.596,5.787-5.787,5.787H272.039   z"
       id="path32" /><path
       style="fill:#CE3737;"
       d="M291.847,367.069c2.915,0,5.287,2.372,5.287,5.287v19.809c0,2.915-2.372,5.287-5.287,5.287h-19.809   c-2.915,0-5.287-2.372-5.287-5.287v-19.809c0-2.915,2.372-5.287,5.287-5.287H291.847 M291.847,366.069h-19.809   c-3.472,0-6.287,2.815-6.287,6.287v19.809c0,3.472,2.815,6.287,6.287,6.287h19.809c3.472,0,6.287-2.815,6.287-6.287v-19.809   C298.134,368.884,295.32,366.069,291.847,366.069L291.847,366.069z"
       id="path34" /></g><g
     id="g36"><linearGradient
       id="SVGID_4_"
       gradientUnits="userSpaceOnUse"
       x1="317.7935"
       y1="365.7155"
       x2="317.7935"
       y2="468.4608"><stop
         offset="0.0061"
         style="stop-color:#EE4748"
         id="stop39" /><stop
         offset="1"
         style="stop-color:#E33C3B"
         id="stop41" /></linearGradient><path
       style="fill-rule:evenodd;clip-rule:evenodd;fill:url(#SVGID_4_);"
       d="M307.889,397.952c-3.191,0-5.787-2.596-5.787-5.787   v-19.809c0-3.191,2.596-5.788,5.787-5.788h19.809c3.191,0,5.788,2.596,5.788,5.788v19.809c0,3.191-2.597,5.787-5.788,5.787H307.889   z"
       id="path43" /><path
       style="fill:#CE3737;"
       d="M327.698,367.069c2.915,0,5.287,2.372,5.287,5.287v19.809c0,2.915-2.372,5.287-5.287,5.287h-19.809   c-2.915,0-5.287-2.372-5.287-5.287v-19.809c0-2.915,2.372-5.287,5.287-5.287H327.698 M327.698,366.069h-19.809   c-3.472,0-6.287,2.815-6.287,6.287v19.809c0,3.472,2.815,6.287,6.287,6.287h19.809c3.472,0,6.287-2.815,6.287-6.287v-19.809   C333.985,368.884,331.17,366.069,327.698,366.069L327.698,366.069z"
       id="path45" /></g><g
     id="g47"><linearGradient
       id="SVGID_5_"
       gradientUnits="userSpaceOnUse"
       x1="354.0156"
       y1="365.7155"
       x2="354.0156"
       y2="468.4608"><stop
         offset="0.0061"
         style="stop-color:#EE4748"
         id="stop50" /><stop
         offset="1"
         style="stop-color:#E33C3B"
         id="stop52" /></linearGradient><path
       style="fill-rule:evenodd;clip-rule:evenodd;fill:url(#SVGID_5_);"
       d="M344.111,397.952c-3.191,0-5.787-2.596-5.787-5.787   v-19.809c0-3.191,2.596-5.788,5.787-5.788h19.809c3.191,0,5.787,2.596,5.787,5.788v19.809c0,3.191-2.596,5.787-5.787,5.787H344.111   z"
       id="path54" /><path
       style="fill:#CE3737;"
       d="M363.92,367.069c2.915,0,5.287,2.372,5.287,5.287v19.809c0,2.915-2.372,5.287-5.287,5.287h-19.809   c-2.915,0-5.287-2.372-5.287-5.287v-19.809c0-2.915,2.372-5.287,5.287-5.287H363.92 M363.92,366.069h-19.809   c-3.472,0-6.287,2.815-6.287,6.287v19.809c0,3.472,2.815,6.287,6.287,6.287h19.809c3.472,0,6.287-2.815,6.287-6.287v-19.809   C370.207,368.884,367.392,366.069,363.92,366.069L363.92,366.069z"
       id="path56" /></g><g
     id="g58"><linearGradient
       id="SVGID_6_"
       gradientUnits="userSpaceOnUse"
       x1="245.7205"
       y1="366.8636"
       x2="245.7205"
       y2="469.6089"><stop
         offset="0.0061"
         style="stop-color:#EE4748"
         id="stop61" /><stop
         offset="1"
         style="stop-color:#E33C3B"
         id="stop63" /></linearGradient><path
       style="fill-rule:evenodd;clip-rule:evenodd;fill:url(#SVGID_6_);"
       d="M235.816,435.128c-3.191,0-5.788-2.596-5.788-5.787   v-19.809c0-3.191,2.596-5.787,5.788-5.787h19.809c3.191,0,5.787,2.596,5.787,5.787v19.809c0,3.191-2.596,5.787-5.787,5.787H235.816   z"
       id="path65" /><path
       style="fill:#CE3737;"
       d="M255.625,404.244c2.915,0,5.287,2.372,5.287,5.287v19.809c0,2.915-2.372,5.287-5.287,5.287h-19.809   c-2.915,0-5.287-2.372-5.287-5.287v-19.809c0-2.915,2.372-5.287,5.287-5.287H255.625 M255.625,403.244h-19.809   c-3.472,0-6.287,2.815-6.287,6.287v19.809c0,3.472,2.815,6.287,6.287,6.287h19.809c3.472,0,6.287-2.815,6.287-6.287v-19.809   C261.912,406.059,259.097,403.244,255.625,403.244L255.625,403.244z"
       id="path67" /></g><g
     id="g69"><linearGradient
       id="SVGID_7_"
       gradientUnits="userSpaceOnUse"
       x1="281.9429"
       y1="366.8636"
       x2="281.9429"
       y2="469.6089"><stop
         offset="0.0061"
         style="stop-color:#EE4748"
         id="stop72" /><stop
         offset="1"
         style="stop-color:#E33C3B"
         id="stop74" /></linearGradient><path
       style="fill-rule:evenodd;clip-rule:evenodd;fill:url(#SVGID_7_);"
       d="M272.039,435.128c-3.191,0-5.787-2.596-5.787-5.787   v-19.809c0-3.191,2.596-5.787,5.787-5.787h19.809c3.191,0,5.787,2.596,5.787,5.787v19.809c0,3.191-2.596,5.787-5.787,5.787H272.039   z"
       id="path76" /><path
       style="fill:#CE3737;"
       d="M291.847,404.244c2.915,0,5.287,2.372,5.287,5.287v19.809c0,2.915-2.372,5.287-5.287,5.287h-19.809   c-2.915,0-5.287-2.372-5.287-5.287v-19.809c0-2.915,2.372-5.287,5.287-5.287H291.847 M291.847,403.244h-19.809   c-3.472,0-6.287,2.815-6.287,6.287v19.809c0,3.472,2.815,6.287,6.287,6.287h19.809c3.472,0,6.287-2.815,6.287-6.287v-19.809   C298.134,406.059,295.32,403.244,291.847,403.244L291.847,403.244z"
       id="path78" /></g><g
     id="g80"><linearGradient
       id="SVGID_8_"
       gradientUnits="userSpaceOnUse"
       x1="317.7935"
       y1="366.8553"
       x2="317.7935"
       y2="469.599"><stop
         offset="0.0061"
         style="stop-color:#EE4748"
         id="stop83" /><stop
         offset="1"
         style="stop-color:#E33C3B"
         id="stop85" /></linearGradient><path
       style="fill-rule:evenodd;clip-rule:evenodd;fill:url(#SVGID_8_);"
       d="M307.889,434.837c-3.191,0-5.787-2.596-5.787-5.787   v-19.809c0-3.191,2.596-5.787,5.787-5.787h19.809c3.191,0,5.788,2.596,5.788,5.787v19.809c0,3.191-2.597,5.787-5.788,5.787H307.889   z"
       id="path87" /><path
       style="fill:#CE3737;"
       d="M327.698,403.954c2.915,0,5.287,2.372,5.287,5.287v19.809c0,2.915-2.372,5.287-5.287,5.287h-19.809   c-2.915,0-5.287-2.372-5.287-5.287v-19.809c0-2.915,2.372-5.287,5.287-5.287H327.698 M327.698,402.954h-19.809   c-3.472,0-6.287,2.815-6.287,6.287v19.809c0,3.472,2.815,6.287,6.287,6.287h19.809c3.472,0,6.287-2.815,6.287-6.287v-19.809   C333.985,405.769,331.17,402.954,327.698,402.954L327.698,402.954z"
       id="path89" /></g><g
     id="g91"><linearGradient
       id="SVGID_9_"
       gradientUnits="userSpaceOnUse"
       x1="354.0156"
       y1="366.8553"
       x2="354.0156"
       y2="469.599"><stop
         offset="0.0061"
         style="stop-color:#EE4748"
         id="stop94" /><stop
         offset="1"
         style="stop-color:#E33C3B"
         id="stop96" /></linearGradient><path
       style="fill-rule:evenodd;clip-rule:evenodd;fill:url(#SVGID_9_);"
       d="M344.111,434.837c-3.191,0-5.787-2.596-5.787-5.787   v-19.809c0-3.191,2.596-5.787,5.787-5.787h19.809c3.191,0,5.787,2.596,5.787,5.787v19.809c0,3.191-2.596,5.787-5.787,5.787H344.111   z"
       id="path98" /><path
       style="fill:#CE3737;"
       d="M363.92,403.954c2.915,0,5.287,2.372,5.287,5.287v19.809c0,2.915-2.372,5.287-5.287,5.287h-19.809   c-2.915,0-5.287-2.372-5.287-5.287v-19.809c0-2.915,2.372-5.287,5.287-5.287H363.92 M363.92,402.954h-19.809   c-3.472,0-6.287,2.815-6.287,6.287v19.809c0,3.472,2.815,6.287,6.287,6.287h19.809c3.472,0,6.287-2.815,6.287-6.287v-19.809   C370.207,405.769,367.392,402.954,363.92,402.954L363.92,402.954z"
       id="path100" /></g><g
     id="g102"><linearGradient
       id="SVGID_10_"
       gradientUnits="userSpaceOnUse"
       x1="245.7205"
       y1="367.9828"
       x2="245.7205"
       y2="470.7268"><stop
         offset="0.0061"
         style="stop-color:#EE4748"
         id="stop105" /><stop
         offset="1"
         style="stop-color:#E33C3B"
         id="stop107" /></linearGradient><path
       style="fill-rule:evenodd;clip-rule:evenodd;fill:url(#SVGID_10_);"
       d="M235.816,471.35c-3.191,0-5.788-2.596-5.788-5.787   v-19.809c0-3.191,2.596-5.787,5.788-5.787h19.809c3.191,0,5.787,2.596,5.787,5.787v19.809c0,3.191-2.596,5.787-5.787,5.787H235.816   z"
       id="path109" /><path
       style="fill:#CE3737;"
       d="M255.625,440.467c2.915,0,5.287,2.372,5.287,5.287v19.809c0,2.915-2.372,5.287-5.287,5.287h-19.809   c-2.915,0-5.287-2.372-5.287-5.287v-19.809c0-2.915,2.372-5.287,5.287-5.287H255.625 M255.625,439.467h-19.809   c-3.472,0-6.287,2.815-6.287,6.287v19.809c0,3.472,2.815,6.287,6.287,6.287h19.809c3.472,0,6.287-2.815,6.287-6.287v-19.809   C261.912,442.282,259.097,439.467,255.625,439.467L255.625,439.467z"
       id="path111" /></g><g
     id="g113"><linearGradient
       id="SVGID_11_"
       gradientUnits="userSpaceOnUse"
       x1="281.9429"
       y1="367.9828"
       x2="281.9429"
       y2="470.7268"><stop
         offset="0.0061"
         style="stop-color:#EE4748"
         id="stop116" /><stop
         offset="1"
         style="stop-color:#E33C3B"
         id="stop118" /></linearGradient><path
       style="fill-rule:evenodd;clip-rule:evenodd;fill:url(#SVGID_11_);"
       d="M272.039,471.35c-3.191,0-5.787-2.596-5.787-5.787   v-19.809c0-3.191,2.596-5.787,5.787-5.787h19.809c3.191,0,5.787,2.596,5.787,5.787v19.809c0,3.191-2.596,5.787-5.787,5.787H272.039   z"
       id="path120" /><path
       style="fill:#CE3737;"
       d="M291.847,440.467c2.915,0,5.287,2.372,5.287,5.287v19.809c0,2.915-2.372,5.287-5.287,5.287h-19.809   c-2.915,0-5.287-2.372-5.287-5.287v-19.809c0-2.915,2.372-5.287,5.287-5.287H291.847 M291.847,439.467h-19.809   c-3.472,0-6.287,2.815-6.287,6.287v19.809c0,3.472,2.815,6.287,6.287,6.287h19.809c3.472,0,6.287-2.815,6.287-6.287v-19.809   C298.134,442.282,295.32,439.467,291.847,439.467L291.847,439.467z"
       id="path122" /></g><g
     id="g124"><linearGradient
       id="SVGID_12_"
       gradientUnits="userSpaceOnUse"
       x1="317.7935"
       y1="367.9828"
       x2="317.7935"
       y2="470.7268"><stop
         offset="0.0061"
         style="stop-color:#EE4748"
         id="stop127" /><stop
         offset="1"
         style="stop-color:#E33C3B"
         id="stop129" /></linearGradient><path
       style="fill-rule:evenodd;clip-rule:evenodd;fill:url(#SVGID_12_);"
       d="M307.889,471.35c-3.191,0-5.787-2.596-5.787-5.787   v-19.809c0-3.191,2.596-5.787,5.787-5.787h19.809c3.191,0,5.788,2.596,5.788,5.787v19.809c0,3.191-2.597,5.787-5.788,5.787H307.889   z"
       id="path131" /><path
       style="fill:#CE3737;"
       d="M327.698,440.467c2.915,0,5.287,2.372,5.287,5.287v19.809c0,2.915-2.372,5.287-5.287,5.287h-19.809   c-2.915,0-5.287-2.372-5.287-5.287v-19.809c0-2.915,2.372-5.287,5.287-5.287H327.698 M327.698,439.467h-19.809   c-3.472,0-6.287,2.815-6.287,6.287v19.809c0,3.472,2.815,6.287,6.287,6.287h19.809c3.472,0,6.287-2.815,6.287-6.287v-19.809   C333.985,442.282,331.17,439.467,327.698,439.467L327.698,439.467z"
       id="path133" /></g><g
     id="g135"><linearGradient
       id="SVGID_13_"
       gradientUnits="userSpaceOnUse"
       x1="354.0156"
       y1="367.9828"
       x2="354.0156"
       y2="470.7268"><stop
         offset="0.0061"
         style="stop-color:#EE4748"
         id="stop138" /><stop
         offset="1"
         style="stop-color:#E33C3B"
         id="stop140" /></linearGradient><path
       style="fill-rule:evenodd;clip-rule:evenodd;fill:url(#SVGID_13_);"
       d="M344.111,471.35c-3.191,0-5.787-2.596-5.787-5.787   v-19.809c0-3.191,2.596-5.787,5.787-5.787h19.809c3.191,0,5.787,2.596,5.787,5.787v19.809c0,3.191-2.596,5.787-5.787,5.787H344.111   z"
       id="path142" /><path
       style="fill:#CE3737;"
       d="M363.92,440.467c2.915,0,5.287,2.372,5.287,5.287v19.809c0,2.915-2.372,5.287-5.287,5.287h-19.809   c-2.915,0-5.287-2.372-5.287-5.287v-19.809c0-2.915,2.372-5.287,5.287-5.287H363.92 M363.92,439.467h-19.809   c-3.472,0-6.287,2.815-6.287,6.287v19.809c0,3.472,2.815,6.287,6.287,6.287h19.809c3.472,0,6.287-2.815,6.287-6.287v-19.809   C370.207,442.282,367.392,439.467,363.92,439.467L363.92,439.467z"
       id="path144" /></g><path
     style="fill:#e1dfe2;fill-rule:evenodd"
     d="m 255.625,397.494 -19.809,0 c -3.472,0 -6.287,-2.815 -6.287,-6.287 l 0,1.795 c 0,3.472 2.815,6.287 6.287,6.287 l 19.809,0 c 5.26011,-0.22453 6.287,-3.99363 6.287,-8.082 0,3.472 -2.815,6.287 -6.287,6.287 z"
     id="path146"
     inkscape:connector-curvature="0"
     sodipodi:nodetypes="sscssccs" /><path
     style="fill:#e1dfe2;fill-rule:evenodd"
     d="m 291.847,397.494 -19.809,0 c -3.472,0 -6.287,-2.815 -6.287,-6.287 l 0,1.795 c 0,3.472 2.815,6.287 6.287,6.287 l 19.809,0 c 5.14863,0.10991 6.287,-3.99363 6.287,-8.082 0,3.472 -2.814,6.287 -6.287,6.287 z"
     id="path148"
     inkscape:connector-curvature="0"
     sodipodi:nodetypes="sscssccs" /><path
     style="fill-rule:evenodd;clip-rule:evenodd;fill:#E1DFE2;"
     d="M327.698,397.392h-19.809c-3.472,0-6.287-2.815-6.287-6.287  v1.795c0,3.472,2.815,6.287,6.287,6.287h19.809c3.472,0,6.287-2.815,6.287-6.287v-1.795  C333.985,394.577,331.17,397.392,327.698,397.392z"
     id="path150" /><path
     style="fill-rule:evenodd;clip-rule:evenodd;fill:#E1DFE2;"
     d="M363.92,397.392h-19.809c-3.472,0-6.287-2.815-6.287-6.287  v1.795c0,3.472,2.815,6.287,6.287,6.287h19.809c3.472,0,6.287-2.815,6.287-6.287v-1.795  C370.207,394.577,367.392,397.392,363.92,397.392z"
     id="path152" /><path
     style="fill-rule:evenodd;clip-rule:evenodd;fill:#E1DFE2;"
     d="M255.625,434.669h-19.809c-3.472,0-6.287-2.815-6.287-6.287  v1.795c0,3.472,2.815,6.287,6.287,6.287h19.809c3.472,0,6.287-2.815,6.287-6.287v-1.795  C261.912,431.855,259.097,434.669,255.625,434.669z"
     id="path154" /><path
     style="fill:#e1dfe2;fill-rule:evenodd"
     d="m 291.847,434.669 -19.809,0 c -3.472,0 -6.287,-2.815 -6.287,-6.287 l 0,1.795 c 0,3.472 2.815,6.287 6.287,6.287 l 19.809,0 c 5.14863,-0.002 6.287,-3.99363 6.287,-8.082 0,3.473 -2.814,6.287 -6.287,6.287 z"
     id="path156"
     inkscape:connector-curvature="0"
     sodipodi:nodetypes="sscssccs" /><path
     style="fill:#e1dfe2;fill-rule:evenodd"
     d="m 327.698,434.379 -19.809,0 c -3.472,0 -6.287,-2.815 -6.287,-6.287 l 0,1.795 c 0,3.472 2.815,6.287 6.287,6.287 l 19.809,0 c 5.03715,-0.11305 6.287,-3.99363 6.287,-8.082 0,3.472 -2.815,6.287 -6.287,6.287 z"
     id="path158"
     inkscape:connector-curvature="0"
     sodipodi:nodetypes="sscssccs" /><path
     style="fill-rule:evenodd;clip-rule:evenodd;fill:#E1DFE2;"
     d="M363.92,434.379h-19.809c-3.472,0-6.287-2.815-6.287-6.287  v1.795c0,3.472,2.815,6.287,6.287,6.287h19.809c3.472,0,6.287-2.815,6.287-6.287v-1.795  C370.207,431.564,367.392,434.379,363.92,434.379z"
     id="path160" /><path
     style="fill-rule:evenodd;clip-rule:evenodd;fill:#E1DFE2;"
     d="M255.625,470.892h-19.809c-3.472,0-6.287-2.815-6.287-6.287  v1.795c0,3.472,2.815,6.287,6.287,6.287h19.809c3.472,0,6.287-2.815,6.287-6.287v-1.795  C261.912,468.077,259.097,470.892,255.625,470.892z"
     id="path162" /><path
     style="fill-rule:evenodd;clip-rule:evenodd;fill:#E1DFE2;"
     d="M291.847,470.892h-19.809c-3.472,0-6.287-2.815-6.287-6.287  v1.795c0,3.472,2.815,6.287,6.287,6.287h19.809c3.472,0,6.287-2.815,6.287-6.287v-1.795  C298.134,468.077,295.32,470.892,291.847,470.892z"
     id="path164" /><path
     style="fill:#e1dfe2;fill-rule:evenodd"
     d="m 327.698,470.892 -19.809,0 c -3.472,0 -6.287,-2.815 -6.287,-6.287 l 0,1.795 c 0,3.472 2.815,6.287 6.287,6.287 l 19.809,0 c 5.26011,0.10991 6.287,-3.99363 6.287,-8.082 0,3.472 -2.815,6.287 -6.287,6.287 z"
     id="path166"
     inkscape:connector-curvature="0"
     sodipodi:nodetypes="sscssccs" /><path
     style="fill:#e1dfe2;fill-rule:evenodd"
     d="m 363.92,470.892 -19.809,0 c -3.472,0 -6.287,-2.815 -6.287,-6.287 l 0,1.795 c 0,3.472 2.815,6.287 6.287,6.287 l 19.809,0 c 5.37159,0.10991 6.287,-3.99363 6.287,-8.082 0,3.472 -2.815,6.287 -6.287,6.287 z"
     id="path168"
     inkscape:connector-curvature="0"
     sodipodi:nodetypes="sscssccs" /><path
     style="fill:#c02829;fill-rule:evenodd"
     d="m 344.111,441.262 19.809,0 c 3.472,0 6.287,2.815 6.287,6.287 l 0,-1.795 c 0,-3.472 -2.815,-6.287 -6.287,-6.287 l -19.809,0 c -4.47975,0.11305 -6.287,3.99363 -6.287,8.082 0,-3.472 2.815,-6.287 6.287,-6.287 z"
     id="path170"
     inkscape:connector-curvature="0"
     sodipodi:nodetypes="sscssccs" /><path
     style="fill:#c02829;fill-rule:evenodd"
     d="m 307.889,441.262 19.809,0 c 3.472,0 6.287,2.815 6.287,6.287 l 0,-1.795 c 0,-3.472 -2.815,-6.287 -6.287,-6.287 l -19.809,0 c -5.14863,0.11305 -6.287,3.99363 -6.287,8.082 0,-3.472 2.815,-6.287 6.287,-6.287 z"
     id="path172"
     inkscape:connector-curvature="0"
     sodipodi:nodetypes="sscssccs" /><path
     style="fill-rule:evenodd;clip-rule:evenodd;fill:#C02829;"
     d="M272.038,441.364h19.809c3.472,0,6.287,2.815,6.287,6.287  v-1.795c0-3.472-2.815-6.287-6.287-6.287h-19.809c-3.472,0-6.287,2.815-6.287,6.287v1.795  C265.751,444.179,268.566,441.364,272.038,441.364z"
     id="path174" /><path
     style="fill:#c02829;fill-rule:evenodd"
     d="m 235.816,441.364 19.809,0 c 3.472,0 6.287,2.815 6.287,6.287 l 0,-1.795 c 0,-3.472 -2.815,-6.287 -6.287,-6.287 l -19.809,0 c -4.59123,0.11305 -6.287,3.99363 -6.287,8.082 0,-3.472 2.815,-6.287 6.287,-6.287 z"
     id="path176"
     inkscape:connector-curvature="0"
     sodipodi:nodetypes="sscssccs" /><path
     style="fill-rule:evenodd;clip-rule:evenodd;fill:#C02829;"
     d="M344.111,404.086h19.809c3.472,0,6.287,2.815,6.287,6.287  v-1.795c0-3.472-2.815-6.287-6.287-6.287h-19.809c-3.472,0-6.287,2.815-6.287,6.287v1.795  C337.824,406.901,340.639,404.086,344.111,404.086z"
     id="path178" /><path
     style="fill:#c02829;fill-rule:evenodd"
     d="m 307.889,404.086 19.809,0 c 3.472,0 6.287,2.815 6.287,6.287 l 0,-1.795 c 0,-3.472 -2.815,-6.287 -6.287,-6.287 l -19.809,0 c -4.92567,0.002 -6.287,3.99363 -6.287,8.082 0,-3.472 2.815,-6.287 6.287,-6.287 z"
     id="path180"
     inkscape:connector-curvature="0"
     sodipodi:nodetypes="sscssccs" /><path
     style="fill:#c02829;fill-rule:evenodd"
     d="m 272.038,404.377 19.809,0 c 3.472,0 6.287,2.815 6.287,6.287 l 0,-1.795 c 0,-3.472 -2.815,-6.287 -6.287,-6.287 l -19.809,0 c -4.81419,0.22453 -6.287,3.99363 -6.287,8.082 0,-3.472 2.815,-6.287 6.287,-6.287 z"
     id="path182"
     inkscape:connector-curvature="0"
     sodipodi:nodetypes="sscssccs" /><path
     style="fill-rule:evenodd;clip-rule:evenodd;fill:#C02829;"
     d="M235.816,404.377h19.809c3.472,0,6.287,2.815,6.287,6.287  v-1.795c0-3.472-2.815-6.287-6.287-6.287h-19.809c-3.472,0-6.287,2.815-6.287,6.287v1.795  C229.529,407.192,232.344,404.377,235.816,404.377z"
     id="path184" /><path
     style="fill:#c02829;fill-rule:evenodd"
     d="m 344.111,367.864 19.809,0 c 3.472,0 6.287,2.815 6.287,6.287 l 0,-1.795 c 0,-3.472 -2.815,-6.287 -6.287,-6.287 l -19.809,0 c -4.81419,0.002 -6.287,3.99363 -6.287,8.082 0,-3.472 2.815,-6.287 6.287,-6.287 z"
     id="path186"
     inkscape:connector-curvature="0"
     sodipodi:nodetypes="sscssccs" /><path
     style="fill-rule:evenodd;clip-rule:evenodd;fill:#C02829;"
     d="M307.889,367.864h19.809c3.472,0,6.287,2.815,6.287,6.287  v-1.795c0-3.472-2.815-6.287-6.287-6.287h-19.809c-3.472,0-6.287,2.815-6.287,6.287v1.795  C301.602,370.679,304.417,367.864,307.889,367.864z"
     id="path188" /><path
     style="fill:#c02829;fill-rule:evenodd"
     d="m 272.038,367.864 19.809,0 c 3.472,0 6.287,2.815 6.287,6.287 l 0,-1.795 c 0,-3.472 -2.815,-6.287 -6.287,-6.287 l -19.809,0 c -5.37159,0.11305 -6.287,3.99363 -6.287,8.082 0,-3.472 2.815,-6.287 6.287,-6.287 z"
     id="path190"
     inkscape:connector-curvature="0"
     sodipodi:nodetypes="sscssccs" /><path
     style="fill:#c02829;fill-rule:evenodd"
     d="m 235.816,367.864 19.809,0 c 3.472,0 6.287,2.815 6.287,6.287 l 0,-1.795 c 0,-3.472 -2.815,-6.287 -6.287,-6.287 l -19.809,0 c -4.81419,0.22453 -6.287,3.99363 -6.287,8.082 0,-3.472 2.815,-6.287 6.287,-6.287 z"
     id="path192"
     inkscape:connector-curvature="0"
     sodipodi:nodetypes="sscssccs" /></svg>