<?xml version="1.0" encoding="UTF-8" standalone="no"?>
<!-- Created with Inkscape (http://www.inkscape.org/) -->

<svg
   xmlns:dc="http://purl.org/dc/elements/1.1/"
   xmlns:cc="http://creativecommons.org/ns#"
   xmlns:rdf="http://www.w3.org/1999/02/22-rdf-syntax-ns#"
   xmlns:svg="http://www.w3.org/2000/svg"
   xmlns="http://www.w3.org/2000/svg"
   xmlns:sodipodi="http://sodipodi.sourceforge.net/DTD/sodipodi-0.dtd"
   xmlns:inkscape="http://www.inkscape.org/namespaces/inkscape"
   width="531.49603"
   height="531.49603"
   id="svg4411"
   version="1.1"
   inkscape:version="0.47 r22583"
   sodipodi:docname="Новий документ 83">
  <defs
     id="defs4413">
    <inkscape:perspective
       sodipodi:type="inkscape:persp3d"
       inkscape:vp_x="0 : 526.18109 : 1"
       inkscape:vp_y="0 : 1000 : 0"
       inkscape:vp_z="744.09448 : 526.18109 : 1"
       inkscape:persp3d-origin="372.04724 : 350.78739 : 1"
       id="perspective4419" />
    <inkscape:perspective
       id="perspective4397"
       inkscape:persp3d-origin="0.5 : 0.33333333 : 1"
       inkscape:vp_z="1 : 0.5 : 1"
       inkscape:vp_y="0 : 1000 : 0"
       inkscape:vp_x="0 : 0.5 : 1"
       sodipodi:type="inkscape:persp3d" />
  </defs>
  <sodipodi:namedview
     id="base"
     pagecolor="#ffffff"
     bordercolor="#666666"
     borderopacity="1.0"
     inkscape:pageopacity="0.0"
     inkscape:pageshadow="2"
     inkscape:zoom="0.35"
     inkscape:cx="273.4252"
     inkscape:cy="178.42519"
     inkscape:document-units="px"
     inkscape:current-layer="layer1"
     showgrid="false"
     inkscape:window-width="1600"
     inkscape:window-height="1116"
     inkscape:window-x="0"
     inkscape:window-y="24"
     inkscape:window-maximized="1" />
  <metadata
     id="metadata4416">
    <rdf:RDF>
      <cc:Work
         rdf:about="">
        <dc:format>image/svg+xml</dc:format>
        <dc:type
           rdf:resource="http://purl.org/dc/dcmitype/StillImage" />
        <dc:title></dc:title>
      </cc:Work>
    </rdf:RDF>
  </metadata>
  <g
     inkscape:label="Layer 1"
     inkscape:groupmode="layer"
     id="layer1"
     transform="translate(-101.5748,-179.29132)">
    <path
       sodipodi:type="arc"
       style="fill:#ff0000;fill-opacity:1;fill-rule:nonzero;stroke:none;display:inline"
       id="path3874-3-6"
       sodipodi:cx="383.22662"
       sodipodi:cy="388.5657"
       sodipodi:rx="48.739861"
       sodipodi:ry="48.739861"
       d="m 431.96648,388.5657 a 48.739861,48.739861 0 1 1 -97.47972,0 48.739861,48.739861 0 1 1 97.47972,0 z"
       transform="matrix(5.4523757,0,0,5.4523757,-1722.1727,-1673.5668)" />
    <path
       transform="matrix(4.5065554,0,0,4.5065554,-1359.7093,-1306.0543)"
       d="m 431.96648,388.5657 a 48.739861,48.739861 0 1 1 -97.47972,0 48.739861,48.739861 0 1 1 97.47972,0 z"
       sodipodi:ry="48.739861"
       sodipodi:rx="48.739861"
       sodipodi:cy="388.5657"
       sodipodi:cx="383.22662"
       id="path3876-8-7"
       style="fill:#ffffff;fill-opacity:1;fill-rule:nonzero;stroke:none;display:inline"
       sodipodi:type="arc" />
    <g
       id="g4003"
       transform="matrix(-0.21579954,0,0,0.21579954,-421.33202,-740.6104)">
      <rect
         y="5575.8252"
         x="-4539.6255"
         height="240.46559"
         width="1507.8398"
         id="rect3981"
         style="fill:#000000;fill-opacity:1;fill-rule:nonzero;stroke:none" />
      <rect
         y="5571.2905"
         x="-2987.5"
         height="245.00002"
         width="81.785706"
         id="rect3987"
         style="fill:#000000;fill-opacity:1;fill-rule:nonzero;stroke:none" />
      <rect
         y="5570.5767"
         x="-2861.0715"
         height="245.71431"
         width="81.428535"
         id="rect3989"
         style="fill:#000000;fill-opacity:1;fill-rule:nonzero;stroke:none" />
      <path
         sodipodi:nodetypes="ccscccscccssscscc"
         id="path3997"
         d="m -2987.5262,5532.0051 0,-102.3292 c 0,-74.1511 -32.3897,-124.5715 -133.7514,-124.5715 -96.8159,0 -214.6879,0 -214.6879,0 -103.0988,0 -188.9618,-74.1583 -188.9618,-199.0001 -0.5051,-17.9382 4.6594,-46.7778 4.6594,-46.7778 -82.9989,-5.1786 -225.0892,-81.0423 -225.0892,-245.1786 0,-125.0999 97.0828,-240.899 234.6428,-241.0714 l 0.9393,81.4897 c -73.3743,0 -153.0381,56.728 -153.0381,157.4389 0,161.4285 161.6095,168.2142 182.456,168.2142 43.5714,0 76.3916,29.4293 43.5714,80.4282 -21.687,33.6992 0,161.6244 88.2143,161.6244 73.5748,0 198.9158,0 198.9158,0 172.4865,0 244.2985,82.193 244.2985,203.3046 0,47.8858 0,36.047 -0.3572,106.7857 l -81.8119,-0.3571 z"
         style="fill:#000000;fill-opacity:1;stroke:none" />
      <path
         sodipodi:nodetypes="ccscccccscc"
         id="path3999"
         d="m -2860.7143,5533.0765 -0.3571,-155.8579 c 0,-128.6828 -105.2416,-262.0229 -238.6327,-262.0229 -68.5714,0 -126.7232,0 -126.7232,0 -42.021,0 -88.5153,-22.8816 -40.0582,-84.8528 82.2443,-139.7761 3.9118,-296.9848 -161.9722,-296.9848 -0.2526,0 0,-81.3173 0,-81.3173 212.1156,6.1452 328.4367,183.5271 252.5381,378.3021 326.626,-18.1828 396.2767,239.4062 396.2767,358.6042 0,103.0356 0,143.058 0,143.058 l -81.0714,1.0714 z"
         style="fill:#000000;fill-opacity:1;stroke:none" />
    </g>
    <rect
       style="fill:#ff0000;fill-opacity:1;fill-rule:nonzero;stroke:none;display:inline"
       id="rect3880-9-7"
       width="481.32935"
       height="48.132935"
       x="-305.52856"
       y="549.32489"
       ry="6.1082173e-05"
       transform="matrix(0.69479165,-0.71921107,0.71921107,0.69479165,0,0)" />
  </g>
</svg>
