<?xml version="1.0" encoding="UTF-8" standalone="no"?>
<!-- Generator: Adobe Illustrator 18.1.1, SVG Export Plug-In . SVG Version: 6.00 Build 0)  -->

<svg
   xmlns:dc="http://purl.org/dc/elements/1.1/"
   xmlns:cc="http://creativecommons.org/ns#"
   xmlns:rdf="http://www.w3.org/1999/02/22-rdf-syntax-ns#"
   xmlns:svg="http://www.w3.org/2000/svg"
   xmlns="http://www.w3.org/2000/svg"
   xmlns:sodipodi="http://sodipodi.sourceforge.net/DTD/sodipodi-0.dtd"
   xmlns:inkscape="http://www.inkscape.org/namespaces/inkscape"
   version="1.1"
   id="Layer_1"
   x="0px"
   y="0px"
   viewBox="0 0 595.28 841.89"
   style="enable-background:new 0 0 595.28 841.89;"
   xml:space="preserve"
   inkscape:version="0.48.4 r9939"
   width="100%"
   height="100%"
   sodipodi:docname="Twitter.svg"><metadata
     id="metadata50"><rdf:RDF><cc:Work
         rdf:about=""><dc:format>image/svg+xml</dc:format><dc:type
           rdf:resource="http://purl.org/dc/dcmitype/StillImage" /></cc:Work></rdf:RDF></metadata><defs
     id="defs48" /><sodipodi:namedview
     pagecolor="#ffffff"
     bordercolor="#666666"
     borderopacity="1"
     objecttolerance="10"
     gridtolerance="10"
     guidetolerance="10"
     inkscape:pageopacity="0"
     inkscape:pageshadow="2"
     inkscape:window-width="1451"
     inkscape:window-height="1012"
     id="namedview46"
     showgrid="false"
     inkscape:zoom="6.342955"
     inkscape:cx="297.64"
     inkscape:cy="420.945"
     inkscape:window-x="65"
     inkscape:window-y="24"
     inkscape:window-maximized="0"
     inkscape:current-layer="Layer_1" /><g
     id="g3"><linearGradient
       id="SVGID_1_"
       gradientUnits="userSpaceOnUse"
       x1="297.405"
       y1="324.338"
       x2="297.405"
       y2="518.105"><stop
         offset="0"
         style="stop-color:#FFFFFF;stop-opacity:0.7"
         id="stop6" /><stop
         offset="0.9987"
         style="stop-color:#D8D9D8;stop-opacity:0.7"
         id="stop8" /></linearGradient><path
       style="fill-rule:evenodd;clip-rule:evenodd;fill:url(#SVGID_1_);"
       d="M209.185,518.584c-5.031,0-9.124-4.093-9.124-9.124   V333.02c0-5.031,4.093-9.124,9.124-9.124h176.44c5.031,0,9.124,4.093,9.124,9.124v176.44c0,5.031-4.093,9.124-9.124,9.124H209.185z   "
       id="path10" /><path
       style="fill:#D8D8D7;"
       d="M385.625,324.396c4.755,0,8.624,3.868,8.624,8.624V509.46c0,4.755-3.868,8.623-8.624,8.623H209.185   c-4.755,0-8.624-3.868-8.624-8.623V333.02c0-4.755,3.868-8.624,8.624-8.624H385.625 M385.625,323.396H209.185   c-5.315,0-9.624,4.309-9.624,9.624V509.46c0,5.315,4.309,9.623,9.624,9.623h176.441c5.315,0,9.624-4.308,9.624-9.623V333.02   C395.249,327.705,390.94,323.396,385.625,323.396L385.625,323.396z"
       id="path12" /></g><g
     id="g14"><g
       id="g16"><linearGradient
         id="SVGID_2_"
         gradientUnits="userSpaceOnUse"
         x1="297.9631"
         y1="368.3353"
         x2="297.9631"
         y2="470.8508"><stop
           offset="0"
           style="stop-color:#2BB5E4"
           id="stop19" /><stop
           offset="1"
           style="stop-color:#24A1DB"
           id="stop21" /></linearGradient><path
         style="fill-rule:evenodd;clip-rule:evenodd;fill:url(#SVGID_2_);"
         d="M252.573,471.185c-3.361,0-6.096-2.734-6.096-6.096    v-90.781c0-3.361,2.734-6.096,6.096-6.096h90.781c3.361,0,6.096,2.734,6.096,6.096v90.781c0,3.361-2.734,6.096-6.096,6.096    H252.573z"
         id="path23" /></g><g
       id="g25"><path
         style="fill:#179DCB;"
         d="M343.354,368.712c3.085,0,5.596,2.51,5.596,5.596v90.781c0,3.086-2.51,5.596-5.596,5.596h-90.781    c-3.085,0-5.596-2.51-5.596-5.596v-90.781c0-3.086,2.51-5.596,5.596-5.596H343.354 M343.354,367.712h-90.781    c-3.643,0-6.596,2.953-6.596,6.596v90.781c0,3.643,2.953,6.596,6.596,6.596h90.781c3.643,0,6.596-2.953,6.596-6.596v-90.781    C349.95,370.665,346.997,367.712,343.354,367.712L343.354,367.712z"
         id="path27" /></g></g><path
     style="fill:#e1dfe2;fill-rule:evenodd"
     d="m 343.354,471.684 -90.781,0 c -3.643,0 -6.596,-2.953 -6.596,-6.596 -0.17607,4.29805 3.40646,7.66485 6.596,7.75 l 90.781,0 c 5.2008,-1.19574 6.596,-3.54014 6.596,-7.75 -10e-4,3.643 -2.954,6.596 -6.596,6.596 z"
     id="path29"
     inkscape:connector-curvature="0"
     sodipodi:nodetypes="ssccccs" /><path
     style="fill-rule:evenodd;clip-rule:evenodd;fill:#2F7496;"
     d="M252.573,368.866l90.781,0c3.643,0,6.596,2.953,6.596,6.596  v-1.529c0-3.643-2.953-6.221-6.596-6.221l-90.781,0c-3.643,0-6.596,2.578-6.596,6.221v1.529  C245.977,371.819,248.93,368.866,252.573,368.866z"
     id="path31" /><g
     id="g33"><path
       style="fill:#2F7496;"
       d="M339.655,398.388c-3.061,1.357-6.35,2.275-9.803,2.688c3.524-2.112,6.23-5.457,7.504-9.443   c-3.298,1.956-6.95,3.376-10.838,4.142c-3.113-3.317-7.549-5.389-12.458-5.389c-9.426,0-17.068,7.642-17.068,17.067   c0,1.338,0.151,2.64,0.442,3.889c-14.185-0.712-26.761-7.507-35.179-17.833c-1.469,2.521-2.311,5.452-2.311,8.58   c0,5.921,3.013,11.146,7.593,14.206c-2.798-0.089-5.43-0.856-7.731-2.135c-0.002,0.072-0.002,0.143-0.002,0.215   c0,8.269,5.883,15.167,13.691,16.736c-1.432,0.39-2.94,0.599-4.496,0.599c-1.1,0-2.169-0.108-3.211-0.306   c2.172,6.78,8.475,11.715,15.944,11.852c-5.841,4.578-13.2,7.307-21.197,7.307c-1.378,0-2.736-0.081-4.072-0.239   c7.553,4.844,16.525,7.669,26.163,7.669c31.393,0,48.561-26.008,48.561-48.562c0-0.74-0.016-1.476-0.049-2.208   C334.474,404.816,337.367,401.81,339.655,398.388z"
       id="path35" /></g><g
     id="g37"><linearGradient
       id="SVGID_3_"
       gradientUnits="userSpaceOnUse"
       x1="256.4638"
       y1="421.7285"
       x2="339.6553"
       y2="421.7285"><stop
         offset="0"
         style="stop-color:#E2EEF4"
         id="stop40" /><stop
         offset="1"
         style="stop-color:#CDE5F3"
         id="stop42" /></linearGradient><path
       style="fill:url(#SVGID_3_);stroke:#F5FBFD;stroke-width:0.5;stroke-miterlimit:10;"
       d="M339.655,395.928   c-3.061,1.358-6.35,2.275-9.803,2.688c3.524-2.112,6.23-5.457,7.504-9.443c-3.298,1.956-6.95,3.376-10.838,4.142   c-3.113-3.317-7.549-5.389-12.458-5.389c-9.426,0-17.068,7.642-17.068,17.067c0,1.338,0.151,2.64,0.442,3.889   c-14.185-0.712-26.761-7.507-35.179-17.833c-1.469,2.521-2.311,5.452-2.311,8.58c0,5.921,3.013,11.146,7.593,14.206   c-2.798-0.089-5.43-0.856-7.731-2.135c-0.002,0.072-0.002,0.143-0.002,0.215c0,8.269,5.883,15.167,13.691,16.736   c-1.432,0.39-2.94,0.599-4.496,0.599c-1.1,0-2.169-0.108-3.211-0.306c2.172,6.78,8.475,11.715,15.944,11.852   c-5.841,4.578-13.2,7.307-21.197,7.307c-1.378,0-2.736-0.081-4.072-0.239c7.553,4.844,16.525,7.669,26.163,7.669   c31.393,0,48.561-26.008,48.561-48.562c0-0.74-0.016-1.476-0.049-2.208C334.474,402.356,337.367,399.35,339.655,395.928z"
       id="path44" /></g></svg>