<?xml version="1.0" encoding="UTF-8" standalone="no"?>
<!-- Generator: Adobe Illustrator 18.1.1, SVG Export Plug-In . SVG Version: 6.00 Build 0)  -->

<svg
   xmlns:dc="http://purl.org/dc/elements/1.1/"
   xmlns:cc="http://creativecommons.org/ns#"
   xmlns:rdf="http://www.w3.org/1999/02/22-rdf-syntax-ns#"
   xmlns:svg="http://www.w3.org/2000/svg"
   xmlns="http://www.w3.org/2000/svg"
   xmlns:sodipodi="http://sodipodi.sourceforge.net/DTD/sodipodi-0.dtd"
   xmlns:inkscape="http://www.inkscape.org/namespaces/inkscape"
   version="1.1"
   id="Layer_1"
   x="0px"
   y="0px"
   viewBox="0 0 195.689 195.687"
   xml:space="preserve"
   inkscape:version="0.48.4 r9939"
   width="100%"
   height="100%"
   sodipodi:docname="Twitter.svg"><metadata
     id="metadata50"><rdf:RDF><cc:Work
         rdf:about=""><dc:format>image/svg+xml</dc:format><dc:type
           rdf:resource="http://purl.org/dc/dcmitype/StillImage" /></cc:Work></rdf:RDF></metadata><defs
     id="defs48" /><sodipodi:namedview
     pagecolor="#ffffff"
     bordercolor="#666666"
     borderopacity="1"
     objecttolerance="10"
     gridtolerance="10"
     guidetolerance="10"
     inkscape:pageopacity="0"
     inkscape:pageshadow="2"
     inkscape:window-width="1451"
     inkscape:window-height="1012"
     id="namedview46"
     showgrid="false"
     inkscape:zoom="6.342955"
     inkscape:cx="98.078987"
     inkscape:cy="98.138009"
     inkscape:window-x="75"
     inkscape:window-y="34"
     inkscape:window-maximized="0"
     inkscape:current-layer="Layer_1"
     fit-margin-top="0"
     fit-margin-left="0"
     fit-margin-right="0"
     fit-margin-bottom="0" /><g
     id="g3"
     transform="translate(-199.56101,-323.396)"><linearGradient
       id="SVGID_1_"
       gradientUnits="userSpaceOnUse"
       x1="297.405"
       y1="324.33801"
       x2="297.405"
       y2="518.10498"><stop
         offset="0"
         style="stop-color:#FFFFFF;stop-opacity:0.7"
         id="stop6" /><stop
         offset="0.9987"
         style="stop-color:#D8D9D8;stop-opacity:0.7"
         id="stop8" /></linearGradient><path
       style="fill:url(#SVGID_1_);fill-rule:evenodd"
       d="m 209.185,518.584 c -5.031,0 -9.124,-4.093 -9.124,-9.124 V 333.02 c 0,-5.031 4.093,-9.124 9.124,-9.124 h 176.44 c 5.031,0 9.124,4.093 9.124,9.124 v 176.44 c 0,5.031 -4.093,9.124 -9.124,9.124 h -176.44 z"
       id="path10"
       inkscape:connector-curvature="0" /><path
       style="fill:#d8d8d7"
       d="m 385.625,324.396 c 4.755,0 8.624,3.868 8.624,8.624 v 176.44 c 0,4.755 -3.868,8.623 -8.624,8.623 h -176.44 c -4.755,0 -8.624,-3.868 -8.624,-8.623 V 333.02 c 0,-4.755 3.868,-8.624 8.624,-8.624 h 176.44 m 0,-1 h -176.44 c -5.315,0 -9.624,4.309 -9.624,9.624 v 176.44 c 0,5.315 4.309,9.623 9.624,9.623 h 176.441 c 5.315,0 9.624,-4.308 9.624,-9.623 V 333.02 c -10e-4,-5.315 -4.31,-9.624 -9.625,-9.624 l 0,0 z"
       id="path12"
       inkscape:connector-curvature="0" /></g><g
     id="g14"
     transform="translate(-199.56101,-323.396)"><g
       id="g16"><linearGradient
         id="SVGID_2_"
         gradientUnits="userSpaceOnUse"
         x1="297.9631"
         y1="368.3353"
         x2="297.9631"
         y2="470.8508"><stop
           offset="0"
           style="stop-color:#2BB5E4"
           id="stop19" /><stop
           offset="1"
           style="stop-color:#24A1DB"
           id="stop21" /></linearGradient><path
         style="fill:url(#SVGID_2_);fill-rule:evenodd"
         d="m 252.573,471.185 c -3.361,0 -6.096,-2.734 -6.096,-6.096 v -90.781 c 0,-3.361 2.734,-6.096 6.096,-6.096 h 90.781 c 3.361,0 6.096,2.734 6.096,6.096 v 90.781 c 0,3.361 -2.734,6.096 -6.096,6.096 h -90.781 z"
         id="path23"
         inkscape:connector-curvature="0" /></g><g
       id="g25"><path
         style="fill:#179dcb"
         d="m 343.354,368.712 c 3.085,0 5.596,2.51 5.596,5.596 v 90.781 c 0,3.086 -2.51,5.596 -5.596,5.596 h -90.781 c -3.085,0 -5.596,-2.51 -5.596,-5.596 v -90.781 c 0,-3.086 2.51,-5.596 5.596,-5.596 h 90.781 m 0,-1 h -90.781 c -3.643,0 -6.596,2.953 -6.596,6.596 v 90.781 c 0,3.643 2.953,6.596 6.596,6.596 h 90.781 c 3.643,0 6.596,-2.953 6.596,-6.596 v -90.781 c 0,-3.643 -2.953,-6.596 -6.596,-6.596 l 0,0 z"
         id="path27"
         inkscape:connector-curvature="0" /></g></g><path
     style="fill:#e1dfe2;fill-rule:evenodd"
     d="m 143.79299,148.288 -90.780999,0 c -3.643,0 -6.596,-2.953 -6.596,-6.596 -0.17607,4.29805 3.40646,7.66485 6.596,7.75 l 90.780999,0 c 5.2008,-1.19574 6.596,-3.54014 6.596,-7.75 -0.001,3.643 -2.954,6.596 -6.596,6.596 z"
     id="path29"
     inkscape:connector-curvature="0"
     sodipodi:nodetypes="ssccccs" /><path
     style="fill:#2f7496;fill-rule:evenodd"
     d="m 53.011991,45.47 90.780999,0 c 3.643,0 6.596,2.953 6.596,6.596 v -1.529 c 0,-3.643 -2.953,-6.221 -6.596,-6.221 l -90.780999,0 c -3.643,0 -6.596,2.578 -6.596,6.221 v 1.529 c 0,-3.643 2.953,-6.596 6.596,-6.596 z"
     id="path31"
     inkscape:connector-curvature="0" /><g
     id="g33"
     transform="translate(-199.56101,-323.396)"><path
       style="fill:#2f7496"
       d="m 339.655,398.388 c -3.061,1.357 -6.35,2.275 -9.803,2.688 3.524,-2.112 6.23,-5.457 7.504,-9.443 -3.298,1.956 -6.95,3.376 -10.838,4.142 -3.113,-3.317 -7.549,-5.389 -12.458,-5.389 -9.426,0 -17.068,7.642 -17.068,17.067 0,1.338 0.151,2.64 0.442,3.889 -14.185,-0.712 -26.761,-7.507 -35.179,-17.833 -1.469,2.521 -2.311,5.452 -2.311,8.58 0,5.921 3.013,11.146 7.593,14.206 -2.798,-0.089 -5.43,-0.856 -7.731,-2.135 -0.002,0.072 -0.002,0.143 -0.002,0.215 0,8.269 5.883,15.167 13.691,16.736 -1.432,0.39 -2.94,0.599 -4.496,0.599 -1.1,0 -2.169,-0.108 -3.211,-0.306 2.172,6.78 8.475,11.715 15.944,11.852 -5.841,4.578 -13.2,7.307 -21.197,7.307 -1.378,0 -2.736,-0.081 -4.072,-0.239 7.553,4.844 16.525,7.669 26.163,7.669 31.393,0 48.561,-26.008 48.561,-48.562 0,-0.74 -0.016,-1.476 -0.049,-2.208 3.336,-2.407 6.229,-5.413 8.517,-8.835 z"
       id="path35"
       inkscape:connector-curvature="0" /></g><g
     id="g37"
     transform="translate(-199.56101,-323.396)"><linearGradient
       id="SVGID_3_"
       gradientUnits="userSpaceOnUse"
       x1="256.46381"
       y1="421.72849"
       x2="339.6553"
       y2="421.72849"><stop
         offset="0"
         style="stop-color:#E2EEF4"
         id="stop40" /><stop
         offset="1"
         style="stop-color:#CDE5F3"
         id="stop42" /></linearGradient><path
       style="fill:url(#SVGID_3_);stroke:#f5fbfd;stroke-width:0.5;stroke-miterlimit:10"
       d="m 339.655,395.928 c -3.061,1.358 -6.35,2.275 -9.803,2.688 3.524,-2.112 6.23,-5.457 7.504,-9.443 -3.298,1.956 -6.95,3.376 -10.838,4.142 -3.113,-3.317 -7.549,-5.389 -12.458,-5.389 -9.426,0 -17.068,7.642 -17.068,17.067 0,1.338 0.151,2.64 0.442,3.889 -14.185,-0.712 -26.761,-7.507 -35.179,-17.833 -1.469,2.521 -2.311,5.452 -2.311,8.58 0,5.921 3.013,11.146 7.593,14.206 -2.798,-0.089 -5.43,-0.856 -7.731,-2.135 -0.002,0.072 -0.002,0.143 -0.002,0.215 0,8.269 5.883,15.167 13.691,16.736 -1.432,0.39 -2.94,0.599 -4.496,0.599 -1.1,0 -2.169,-0.108 -3.211,-0.306 2.172,6.78 8.475,11.715 15.944,11.852 -5.841,4.578 -13.2,7.307 -21.197,7.307 -1.378,0 -2.736,-0.081 -4.072,-0.239 7.553,4.844 16.525,7.669 26.163,7.669 31.393,0 48.561,-26.008 48.561,-48.562 0,-0.74 -0.016,-1.476 -0.049,-2.208 3.336,-2.407 6.229,-5.413 8.517,-8.835 z"
       id="path44"
       inkscape:connector-curvature="0" /></g></svg>