<?xml version="1.0" encoding="UTF-8" standalone="no"?>
<!-- Generator: Adobe Illustrator 18.1.1, SVG Export Plug-In . SVG Version: 6.00 Build 0)  -->

<svg
   xmlns:dc="http://purl.org/dc/elements/1.1/"
   xmlns:cc="http://creativecommons.org/ns#"
   xmlns:rdf="http://www.w3.org/1999/02/22-rdf-syntax-ns#"
   xmlns:svg="http://www.w3.org/2000/svg"
   xmlns="http://www.w3.org/2000/svg"
   xmlns:sodipodi="http://sodipodi.sourceforge.net/DTD/sodipodi-0.dtd"
   xmlns:inkscape="http://www.inkscape.org/namespaces/inkscape"
   version="1.1"
   id="Layer_1"
   x="0px"
   y="0px"
   viewBox="0 0 595.28 841.89"
   style="enable-background:new 0 0 595.28 841.89;"
   xml:space="preserve"
   inkscape:version="0.48.4 r9939"
   width="100%"
   height="100%"
   sodipodi:docname="World.svg"><metadata
     id="metadata129"><rdf:RDF><cc:Work
         rdf:about=""><dc:format>image/svg+xml</dc:format><dc:type
           rdf:resource="http://purl.org/dc/dcmitype/StillImage" /></cc:Work></rdf:RDF></metadata><defs
     id="defs127" /><sodipodi:namedview
     pagecolor="#ffffff"
     bordercolor="#666666"
     borderopacity="1"
     objecttolerance="10"
     gridtolerance="10"
     guidetolerance="10"
     inkscape:pageopacity="0"
     inkscape:pageshadow="2"
     inkscape:window-width="1199"
     inkscape:window-height="896"
     id="namedview125"
     showgrid="false"
     inkscape:zoom="6.342955"
     inkscape:cx="297.64"
     inkscape:cy="420.945"
     inkscape:window-x="75"
     inkscape:window-y="34"
     inkscape:window-maximized="0"
     inkscape:current-layer="Layer_1" /><g
     id="g3"><linearGradient
       id="SVGID_1_"
       gradientUnits="userSpaceOnUse"
       x1="297.64529"
       y1="324.43469"
       x2="297.64529"
       y2="518.20172"><stop
         offset="0"
         style="stop-color:#FFFFFF;stop-opacity:0.7"
         id="stop6" /><stop
         offset="0.9987"
         style="stop-color:#D8D9D8;stop-opacity:0.7"
         id="stop8" /></linearGradient><path
       style="fill:url(#SVGID_1_);fill-rule:evenodd"
       d="m 209.425,518.681 c -5.031,0 -9.124,-4.093 -9.124,-9.124 v -176.44 c 0,-5.031 4.093,-9.124 9.124,-9.124 h 176.44 c 5.031,0 9.124,4.093 9.124,9.124 v 176.44 c 0,5.031 -4.093,9.124 -9.124,9.124 h -176.44 z"
       id="path10"
       inkscape:connector-curvature="0" /><path
       style="fill:#d8d8d7"
       d="m 385.865,324.493 c 4.755,0 8.623,3.868 8.623,8.624 v 176.441 c 0,4.755 -3.868,8.623 -8.623,8.623 h -176.44 c -4.755,0 -8.623,-3.868 -8.623,-8.623 V 333.116 c 0,-4.755 3.868,-8.624 8.623,-8.624 h 176.44 m 0,-0.999 h -176.44 c -5.315,0 -9.623,4.309 -9.623,9.624 v 176.441 c 0,5.315 4.309,9.623 9.623,9.623 h 176.441 c 5.315,0 9.623,-4.309 9.623,-9.623 V 333.116 c 0,-5.315 -4.309,-9.623 -9.624,-9.623 l 0,0 z"
       id="path12"
       inkscape:connector-curvature="0" /></g><g
     id="g14"><linearGradient
       id="SVGID_2_"
       gradientUnits="userSpaceOnUse"
       x1="295.3441"
       y1="366.5125"
       x2="295.3441"
       y2="477.0532"><stop
         offset="0"
         style="stop-color:#537FAF"
         id="stop17" /><stop
         offset="1"
         style="stop-color:#436997"
         id="stop19" /></linearGradient><path
       style="fill-rule:evenodd;clip-rule:evenodd;fill:url(#SVGID_2_);"
       d="M295.344,365.432c30.647,0,55.492,24.845,55.492,55.492   s-24.845,55.492-55.492,55.492c-30.647,0-55.492-24.845-55.492-55.492S264.697,365.432,295.344,365.432z"
       id="path21" /></g><g
     id="g23"><path
       style="fill:#3d5e86;fill-rule:evenodd"
       d="m 336.697,448.9 c -1.4466,-17.74544 -6.79574,8.99663 -17.693,-19.639 -0.105,-0.613 -0.158,-1.2 -0.187,-1.775 -0.053,0.99 -0.003,2.033 0.187,3.145 8.478,23.495 15.228,8.439 17.693,18.269 z"
       id="path25"
       inkscape:connector-curvature="0"
       sodipodi:nodetypes="ccccc" /><path
       style="fill:#3d5e86;fill-rule:evenodd"
       d="m 322.35931,469.75845 c 11.4669,-11.09759 23.42214,-27.18821 22.63386,-47.49545 -0.009,-0.23982 5.82483,-0.446 5.82183,-0.686 0.33349,21.63904 -14.73709,38.28161 -28.45569,48.18145 z"
       id="path27"
       inkscape:connector-curvature="0"
       sodipodi:nodetypes="cscc" /></g><path
     style="fill-rule:evenodd;clip-rule:evenodd;fill:#3D5E86;"
     d="M342.802,394.325c-0.788,3.617-1.577,7.235-2.365,10.852  c-4.961-1.349-8.753,1.731-13.289,3.095c-0.653-2.785-1.305-5.572-1.958-8.357c-0.113-0.024-0.223-0.043-0.338-0.074  c0.765,3.266,1.531,6.534,2.296,9.801c4.537-1.363,8.328-4.444,13.289-3.095c0.788-3.617,1.577-7.235,2.365-10.852  c0.387-0.052,0.774-0.104,1.161-0.156c-0.238-0.431-0.502-0.844-0.75-1.268C343.076,394.288,342.939,394.306,342.802,394.325z"
     id="path29" /><g
     id="g31"><path
       style="fill-rule:evenodd;clip-rule:evenodd;fill:#3D5E86;"
       d="M329.068,380.749c-0.243-1.017-0.486-2.033-0.729-3.05   c-0.135-0.1-0.264-0.207-0.4-0.306c0.303,1.267,0.606,2.535,0.909,3.802C328.92,381.047,328.994,380.898,329.068,380.749z"
       id="path33" /><path
       style="fill-rule:evenodd;clip-rule:evenodd;fill:#3D5E86;"
       d="M327.22,389.512c-0.489-0.227-0.978-0.455-1.468-0.682   c-0.183,0.371-0.367,0.742-0.55,1.114c0.673,0.313,1.345,0.625,2.018,0.938c3.634-0.915,5.053-5.373,4.871-9.558   C331.936,385.065,330.458,388.696,327.22,389.512z"
       id="path35" /></g><path
     style="fill-rule:evenodd;clip-rule:evenodd;fill:#3D5E86;"
     d="M323.106,385.471c-0.543-0.236-1.087-0.471-1.63-0.707  c-0.179,0.379-0.358,0.758-0.537,1.136c0.722,0.313,1.445,0.627,2.167,0.94c0.365-1.137,0.73-2.275,1.095-3.413  c-0.129-0.055-0.257-0.111-0.386-0.166C323.579,383.998,323.342,384.735,323.106,385.471z"
     id="path37" /><g
     id="g39"><path
       style="fill-rule:evenodd;clip-rule:evenodd;fill:#3D5E86;"
       d="M272.087,393.816c0.93-5.339,1.861-10.68,2.792-16.019   c-0.025-0.167-0.072-0.388-0.129-0.63c-0.93,5.334-1.859,10.669-2.789,16.003C271.998,393.387,272.046,393.601,272.087,393.816z"
       id="path41" /><path
       style="fill-rule:evenodd;clip-rule:evenodd;fill:#3D5E86;"
       d="M260.998,417.547c0,0.424,0.044,0.842,0.117,1.256   c0.455-0.442,0.911-0.885,1.366-1.327c1.956,0,13.993,0.484,15.897,1.198c0-0.465-0.021-0.926-0.05-1.385   c-2.041-0.705-13.906-1.182-15.847-1.182C261.986,416.586,261.492,417.067,260.998,417.547z"
       id="path43" /><path
       style="fill-rule:evenodd;clip-rule:evenodd;fill:#3D5E86;"
       d="M271.142,443.257c-0.062,0.322-0.109,0.664-0.134,1.038   c5.203,13.429,12.196,14.9,12.423,28.805C283.65,458.033,276.498,456.794,271.142,443.257z"
       id="path45" /><path
       style="fill-rule:evenodd;clip-rule:evenodd;fill:#3D5E86;"
       d="M276.572,434.507c-0.064-0.093-8.841-3.054-12.462-5.359   c-7.139-4.544-14.035-13.956-20.542-26.81c-0.1,0.258-0.211,0.51-0.306,0.77c6.597,13.166,13.598,22.794,20.849,27.409   c3.571,2.273,12.138,5.178,12.438,5.348C276.685,435.501,276.718,435.07,276.572,434.507z"
       id="path49" /></g><g
     id="g51"
     transform="translate(-17.527034,0.94593134)"><linearGradient
       id="SVGID_3_"
       gradientUnits="userSpaceOnUse"
       x1="334.81161"
       y1="368.34589"
       x2="334.81161"
       y2="475.01251"
       gradientTransform="translate(17.527034,-0.89641334)"><stop
         offset="0"
         style="stop-color:#D1DBE8"
         id="stop54" /><stop
         offset="1"
         style="stop-color:#C4CDDC"
         id="stop56" /></linearGradient><path
       style="fill:url(#SVGID_3_);fill-rule:evenodd"
       d="m 368.20538,422.0761 c 0,-4.224 -0.33035,-10.38051 -1.22335,-14.33451 -9.023,1.521 -33.199,4.524 -30.451,20.622 8.53,23.641 15.312,8.248 17.739,18.45 0.38,4.725 -6.01,12.864 -10.126,19.052 14.62,-9.993 24.06135,-24.74349 24.06135,-43.78949 z"
       id="path58"
       inkscape:connector-curvature="0"
       sodipodi:nodetypes="sccccs" /></g><g
     id="g60"><linearGradient
       id="SVGID_4_"
       gradientUnits="userSpaceOnUse"
       x1="334.4075"
       y1="368.3459"
       x2="334.4075"
       y2="475.0125"><stop
         offset="0"
         style="stop-color:#D1DBE8"
         id="stop63" /><stop
         offset="1"
         style="stop-color:#C4CDDC"
         id="stop65" /></linearGradient><path
       style="fill-rule:evenodd;clip-rule:evenodd;fill:url(#SVGID_4_);"
       d="M340.438,405.177c0.788-3.617,1.577-7.235,2.365-10.852   c0.387-0.052,0.774-0.104,1.161-0.156c-2.168-3.931-4.798-7.569-7.818-10.845c-1.648,5.677-4.173,17.083-11.293,15.147   c0.765,3.266,1.531,6.534,2.296,9.801C331.685,406.908,335.476,403.828,340.438,405.177z"
       id="path67" /></g><g
     id="g69"><linearGradient
       id="SVGID_5_"
       gradientUnits="userSpaceOnUse"
       x1="328.6562"
       y1="368.3459"
       x2="328.6562"
       y2="475.0125"><stop
         offset="0"
         style="stop-color:#D1DBE8"
         id="stop72" /><stop
         offset="1"
         style="stop-color:#C4CDDC"
         id="stop74" /></linearGradient><path
       style="fill-rule:evenodd;clip-rule:evenodd;fill:url(#SVGID_5_);"
       d="M329.068,380.749c-1.288,2.608-2.577,5.217-3.865,7.824   c0.673,0.313,1.345,0.625,2.018,0.938c3.816-0.96,5.194-5.829,4.836-10.184c-1.319-1.165-2.692-2.267-4.118-3.304   C328.315,377.599,328.691,379.174,329.068,380.749z"
       id="path76" /></g><linearGradient
     id="SVGID_6_"
     gradientUnits="userSpaceOnUse"
     x1="322.5696"
     y1="368.3459"
     x2="322.5696"
     y2="475.0125"><stop
       offset="0"
       style="stop-color:#D1DBE8"
       id="stop79" /><stop
       offset="1"
       style="stop-color:#C4CDDC"
       id="stop81" /></linearGradient><path
     style="fill-rule:evenodd;clip-rule:evenodd;fill:url(#SVGID_6_);"
     d="M322.356,381.533c-0.472,1-0.945,1.999-1.417,2.999  c0.722,0.313,1.445,0.627,2.168,0.94c0.365-1.137,0.73-2.275,1.095-3.413c-0.603-0.26-1.206-0.52-1.809-0.78  C322.38,381.363,322.368,381.448,322.356,381.533z"
     id="path83" /><g
     id="g85"><linearGradient
       id="SVGID_7_"
       gradientUnits="userSpaceOnUse"
       x1="272.8375"
       y1="368.6974"
       x2="272.8375"
       y2="474.7517"><stop
         offset="0"
         style="stop-color:#D1DBE8"
         id="stop88" /><stop
         offset="1"
         style="stop-color:#C4CDDC"
         id="stop90" /></linearGradient><path
       style="fill-rule:evenodd;clip-rule:evenodd;fill:url(#SVGID_7_);"
       d="M289.565,475.865c-1.934-0.202-3.929-0.524-5.938-0.96   c0.533-10.776-2.327-14.988-5.941-20.313c-2.057-3.029-4.387-6.462-6.424-11.704c0.232-3.271,1.997-4.275,3.555-5.163   c1.275-0.727,2.479-1.413,1.998-3.28c-0.096-0.164-0.096-0.164-1.222-0.578c-2.546-0.935-8.511-3.123-11.348-4.93   c-6.877-4.377-13.845-13.534-20.711-27.213c5.141-13.864,15.829-25.245,29.361-31.274c0.786,2.477,1.591,5.021,1.737,6.015   l-1.458,8.292l-1.458,8.372c0.583,3.561,1.838,6.961,3.052,10.25c1.614,4.371,3.281,8.887,3.357,13.59   c-2.776-0.693-14.013-1.111-15.644-1.111h-0.102l-1.631,1.585v0.105c0,6.491,8.881,11.957,14.996,12.867   c0.383,0.058,0.781,0.086,1.182,0.086c1.528,0,3.001-0.416,4.425-0.817c1.436-0.405,2.92-0.824,4.474-0.824   c0.413,0,0.824,0.03,1.22,0.089c13.326,1.986,15.562,6.703,15.026,14.712c-2.567,9.616-8.209,22.441-11.942,30.928L289.565,475.865   z"
       id="path92" /><path
       style="fill:#F5FBFD;"
       d="M272.741,370.792c0.736,2.319,1.466,4.644,1.632,5.632l-2.904,16.661l-0.015,0.084l0.014,0.084   c0.587,3.499,1.847,6.911,3.065,10.21c1.57,4.253,3.191,8.644,3.335,13.193c-3.276-0.657-13.81-1.05-15.387-1.05h-0.203   l-0.146,0.141l-0.837,0.813l-0.646,0.627l-0.152,0.147v0.211c0,4.531,5.786,11.712,15.208,13.115   c0.395,0.059,0.806,0.089,1.22,0.089c1.563,0,3.053-0.42,4.493-0.827c1.419-0.4,2.886-0.814,4.405-0.814   c0.401,0,0.799,0.029,1.183,0.086c6.37,0.949,10.356,2.524,12.543,4.956c1.889,2.101,2.57,4.926,2.274,9.443   c-2.575,9.637-8.198,22.421-11.921,30.884l-0.492,1.119c-1.796-0.194-3.65-0.493-5.523-0.892   c0.49-10.702-2.377-14.926-5.995-20.255c-2.042-3.008-4.355-6.415-6.378-11.602c0.24-3.093,1.931-4.057,3.425-4.908   c1.301-0.741,2.646-1.507,2.116-3.56l-0.022-0.087l-0.051-0.074c-0.104-0.149-0.104-0.149-1.306-0.59   c-2.321-0.852-8.485-3.114-11.299-4.905c-6.822-4.343-13.743-13.431-20.573-27.018C248.905,388.04,259.422,376.808,272.741,370.792    M273.048,370.107c-13.74,6.037-24.57,17.472-29.787,31.631c6.597,13.166,13.598,22.794,20.849,27.409   c3.621,2.305,12.398,5.266,12.462,5.359c0.955,3.699-5.15,2.093-5.564,8.419c5.597,14.445,13.27,15.045,12.359,32.179   c2.078,0.457,4.195,0.811,6.354,1.028c3.832-8.726,9.872-22.225,12.598-32.457c0.557-8.315-1.871-12.984-15.239-14.975   c-0.427-0.064-0.846-0.092-1.257-0.092c-3.144,0-5.88,1.641-8.898,1.641c-0.377,0-0.759-0.026-1.146-0.083   c-6.077-0.905-14.782-6.232-14.782-12.62c0.494-0.48,0.989-0.96,1.483-1.44c1.956,0,13.993,0.484,15.897,1.198   c0-8.417-5.042-15.941-6.416-24.133c0.972-5.58,1.945-11.162,2.918-16.743C274.725,375.378,273.878,372.724,273.048,370.107   L273.048,370.107z"
       id="path94" /></g><g
     id="g96"><linearGradient
       id="SVGID_8_"
       gradientUnits="userSpaceOnUse"
       x1="272.8264"
       y1="368.3375"
       x2="272.8264"
       y2="475.5107"><stop
         offset="0"
         style="stop-color:#D1DBE8"
         id="stop99" /><stop
         offset="1"
         style="stop-color:#C4CDDC"
         id="stop101" /></linearGradient><path
       style="fill:url(#SVGID_8_);fill-rule:evenodd"
       d="m 287.081,428.701 c -4.097,-0.61 -7.409,2.046 -11.301,1.466 -6.077,-0.905 -14.782,-6.232 -14.782,-12.62 0.494,-0.48 0.989,-0.96 1.483,-1.44 1.956,0 13.993,0.484 15.897,1.198 0,-8.417 -5.042,-15.941 -6.416,-24.133 0.972,-5.58 1.945,-11.162 2.918,-16.743 -0.154,-1.05 -1.001,-3.704 -1.831,-6.321 -13.74,6.037 -24.57,17.472 -29.787,31.631 6.597,13.166 13.598,22.794 20.849,27.409 3.621,2.305 12.398,5.266 12.462,5.359 0.955,3.699 -5.15,2.093 -5.564,8.419 5.597,14.445 13.187,15.646 12.276,32.78 2.078,0.457 4.047,0.713 6.206,0.93 2.76103,-10.7429 8.89487,-23.77947 12.829,-32.96 0.556,-8.315 -1.871,-12.984 -15.239,-14.975 z"
       id="path103"
       inkscape:connector-curvature="0"
       sodipodi:nodetypes="cccccccccccccccc" /></g><path
     style="fill-rule:evenodd;clip-rule:evenodd;fill:none;stroke:#436997;stroke-miterlimit:10;"
     d="M343.732,394.74  c-2.151-3.9-5.028-7.893-8.025-11.143"
     id="path105" /><path
     style="fill-rule:evenodd;clip-rule:evenodd;fill:none;stroke:#436997;stroke-miterlimit:10;"
     d="M332.581,380.463  c-1.308-1.156-3.383-3.07-4.992-4.109"
     id="path107" /><path
     style="fill-rule:evenodd;clip-rule:evenodd;fill:none;stroke:#436997;stroke-miterlimit:10;"
     d="M273.235,370.483  c-14.161,6.084-24.626,17.909-29.827,32.251"
     id="path109" /><g
     id="g111"><path
       style="fill:#e1dfe2;fill-rule:evenodd"
       d="m 295.344,476.415 c -30.44,0 -55.144,-24.514 -55.476,-54.876 -0.002,0.206 -0.016,0.409 -0.016,0.616 0,30.647 24.844,55.492 55.492,55.492 30.647,0 57.06855,-24.52869 55.492,-55.492 -0.0105,-0.2067 -0.013,-0.41 -0.016,-0.616 -0.48966,30.20434 -25.035,54.876 -55.476,54.876 z"
       id="path113"
       inkscape:connector-curvature="0"
       sodipodi:nodetypes="scssscs" /></g><path
     style="fill-rule:evenodd;clip-rule:evenodd;fill:none;stroke:#436997;stroke-miterlimit:10;"
     d="M290.07,475.706"
     id="path115" /><path
     style="fill-rule:evenodd;clip-rule:evenodd;fill:none;stroke:#436997;stroke-miterlimit:10;"
     d="M283.284,474.592"
     id="path117" /><g
     id="g121"><path
       style="fill:#37577e;fill-rule:evenodd"
       d="m 295.344,366.659 c 30.441,0 54.98834,24.98797 55.476,54.878 0.002,-0.205 0.0107,-0.40807 0.016,-0.614 0.78828,-30.647 -24.845,-55.492 -55.492,-55.492 -30.647,0 -55.492,24.845 -55.492,55.492 0,0.206 0.013,0.408 0.016,0.614 0.331,-30.363 25.035,-54.878 55.476,-54.878 z"
       id="path123"
       inkscape:connector-curvature="0"
       sodipodi:nodetypes="scssscs" /></g></svg>