<?xml version="1.0" encoding="utf-8"?>
<!-- Generator: Adobe Illustrator 14.0.0, SVG Export Plug-In . SVG Version: 6.00 Build 43363)  -->
<!DOCTYPE svg PUBLIC "-//W3C//DTD SVG 1.1//EN" "http://www.w3.org/Graphics/SVG/1.1/DTD/svg11.dtd">
<svg version="1.1" id="Layer_1" xmlns="http://www.w3.org/2000/svg" xmlns:xlink="http://www.w3.org/1999/xlink" x="0px" y="0px"
	 width="612px" height="792px" viewBox="0 0 612 792" enable-background="new 0 0 612 792" xml:space="preserve">
<g>
	<polygon fill-rule="evenodd" clip-rule="evenodd" fill="#FFFFFF" points="209,300 401.756,300 401.756,492.756 209,492.756 
		209,300 	"/>
	<path fill-rule="evenodd" clip-rule="evenodd" fill="#FFD400" d="M314.688,364.884c-5.739-3.131-11.957-5.22-18.36-6.457
		c-6.448-1.245-12.813-0.518-19.241,0.654c-4.495,0.82-2.792,6.816,0.987,7.292c1.098,0.138,2.18,0.338,3.251,0.583
		c-0.292,0.525-0.534,1.114-0.706,1.779c-1.921,7.392-0.618,15.174-2.898,22.453c-1.752,5.588-8.134,10.369-12.681,13.629
		c-6.564,4.707-1.04,13.978,6.27,10.725c0.754-0.335,1.503-0.717,2.247-1.124c-0.225,0.473-0.47,0.984-0.746,1.558
		c-1.597,3.316-1.46,7.084,1.266,9.811c3.117,3.116,8.333,3.122,11.449,0c0.867-0.869,1.702-1.77,2.516-2.688
		c-0.299,1.6-0.583,3.2-0.842,4.8c-0.594,3.675,0.339,7.224,3.754,9.224c2.26,1.324,5.516,1.501,7.954,0.254
		c0.407,2.102,1.342,4.21,2.946,5.486c4.381,3.484,9.073,3.232,13.973,0.965c3.071-1.421,5.757-4.198,8.006-6.678
		c1.157-1.276,2.203-2.652,3.249-4.02c-1.236,1.615,0.837-0.841,0.901-0.921c1.058-1.301,2.061-2.655,3.011-4.038
		c5.052-7.347,7.552-17.05,7.412-25.896C338.151,386.153,328.589,372.468,314.688,364.884L314.688,364.884z"/>
	<path fill-rule="evenodd" clip-rule="evenodd" fill="#A7D16F" d="M276.177,369.671c-2.386-5.85-6.5-9.701-10.661-12.623
		c-2.158-1.515-4.594-1.217-6.496,0.035c-1.306-0.37-2.762-0.327-4.11,0.291c-3.375,1.546-6.997,3.529-10.179,6.005
		c0.018-2.145-2.205-3.769-4.474-2.657c-8.906,4.363-14.291,12.184-15.135,22.112c-0.642,7.545,1.972,17.668,10.957,18.263
		c1.999,0.133,3.507-0.624,4.663-1.897c0.237,1.802,1.252,3.42,3.048,4.689c0.907,0.642,1.847,1.14,2.829,1.657
		c1.91,1.007,3.833,0.972,5.416,0.271c1.1,0.878,2.531,1.429,4.263,1.462c13.152,0.256,20.708-10.132,22.207-22.173
		C279.145,379.939,278.13,374.459,276.177,369.671L276.177,369.671z"/>
	<path fill-rule="evenodd" clip-rule="evenodd" fill="#97BF65" d="M273.432,377.561c2.323-2.626,0.733-7.198-2.322-8.838
		c0.027-0.017,0.055-0.033,0.082-0.049c3.524-2.172,2.735-7.293-1.116-8.536c-3.66-1.18-7.402-1.021-10.995-0.022
		c-0.754-0.582-1.778-0.813-2.72-0.261c-4.125,2.42-8.16,5.082-11.457,8.575c-2.434,2.58-0.806,5.658,1.717,6.426
		c-1.583,2.828,0.426,6.487,3.282,7.589c0.015,1.783,0.904,3.441,2.337,4.507c-1.833,3.063,0.123,6.582,3.181,7.968
		c0.478,1.224,1.378,2.313,2.614,3.068c1.615,3.269,6.824,3.938,9.465,0.363c0.71-0.962,1.154-2.029,1.541-3.159
		c0.167-0.489,0.242-0.98,0.25-1.466c1.55-1.827,1.844-4.27,1.074-6.293c0.898-0.679,1.773-1.389,2.594-2.168
		C275.082,383.252,275.163,379.809,273.432,377.561L273.432,377.561z"/>
	<path fill-rule="evenodd" clip-rule="evenodd" fill="#ECBC09" d="M278.817,364.507c7.709,3.22,15.829,5.385,23.398,8.963
		c7.892,3.731,14.074,8.692,17.905,16.258c1.681,3.319,2.092,6.567,2.194,10.495c0.116,4.418-0.598,6.871-2.098,11.81
		c-1.154,3.8-2.856,6.96-5.647,10.936c-2.478,3.528-3.061,8.046-5.928,11.179c-2.706,2.955-0.108,8.999,4.251,7.304
		c5.158-2.007,10.84-2.915,14.701-7.283c4.078-4.614,6.854-10.037,9.196-15.676c4.476-10.77,3.613-23.163-1.303-33.564
		c-4.621-9.774-14.031-16.396-23.334-21.259c-9.388-4.909-19.913-8.318-30.377-9.898
		C274.613,352.689,272.189,361.739,278.817,364.507L278.817,364.507z"/>
	<path fill-rule="evenodd" clip-rule="evenodd" fill="#A7D16F" d="M287.556,349.88c-3.502-3.519-6.515-6.392-11.148-8.4
		c-4.907-2.127-10.046-3.612-14.989-5.647c-8.357-3.44-17.76-9.928-27.325-11.642c-5.004-0.896-10.042,1.283-11.482,6.52
		c-1.396,5.078,1.686,9.908,6.52,11.483c4.624,1.506,7.503,2.625,11.872,4.808c5.046,2.519,10.104,5.012,15.448,6.85
		c5.173,1.78,9.937,3.69,15.436,4.321c5.653,0.648,10.08-0.836,15.033-3.357C288.745,353.886,288.922,351.252,287.556,349.88
		L287.556,349.88z"/>
	<path fill-rule="evenodd" clip-rule="evenodd" fill="#A7D16F" d="M377.984,335.376c-4.507,0.403-9.344,1.289-13.654,2.667
		c-5.46,1.745-10.83,3.747-16.306,5.447c-4.504,1.397-9.047,2.664-13.567,4.008c-4.807,1.429-11.935,2.901-15.26,6.79
		c-0.162,0.189-0.311,0.382-0.452,0.574c-2.631-0.212-5.232-0.063-7.662,0.825c-1.593,0.582-2.571,2.775-1.077,4.08
		c2.487,2.174,6.01,3.862,8.996,5.278c3.315,1.573,6.91,2.489,10.491,3.228c8.184,1.688,16.404,0.83,24.485-0.994
		c7.663-1.73,15.364-4.782,21.914-9.139c5.041-3.353,11.404-8.292,12.229-14.687C388.856,337.761,382.662,334.958,377.984,335.376
		L377.984,335.376z"/>
	<path fill-rule="evenodd" clip-rule="evenodd" fill="#97BF65" d="M307.077,359.905c8.871,2.72,17.844,1.056,26.609-1.291
		c8.044-2.153,16.077-4.878,23.862-7.83c4.885-1.853,9.75-3.736,14.877-4.813c1.552-0.325,4.482-0.459,5.31-0.295
		c0.177,0.035,1.8,0.672,0.659,0.136c0.443,0.209,2.926,1.243,1.477,0.624c1.085,0.464,0.54,0.12,1.192,1.361
		c2.116,4.027,8.563,2.145,8.47-2.293c-0.361-17.058-21.26-11.468-31.302-7.747c-7.281,2.698-14.421,5.757-21.666,8.545
		c-9.574,3.686-19.54,6.141-29.488,8.558C304.476,355.49,304.681,359.17,307.077,359.905L307.077,359.905z"/>
	<path fill-rule="evenodd" clip-rule="evenodd" d="M273.557,407.989c7.099-2.962,15.108-6.771,18.762-13.994
		c2.054-4.06-4.075-9.068-5.526-4.312c-1.022,3.352-3.364,6.126-5.648,8.713c-2.591,2.936-5.291,5.792-8.175,8.44
		C272.56,407.213,272.962,408.237,273.557,407.989L273.557,407.989z"/>
	<path fill-rule="evenodd" clip-rule="evenodd" d="M297.081,396.576c2.453,6.178,5.774,12.217,9,18.021
		c3.536,6.365,8.885,11.208,14.224,16.044c0.896,0.813,5.948,1.88,3.976-0.008c-5.289-5.059-10.346-9.988-13.945-16.442
		c-2.92-5.233-5.025-11.185-8.369-16.148C301.341,397.117,296.915,396.159,297.081,396.576L297.081,396.576z"/>
	<path fill-rule="evenodd" clip-rule="evenodd" d="M393.222,340.12c-0.361-4.895-4.675-7.259-8.978-8.192
		c-4.433-0.961-9.29-0.371-13.694,0.466c-7.729,1.468-15.104,4.074-22.364,7.057c-16.692,6.856-34.221,14.487-52.465,15.515
		c-6.54-1.14-13.137-1.444-19.427-0.773c-2.15,0.229-2.901,4.047-0.516,3.783c15.892-1.756,32.561,3.082,46.213,11.104
		c5.036,2.959,10.189,6.669,13.274,11.737c1.764,2.898,2.17,6.821,2.594,10.099c0.62,4.801,0.514,9.705-0.042,14.503
		c-0.459,3.966-1.323,7.787-2.539,11.487c-1.436-1.105-2.833-2.276-4.189-3.528c-1.035-0.954-5.151,1.427-5.056,1.522
		c2.357,2.381,4.92,4.485,7.635,6.356c-0.386,0.933-0.795,1.856-1.225,2.774c-6.928-5.506-12.869-12.087-16.908-20.524
		c-0.56-1.169-5.211-1.767-4.967-1.173c4.312,10.486,11.785,18.145,20.538,24.397c-0.604,1.154-1.234,2.3-1.903,3.432
		c-3.527,5.976-7.403,10.146-14.141,12.318c-15.859,5.115-28.347-8.543-39.06-18.24c-4.397-3.98-11.211-9.43-12.856-15.664
		c4.011-1.689,7.77-4.429,10.818-7.752c1.478-1.61-0.132-4.625-2.047-2.761c-4.474,4.356-9.47,8.163-15.923,8.537
		c-4.615,0.268-8.959-1.988-12.094-5.237c-7.839-8.119-6.326-19.308-2.231-28.811c1.349-0.01,2.696,0.026,4.035,0.13
		c2.163,0.169,4.291,0.802,6.305,1.571c1.815,0.692,3.13,2.08,5.162,1.833c2.438-0.296,2.337-3.039,1.438-4.717
		c-2.206-4.115-8.609-4.659-12.794-4.497c-0.365,0.014-0.723,0.055-1.082,0.086c4.345-6.321,10.951-10.65,19.227-8.969
		c5.25,1.067,9.393,6.373,11.819,10.786c3.203,5.823,2.413,14.203,1.769,20.539c-0.117,1.155,0.323,1.376,0.844,0.252
		c5.729-12.367,1.283-29.246-11.695-34.975c-2.684-1.185-5.772-1.348-8.771-0.867c-0.146-0.082-0.323-0.164-0.541-0.244
		c-9.276-3.45-19.081-6.122-27.151-12.091c-3.849-2.846-6.899-6.778-7.498-11.624c-0.454-3.658,2.16-4.406,5.227-4.233
		c4.556,0.256,9.164,2.069,13.384,3.662c4.735,1.787,9.351,3.882,13.94,6.009c10.533,4.88,20.695,10.512,31.223,15.384
		c0.819,0.379,5.674,0.643,3.418-0.685c-11.738-6.911-23.588-13.638-35.974-19.328c-5.401-2.481-10.878-4.845-16.535-6.683
		c-4.524-1.47-9.575-2.883-14.358-1.985c-3.773,0.708-5.604,3.531-5.558,7.209c0.063,5.104,3.546,9.772,7.163,13.028
		c7.98,7.183,19.509,11.335,30.242,12.283c-1.51,0.461-2.952,1.061-4.249,1.756c-0.981,0.527-1.906,1.14-2.78,1.824
		c-13.026-1.495-23.515,12.31-25.024,24.171c-0.667,5.245-0.225,10.794,1.992,15.632c2.558,5.583,9.177,8.548,15.127,7.166
		c0.404-0.095,0.834-0.397,1.218-0.8c0.021,0.024,0.041,0.05,0.063,0.073c5.535,6.143,12.579,7.228,19.216,5.281
		c-0.047,0.147-0.072,0.286-0.061,0.408c0.454,4.865,4.797,9.062,8.003,12.398c4.474,4.656,9.463,8.8,14.381,12.971
		c5.431,4.604,10.525,9.036,17.43,11.071c-0.085,0.212-0.073,0.441,0.096,0.689c2.062,3.011,4.009,6.137,6.387,8.911
		c2.458,2.869,5.563,4.644,8.868,6.358c7.253,3.767,14.583,7.499,22.711,8.778c0.786,0.124,5.151-0.729,4.065-1.037
		c-7.41-2.099-14.651-5.665-21.507-9.136c-3.673-1.858-6.98-3.654-9.691-6.838c-1.801-2.114-3.246-4.512-4.823-6.801
		c1.734,0.019,3.48-0.155,5.202-0.49c5.259,6.228,13.387,10.354,20.707,13.456c8.43,3.572,17.403,5.855,26.189,8.361
		c2.171,0.619,2.377-0.105,0.327-0.964c-7.016-2.938-14.318-5.086-21.373-7.921c-4.307-1.73-8.426-3.753-12.295-6.33
		c-3.404-2.268-6.105-5.173-9.112-7.83c2.03-0.732,3.973-1.666,5.75-2.756c5.347-3.277,8.553-9.078,11.581-14.353
		c0.031-0.054,0.061-0.109,0.091-0.163c6.953,4.671,14.577,8.569,22.001,12.352c1.024,0.522,2.389,1.066,3.56,0.717
		c1.12-0.334,0.08-1.353-0.481-1.639c-8.186-4.17-16.42-8.543-23.727-13.951c0.485-0.967,0.941-1.946,1.371-2.938
		c4.198,2.597,8.713,4.688,13.396,6.384c8.781,3.18,17.723,6.846,27.22,6.695c1.732-0.027,5.414-2.73,1.978-2.678
		c-8.706,0.132-17.135-3.519-25.171-6.457c-5.673-2.075-10.948-4.719-15.807-8.094c1.525-4.384,2.563-8.939,3.188-13.546
		c1.084-8.009,0.845-16.605-1.594-24.361c-1.491-4.741-5.881-8.46-9.685-11.353c-7.309-5.557-16.187-9.875-25.516-12.547
		c4.188-0.363,8.338-1.325,12.606-2.591c7.558-2.241,15.144-4.565,22.472-7.468c12.289-4.87,24.754-11.462,38.193-12.315
		c3.88-0.246,8.604-0.012,10.235,4.144c2.461,6.267-4.434,12.457-8.764,15.769c-5.674,4.341-12.23,7.708-18.903,10.193
		c-7.167,2.67-14.737,3.872-22.172,5.531c-3.148,0.703,0.399,2.454,2.007,2.271c15.298-1.738,30.318-6.37,42.773-15.677
		C387.852,352.819,393.748,347.27,393.222,340.12L393.222,340.12z M228.464,395.042c-2.122-3.842-2.303-8.734-2.035-13.009
		c0.583-9.278,7.699-20.038,17.518-20.108c-1.509,1.862-2.8,3.918-3.905,6.004c-2.542,0.843-4.905,2.163-7.012,3.944
		c-0.411,0.347-0.099,1.336,0.484,1.263c1.426-0.179,2.866-0.326,4.31-0.429c-3.729,9.271-4.547,19.513,0.758,27.996
		C234.309,400.542,230.817,399.303,228.464,395.042L228.464,395.042z"/>
</g>
</svg>
